<?xml version="1.0" encoding="UTF-8"?><svg id="Layer_2" xmlns="http://www.w3.org/2000/svg" viewBox="0 0 435.17786 231.60986"><defs><style>.cls-1{fill:#2da2dc;}.cls-2{fill:#231f20;}</style></defs><g id="Layer_1-2"><g><rect x="103.49845" y="7.36601" width="25.54694" height="120.5915"/><polygon points="197.08766 152.26663 171.54035 152.26663 103.49845 7.36601 129.04538 7.36601 197.08766 152.26663"/><path d="M239.58262,7.36601V152.35544c0,29.93468-24.7446,54.20147-55.26826,54.20147h0c-30.52402,0-55.26826-24.26679-55.26826-54.20147v-.08986h-25.54729v.08812c0,43.77188,36.18209,79.25615,80.81555,79.25615h0c44.63313,0,80.81555-35.48427,80.81555-79.25615V7.36601h-25.54729Z"/><polygon points="171.54035 152.26663 197.08766 152.26663 265.12991 7.36601 239.58262 7.36601 171.54035 152.26663"/></g><g><path d="M287.46703,125.7933c2.94647,.00671,5.89258,.04077,8.83862,.08002h6.5235V6.28476h-24.84564V125.87332h8.5495c.2959-.04913,.60437-.08075,.93402-.08002Z"/><path d="M304.19731,125.97958l60.68945-100.93561-12.0553-19.7533-68.58014,114.05957,3.93536,6.44836c5.33734,.01929,10.67389,.1098,16.01062,.18097Z"/><path d="M410.3319,6.28478V150.06836c0,29.68572-24.06531,53.75069-53.75103,53.75069h0c-29.68607,0-53.75103-24.06497-53.75103-53.75069v-.08911h-24.84596v.08739c0,43.40784,35.18881,78.59699,78.59699,78.59699h0c43.40785,0,78.59699-35.18916,78.59699-78.59699V6.28478h-24.84596Z"/><polygon points="356.39209 0 343.70908 21.92454 410.33188 138.39943 423.01489 116.4749 356.39209 0"/></g><polygon class="cls-1" points="322.65526 122.51923 386.50648 122.5192 354.58085 69.19971 322.65526 122.51923"/><path class="cls-2" d="M93.85737,36.73184l-.07494,25.99378h-13.74306l.01596,17.42087h13.80204v18.87265h-16.33419l.30878,28.93839h-21.50418v-28.93839h-16.06581v28.93839H21.58277l-2.51619-28.93839H6.29121l-1.74243-18.87265h13.25946l-1.35506-17.42087H2.80684L0,36.788H14.42108L12.09784,7.36601h27.9702v29.42198h16.25974V7.55995h25.95091c.06316,1.67828-.60637,11.01789-.20673,28.93789l11.78541,.234Zm-37.52958,43.41464v-17.42087h-16.25974v17.42087h16.25974Z"/></g></svg>