<svg xmlns="http://www.w3.org/2000/svg" xmlns:xlink="http://www.w3.org/1999/xlink" width="1080" zoomAndPan="magnify" viewBox="0 0 810 809.999993" height="1080" preserveAspectRatio="xMidYMid meet" version="1.0"><path fill="#000000" d="M 810 163.566406 L 567.605469 24.121094 C 526.113281 0.179688 473.484375 7.261719 439.578125 40.984375 L 404.832031 75.71875 L 370.082031 40.984375 C 336.179688 7.09375 283.550781 0.179688 242.054688 24.121094 L 0 163.398438 L 11.640625 175.03125 C 66.121094 229.492188 120.941406 273.164062 174.921875 305.03125 L 174.921875 475.332031 L 149.617188 475.332031 L 149.617188 687.449219 L 124.316406 687.449219 L 124.316406 835.320312 L 149.617188 835.320312 L 149.617188 712.738281 L 180.65625 712.738281 L 180.65625 835.320312 L 205.957031 835.320312 L 205.957031 712.738281 L 236.996094 712.738281 L 236.996094 835.320312 L 262.296875 835.320312 L 262.296875 712.738281 L 293.164062 712.738281 L 293.164062 835.320312 L 318.46875 835.320312 L 318.46875 712.738281 L 349.503906 712.738281 L 349.503906 835.320312 L 374.804688 835.320312 L 374.804688 687.449219 L 349.503906 687.449219 L 349.503906 475.332031 L 324.203125 475.332031 L 324.203125 366.574219 C 324.203125 365.902344 324.203125 365.394531 324.203125 364.722656 C 351.023438 370.285156 377.84375 373.152344 404.832031 373.152344 C 454.253906 373.152344 503.675781 363.878906 552.761719 345.160156 C 633.5625 314.472656 716.214844 257.144531 798.359375 175.199219 Z M 324.035156 687.449219 L 174.921875 687.449219 L 174.921875 500.625 L 324.035156 500.625 Z M 298.730469 434.527344 L 298.730469 475.5 L 200.222656 475.5 L 200.222656 377.703125 C 222.65625 409.234375 258.25 430.816406 298.730469 434.527344 Z M 200.222656 298.625 L 200.222656 256.132812 C 255.550781 262.371094 298.730469 309.585938 298.730469 366.574219 L 298.730469 409.066406 C 243.40625 402.828125 200.222656 355.617188 200.222656 298.625 Z M 320.996094 338.25 C 307.839844 276.703125 253.019531 230.167969 187.570312 230.167969 L 174.921875 230.167969 L 174.921875 275.523438 C 144.222656 256.300781 113.015625 233.035156 81.808594 205.886719 C 140.847656 221.566406 187.234375 208.753906 235.476562 191.386719 C 238.007812 190.542969 240.539062 189.53125 243.234375 188.6875 L 307.671875 216.339844 C 338.371094 229.492188 371.265625 236.070312 404.15625 236.070312 C 437.050781 236.070312 469.941406 229.492188 500.640625 216.339844 L 565.078125 188.6875 C 567.605469 189.53125 570.304688 190.375 572.835938 191.386719 C 605.730469 203.1875 637.945312 212.96875 673.707031 212.96875 C 690.910156 212.96875 709.128906 210.777344 728.695312 205.382812 C 590.210938 325.941406 456.277344 369.441406 320.996094 338.25 Z M 281.1875 177.558594 C 361.816406 157.15625 446.496094 157.15625 527.125 177.558594 L 490.6875 193.242188 C 435.699219 216.847656 372.613281 216.847656 317.625 193.242188 Z M 581.4375 167.78125 C 467.242188 126.808594 341.238281 126.808594 227.042969 167.78125 C 170.535156 188.015625 120.269531 200.828125 46.554688 165.925781 L 255.042969 46.042969 C 286.585938 27.832031 326.734375 33.226562 352.539062 59.023438 L 389.3125 95.953125 C 397.914062 104.550781 411.914062 104.550781 420.519531 95.953125 L 457.460938 59.023438 C 483.265625 33.226562 523.414062 28 554.957031 46.042969 L 762.769531 165.589844 C 688.382812 200.828125 638.117188 188.015625 581.4375 167.78125 Z M 581.4375 167.78125 " fill-opacity="1" fill-rule="nonzero"/></svg>