<svg xmlns="http://www.w3.org/2000/svg" xmlns:xlink="http://www.w3.org/1999/xlink" width="1080" zoomAndPan="magnify" viewBox="0 0 810 809.999993" height="1080" preserveAspectRatio="xMidYMid meet" version="1.0"><path fill="#000000" d="M 847.695312 974.789062 L -37.882812 974.789062 C -38.460938 974.789062 -39.039062 974.761719 -39.617188 974.703125 C -40.195312 974.648438 -40.769531 974.5625 -41.335938 974.449219 C -41.90625 974.335938 -42.46875 974.195312 -43.023438 974.027344 C -43.578125 973.859375 -44.125 973.664062 -44.660156 973.441406 C -45.195312 973.21875 -45.71875 972.96875 -46.230469 972.695312 C -46.742188 972.421875 -47.238281 972.125 -47.722656 971.804688 C -48.203125 971.480469 -48.667969 971.136719 -49.117188 970.765625 C -49.566406 970.398438 -49.996094 970.011719 -50.40625 969.597656 C -50.816406 969.1875 -51.207031 968.757812 -51.574219 968.3125 C -51.941406 967.863281 -52.285156 967.398438 -52.609375 966.914062 C -52.929688 966.433594 -53.230469 965.933594 -53.503906 965.421875 C -53.777344 964.910156 -54.023438 964.386719 -54.246094 963.851562 C -54.46875 963.316406 -54.664062 962.769531 -54.832031 962.214844 C -55 961.660156 -55.140625 961.097656 -55.253906 960.527344 C -55.367188 959.957031 -55.453125 959.386719 -55.507812 958.808594 C -55.566406 958.230469 -55.59375 957.652344 -55.59375 957.070312 L -55.59375 -52.871094 C -55.59375 -53.449219 -55.566406 -54.03125 -55.507812 -54.605469 C -55.453125 -55.183594 -55.367188 -55.757812 -55.253906 -56.328125 C -55.140625 -56.894531 -55 -57.457031 -54.832031 -58.015625 C -54.664062 -58.570312 -54.46875 -59.113281 -54.246094 -59.652344 C -54.023438 -60.1875 -53.777344 -60.710938 -53.503906 -61.222656 C -53.230469 -61.734375 -52.929688 -62.230469 -52.609375 -62.714844 C -52.285156 -63.195312 -51.941406 -63.664062 -51.574219 -64.109375 C -51.207031 -64.558594 -50.816406 -64.988281 -50.40625 -65.398438 C -49.996094 -65.808594 -49.566406 -66.199219 -49.117188 -66.566406 C -48.667969 -66.933594 -48.203125 -67.28125 -47.722656 -67.601562 C -47.238281 -67.925781 -46.742188 -68.222656 -46.230469 -68.496094 C -45.71875 -68.769531 -45.195312 -69.019531 -44.660156 -69.238281 C -44.125 -69.460938 -43.578125 -69.65625 -43.023438 -69.824219 C -42.46875 -69.996094 -41.90625 -70.136719 -41.335938 -70.25 C -40.769531 -70.363281 -40.195312 -70.445312 -39.617188 -70.503906 C -39.039062 -70.558594 -38.460938 -70.589844 -37.882812 -70.589844 L 847.695312 -70.589844 C 848.273438 -70.589844 848.855469 -70.558594 849.429688 -70.503906 C 850.007812 -70.445312 850.582031 -70.363281 851.148438 -70.25 C 851.71875 -70.136719 852.28125 -69.996094 852.835938 -69.824219 C 853.390625 -69.65625 853.9375 -69.460938 854.472656 -69.238281 C 855.007812 -69.019531 855.53125 -68.769531 856.042969 -68.496094 C 856.554688 -68.222656 857.050781 -67.925781 857.535156 -67.601562 C 858.015625 -67.28125 858.484375 -66.933594 858.929688 -66.566406 C 859.378906 -66.199219 859.808594 -65.808594 860.21875 -65.398438 C 860.628906 -64.988281 861.019531 -64.558594 861.386719 -64.109375 C 861.753906 -63.664062 862.097656 -63.195312 862.421875 -62.714844 C 862.742188 -62.230469 863.042969 -61.734375 863.316406 -61.222656 C 863.589844 -60.710938 863.835938 -60.1875 864.058594 -59.652344 C 864.28125 -59.113281 864.476562 -58.570312 864.644531 -58.015625 C 864.8125 -57.457031 864.953125 -56.894531 865.066406 -56.328125 C 865.179688 -55.757812 865.265625 -55.183594 865.320312 -54.605469 C 865.378906 -54.03125 865.40625 -53.449219 865.40625 -52.871094 L 865.40625 957.070312 C 865.40625 957.652344 865.378906 958.230469 865.320312 958.808594 C 865.265625 959.386719 865.179688 959.957031 865.066406 960.527344 C 864.953125 961.097656 864.8125 961.660156 864.644531 962.214844 C 864.476562 962.769531 864.28125 963.316406 864.058594 963.851562 C 863.835938 964.386719 863.589844 964.910156 863.316406 965.421875 C 863.042969 965.933594 862.742188 966.433594 862.421875 966.914062 C 862.097656 967.398438 861.753906 967.863281 861.386719 968.3125 C 861.019531 968.757812 860.628906 969.1875 860.21875 969.597656 C 859.808594 970.011719 859.378906 970.398438 858.929688 970.765625 C 858.484375 971.136719 858.015625 971.480469 857.535156 971.804688 C 857.050781 972.125 856.554688 972.421875 856.042969 972.695312 C 855.53125 972.96875 855.007812 973.21875 854.472656 973.441406 C 853.9375 973.664062 853.390625 973.859375 852.835938 974.027344 C 852.28125 974.195312 851.71875 974.335938 851.148438 974.449219 C 850.582031 974.5625 850.007812 974.648438 849.429688 974.703125 C 848.855469 974.761719 848.273438 974.789062 847.695312 974.789062 Z M -20.171875 939.351562 L 829.984375 939.351562 L 829.984375 -35.152344 L -20.171875 -35.152344 Z M -20.171875 939.351562 " fill-opacity="1" fill-rule="nonzero"/><path fill="#000000" d="M 539.226562 815.324219 L 270.585938 815.324219 C 266.410156 815.320312 262.234375 815.210938 258.0625 815.003906 C 253.890625 814.792969 249.726562 814.480469 245.570312 814.070312 C 241.410156 813.65625 237.265625 813.140625 233.136719 812.523438 C 229.003906 811.90625 224.890625 811.1875 220.792969 810.367188 C 216.695312 809.550781 212.621094 808.632812 208.570312 807.613281 C 204.519531 806.59375 200.496094 805.476562 196.5 804.261719 C 192.503906 803.046875 188.539062 801.734375 184.605469 800.320312 C 180.671875 798.910156 176.777344 797.40625 172.917969 795.804688 C 169.0625 794.203125 165.242188 792.507812 161.46875 790.71875 C 157.691406 788.929688 153.964844 787.050781 150.28125 785.078125 C 146.597656 783.109375 142.964844 781.046875 139.382812 778.898438 C 135.800781 776.746094 132.269531 774.511719 128.796875 772.1875 C 125.324219 769.867188 121.914062 767.460938 118.558594 764.96875 C 115.203125 762.480469 111.910156 759.90625 108.683594 757.257812 C 105.453125 754.605469 102.289062 751.875 99.195312 749.070312 C 96.101562 746.261719 93.078125 743.382812 90.121094 740.425781 C 87.167969 737.472656 84.289062 734.445312 81.484375 731.347656 C 78.675781 728.253906 75.949219 725.089844 73.296875 721.859375 C 70.648438 718.628906 68.078125 715.335938 65.589844 711.980469 C 63.101562 708.625 60.695312 705.210938 58.371094 701.734375 C 56.050781 698.261719 53.816406 694.734375 51.667969 691.148438 C 49.515625 687.566406 47.457031 683.929688 45.488281 680.246094 C 43.515625 676.5625 41.636719 672.832031 39.847656 669.054688 C 38.0625 665.277344 36.367188 661.457031 34.765625 657.597656 C 33.164062 653.738281 31.660156 649.839844 30.25 645.90625 C 28.839844 641.972656 27.527344 638.007812 26.3125 634.007812 C 25.097656 630.011719 23.980469 625.984375 22.960938 621.933594 C 21.941406 617.878906 21.023438 613.804688 20.207031 609.707031 C 19.386719 605.609375 18.671875 601.492188 18.054688 597.359375 C 17.4375 593.226562 16.921875 589.078125 16.507812 584.921875 C 16.09375 580.761719 15.78125 576.597656 15.574219 572.421875 C 15.363281 568.25 15.257812 564.074219 15.253906 559.894531 L 15.253906 255.714844 C 15.257812 251.535156 15.363281 247.359375 15.574219 243.1875 C 15.78125 239.011719 16.09375 234.847656 16.507812 230.6875 C 16.921875 226.527344 17.4375 222.382812 18.054688 218.25 C 18.671875 214.117188 19.386719 210 20.207031 205.902344 C 21.023438 201.804688 21.941406 197.730469 22.960938 193.675781 C 23.980469 189.625 25.097656 185.597656 26.3125 181.597656 C 27.527344 177.601562 28.839844 173.636719 30.25 169.703125 C 31.660156 165.769531 33.164062 161.871094 34.765625 158.011719 C 36.367188 154.152344 38.0625 150.332031 39.847656 146.554688 C 41.636719 142.777344 43.515625 139.046875 45.488281 135.363281 C 47.457031 131.679688 49.515625 128.042969 51.667969 124.460938 C 53.816406 120.875 56.050781 117.347656 58.371094 113.875 C 60.695312 110.398438 63.101562 106.984375 65.589844 103.628906 C 68.078125 100.273438 70.648438 96.980469 73.296875 93.75 C 75.949219 90.519531 78.675781 87.355469 81.484375 84.257812 C 84.289062 81.164062 87.167969 78.136719 90.121094 75.183594 C 93.078125 72.226562 96.101562 69.347656 99.195312 66.539062 C 102.289062 63.734375 105.453125 61.003906 108.683594 58.351562 C 111.910156 55.699219 115.203125 53.128906 118.558594 50.640625 C 121.914062 48.148438 125.324219 45.742188 128.796875 43.421875 C 132.269531 41.097656 135.800781 38.863281 139.382812 36.710938 C 142.964844 34.5625 146.597656 32.5 150.28125 30.53125 C 153.964844 28.558594 157.691406 26.679688 161.46875 24.890625 C 165.242188 23.101562 169.0625 21.40625 172.917969 19.804688 C 176.777344 18.203125 180.671875 16.699219 184.605469 15.285156 C 188.539062 13.875 192.503906 12.5625 196.5 11.347656 C 200.496094 10.132812 204.519531 9.015625 208.570312 7.996094 C 212.621094 6.976562 216.695312 6.058594 220.792969 5.238281 C 224.890625 4.421875 229.003906 3.703125 233.136719 3.085938 C 237.265625 2.46875 241.410156 1.953125 245.570312 1.539062 C 249.726562 1.125 253.890625 0.816406 258.0625 0.605469 C 262.234375 0.394531 266.410156 0.289062 270.585938 0.285156 L 539.226562 0.285156 C 543.402344 0.289062 547.578125 0.394531 551.75 0.605469 C 555.921875 0.816406 560.085938 1.125 564.246094 1.539062 C 568.402344 1.953125 572.546875 2.46875 576.675781 3.085938 C 580.808594 3.703125 584.921875 4.421875 589.019531 5.238281 C 593.117188 6.058594 597.191406 6.976562 601.242188 7.996094 C 605.292969 9.015625 609.316406 10.132812 613.3125 11.347656 C 617.3125 12.5625 621.273438 13.875 625.207031 15.285156 C 629.140625 16.699219 633.035156 18.203125 636.894531 19.804688 C 640.753906 21.40625 644.570312 23.101562 648.34375 24.890625 C 652.121094 26.679688 655.851562 28.558594 659.535156 30.53125 C 663.214844 32.5 666.847656 34.5625 670.433594 36.710938 C 674.015625 38.863281 677.542969 41.097656 681.015625 43.421875 C 684.488281 45.742188 687.902344 48.148438 691.253906 50.640625 C 694.609375 53.128906 697.902344 55.699219 701.132812 58.351562 C 704.359375 61.003906 707.523438 63.734375 710.617188 66.539062 C 713.710938 69.347656 716.738281 72.226562 719.691406 75.183594 C 722.644531 78.136719 725.523438 81.164062 728.328125 84.257812 C 731.136719 87.355469 733.863281 90.519531 736.515625 93.75 C 739.164062 96.980469 741.734375 100.273438 744.222656 103.628906 C 746.714844 106.984375 749.117188 110.398438 751.441406 113.875 C 753.761719 117.347656 755.996094 120.875 758.148438 124.460938 C 760.296875 128.042969 762.355469 131.679688 764.324219 135.363281 C 766.296875 139.046875 768.175781 142.777344 769.964844 146.554688 C 771.753906 150.332031 773.445312 154.152344 775.046875 158.011719 C 776.648438 161.871094 778.152344 165.769531 779.5625 169.703125 C 780.972656 173.636719 782.285156 177.601562 783.5 181.597656 C 784.71875 185.597656 785.832031 189.625 786.851562 193.675781 C 787.871094 197.730469 788.789062 201.804688 789.605469 205.902344 C 790.425781 210 791.144531 214.117188 791.757812 218.25 C 792.375 222.382812 792.890625 226.527344 793.304688 230.6875 C 793.71875 234.847656 794.03125 239.011719 794.238281 243.1875 C 794.449219 247.359375 794.554688 251.535156 794.558594 255.714844 L 794.558594 559.894531 C 794.554688 564.074219 794.449219 568.25 794.238281 572.421875 C 794.03125 576.597656 793.71875 580.761719 793.304688 584.921875 C 792.890625 589.078125 792.375 593.226562 791.757812 597.359375 C 791.144531 601.492188 790.425781 605.609375 789.605469 609.707031 C 788.789062 613.804688 787.871094 617.878906 786.851562 621.933594 C 785.832031 625.984375 784.714844 630.011719 783.5 634.007812 C 782.285156 638.007812 780.972656 641.972656 779.5625 645.90625 C 778.152344 649.839844 776.648438 653.738281 775.046875 657.597656 C 773.445312 661.457031 771.753906 665.277344 769.964844 669.054688 C 768.175781 672.832031 766.296875 676.5625 764.324219 680.246094 C 762.355469 683.929688 760.296875 687.566406 758.148438 691.148438 C 755.996094 694.734375 753.761719 698.261719 751.441406 701.734375 C 749.117188 705.210938 746.714844 708.625 744.222656 711.980469 C 741.734375 715.335938 739.164062 718.628906 736.515625 721.859375 C 733.863281 725.089844 731.136719 728.253906 728.328125 731.347656 C 725.523438 734.445312 722.644531 737.472656 719.691406 740.425781 C 716.738281 743.382812 713.710938 746.261719 710.617188 749.070312 C 707.523438 751.875 704.359375 754.605469 701.132812 757.257812 C 697.902344 759.90625 694.609375 762.480469 691.253906 764.96875 C 687.902344 767.460938 684.488281 769.867188 681.015625 772.1875 C 677.542969 774.511719 674.015625 776.746094 670.433594 778.898438 C 666.847656 781.046875 663.214844 783.109375 659.535156 785.078125 C 655.851562 787.050781 652.121094 788.929688 648.34375 790.71875 C 644.570312 792.507812 640.753906 794.203125 636.894531 795.804688 C 633.035156 797.40625 629.140625 798.910156 625.207031 800.320312 C 621.273438 801.730469 617.3125 803.046875 613.3125 804.261719 C 609.316406 805.476562 605.292969 806.59375 601.242188 807.613281 C 597.191406 808.632812 593.117188 809.550781 589.019531 810.367188 C 584.921875 811.1875 580.808594 811.90625 576.675781 812.523438 C 572.546875 813.140625 568.402344 813.65625 564.246094 814.070312 C 560.085938 814.480469 555.921875 814.792969 551.75 815.003906 C 547.578125 815.210938 543.402344 815.320312 539.226562 815.324219 Z M 270.585938 35.722656 C 266.988281 35.726562 263.394531 35.816406 259.800781 35.996094 C 256.207031 36.175781 252.621094 36.445312 249.039062 36.800781 C 245.457031 37.160156 241.890625 37.601562 238.332031 38.132812 C 234.773438 38.664062 231.230469 39.28125 227.699219 39.988281 C 224.171875 40.691406 220.664062 41.484375 217.175781 42.363281 C 213.683594 43.238281 210.21875 44.199219 206.777344 45.25 C 203.335938 46.296875 199.921875 47.425781 196.535156 48.640625 C 193.148438 49.855469 189.792969 51.152344 186.46875 52.53125 C 183.144531 53.910156 179.855469 55.371094 176.605469 56.910156 C 173.355469 58.453125 170.140625 60.070312 166.96875 61.769531 C 163.796875 63.46875 160.667969 65.242188 157.582031 67.09375 C 154.496094 68.945312 151.460938 70.871094 148.46875 72.871094 C 145.476562 74.871094 142.535156 76.945312 139.648438 79.089844 C 136.757812 81.234375 133.921875 83.449219 131.140625 85.730469 C 128.359375 88.015625 125.636719 90.367188 122.972656 92.785156 C 120.304688 95.199219 117.703125 97.683594 115.15625 100.226562 C 112.613281 102.773438 110.132812 105.378906 107.714844 108.042969 C 105.300781 110.710938 102.949219 113.4375 100.667969 116.21875 C 98.386719 119 96.171875 121.835938 94.027344 124.726562 C 91.882812 127.617188 89.8125 130.558594 87.8125 133.550781 C 85.8125 136.542969 83.886719 139.582031 82.035156 142.667969 C 80.1875 145.753906 78.410156 148.886719 76.714844 152.058594 C 75.015625 155.230469 73.398438 158.445312 71.859375 161.699219 C 70.320312 164.953125 68.859375 168.238281 67.480469 171.566406 C 66.101562 174.890625 64.804688 178.246094 63.589844 181.632812 C 62.375 185.023438 61.246094 188.4375 60.199219 191.882812 C 59.152344 195.324219 58.191406 198.792969 57.3125 202.28125 C 56.4375 205.773438 55.644531 209.285156 54.941406 212.8125 C 54.238281 216.34375 53.617188 219.886719 53.085938 223.449219 C 52.554688 227.007812 52.113281 230.578125 51.757812 234.160156 C 51.402344 237.742188 51.132812 241.328125 50.953125 244.925781 C 50.773438 248.519531 50.679688 252.117188 50.675781 255.714844 L 50.675781 559.894531 C 50.679688 563.492188 50.773438 567.089844 50.953125 570.683594 C 51.132812 574.28125 51.402344 577.867188 51.757812 581.449219 C 52.113281 585.03125 52.554688 588.601562 53.085938 592.160156 C 53.617188 595.722656 54.238281 599.265625 54.941406 602.796875 C 55.644531 606.324219 56.4375 609.835938 57.3125 613.324219 C 58.191406 616.816406 59.152344 620.285156 60.199219 623.726562 C 61.246094 627.171875 62.375 630.585938 63.589844 633.976562 C 64.804688 637.363281 66.101562 640.71875 67.480469 644.042969 C 68.859375 647.367188 70.320312 650.65625 71.859375 653.910156 C 73.398438 657.164062 75.015625 660.375 76.714844 663.550781 C 78.410156 666.722656 80.1875 669.855469 82.035156 672.941406 C 83.886719 676.027344 85.8125 679.066406 87.8125 682.058594 C 89.8125 685.050781 91.882812 687.992188 94.027344 690.882812 C 96.171875 693.773438 98.382812 696.609375 100.667969 699.390625 C 102.949219 702.171875 105.300781 704.898438 107.714844 707.5625 C 110.132812 710.230469 112.613281 712.835938 115.15625 715.382812 C 117.703125 717.925781 120.304688 720.40625 122.972656 722.824219 C 125.636719 725.242188 128.359375 727.59375 131.140625 729.878906 C 133.921875 732.160156 136.757812 734.375 139.648438 736.519531 C 142.535156 738.664062 145.476562 740.738281 148.46875 742.738281 C 151.460938 744.738281 154.496094 746.664062 157.582031 748.515625 C 160.667969 750.367188 163.796875 752.140625 166.96875 753.839844 C 170.140625 755.539062 173.355469 757.15625 176.605469 758.699219 C 179.855469 760.238281 183.144531 761.699219 186.46875 763.078125 C 189.792969 764.457031 193.148438 765.753906 196.535156 766.96875 C 199.921875 768.183594 203.335938 769.3125 206.777344 770.359375 C 210.21875 771.40625 213.683594 772.371094 217.175781 773.246094 C 220.664062 774.125 224.171875 774.914062 227.699219 775.621094 C 231.230469 776.324219 234.773438 776.945312 238.332031 777.476562 C 241.890625 778.007812 245.457031 778.449219 249.039062 778.808594 C 252.621094 779.164062 256.207031 779.429688 259.800781 779.613281 C 263.394531 779.792969 266.988281 779.882812 270.585938 779.886719 L 539.226562 779.886719 C 542.824219 779.882812 546.421875 779.792969 550.011719 779.613281 C 553.605469 779.429688 557.195312 779.164062 560.773438 778.808594 C 564.355469 778.449219 567.921875 778.007812 571.480469 777.476562 C 575.039062 776.945312 578.582031 776.324219 582.113281 775.621094 C 585.640625 774.914062 589.148438 774.125 592.636719 773.246094 C 596.128906 772.371094 599.59375 771.40625 603.035156 770.359375 C 606.476562 769.3125 609.894531 768.183594 613.28125 766.96875 C 616.667969 765.753906 620.023438 764.457031 623.34375 763.078125 C 626.667969 761.699219 629.957031 760.238281 633.207031 758.699219 C 636.460938 757.15625 639.671875 755.539062 642.84375 753.839844 C 646.015625 752.140625 649.144531 750.367188 652.230469 748.515625 C 655.316406 746.664062 658.355469 744.738281 661.34375 742.738281 C 664.335938 740.738281 667.277344 738.664062 670.164062 736.519531 C 673.054688 734.375 675.890625 732.160156 678.671875 729.878906 C 681.453125 727.59375 684.175781 725.242188 686.839844 722.824219 C 689.507812 720.410156 692.113281 717.925781 694.65625 715.382812 C 697.199219 712.835938 699.679688 710.230469 702.097656 707.5625 C 704.511719 704.898438 706.863281 702.171875 709.144531 699.390625 C 711.429688 696.609375 713.640625 693.773438 715.785156 690.882812 C 717.929688 687.992188 720 685.050781 722 682.058594 C 724 679.066406 725.925781 676.027344 727.777344 672.941406 C 729.628906 669.855469 731.402344 666.722656 733.097656 663.550781 C 734.796875 660.375 736.414062 657.164062 737.953125 653.910156 C 739.496094 650.65625 740.953125 647.367188 742.332031 644.042969 C 743.710938 640.71875 745.007812 637.363281 746.222656 633.976562 C 747.4375 630.585938 748.566406 627.171875 749.613281 623.726562 C 750.660156 620.285156 751.621094 616.816406 752.5 613.324219 C 753.375 609.835938 754.167969 606.324219 754.871094 602.796875 C 755.578125 599.265625 756.195312 595.722656 756.726562 592.160156 C 757.257812 588.601562 757.699219 585.03125 758.054688 581.449219 C 758.414062 577.867188 758.679688 574.28125 758.859375 570.683594 C 759.042969 567.089844 759.132812 563.492188 759.136719 559.894531 L 759.136719 255.714844 C 759.132812 252.117188 759.042969 248.519531 758.859375 244.925781 C 758.679688 241.328125 758.414062 237.742188 758.054688 234.160156 C 757.699219 230.578125 757.257812 227.007812 756.726562 223.449219 C 756.195312 219.886719 755.578125 216.34375 754.871094 212.8125 C 754.167969 209.285156 753.375 205.773438 752.5 202.28125 C 751.621094 198.792969 750.660156 195.324219 749.613281 191.882812 C 748.566406 188.4375 747.4375 185.023438 746.222656 181.632812 C 745.007812 178.246094 743.710938 174.890625 742.332031 171.566406 C 740.953125 168.238281 739.496094 164.953125 737.953125 161.699219 C 736.414062 158.445312 734.796875 155.230469 733.097656 152.058594 C 731.402344 148.886719 729.628906 145.753906 727.777344 142.667969 C 725.925781 139.582031 724 136.542969 722 133.550781 C 720 130.558594 717.929688 127.617188 715.785156 124.726562 C 713.640625 121.835938 711.429688 119 709.144531 116.21875 C 706.863281 113.4375 704.511719 110.710938 702.097656 108.042969 C 699.679688 105.378906 697.199219 102.773438 694.65625 100.226562 C 692.113281 97.683594 689.507812 95.199219 686.839844 92.785156 C 684.175781 90.367188 681.453125 88.015625 678.671875 85.730469 C 675.890625 83.449219 673.054688 81.234375 670.164062 79.089844 C 667.277344 76.945312 664.335938 74.871094 661.34375 72.871094 C 658.355469 70.871094 655.316406 68.945312 652.230469 67.09375 C 649.144531 65.242188 646.015625 63.46875 642.84375 61.769531 C 639.671875 60.070312 636.460938 58.453125 633.207031 56.910156 C 629.957031 55.371094 626.667969 53.910156 623.34375 52.53125 C 620.023438 51.152344 616.667969 49.855469 613.28125 48.640625 C 609.894531 47.425781 606.476562 46.296875 603.035156 45.25 C 599.59375 44.199219 596.128906 43.238281 592.636719 42.363281 C 589.148438 41.484375 585.640625 40.691406 582.113281 39.988281 C 578.582031 39.28125 575.039062 38.664062 571.480469 38.132812 C 567.921875 37.601562 564.355469 37.160156 560.773438 36.800781 C 557.195312 36.445312 553.605469 36.175781 550.011719 35.996094 C 546.421875 35.816406 542.824219 35.726562 539.226562 35.722656 Z M 270.585938 35.722656 " fill-opacity="1" fill-rule="nonzero"/><path fill="#000000" d="M 532.917969 726.734375 L 276.894531 726.734375 C 274 726.730469 271.101562 726.65625 268.207031 726.511719 C 265.316406 726.363281 262.425781 726.148438 259.542969 725.863281 C 256.660156 725.574219 253.785156 725.21875 250.917969 724.789062 C 248.050781 724.363281 245.199219 723.863281 242.355469 723.296875 C 239.515625 722.726562 236.6875 722.089844 233.878906 721.382812 C 231.070312 720.675781 228.277344 719.902344 225.503906 719.058594 C 222.730469 718.214844 219.980469 717.304688 217.253906 716.328125 C 214.527344 715.347656 211.824219 714.304688 209.148438 713.191406 C 206.472656 712.082031 203.824219 710.90625 201.203125 709.664062 C 198.585938 708.425781 196 707.121094 193.445312 705.753906 C 190.890625 704.386719 188.371094 702.957031 185.882812 701.464844 C 183.398438 699.972656 180.953125 698.421875 178.542969 696.8125 C 176.132812 695.199219 173.765625 693.53125 171.4375 691.804688 C 169.113281 690.078125 166.828125 688.292969 164.589844 686.453125 C 162.347656 684.613281 160.15625 682.722656 158.007812 680.773438 C 155.863281 678.828125 153.765625 676.828125 151.714844 674.78125 C 149.667969 672.730469 147.667969 670.628906 145.722656 668.484375 C 143.777344 666.335938 141.882812 664.140625 140.046875 661.902344 C 138.207031 659.660156 136.425781 657.375 134.695312 655.046875 C 132.96875 652.71875 131.300781 650.351562 129.691406 647.941406 C 128.082031 645.53125 126.53125 643.082031 125.039062 640.597656 C 123.550781 638.113281 122.121094 635.589844 120.753906 633.035156 C 119.386719 630.480469 118.082031 627.890625 116.84375 625.269531 C 115.601562 622.652344 114.425781 620.003906 113.316406 617.324219 C 112.207031 614.648438 111.160156 611.945312 110.183594 609.214844 C 109.207031 606.484375 108.296875 603.734375 107.453125 600.960938 C 106.609375 598.1875 105.835938 595.394531 105.128906 592.585938 C 104.421875 589.773438 103.785156 586.945312 103.21875 584.101562 C 102.648438 581.261719 102.152344 578.40625 101.722656 575.539062 C 101.296875 572.671875 100.9375 569.796875 100.652344 566.910156 C 100.363281 564.027344 100.148438 561.136719 100.003906 558.242188 C 99.859375 555.347656 99.785156 552.449219 99.78125 549.550781 L 99.78125 266.058594 C 99.785156 263.160156 99.859375 260.261719 100.003906 257.367188 C 100.148438 254.472656 100.363281 251.582031 100.652344 248.699219 C 100.9375 245.8125 101.296875 242.9375 101.722656 240.070312 C 102.152344 237.203125 102.648438 234.347656 103.21875 231.503906 C 103.785156 228.664062 104.421875 225.835938 105.128906 223.023438 C 105.835938 220.210938 106.609375 217.421875 107.453125 214.648438 C 108.296875 211.875 109.207031 209.121094 110.183594 206.394531 C 111.160156 203.664062 112.207031 200.960938 113.316406 198.285156 C 114.425781 195.605469 115.601562 192.957031 116.84375 190.339844 C 118.082031 187.71875 119.386719 185.128906 120.753906 182.574219 C 122.121094 180.019531 123.550781 177.496094 125.039062 175.011719 C 126.53125 172.527344 128.082031 170.078125 129.691406 167.667969 C 131.300781 165.257812 132.96875 162.890625 134.695312 160.5625 C 136.425781 158.234375 138.207031 155.949219 140.046875 153.707031 C 141.882812 151.46875 143.777344 149.273438 145.722656 147.125 C 147.667969 144.976562 149.667969 142.878906 151.714844 140.828125 C 153.765625 138.78125 155.863281 136.78125 158.007812 134.835938 C 160.15625 132.886719 162.347656 130.996094 164.589844 129.15625 C 166.828125 127.316406 169.113281 125.53125 171.4375 123.804688 C 173.765625 122.078125 176.132812 120.410156 178.542969 118.796875 C 180.953125 117.1875 183.398438 115.636719 185.882812 114.144531 C 188.367188 112.652344 190.890625 111.222656 193.445312 109.855469 C 196 108.488281 198.585938 107.183594 201.203125 105.941406 C 203.824219 104.703125 206.472656 103.527344 209.148438 102.414062 C 211.824219 101.304688 214.527344 100.261719 217.253906 99.28125 C 219.980469 98.304688 222.730469 97.394531 225.503906 96.550781 C 228.277344 95.707031 231.070312 94.929688 233.878906 94.226562 C 236.6875 93.519531 239.515625 92.882812 242.355469 92.3125 C 245.199219 91.746094 248.050781 91.246094 250.917969 90.820312 C 253.785156 90.390625 256.660156 90.035156 259.542969 89.746094 C 262.425781 89.460938 265.316406 89.242188 268.207031 89.097656 C 271.101562 88.953125 274 88.878906 276.894531 88.875 L 532.917969 88.875 C 535.8125 88.878906 538.710938 88.953125 541.605469 89.097656 C 544.5 89.242188 547.386719 89.460938 550.269531 89.746094 C 553.15625 90.035156 556.027344 90.390625 558.894531 90.820312 C 561.761719 91.246094 564.613281 91.746094 567.457031 92.3125 C 570.296875 92.882812 573.125 93.519531 575.933594 94.226562 C 578.746094 94.929688 581.535156 95.707031 584.308594 96.550781 C 587.082031 97.394531 589.832031 98.304688 592.558594 99.28125 C 595.285156 100.261719 597.988281 101.304688 600.664062 102.417969 C 603.339844 103.527344 605.988281 104.703125 608.609375 105.941406 C 611.226562 107.183594 613.8125 108.488281 616.367188 109.855469 C 618.925781 111.222656 621.445312 112.652344 623.929688 114.144531 C 626.414062 115.636719 628.859375 117.1875 631.269531 118.796875 C 633.679688 120.410156 636.046875 122.078125 638.375 123.804688 C 640.699219 125.53125 642.984375 127.316406 645.222656 129.15625 C 647.464844 130.996094 649.65625 132.886719 651.804688 134.835938 C 653.949219 136.78125 656.050781 138.78125 658.097656 140.828125 C 660.148438 142.878906 662.144531 144.976562 664.089844 147.125 C 666.035156 149.273438 667.929688 151.46875 669.769531 153.707031 C 671.605469 155.949219 673.390625 158.234375 675.117188 160.5625 C 676.84375 162.890625 678.511719 165.257812 680.121094 167.667969 C 681.730469 170.078125 683.28125 172.527344 684.773438 175.011719 C 686.265625 177.496094 687.691406 180.019531 689.058594 182.574219 C 690.425781 185.128906 691.730469 187.71875 692.972656 190.339844 C 694.210938 192.957031 695.386719 195.605469 696.496094 198.285156 C 697.605469 200.960938 698.652344 203.664062 699.628906 206.394531 C 700.605469 209.121094 701.519531 211.875 702.359375 214.648438 C 703.203125 217.421875 703.980469 220.210938 704.683594 223.023438 C 705.390625 225.835938 706.027344 228.664062 706.597656 231.503906 C 707.164062 234.347656 707.660156 237.203125 708.089844 240.070312 C 708.515625 242.9375 708.875 245.8125 709.160156 248.699219 C 709.449219 251.582031 709.664062 254.472656 709.808594 257.367188 C 709.953125 260.261719 710.027344 263.160156 710.03125 266.058594 L 710.03125 549.550781 C 710.027344 552.449219 709.953125 555.347656 709.808594 558.242188 C 709.664062 561.136719 709.449219 564.027344 709.160156 566.910156 C 708.875 569.796875 708.515625 572.671875 708.089844 575.539062 C 707.660156 578.40625 707.164062 581.261719 706.597656 584.101562 C 706.027344 586.945312 705.390625 589.773438 704.683594 592.585938 C 703.980469 595.394531 703.203125 598.1875 702.359375 600.960938 C 701.519531 603.734375 700.605469 606.484375 699.628906 609.214844 C 698.652344 611.945312 697.605469 614.648438 696.496094 617.324219 C 695.386719 620.003906 694.210938 622.652344 692.972656 625.269531 C 691.730469 627.890625 690.425781 630.480469 689.058594 633.035156 C 687.691406 635.589844 686.265625 638.113281 684.773438 640.597656 C 683.28125 643.082031 681.730469 645.53125 680.121094 647.941406 C 678.511719 650.351562 676.84375 652.71875 675.117188 655.046875 C 673.390625 657.375 671.605469 659.660156 669.769531 661.902344 C 667.929688 664.140625 666.035156 666.335938 664.089844 668.484375 C 662.144531 670.628906 660.148438 672.730469 658.097656 674.78125 C 656.050781 676.828125 653.949219 678.828125 651.804688 680.773438 C 649.65625 682.722656 647.464844 684.613281 645.222656 686.453125 C 642.984375 688.292969 640.699219 690.078125 638.375 691.804688 C 636.046875 693.53125 633.679688 695.199219 631.269531 696.8125 C 628.859375 698.421875 626.414062 699.972656 623.929688 701.464844 C 621.445312 702.957031 618.925781 704.386719 616.367188 705.753906 C 613.8125 707.121094 611.226562 708.425781 608.609375 709.664062 C 605.988281 710.90625 603.339844 712.082031 600.664062 713.191406 C 597.988281 714.304688 595.285156 715.347656 592.558594 716.328125 C 589.832031 717.304688 587.082031 718.214844 584.308594 719.058594 C 581.535156 719.902344 578.746094 720.675781 575.933594 721.382812 C 573.125 722.089844 570.296875 722.726562 567.457031 723.296875 C 564.613281 723.863281 561.761719 724.363281 558.894531 724.789062 C 556.027344 725.21875 553.15625 725.574219 550.269531 725.863281 C 547.386719 726.148438 544.5 726.363281 541.605469 726.511719 C 538.710938 726.65625 535.8125 726.730469 532.917969 726.734375 Z M 276.894531 124.3125 C 274.578125 124.316406 272.261719 124.375 269.945312 124.488281 C 267.628906 124.605469 265.320312 124.777344 263.011719 125.007812 C 260.707031 125.238281 258.40625 125.523438 256.113281 125.867188 C 253.820312 126.207031 251.539062 126.605469 249.265625 127.0625 C 246.992188 127.515625 244.730469 128.023438 242.480469 128.589844 C 240.234375 129.15625 238 129.777344 235.78125 130.449219 C 233.566406 131.125 231.363281 131.855469 229.183594 132.636719 C 227 133.417969 224.839844 134.253906 222.695312 135.144531 C 220.554688 136.03125 218.4375 136.972656 216.34375 137.964844 C 214.246094 138.957031 212.175781 140 210.132812 141.09375 C 208.089844 142.1875 206.074219 143.332031 204.085938 144.523438 C 202.097656 145.71875 200.140625 146.960938 198.214844 148.25 C 196.285156 149.539062 194.390625 150.871094 192.53125 152.253906 C 190.667969 153.636719 188.839844 155.0625 187.050781 156.535156 C 185.257812 158.003906 183.503906 159.519531 181.785156 161.078125 C 180.066406 162.636719 178.390625 164.234375 176.75 165.875 C 175.109375 167.515625 173.511719 169.191406 171.957031 170.910156 C 170.398438 172.628906 168.886719 174.382812 167.414062 176.175781 C 165.941406 177.96875 164.515625 179.796875 163.136719 181.660156 C 161.753906 183.523438 160.417969 185.417969 159.132812 187.34375 C 157.84375 189.273438 156.601562 191.230469 155.410156 193.21875 C 154.21875 195.207031 153.074219 197.226562 151.980469 199.269531 C 150.886719 201.316406 149.84375 203.386719 148.851562 205.480469 C 147.859375 207.578125 146.917969 209.695312 146.03125 211.839844 C 145.144531 213.980469 144.308594 216.144531 143.523438 218.324219 C 142.742188 220.507812 142.015625 222.710938 141.339844 224.929688 C 140.664062 227.148438 140.046875 229.382812 139.480469 231.628906 C 138.914062 233.878906 138.40625 236.140625 137.953125 238.414062 C 137.5 240.691406 137.101562 242.972656 136.757812 245.265625 C 136.414062 247.5625 136.128906 249.863281 135.898438 252.167969 C 135.671875 254.476562 135.5 256.789062 135.382812 259.105469 C 135.265625 261.421875 135.207031 263.738281 135.203125 266.058594 L 135.203125 549.550781 C 135.207031 551.871094 135.265625 554.1875 135.382812 556.503906 C 135.5 558.820312 135.671875 561.132812 135.898438 563.4375 C 136.128906 565.746094 136.414062 568.046875 136.757812 570.339844 C 137.101562 572.636719 137.5 574.917969 137.953125 577.191406 C 138.40625 579.46875 138.914062 581.730469 139.480469 583.976562 C 140.046875 586.226562 140.664062 588.460938 141.339844 590.679688 C 142.015625 592.898438 142.742188 595.101562 143.523438 597.28125 C 144.308594 599.464844 145.144531 601.628906 146.03125 603.769531 C 146.917969 605.914062 147.859375 608.03125 148.851562 610.128906 C 149.84375 612.222656 150.886719 614.292969 151.980469 616.339844 C 153.074219 618.382812 154.21875 620.398438 155.410156 622.390625 C 156.601562 624.378906 157.84375 626.335938 159.132812 628.265625 C 160.417969 630.191406 161.753906 632.085938 163.136719 633.949219 C 164.515625 635.8125 165.941406 637.640625 167.414062 639.433594 C 168.886719 641.222656 170.398438 642.980469 171.957031 644.699219 C 173.511719 646.414062 175.109375 648.09375 176.75 649.734375 C 178.390625 651.375 180.066406 652.972656 181.785156 654.53125 C 183.503906 656.089844 185.257812 657.601562 187.050781 659.074219 C 188.839844 660.546875 190.667969 661.972656 192.53125 663.355469 C 194.390625 664.734375 196.285156 666.070312 198.214844 667.359375 C 200.140625 668.648438 202.097656 669.890625 204.085938 671.082031 C 206.074219 672.277344 208.089844 673.417969 210.132812 674.515625 C 212.175781 675.609375 214.246094 676.652344 216.34375 677.644531 C 218.4375 678.636719 220.554688 679.578125 222.695312 680.464844 C 224.839844 681.355469 227 682.191406 229.183594 682.972656 C 231.363281 683.753906 233.566406 684.484375 235.78125 685.160156 C 238 685.832031 240.234375 686.453125 242.480469 687.019531 C 244.730469 687.582031 246.992188 688.09375 249.265625 688.546875 C 251.539062 689 253.820312 689.398438 256.113281 689.742188 C 258.40625 690.085938 260.707031 690.371094 263.011719 690.601562 C 265.320312 690.828125 267.628906 691.003906 269.945312 691.117188 C 272.261719 691.234375 274.578125 691.292969 276.894531 691.296875 L 532.917969 691.296875 C 535.234375 691.292969 537.550781 691.234375 539.867188 691.117188 C 542.183594 691.003906 544.492188 690.828125 546.800781 690.601562 C 549.105469 690.371094 551.40625 690.085938 553.699219 689.742188 C 555.992188 689.398438 558.277344 689 560.546875 688.546875 C 562.820312 688.09375 565.082031 687.582031 567.332031 687.019531 C 569.578125 686.453125 571.8125 685.832031 574.03125 685.160156 C 576.25 684.484375 578.449219 683.753906 580.628906 682.972656 C 582.8125 682.191406 584.976562 681.355469 587.117188 680.464844 C 589.257812 679.578125 591.375 678.636719 593.46875 677.644531 C 595.566406 676.652344 597.636719 675.609375 599.679688 674.515625 C 601.722656 673.417969 603.738281 672.277344 605.726562 671.082031 C 607.714844 669.890625 609.671875 668.648438 611.601562 667.359375 C 613.527344 666.070312 615.421875 664.734375 617.285156 663.355469 C 619.144531 661.972656 620.972656 660.546875 622.765625 659.074219 C 624.554688 657.601562 626.308594 656.089844 628.027344 654.53125 C 629.746094 652.972656 631.421875 651.375 633.0625 649.734375 C 634.703125 648.09375 636.300781 646.417969 637.855469 644.699219 C 639.414062 642.980469 640.929688 641.222656 642.398438 639.433594 C 643.871094 637.640625 645.296875 635.8125 646.675781 633.949219 C 648.058594 632.085938 649.394531 630.191406 650.683594 628.265625 C 651.96875 626.335938 653.210938 624.378906 654.402344 622.390625 C 655.597656 620.398438 656.738281 618.382812 657.832031 616.339844 C 658.925781 614.292969 659.96875 612.222656 660.960938 610.128906 C 661.953125 608.03125 662.894531 605.914062 663.78125 603.769531 C 664.671875 601.628906 665.503906 599.464844 666.289062 597.28125 C 667.070312 595.101562 667.796875 592.898438 668.472656 590.679688 C 669.148438 588.460938 669.765625 586.226562 670.332031 583.976562 C 670.898438 581.730469 671.40625 579.46875 671.859375 577.191406 C 672.316406 574.917969 672.714844 572.636719 673.054688 570.339844 C 673.398438 568.046875 673.683594 565.746094 673.914062 563.4375 C 674.140625 561.132812 674.316406 558.820312 674.429688 556.503906 C 674.546875 554.1875 674.605469 551.871094 674.609375 549.550781 L 674.609375 266.058594 C 674.605469 263.738281 674.546875 261.421875 674.429688 259.105469 C 674.316406 256.789062 674.140625 254.476562 673.914062 252.167969 C 673.683594 249.863281 673.398438 247.5625 673.054688 245.265625 C 672.714844 242.972656 672.316406 240.691406 671.859375 238.414062 C 671.40625 236.140625 670.898438 233.878906 670.332031 231.628906 C 669.765625 229.382812 669.148438 227.148438 668.472656 224.929688 C 667.796875 222.710938 667.070312 220.507812 666.289062 218.324219 C 665.503906 216.144531 664.671875 213.980469 663.78125 211.839844 C 662.894531 209.695312 661.953125 207.578125 660.960938 205.480469 C 659.96875 203.386719 658.925781 201.316406 657.832031 199.269531 C 656.738281 197.226562 655.597656 195.207031 654.402344 193.21875 C 653.210938 191.230469 651.96875 189.273438 650.683594 187.34375 C 649.394531 185.417969 648.058594 183.523438 646.675781 181.660156 C 645.296875 179.796875 643.871094 177.96875 642.398438 176.175781 C 640.929688 174.382812 639.414062 172.628906 637.855469 170.910156 C 636.300781 169.191406 634.703125 167.515625 633.0625 165.875 C 631.421875 164.234375 629.746094 162.636719 628.027344 161.078125 C 626.308594 159.519531 624.554688 158.003906 622.765625 156.535156 C 620.972656 155.0625 619.144531 153.636719 617.285156 152.253906 C 615.421875 150.871094 613.527344 149.535156 611.601562 148.25 C 609.671875 146.960938 607.714844 145.71875 605.726562 144.523438 C 603.738281 143.332031 601.722656 142.1875 599.679688 141.09375 C 597.636719 140 595.566406 138.957031 593.46875 137.964844 C 591.375 136.972656 589.257812 136.03125 587.117188 135.144531 C 584.976562 134.253906 582.8125 133.417969 580.628906 132.636719 C 578.449219 131.855469 576.25 131.125 574.03125 130.449219 C 571.8125 129.777344 569.578125 129.15625 567.332031 128.589844 C 565.082031 128.023438 562.820312 127.515625 560.546875 127.0625 C 558.277344 126.605469 555.992188 126.207031 553.699219 125.867188 C 551.40625 125.523438 549.105469 125.238281 546.800781 125.007812 C 544.492188 124.777344 542.183594 124.605469 539.867188 124.488281 C 537.550781 124.375 535.234375 124.316406 532.917969 124.3125 Z M 276.894531 124.3125 " fill-opacity="1" fill-rule="nonzero"/><path fill="#000000" d="M 692.34375 548.132812 C 690.859375 548.136719 689.402344 547.953125 687.964844 547.589844 C 686.53125 547.226562 685.160156 546.6875 683.859375 545.980469 C 682.558594 545.273438 681.363281 544.414062 680.277344 543.40625 C 679.191406 542.398438 678.246094 541.273438 677.441406 540.027344 C 676.042969 537.851562 674.578125 535.722656 673.046875 533.636719 C 671.511719 531.554688 669.917969 529.519531 668.257812 527.539062 C 666.597656 525.554688 664.878906 523.625 663.097656 521.746094 C 661.316406 519.871094 659.480469 518.050781 657.585938 516.292969 C 655.691406 514.53125 653.746094 512.828125 651.746094 511.191406 C 649.746094 509.550781 647.695312 507.976562 645.597656 506.464844 C 643.5 504.953125 641.355469 503.511719 639.164062 502.132812 C 636.976562 500.757812 634.746094 499.449219 632.476562 498.210938 C 630.203125 496.976562 627.898438 495.808594 625.554688 494.71875 C 623.210938 493.625 620.832031 492.605469 618.425781 491.664062 C 616.019531 490.71875 613.585938 489.851562 611.121094 489.058594 C 608.660156 488.265625 606.175781 487.554688 603.671875 486.917969 C 601.164062 486.28125 598.640625 485.722656 596.097656 485.246094 C 593.558594 484.765625 591.003906 484.367188 588.4375 484.050781 C 585.871094 483.730469 583.296875 483.492188 580.71875 483.335938 C 578.136719 483.179688 575.550781 483.101562 572.96875 483.105469 L 219.132812 483.105469 C 215 483.089844 210.871094 483.285156 206.757812 483.683594 C 202.640625 484.085938 198.554688 484.691406 194.5 485.503906 C 190.441406 486.3125 186.4375 487.328125 182.484375 488.542969 C 178.53125 489.757812 174.648438 491.167969 170.835938 492.773438 C 167.027344 494.378906 163.304688 496.171875 159.671875 498.152344 C 156.042969 500.132812 152.519531 502.289062 149.105469 504.625 C 145.691406 506.960938 142.402344 509.460938 139.242188 512.125 C 136.078125 514.792969 133.058594 517.609375 130.179688 520.582031 C 129.769531 520.980469 129.34375 521.363281 128.898438 521.722656 C 128.453125 522.082031 127.992188 522.417969 127.515625 522.734375 C 127.039062 523.050781 126.546875 523.339844 126.042969 523.609375 C 125.535156 523.875 125.019531 524.117188 124.488281 524.335938 C 123.960938 524.554688 123.421875 524.746094 122.875 524.910156 C 122.328125 525.074219 121.773438 525.210938 121.210938 525.324219 C 120.648438 525.433594 120.085938 525.519531 119.515625 525.574219 C 118.945312 525.632812 118.375 525.660156 117.804688 525.664062 C 117.230469 525.664062 116.660156 525.636719 116.09375 525.585938 C 115.523438 525.53125 114.957031 525.449219 114.394531 525.339844 C 113.835938 525.230469 113.277344 525.09375 112.730469 524.933594 C 112.183594 524.769531 111.644531 524.582031 111.113281 524.367188 C 110.582031 524.152344 110.0625 523.910156 109.558594 523.648438 C 109.050781 523.382812 108.558594 523.09375 108.078125 522.78125 C 107.601562 522.46875 107.136719 522.132812 106.691406 521.773438 C 106.246094 521.417969 105.816406 521.039062 105.40625 520.636719 C 104.996094 520.238281 104.605469 519.820312 104.238281 519.382812 C 103.867188 518.949219 103.519531 518.492188 103.195312 518.023438 C 102.871094 517.550781 102.570312 517.066406 102.289062 516.566406 C 102.011719 516.066406 101.757812 515.554688 101.53125 515.03125 C 101.300781 514.507812 101.097656 513.972656 100.921875 513.429688 C 100.742188 512.882812 100.59375 512.332031 100.46875 511.773438 C 100.347656 511.214844 100.25 510.652344 100.179688 510.082031 C 100.113281 509.515625 100.070312 508.945312 100.058594 508.375 C 100.042969 507.800781 100.058594 507.230469 100.097656 506.660156 C 100.140625 506.089844 100.207031 505.523438 100.304688 504.957031 C 100.402344 504.394531 100.523438 503.835938 100.675781 503.285156 C 100.824219 502.730469 101.003906 502.1875 101.207031 501.652344 C 101.410156 501.117188 101.636719 500.59375 101.890625 500.082031 C 102.144531 499.570312 102.421875 499.070312 102.726562 498.582031 C 103.027344 498.097656 103.351562 497.628906 103.699219 497.171875 C 104.046875 496.71875 104.417969 496.28125 104.808594 495.863281 C 108.507812 492.046875 112.386719 488.421875 116.453125 484.992188 C 120.515625 481.566406 124.742188 478.351562 129.128906 475.347656 C 133.515625 472.34375 138.042969 469.570312 142.710938 467.023438 C 147.378906 464.476562 152.160156 462.171875 157.058594 460.105469 C 161.957031 458.042969 166.949219 456.226562 172.027344 454.664062 C 177.109375 453.101562 182.257812 451.800781 187.46875 450.753906 C 192.683594 449.710938 197.933594 448.929688 203.222656 448.414062 C 208.515625 447.898438 213.820312 447.652344 219.132812 447.671875 L 572.96875 447.671875 C 576.289062 447.664062 579.609375 447.761719 582.921875 447.960938 C 586.238281 448.160156 589.546875 448.464844 592.84375 448.875 C 596.140625 449.28125 599.421875 449.792969 602.683594 450.402344 C 605.949219 451.015625 609.191406 451.730469 612.414062 452.546875 C 615.632812 453.363281 618.824219 454.28125 621.988281 455.296875 C 625.152344 456.3125 628.277344 457.425781 631.371094 458.636719 C 634.464844 459.851562 637.515625 461.15625 640.527344 462.5625 C 643.539062 463.964844 646.503906 465.460938 649.421875 467.046875 C 652.339844 468.636719 655.207031 470.316406 658.019531 472.082031 C 660.832031 473.851562 663.585938 475.707031 666.28125 477.648438 C 668.980469 479.585938 671.613281 481.609375 674.183594 483.714844 C 676.753906 485.820312 679.253906 488.003906 681.6875 490.269531 C 684.121094 492.53125 686.480469 494.867188 688.769531 497.277344 C 691.054688 499.6875 693.265625 502.164062 695.398438 504.714844 C 697.53125 507.261719 699.582031 509.875 701.550781 512.550781 C 703.519531 515.226562 705.402344 517.964844 707.199219 520.757812 C 708.0625 522.09375 708.730469 523.523438 709.210938 525.039062 C 709.6875 526.558594 709.957031 528.113281 710.019531 529.703125 C 710.078125 531.292969 709.925781 532.863281 709.5625 534.414062 C 709.199219 535.960938 708.640625 537.4375 707.878906 538.835938 C 707.121094 540.234375 706.1875 541.503906 705.085938 542.652344 C 703.980469 543.800781 702.746094 544.78125 701.378906 545.59375 C 700.011719 546.410156 698.5625 547.027344 697.03125 547.449219 C 695.496094 547.875 693.933594 548.085938 692.34375 548.089844 Z M 692.34375 548.132812 " fill-opacity="1" fill-rule="nonzero"/><path fill="#000000" d="M 615.230469 704.585938 C 614.652344 704.585938 614.070312 704.558594 613.496094 704.5 C 612.917969 704.441406 612.34375 704.359375 611.777344 704.246094 C 611.207031 704.132812 610.644531 703.992188 610.089844 703.824219 C 609.535156 703.652344 608.988281 703.457031 608.453125 703.238281 C 607.917969 703.015625 607.394531 702.765625 606.882812 702.492188 C 606.371094 702.21875 605.875 701.921875 605.390625 701.597656 C 604.910156 701.277344 604.441406 700.933594 603.996094 700.5625 C 603.546875 700.195312 603.117188 699.804688 602.707031 699.394531 C 602.296875 698.984375 601.90625 698.554688 601.539062 698.109375 C 601.171875 697.660156 600.828125 697.195312 600.503906 696.710938 C 600.183594 696.226562 599.882812 695.730469 599.609375 695.21875 C 599.335938 694.707031 599.089844 694.183594 598.867188 693.648438 C 598.644531 693.113281 598.449219 692.566406 598.28125 692.011719 C 598.113281 691.457031 597.972656 690.894531 597.859375 690.324219 C 597.746094 689.753906 597.660156 689.179688 597.605469 688.605469 C 597.546875 688.027344 597.519531 687.449219 597.519531 686.867188 L 597.519531 596.679688 C 597.515625 595.570312 597.460938 594.464844 597.351562 593.363281 C 597.238281 592.257812 597.074219 591.164062 596.855469 590.074219 C 596.640625 588.988281 596.367188 587.914062 596.042969 586.851562 C 595.722656 585.792969 595.347656 584.75 594.921875 583.726562 C 594.496094 582.703125 594.019531 581.699219 593.496094 580.722656 C 592.972656 579.746094 592.402344 578.796875 591.785156 577.875 C 591.167969 576.953125 590.507812 576.0625 589.800781 575.207031 C 589.097656 574.351562 588.351562 573.53125 587.566406 572.746094 C 586.785156 571.964844 585.960938 571.21875 585.105469 570.519531 C 584.246094 569.816406 583.355469 569.15625 582.433594 568.539062 C 581.511719 567.925781 580.5625 567.355469 579.585938 566.832031 C 578.605469 566.3125 577.605469 565.839844 576.578125 565.414062 C 575.554688 564.988281 574.511719 564.617188 573.453125 564.296875 C 572.390625 563.972656 571.316406 563.707031 570.230469 563.488281 C 569.140625 563.273438 568.046875 563.109375 566.941406 563.003906 C 565.839844 562.894531 564.734375 562.839844 563.625 562.839844 L 228.476562 562.839844 C 227.367188 562.839844 226.261719 562.894531 225.160156 563.003906 C 224.054688 563.109375 222.960938 563.273438 221.871094 563.488281 C 220.785156 563.707031 219.710938 563.972656 218.648438 564.296875 C 217.589844 564.617188 216.546875 564.988281 215.523438 565.414062 C 214.496094 565.839844 213.496094 566.3125 212.515625 566.832031 C 211.539062 567.355469 210.589844 567.925781 209.667969 568.539062 C 208.746094 569.15625 207.855469 569.816406 206.996094 570.519531 C 206.140625 571.21875 205.316406 571.964844 204.53125 572.746094 C 203.75 573.53125 203.003906 574.351562 202.300781 575.207031 C 201.59375 576.0625 200.933594 576.953125 200.316406 577.875 C 199.699219 578.796875 199.128906 579.746094 198.605469 580.722656 C 198.082031 581.699219 197.605469 582.703125 197.179688 583.726562 C 196.753906 584.75 196.378906 585.792969 196.058594 586.851562 C 195.734375 587.914062 195.460938 588.988281 195.246094 590.074219 C 195.027344 591.164062 194.863281 592.257812 194.75 593.363281 C 194.640625 594.464844 194.585938 595.570312 194.582031 596.679688 L 194.582031 673.578125 C 194.582031 674.160156 194.554688 674.738281 194.496094 675.316406 C 194.441406 675.894531 194.355469 676.464844 194.242188 677.035156 C 194.128906 677.605469 193.988281 678.167969 193.820312 678.722656 C 193.652344 679.277344 193.457031 679.824219 193.234375 680.359375 C 193.011719 680.894531 192.765625 681.417969 192.492188 681.929688 C 192.21875 682.441406 191.917969 682.941406 191.597656 683.421875 C 191.273438 683.90625 190.929688 684.371094 190.5625 684.820312 C 190.195312 685.265625 189.804688 685.695312 189.394531 686.105469 C 188.984375 686.515625 188.554688 686.90625 188.105469 687.273438 C 187.65625 687.644531 187.191406 687.988281 186.710938 688.3125 C 186.226562 688.632812 185.730469 688.929688 185.21875 689.203125 C 184.707031 689.476562 184.183594 689.726562 183.648438 689.949219 C 183.113281 690.171875 182.566406 690.367188 182.011719 690.535156 C 181.457031 690.703125 180.894531 690.84375 180.324219 690.957031 C 179.757812 691.070312 179.183594 691.15625 178.605469 691.210938 C 178.027344 691.269531 177.449219 691.296875 176.871094 691.296875 C 176.289062 691.296875 175.710938 691.269531 175.132812 691.210938 C 174.558594 691.15625 173.984375 691.070312 173.414062 690.957031 C 172.847656 690.84375 172.285156 690.703125 171.730469 690.535156 C 171.175781 690.367188 170.628906 690.171875 170.09375 689.949219 C 169.558594 689.726562 169.03125 689.476562 168.519531 689.203125 C 168.007812 688.929688 167.511719 688.632812 167.03125 688.3125 C 166.546875 687.988281 166.082031 687.644531 165.632812 687.273438 C 165.1875 686.90625 164.757812 686.515625 164.347656 686.105469 C 163.9375 685.695312 163.546875 685.265625 163.179688 684.820312 C 162.8125 684.371094 162.464844 683.90625 162.144531 683.421875 C 161.820312 682.941406 161.523438 682.441406 161.25 681.929688 C 160.976562 681.417969 160.730469 680.894531 160.507812 680.359375 C 160.285156 679.824219 160.089844 679.277344 159.921875 678.722656 C 159.753906 678.167969 159.613281 677.605469 159.5 677.035156 C 159.386719 676.464844 159.300781 675.894531 159.246094 675.316406 C 159.1875 674.738281 159.160156 674.160156 159.160156 673.578125 L 159.160156 596.679688 C 159.160156 595.546875 159.191406 594.414062 159.246094 593.28125 C 159.304688 592.148438 159.390625 591.019531 159.503906 589.890625 C 159.617188 588.761719 159.757812 587.636719 159.921875 586.515625 C 160.089844 585.394531 160.285156 584.277344 160.507812 583.164062 C 160.730469 582.054688 160.980469 580.949219 161.257812 579.847656 C 161.535156 578.75 161.839844 577.65625 162.167969 576.570312 C 162.5 575.488281 162.855469 574.410156 163.238281 573.34375 C 163.621094 572.277344 164.03125 571.21875 164.464844 570.171875 C 164.902344 569.125 165.363281 568.089844 165.847656 567.0625 C 166.332031 566.039062 166.84375 565.027344 167.378906 564.027344 C 167.914062 563.027344 168.472656 562.042969 169.058594 561.070312 C 169.640625 560.097656 170.246094 559.140625 170.878906 558.199219 C 171.507812 557.253906 172.160156 556.328125 172.835938 555.417969 C 173.511719 554.507812 174.210938 553.613281 174.929688 552.738281 C 175.648438 551.863281 176.390625 551.003906 177.152344 550.164062 C 177.914062 549.324219 178.695312 548.503906 179.5 547.703125 C 180.300781 546.902344 181.121094 546.121094 181.960938 545.359375 C 182.800781 544.597656 183.660156 543.855469 184.535156 543.136719 C 185.414062 542.417969 186.308594 541.722656 187.21875 541.046875 C 188.128906 540.371094 189.054688 539.71875 189.996094 539.089844 C 190.941406 538.460938 191.898438 537.851562 192.871094 537.269531 C 193.84375 536.6875 194.828125 536.128906 195.828125 535.59375 C 196.828125 535.058594 197.839844 534.550781 198.863281 534.066406 C 199.890625 533.582031 200.925781 533.121094 201.972656 532.6875 C 203.019531 532.253906 204.078125 531.84375 205.144531 531.460938 C 206.210938 531.082031 207.289062 530.722656 208.371094 530.394531 C 209.457031 530.066406 210.550781 529.761719 211.648438 529.488281 C 212.746094 529.210938 213.855469 528.960938 214.964844 528.742188 C 216.078125 528.519531 217.195312 528.324219 218.316406 528.15625 C 219.4375 527.992188 220.558594 527.851562 221.6875 527.738281 C 222.816406 527.628906 223.945312 527.542969 225.078125 527.488281 C 226.210938 527.433594 227.34375 527.402344 228.476562 527.402344 L 563.625 527.402344 C 564.757812 527.402344 565.890625 527.433594 567.023438 527.488281 C 568.15625 527.542969 569.285156 527.628906 570.414062 527.738281 C 571.539062 527.851562 572.664062 527.992188 573.785156 528.15625 C 574.90625 528.324219 576.023438 528.519531 577.136719 528.742188 C 578.246094 528.960938 579.351562 529.210938 580.453125 529.488281 C 581.550781 529.761719 582.644531 530.066406 583.730469 530.394531 C 584.8125 530.722656 585.890625 531.082031 586.957031 531.460938 C 588.023438 531.84375 589.082031 532.253906 590.128906 532.6875 C 591.175781 533.121094 592.210938 533.582031 593.238281 534.066406 C 594.261719 534.550781 595.273438 535.058594 596.273438 535.59375 C 597.273438 536.128906 598.257812 536.6875 599.230469 537.269531 C 600.203125 537.851562 601.160156 538.460938 602.105469 539.089844 C 603.046875 539.71875 603.972656 540.371094 604.882812 541.046875 C 605.792969 541.722656 606.6875 542.417969 607.566406 543.136719 C 608.441406 543.855469 609.300781 544.597656 610.140625 545.359375 C 610.980469 546.121094 611.800781 546.902344 612.601562 547.703125 C 613.40625 548.503906 614.1875 549.324219 614.949219 550.164062 C 615.710938 551.003906 616.449219 551.863281 617.171875 552.738281 C 617.890625 553.613281 618.589844 554.507812 619.265625 555.417969 C 619.941406 556.328125 620.59375 557.253906 621.222656 558.199219 C 621.855469 559.140625 622.460938 560.097656 623.042969 561.070312 C 623.628906 562.042969 624.1875 563.027344 624.722656 564.027344 C 625.257812 565.027344 625.769531 566.039062 626.253906 567.0625 C 626.738281 568.089844 627.199219 569.125 627.636719 570.171875 C 628.070312 571.21875 628.480469 572.277344 628.863281 573.34375 C 629.246094 574.410156 629.601562 575.488281 629.933594 576.570312 C 630.261719 577.65625 630.566406 578.75 630.84375 579.847656 C 631.121094 580.949219 631.371094 582.054688 631.59375 583.164062 C 631.816406 584.277344 632.011719 585.394531 632.175781 586.515625 C 632.34375 587.636719 632.484375 588.761719 632.597656 589.890625 C 632.710938 591.019531 632.796875 592.148438 632.855469 593.28125 C 632.910156 594.414062 632.941406 595.546875 632.941406 596.679688 L 632.941406 686.867188 C 632.941406 687.449219 632.914062 688.027344 632.855469 688.605469 C 632.800781 689.179688 632.714844 689.753906 632.601562 690.324219 C 632.488281 690.894531 632.347656 691.457031 632.179688 692.011719 C 632.011719 692.566406 631.816406 693.113281 631.59375 693.648438 C 631.371094 694.183594 631.125 694.707031 630.851562 695.21875 C 630.578125 695.730469 630.28125 696.226562 629.957031 696.710938 C 629.636719 697.195312 629.289062 697.660156 628.921875 698.109375 C 628.554688 698.554688 628.164062 698.984375 627.753906 699.394531 C 627.34375 699.804688 626.914062 700.195312 626.46875 700.5625 C 626.019531 700.933594 625.554688 701.277344 625.070312 701.597656 C 624.589844 701.921875 624.089844 702.21875 623.582031 702.492188 C 623.070312 702.765625 622.542969 703.015625 622.007812 703.238281 C 621.472656 703.457031 620.925781 703.652344 620.371094 703.824219 C 619.816406 703.992188 619.253906 704.132812 618.6875 704.246094 C 618.117188 704.359375 617.542969 704.441406 616.96875 704.5 C 616.390625 704.558594 615.8125 704.585938 615.230469 704.585938 Z M 615.230469 704.585938 " fill-opacity="1" fill-rule="nonzero"/><path fill="#000000" d="M 573.167969 483.105469 C 572.585938 483.105469 572.007812 483.078125 571.429688 483.023438 C 570.851562 482.964844 570.28125 482.878906 569.710938 482.765625 C 569.140625 482.652344 568.578125 482.511719 568.023438 482.34375 C 567.46875 482.175781 566.925781 481.980469 566.386719 481.757812 C 565.851562 481.535156 565.328125 481.289062 564.816406 481.015625 C 564.304688 480.742188 563.808594 480.441406 563.324219 480.121094 C 562.84375 479.796875 562.378906 479.453125 561.929688 479.085938 C 561.480469 478.71875 561.050781 478.328125 560.640625 477.917969 C 560.230469 477.507812 559.84375 477.078125 559.476562 476.628906 C 559.105469 476.179688 558.761719 475.714844 558.441406 475.234375 C 558.117188 474.75 557.820312 474.253906 557.546875 473.742188 C 557.273438 473.230469 557.023438 472.707031 556.804688 472.167969 C 556.582031 471.632812 556.386719 471.085938 556.21875 470.53125 C 556.046875 469.976562 555.90625 469.414062 555.792969 468.84375 C 555.683594 468.277344 555.597656 467.703125 555.539062 467.125 C 555.484375 466.546875 555.453125 465.96875 555.453125 465.390625 L 555.453125 301.496094 L 236.648438 301.496094 L 236.648438 465.390625 C 236.648438 465.96875 236.617188 466.546875 236.5625 467.125 C 236.503906 467.703125 236.417969 468.277344 236.304688 468.84375 C 236.195312 469.414062 236.050781 469.976562 235.882812 470.53125 C 235.714844 471.085938 235.519531 471.632812 235.296875 472.167969 C 235.078125 472.707031 234.828125 473.230469 234.554688 473.742188 C 234.28125 474.253906 233.984375 474.75 233.660156 475.234375 C 233.339844 475.714844 232.996094 476.179688 232.625 476.628906 C 232.257812 477.078125 231.871094 477.507812 231.460938 477.917969 C 231.050781 478.328125 230.621094 478.71875 230.171875 479.085938 C 229.722656 479.453125 229.257812 479.796875 228.773438 480.121094 C 228.292969 480.441406 227.796875 480.742188 227.285156 481.015625 C 226.773438 481.289062 226.25 481.535156 225.714844 481.757812 C 225.175781 481.980469 224.632812 482.175781 224.078125 482.34375 C 223.523438 482.511719 222.960938 482.652344 222.390625 482.765625 C 221.820312 482.878906 221.25 482.964844 220.671875 483.023438 C 220.09375 483.078125 219.515625 483.105469 218.933594 483.105469 C 218.355469 483.105469 217.777344 483.078125 217.199219 483.023438 C 216.621094 482.964844 216.050781 482.878906 215.480469 482.765625 C 214.910156 482.652344 214.347656 482.511719 213.792969 482.34375 C 213.238281 482.175781 212.695312 481.980469 212.15625 481.757812 C 211.621094 481.535156 211.097656 481.289062 210.585938 481.015625 C 210.074219 480.742188 209.578125 480.441406 209.09375 480.121094 C 208.613281 479.796875 208.148438 479.453125 207.699219 479.085938 C 207.25 478.71875 206.820312 478.328125 206.410156 477.917969 C 206 477.507812 205.613281 477.078125 205.246094 476.628906 C 204.875 476.179688 204.53125 475.714844 204.207031 475.234375 C 203.886719 474.75 203.589844 474.253906 203.316406 473.742188 C 203.042969 473.230469 202.792969 472.707031 202.570312 472.167969 C 202.351562 471.632812 202.15625 471.085938 201.988281 470.53125 C 201.816406 469.976562 201.675781 469.414062 201.5625 468.84375 C 201.449219 468.277344 201.367188 467.703125 201.308594 467.125 C 201.253906 466.546875 201.222656 465.96875 201.222656 465.390625 L 201.222656 283.777344 C 201.222656 283.195312 201.253906 282.617188 201.308594 282.039062 C 201.367188 281.460938 201.449219 280.890625 201.5625 280.320312 C 201.675781 279.75 201.816406 279.1875 201.988281 278.632812 C 202.15625 278.078125 202.351562 277.53125 202.570312 276.996094 C 202.792969 276.460938 203.042969 275.9375 203.316406 275.425781 C 203.589844 274.914062 203.886719 274.414062 204.207031 273.933594 C 204.53125 273.449219 204.875 272.984375 205.246094 272.535156 C 205.613281 272.085938 206 271.65625 206.410156 271.246094 C 206.820312 270.835938 207.25 270.449219 207.699219 270.082031 C 208.148438 269.710938 208.613281 269.367188 209.09375 269.042969 C 209.578125 268.722656 210.074219 268.425781 210.585938 268.152344 C 211.097656 267.875 211.621094 267.628906 212.15625 267.40625 C 212.695312 267.183594 213.238281 266.988281 213.792969 266.820312 C 214.347656 266.652344 214.910156 266.511719 215.480469 266.398438 C 216.050781 266.285156 216.621094 266.199219 217.199219 266.144531 C 217.777344 266.085938 218.355469 266.058594 218.933594 266.058594 L 573.167969 266.058594 C 573.746094 266.058594 574.324219 266.085938 574.902344 266.144531 C 575.480469 266.199219 576.050781 266.285156 576.621094 266.398438 C 577.191406 266.511719 577.753906 266.652344 578.308594 266.820312 C 578.863281 266.988281 579.40625 267.183594 579.945312 267.40625 C 580.480469 267.628906 581.003906 267.875 581.515625 268.152344 C 582.027344 268.425781 582.523438 268.722656 583.007812 269.042969 C 583.488281 269.367188 583.953125 269.710938 584.402344 270.082031 C 584.851562 270.449219 585.28125 270.835938 585.691406 271.246094 C 586.101562 271.65625 586.488281 272.085938 586.855469 272.535156 C 587.226562 272.984375 587.570312 273.449219 587.894531 273.933594 C 588.214844 274.414062 588.511719 274.914062 588.785156 275.425781 C 589.058594 275.9375 589.308594 276.460938 589.53125 276.996094 C 589.75 277.53125 589.945312 278.078125 590.113281 278.632812 C 590.285156 279.1875 590.425781 279.75 590.539062 280.320312 C 590.652344 280.890625 590.734375 281.460938 590.792969 282.039062 C 590.847656 282.617188 590.878906 283.195312 590.878906 283.777344 L 590.878906 465.390625 C 590.878906 465.96875 590.847656 466.546875 590.792969 467.125 C 590.734375 467.703125 590.652344 468.277344 590.539062 468.84375 C 590.425781 469.414062 590.285156 469.976562 590.113281 470.53125 C 589.945312 471.085938 589.75 471.632812 589.53125 472.167969 C 589.308594 472.707031 589.058594 473.230469 588.785156 473.742188 C 588.511719 474.253906 588.214844 474.75 587.894531 475.234375 C 587.570312 475.714844 587.226562 476.179688 586.855469 476.628906 C 586.488281 477.078125 586.101562 477.507812 585.691406 477.917969 C 585.28125 478.328125 584.851562 478.71875 584.402344 479.085938 C 583.953125 479.453125 583.488281 479.796875 583.007812 480.121094 C 582.523438 480.441406 582.027344 480.742188 581.515625 481.015625 C 581.003906 481.289062 580.480469 481.535156 579.945312 481.757812 C 579.40625 481.980469 578.863281 482.175781 578.308594 482.34375 C 577.753906 482.511719 577.191406 482.652344 576.621094 482.765625 C 576.050781 482.878906 575.480469 482.964844 574.902344 483.023438 C 574.324219 483.078125 573.746094 483.105469 573.167969 483.105469 Z M 573.167969 483.105469 " fill-opacity="1" fill-rule="nonzero"/><path fill="#000000" d="M 454.71875 195.183594 L 337.382812 195.183594 C 335.824219 195.183594 334.269531 195.105469 332.71875 194.949219 C 331.167969 194.796875 329.628906 194.566406 328.097656 194.257812 C 326.570312 193.953125 325.0625 193.574219 323.570312 193.121094 C 322.082031 192.667969 320.613281 192.140625 319.175781 191.542969 C 317.738281 190.945312 316.328125 190.277344 314.957031 189.542969 C 313.582031 188.808594 312.246094 188.007812 310.953125 187.140625 C 309.65625 186.273438 308.40625 185.34375 307.203125 184.355469 C 305.996094 183.367188 304.84375 182.320312 303.742188 181.21875 C 302.640625 180.117188 301.59375 178.960938 300.605469 177.757812 C 299.617188 176.554688 298.691406 175.300781 297.824219 174.007812 C 296.957031 172.710938 296.15625 171.375 295.421875 170 C 294.6875 168.625 294.019531 167.21875 293.421875 165.78125 C 292.824219 164.339844 292.300781 162.875 291.847656 161.382812 C 291.390625 159.890625 291.011719 158.382812 290.707031 156.851562 C 290.402344 155.324219 290.171875 153.785156 290.015625 152.234375 C 289.863281 150.679688 289.785156 149.125 289.78125 147.566406 L 289.78125 106.59375 C 289.78125 106.011719 289.808594 105.433594 289.867188 104.855469 C 289.921875 104.28125 290.007812 103.707031 290.121094 103.136719 C 290.234375 102.566406 290.375 102.003906 290.542969 101.449219 C 290.710938 100.894531 290.90625 100.347656 291.128906 99.8125 C 291.351562 99.277344 291.597656 98.753906 291.871094 98.242188 C 292.144531 97.730469 292.445312 97.234375 292.765625 96.75 C 293.089844 96.269531 293.433594 95.800781 293.800781 95.351562 C 294.167969 94.90625 294.558594 94.476562 294.96875 94.066406 C 295.378906 93.65625 295.808594 93.265625 296.257812 92.898438 C 296.707031 92.53125 297.171875 92.183594 297.652344 91.863281 C 298.136719 91.539062 298.632812 91.242188 299.144531 90.96875 C 299.65625 90.695312 300.179688 90.445312 300.714844 90.222656 C 301.25 90.003906 301.796875 89.808594 302.351562 89.636719 C 302.90625 89.46875 303.46875 89.328125 304.039062 89.214844 C 304.605469 89.101562 305.179688 89.019531 305.757812 88.960938 C 306.335938 88.902344 306.914062 88.875 307.492188 88.875 L 484.609375 88.875 C 485.1875 88.875 485.765625 88.902344 486.34375 88.960938 C 486.921875 89.019531 487.496094 89.101562 488.0625 89.214844 C 488.632812 89.328125 489.195312 89.46875 489.75 89.636719 C 490.304688 89.808594 490.851562 90.003906 491.386719 90.222656 C 491.921875 90.445312 492.445312 90.695312 492.957031 90.96875 C 493.46875 91.242188 493.964844 91.539062 494.449219 91.863281 C 494.929688 92.183594 495.394531 92.53125 495.84375 92.898438 C 496.292969 93.265625 496.722656 93.65625 497.132812 94.066406 C 497.542969 94.476562 497.929688 94.90625 498.300781 95.355469 C 498.667969 95.800781 499.011719 96.269531 499.335938 96.75 C 499.65625 97.234375 499.957031 97.730469 500.230469 98.242188 C 500.503906 98.753906 500.75 99.277344 500.972656 99.8125 C 501.195312 100.347656 501.390625 100.894531 501.558594 101.449219 C 501.726562 102.003906 501.867188 102.566406 501.980469 103.136719 C 502.09375 103.707031 502.179688 104.28125 502.234375 104.855469 C 502.292969 105.433594 502.320312 106.011719 502.320312 106.59375 L 502.320312 147.566406 C 502.316406 149.125 502.238281 150.679688 502.085938 152.234375 C 501.929688 153.785156 501.699219 155.324219 501.394531 156.851562 C 501.089844 158.382812 500.710938 159.890625 500.253906 161.382812 C 499.800781 162.875 499.277344 164.339844 498.679688 165.78125 C 498.082031 167.21875 497.414062 168.625 496.679688 170 C 495.945312 171.375 495.144531 172.710938 494.277344 174.007812 C 493.410156 175.300781 492.484375 176.554688 491.496094 177.757812 C 490.507812 178.960938 489.460938 180.117188 488.359375 181.21875 C 487.257812 182.320312 486.105469 183.367188 484.898438 184.355469 C 483.695312 185.34375 482.445312 186.273438 481.148438 187.140625 C 479.855469 188.007812 478.519531 188.808594 477.144531 189.542969 C 475.769531 190.277344 474.363281 190.945312 472.925781 191.542969 C 471.484375 192.140625 470.019531 192.667969 468.53125 193.121094 C 467.039062 193.574219 465.53125 193.953125 464 194.257812 C 462.472656 194.566406 460.933594 194.796875 459.382812 194.949219 C 457.832031 195.105469 456.277344 195.183594 454.71875 195.183594 Z M 325.203125 124.3125 L 325.203125 147.566406 C 325.207031 148.367188 325.285156 149.160156 325.441406 149.941406 C 325.597656 150.726562 325.832031 151.488281 326.136719 152.226562 C 326.445312 152.964844 326.820312 153.664062 327.261719 154.328125 C 327.707031 154.996094 328.210938 155.609375 328.777344 156.175781 C 329.34375 156.738281 329.957031 157.246094 330.621094 157.6875 C 331.285156 158.132812 331.988281 158.507812 332.726562 158.816406 C 333.464844 159.121094 334.222656 159.355469 335.007812 159.511719 C 335.789062 159.667969 336.582031 159.746094 337.382812 159.75 L 454.71875 159.75 C 455.519531 159.746094 456.3125 159.667969 457.09375 159.511719 C 457.878906 159.355469 458.636719 159.121094 459.375 158.816406 C 460.113281 158.507812 460.816406 158.132812 461.480469 157.6875 C 462.144531 157.246094 462.757812 156.738281 463.324219 156.175781 C 463.890625 155.609375 464.394531 154.996094 464.839844 154.328125 C 465.28125 153.664062 465.65625 152.964844 465.964844 152.226562 C 466.269531 151.488281 466.503906 150.726562 466.660156 149.941406 C 466.816406 149.160156 466.894531 148.367188 466.898438 147.566406 L 466.898438 124.3125 Z M 325.203125 124.3125 " fill-opacity="1" fill-rule="nonzero"/></svg>