<svg xmlns="http://www.w3.org/2000/svg" xmlns:xlink="http://www.w3.org/1999/xlink" width="1080" zoomAndPan="magnify" viewBox="0 0 810 809.999993" height="1080" preserveAspectRatio="xMidYMid meet" version="1.0"><path fill="#000000" d="M 88.59375 250.960938 C 88.59375 252.203125 88.625 253.445312 88.683594 254.6875 C 88.746094 255.925781 88.835938 257.167969 88.960938 258.402344 C 89.082031 259.640625 89.234375 260.871094 89.414062 262.101562 C 89.597656 263.328125 89.808594 264.550781 90.054688 265.769531 C 90.296875 266.988281 90.566406 268.203125 90.871094 269.40625 C 91.171875 270.609375 91.503906 271.808594 91.863281 272.996094 C 92.222656 274.1875 92.613281 275.363281 93.03125 276.535156 C 93.453125 277.703125 93.898438 278.863281 94.375 280.011719 C 94.851562 281.160156 95.351562 282.292969 95.882812 283.417969 C 96.414062 284.539062 96.972656 285.648438 97.558594 286.746094 C 98.144531 287.839844 98.757812 288.921875 99.398438 289.988281 C 100.035156 291.050781 100.699219 292.101562 101.390625 293.132812 C 102.082031 294.167969 102.796875 295.183594 103.539062 296.179688 C 104.277344 297.179688 105.042969 298.15625 105.832031 299.117188 C 106.621094 300.078125 107.429688 301.019531 108.265625 301.9375 C 109.101562 302.859375 109.957031 303.757812 110.835938 304.636719 C 111.714844 305.515625 112.613281 306.371094 113.535156 307.207031 C 114.457031 308.039062 115.394531 308.851562 116.355469 309.640625 C 117.316406 310.425781 118.296875 311.191406 119.296875 311.929688 C 120.292969 312.671875 121.308594 313.386719 122.34375 314.078125 C 123.375 314.765625 124.425781 315.429688 125.492188 316.070312 C 126.558594 316.707031 127.636719 317.320312 128.734375 317.90625 C 129.832031 318.492188 130.941406 319.050781 132.0625 319.582031 C 133.1875 320.113281 134.324219 320.617188 135.472656 321.089844 C 136.621094 321.566406 137.777344 322.015625 138.949219 322.433594 C 140.117188 322.851562 141.296875 323.242188 142.488281 323.601562 C 143.675781 323.960938 144.875 324.292969 146.078125 324.59375 C 147.285156 324.898438 148.496094 325.167969 149.714844 325.410156 C 150.933594 325.652344 152.160156 325.867188 153.390625 326.046875 C 154.617188 326.230469 155.851562 326.382812 157.089844 326.503906 C 158.324219 326.625 159.5625 326.71875 160.804688 326.777344 C 162.046875 326.839844 163.289062 326.871094 164.53125 326.871094 C 165.773438 326.871094 167.015625 326.839844 168.257812 326.777344 C 169.5 326.71875 170.738281 326.625 171.972656 326.503906 C 173.210938 326.382812 174.445312 326.230469 175.671875 326.046875 C 176.902344 325.867188 178.128906 325.652344 179.347656 325.410156 C 180.566406 325.167969 181.777344 324.894531 182.984375 324.59375 C 184.1875 324.292969 185.386719 323.960938 186.574219 323.601562 C 187.765625 323.242188 188.945312 322.851562 190.113281 322.433594 C 191.285156 322.015625 192.441406 321.566406 193.589844 321.089844 C 194.738281 320.617188 195.875 320.113281 197 319.582031 C 198.121094 319.050781 199.230469 318.492188 200.328125 317.90625 C 201.425781 317.320312 202.503906 316.707031 203.570312 316.070312 C 204.636719 315.429688 205.6875 314.765625 206.71875 314.078125 C 207.753906 313.386719 208.769531 312.671875 209.765625 311.929688 C 210.765625 311.191406 211.746094 310.425781 212.707031 309.640625 C 213.667969 308.851562 214.605469 308.039062 215.527344 307.207031 C 216.449219 306.371094 217.347656 305.515625 218.226562 304.636719 C 219.105469 303.757812 219.960938 302.859375 220.796875 301.9375 C 221.632812 301.019531 222.441406 300.078125 223.230469 299.117188 C 224.019531 298.15625 224.785156 297.179688 225.523438 296.179688 C 226.265625 295.183594 226.980469 294.167969 227.671875 293.132812 C 228.363281 292.101562 229.027344 291.050781 229.664062 289.988281 C 230.304688 288.921875 230.917969 287.839844 231.503906 286.746094 C 232.089844 285.648438 232.648438 284.539062 233.179688 283.417969 C 233.710938 282.292969 234.210938 281.160156 234.6875 280.011719 C 235.164062 278.863281 235.609375 277.703125 236.03125 276.535156 C 236.449219 275.363281 236.839844 274.1875 237.199219 272.996094 C 237.558594 271.808594 237.890625 270.609375 238.191406 269.40625 C 238.496094 268.203125 238.765625 266.988281 239.007812 265.769531 C 239.253906 264.550781 239.464844 263.328125 239.648438 262.101562 C 239.828125 260.871094 239.980469 259.640625 240.101562 258.402344 C 240.226562 257.167969 240.316406 255.925781 240.378906 254.6875 C 240.4375 253.445312 240.46875 252.203125 240.46875 250.960938 C 240.46875 249.71875 240.4375 248.480469 240.378906 247.238281 C 240.316406 245.996094 240.226562 244.757812 240.101562 243.523438 C 239.980469 242.285156 239.828125 241.054688 239.648438 239.824219 C 239.464844 238.59375 239.253906 237.371094 239.007812 236.152344 C 238.765625 234.933594 238.496094 233.722656 238.191406 232.519531 C 237.890625 231.3125 237.558594 230.117188 237.199219 228.925781 C 236.839844 227.738281 236.449219 226.558594 236.03125 225.390625 C 235.609375 224.21875 235.164062 223.0625 234.6875 221.914062 C 234.210938 220.765625 233.710938 219.628906 233.179688 218.507812 C 232.648438 217.386719 232.089844 216.277344 231.503906 215.179688 C 230.917969 214.085938 230.304688 213.003906 229.664062 211.9375 C 229.027344 210.871094 228.363281 209.824219 227.671875 208.789062 C 226.980469 207.757812 226.265625 206.742188 225.523438 205.746094 C 224.785156 204.746094 224.019531 203.769531 223.230469 202.808594 C 222.441406 201.847656 221.632812 200.90625 220.796875 199.984375 C 219.960938 199.066406 219.105469 198.167969 218.226562 197.289062 C 217.347656 196.410156 216.449219 195.554688 215.527344 194.71875 C 214.605469 193.882812 213.667969 193.074219 212.707031 192.285156 C 211.746094 191.496094 210.765625 190.734375 209.765625 189.992188 C 208.769531 189.253906 207.753906 188.539062 206.71875 187.847656 C 205.6875 187.15625 204.636719 186.492188 203.570312 185.855469 C 202.503906 185.214844 201.425781 184.605469 200.328125 184.019531 C 199.230469 183.433594 198.121094 182.875 197 182.34375 C 195.875 181.8125 194.738281 181.308594 193.589844 180.832031 C 192.441406 180.359375 191.285156 179.910156 190.113281 179.492188 C 188.945312 179.074219 187.765625 178.683594 186.574219 178.324219 C 185.386719 177.964844 184.1875 177.632812 182.984375 177.328125 C 181.777344 177.027344 180.566406 176.757812 179.347656 176.511719 C 178.128906 176.269531 176.902344 176.058594 175.671875 175.875 C 174.445312 175.695312 173.210938 175.542969 171.972656 175.421875 C 170.738281 175.300781 169.5 175.207031 168.257812 175.148438 C 167.015625 175.085938 165.773438 175.054688 164.53125 175.054688 C 163.289062 175.054688 162.046875 175.085938 160.804688 175.148438 C 159.5625 175.207031 158.324219 175.300781 157.089844 175.421875 C 155.851562 175.542969 154.617188 175.695312 153.390625 175.875 C 152.160156 176.058594 150.933594 176.269531 149.714844 176.511719 C 148.496094 176.757812 147.285156 177.027344 146.078125 177.328125 C 144.875 177.632812 143.675781 177.964844 142.488281 178.324219 C 141.296875 178.683594 140.117188 179.074219 138.949219 179.492188 C 137.777344 179.910156 136.621094 180.359375 135.472656 180.832031 C 134.324219 181.308594 133.1875 181.8125 132.0625 182.34375 C 130.941406 182.875 129.832031 183.433594 128.734375 184.019531 C 127.636719 184.605469 126.558594 185.214844 125.492188 185.855469 C 124.425781 186.492188 123.375 187.15625 122.34375 187.847656 C 121.308594 188.539062 120.292969 189.253906 119.296875 189.992188 C 118.296875 190.734375 117.316406 191.496094 116.355469 192.285156 C 115.394531 193.074219 114.457031 193.882812 113.535156 194.71875 C 112.613281 195.554688 111.714844 196.410156 110.835938 197.289062 C 109.957031 198.167969 109.101562 199.066406 108.265625 199.984375 C 107.429688 200.90625 106.621094 201.847656 105.832031 202.808594 C 105.042969 203.769531 104.277344 204.746094 103.539062 205.746094 C 102.796875 206.742188 102.082031 207.757812 101.390625 208.789062 C 100.699219 209.824219 100.035156 210.871094 99.398438 211.9375 C 98.757812 213.003906 98.144531 214.085938 97.558594 215.179688 C 96.972656 216.277344 96.414062 217.386719 95.882812 218.507812 C 95.351562 219.628906 94.851562 220.765625 94.375 221.914062 C 93.898438 223.0625 93.453125 224.21875 93.03125 225.390625 C 92.613281 226.558594 92.222656 227.738281 91.863281 228.925781 C 91.503906 230.117188 91.171875 231.3125 90.871094 232.519531 C 90.566406 233.722656 90.296875 234.933594 90.054688 236.152344 C 89.808594 237.371094 89.597656 238.59375 89.414062 239.824219 C 89.234375 241.054688 89.082031 242.285156 88.960938 243.523438 C 88.835938 244.757812 88.746094 245.996094 88.683594 247.238281 C 88.625 248.480469 88.59375 249.71875 88.59375 250.960938 Z M 215.15625 250.960938 C 215.15625 252.621094 215.074219 254.273438 214.914062 255.921875 C 214.75 257.570312 214.507812 259.210938 214.183594 260.835938 C 213.859375 262.460938 213.457031 264.066406 212.976562 265.652344 C 212.496094 267.238281 211.9375 268.796875 211.300781 270.328125 C 210.667969 271.859375 209.960938 273.355469 209.179688 274.816406 C 208.398438 276.277344 207.546875 277.699219 206.625 279.078125 C 205.703125 280.453125 204.714844 281.785156 203.664062 283.066406 C 202.613281 284.347656 201.5 285.574219 200.328125 286.746094 C 199.15625 287.917969 197.929688 289.027344 196.648438 290.082031 C 195.367188 291.132812 194.035156 292.117188 192.65625 293.039062 C 191.277344 293.960938 189.859375 294.808594 188.394531 295.589844 C 186.933594 296.371094 185.4375 297.082031 183.90625 297.714844 C 182.371094 298.347656 180.8125 298.90625 179.226562 299.386719 C 177.640625 299.871094 176.035156 300.269531 174.40625 300.59375 C 172.78125 300.917969 171.144531 301.160156 169.492188 301.324219 C 167.84375 301.484375 166.1875 301.566406 164.53125 301.566406 C 162.875 301.566406 161.21875 301.484375 159.570312 301.324219 C 157.917969 301.160156 156.28125 300.917969 154.65625 300.59375 C 153.027344 300.269531 151.421875 299.871094 149.835938 299.386719 C 148.25 298.90625 146.691406 298.347656 145.15625 297.714844 C 143.625 297.082031 142.128906 296.371094 140.667969 295.589844 C 139.203125 294.808594 137.785156 293.960938 136.40625 293.039062 C 135.027344 292.117188 133.695312 291.132812 132.414062 290.082031 C 131.132812 289.027344 129.90625 287.917969 128.734375 286.746094 C 127.5625 285.574219 126.449219 284.347656 125.398438 283.066406 C 124.347656 281.785156 123.359375 280.453125 122.4375 279.078125 C 121.515625 277.699219 120.664062 276.277344 119.882812 274.816406 C 119.101562 273.355469 118.394531 271.859375 117.761719 270.328125 C 117.125 268.796875 116.566406 267.238281 116.085938 265.652344 C 115.605469 264.066406 115.203125 262.460938 114.878906 260.835938 C 114.554688 259.210938 114.3125 257.570312 114.148438 255.921875 C 113.988281 254.273438 113.90625 252.621094 113.90625 250.960938 C 113.90625 249.304688 113.988281 247.652344 114.148438 246.003906 C 114.3125 244.351562 114.554688 242.714844 114.878906 241.089844 C 115.203125 239.464844 115.605469 237.859375 116.085938 236.273438 C 116.566406 234.6875 117.125 233.128906 117.761719 231.597656 C 118.394531 230.066406 119.101562 228.570312 119.882812 227.105469 C 120.664062 225.644531 121.515625 224.226562 122.4375 222.847656 C 123.359375 221.46875 124.347656 220.140625 125.398438 218.859375 C 126.449219 217.578125 127.5625 216.351562 128.734375 215.179688 C 129.90625 214.007812 131.132812 212.894531 132.414062 211.84375 C 133.695312 210.792969 135.027344 209.808594 136.40625 208.886719 C 137.785156 207.964844 139.203125 207.113281 140.667969 206.332031 C 142.128906 205.550781 143.625 204.84375 145.15625 204.210938 C 146.691406 203.574219 148.25 203.019531 149.835938 202.535156 C 151.421875 202.054688 153.027344 201.652344 154.65625 201.328125 C 156.28125 201.007812 157.917969 200.761719 159.570312 200.601562 C 161.21875 200.4375 162.875 200.359375 164.53125 200.359375 C 166.1875 200.359375 167.84375 200.4375 169.492188 200.601562 C 171.144531 200.761719 172.78125 201.007812 174.40625 201.328125 C 176.035156 201.652344 177.640625 202.054688 179.226562 202.535156 C 180.8125 203.019531 182.371094 203.574219 183.90625 204.210938 C 185.4375 204.84375 186.933594 205.550781 188.394531 206.332031 C 189.859375 207.113281 191.277344 207.964844 192.65625 208.886719 C 194.035156 209.808594 195.367188 210.792969 196.648438 211.84375 C 197.929688 212.894531 199.15625 214.007812 200.328125 215.179688 C 201.5 216.351562 202.613281 217.578125 203.664062 218.859375 C 204.714844 220.140625 205.703125 221.46875 206.625 222.847656 C 207.546875 224.226562 208.398438 225.644531 209.179688 227.105469 C 209.960938 228.570312 210.667969 230.066406 211.300781 231.597656 C 211.9375 233.128906 212.496094 234.6875 212.976562 236.273438 C 213.457031 237.859375 213.859375 239.464844 214.183594 241.089844 C 214.507812 242.714844 214.75 244.351562 214.914062 246.003906 C 215.074219 247.652344 215.15625 249.304688 215.15625 250.960938 Z M 215.15625 250.960938 " fill-opacity="1" fill-rule="nonzero"/><path fill="#000000" d="M 177.1875 579.894531 C 196.425781 579.894531 250.214844 585.714844 267.933594 612.152344 C 291.851562 648.082031 329.0625 784.210938 329.0625 785.601562 L 354.375 779.023438 C 352.855469 773.203125 315.648438 637.328125 289.449219 598.238281 C 266.792969 564.839844 214.144531 556.996094 189.84375 554.589844 L 189.84375 466.03125 L 278.4375 466.03125 C 280.511719 466.03125 282.578125 465.929688 284.640625 465.726562 C 286.703125 465.523438 288.75 465.222656 290.78125 464.816406 C 292.816406 464.414062 294.824219 463.910156 296.808594 463.308594 C 298.789062 462.707031 300.738281 462.011719 302.652344 461.21875 C 304.570312 460.425781 306.441406 459.539062 308.269531 458.5625 C 310.097656 457.585938 311.871094 456.523438 313.59375 455.371094 C 315.316406 454.222656 316.980469 452.988281 318.582031 451.675781 C 320.183594 450.359375 321.71875 448.96875 323.183594 447.503906 C 324.648438 446.039062 326.039062 444.507812 327.355469 442.90625 C 328.667969 441.304688 329.902344 439.640625 331.054688 437.917969 C 332.207031 436.195312 333.269531 434.421875 334.246094 432.59375 C 335.222656 430.769531 336.109375 428.898438 336.902344 426.984375 C 337.695312 425.070312 338.390625 423.121094 338.992188 421.140625 C 339.59375 419.15625 340.097656 417.148438 340.503906 415.117188 C 340.90625 413.085938 341.210938 411.039062 341.414062 408.976562 C 341.617188 406.914062 341.71875 404.847656 341.71875 402.777344 C 341.71875 401.945312 341.636719 401.125 341.476562 400.308594 C 341.3125 399.492188 341.074219 398.703125 340.753906 397.933594 C 340.4375 397.167969 340.046875 396.4375 339.585938 395.746094 C 339.125 395.058594 338.597656 394.417969 338.011719 393.832031 C 337.425781 393.242188 336.785156 392.71875 336.09375 392.257812 C 335.402344 391.796875 334.671875 391.40625 333.90625 391.089844 C 333.136719 390.769531 332.347656 390.53125 331.53125 390.367188 C 330.714844 390.207031 329.894531 390.125 329.0625 390.125 L 188.578125 390.125 C 188.214844 388.355469 187.78125 386.605469 187.269531 384.871094 C 186.757812 383.140625 186.171875 381.433594 185.515625 379.75 C 184.859375 378.070312 184.128906 376.417969 183.332031 374.796875 C 182.53125 373.179688 181.664062 371.597656 180.730469 370.050781 C 179.792969 368.503906 178.796875 367 177.730469 365.542969 C 176.667969 364.082031 175.542969 362.671875 174.359375 361.304688 C 173.175781 359.941406 171.933594 358.632812 170.636719 357.375 C 169.339844 356.117188 167.992188 354.917969 166.59375 353.773438 C 165.191406 352.632812 163.746094 351.550781 162.253906 350.535156 C 160.761719 349.515625 159.230469 348.5625 157.65625 347.675781 C 156.082031 346.789062 154.472656 345.972656 152.828125 345.222656 C 151.183594 344.472656 149.511719 343.792969 147.808594 343.1875 C 146.109375 342.582031 144.382812 342.050781 142.636719 341.59375 C 140.886719 341.132812 139.125 340.75 137.34375 340.441406 C 135.5625 340.136719 133.773438 339.90625 131.972656 339.75 C 130.171875 339.597656 128.371094 339.519531 126.5625 339.519531 C 125.320312 339.519531 124.078125 339.550781 122.835938 339.613281 C 121.59375 339.671875 120.355469 339.765625 119.121094 339.886719 C 117.882812 340.007812 116.648438 340.160156 115.421875 340.34375 C 114.191406 340.523438 112.964844 340.738281 111.746094 340.980469 C 110.527344 341.222656 109.316406 341.492188 108.109375 341.796875 C 106.90625 342.097656 105.707031 342.429688 104.519531 342.789062 C 103.328125 343.148438 102.148438 343.539062 100.980469 343.957031 C 99.808594 344.375 98.652344 344.824219 97.503906 345.296875 C 96.355469 345.773438 95.21875 346.277344 94.09375 346.808594 C 92.972656 347.339844 91.863281 347.898438 90.765625 348.484375 C 89.667969 349.070312 88.589844 349.679688 87.523438 350.320312 C 86.457031 350.957031 85.40625 351.625 84.375 352.3125 C 83.339844 353.003906 82.324219 353.71875 81.328125 354.457031 C 80.328125 355.199219 79.347656 355.960938 78.386719 356.75 C 77.425781 357.539062 76.488281 358.351562 75.566406 359.183594 C 74.644531 360.019531 73.746094 360.875 72.867188 361.753906 C 71.988281 362.632812 71.132812 363.53125 70.296875 364.453125 C 69.460938 365.371094 68.652344 366.3125 67.863281 367.273438 C 67.074219 368.234375 66.308594 369.210938 65.570312 370.210938 C 64.828125 371.207031 64.113281 372.222656 63.421875 373.257812 C 62.730469 374.289062 62.066406 375.339844 61.429688 376.402344 C 60.789062 377.46875 60.175781 378.550781 59.589844 379.644531 C 59.003906 380.742188 58.445312 381.851562 57.914062 382.972656 C 57.382812 384.097656 56.882812 385.230469 56.40625 386.378906 C 55.929688 387.527344 55.484375 388.6875 55.0625 389.855469 C 54.644531 391.023438 54.253906 392.203125 53.894531 393.394531 C 53.535156 394.582031 53.203125 395.777344 52.902344 396.984375 C 52.597656 398.1875 52.328125 399.402344 52.085938 400.617188 C 51.839844 401.835938 51.628906 403.0625 51.445312 404.289062 C 51.265625 405.519531 51.113281 406.75 50.992188 407.988281 C 50.867188 409.222656 50.777344 410.460938 50.714844 411.703125 C 50.65625 412.945312 50.625 414.1875 50.625 415.429688 L 50.625 554.589844 C 50.625 589.636719 71.761719 655.800781 151.875 655.800781 L 219.332031 655.800781 L 279.449219 799.769531 L 302.738281 790.15625 L 239.457031 638.34375 C 238.980469 637.1875 238.347656 636.125 237.558594 635.15625 C 236.769531 634.1875 235.859375 633.355469 234.824219 632.65625 C 233.785156 631.960938 232.671875 631.425781 231.476562 631.058594 C 230.285156 630.691406 229.0625 630.503906 227.8125 630.5 L 151.875 630.5 C 78.59375 630.5 75.9375 562.308594 75.9375 554.589844 L 75.9375 415.429688 C 75.9375 413.769531 76.019531 412.117188 76.179688 410.46875 C 76.34375 408.820312 76.585938 407.179688 76.910156 405.554688 C 77.234375 403.929688 77.636719 402.324219 78.117188 400.738281 C 78.597656 399.152344 79.15625 397.59375 79.792969 396.0625 C 80.425781 394.53125 81.132812 393.035156 81.914062 391.574219 C 82.695312 390.109375 83.546875 388.691406 84.46875 387.3125 C 85.390625 385.933594 86.378906 384.605469 87.429688 383.324219 C 88.480469 382.042969 89.59375 380.816406 90.765625 379.644531 C 91.9375 378.472656 93.164062 377.359375 94.445312 376.308594 C 95.726562 375.257812 97.058594 374.273438 98.4375 373.351562 C 99.816406 372.429688 101.234375 371.578125 102.699219 370.796875 C 104.160156 370.015625 105.65625 369.308594 107.1875 368.675781 C 108.722656 368.039062 110.28125 367.484375 111.867188 367.003906 C 113.453125 366.519531 115.058594 366.117188 116.6875 365.796875 C 118.3125 365.472656 119.949219 365.230469 121.601562 365.066406 C 123.25 364.90625 124.90625 364.824219 126.5625 364.824219 C 127.804688 364.824219 129.046875 364.882812 130.285156 365.007812 C 131.523438 365.128906 132.75 365.308594 133.96875 365.550781 C 135.1875 365.792969 136.394531 366.097656 137.585938 366.457031 C 138.773438 366.816406 139.945312 367.238281 141.09375 367.710938 C 142.242188 368.1875 143.363281 368.71875 144.460938 369.304688 C 145.558594 369.890625 146.621094 370.527344 147.65625 371.21875 C 148.691406 371.910156 149.6875 372.648438 150.648438 373.4375 C 151.609375 374.226562 152.53125 375.058594 153.410156 375.9375 C 154.289062 376.820312 155.125 377.738281 155.914062 378.699219 C 156.703125 379.660156 157.441406 380.65625 158.132812 381.691406 C 158.824219 382.722656 159.460938 383.789062 160.046875 384.886719 C 160.632812 385.980469 161.164062 387.105469 161.640625 388.253906 C 162.117188 389.402344 162.535156 390.570312 162.894531 391.757812 C 163.257812 392.949219 163.558594 394.152344 163.800781 395.371094 C 164.042969 396.589844 164.226562 397.820312 164.347656 399.054688 C 164.46875 400.292969 164.53125 401.535156 164.53125 402.777344 C 164.53125 403.605469 164.613281 404.429688 164.773438 405.246094 C 164.9375 406.058594 165.175781 406.851562 165.496094 407.617188 C 165.8125 408.386719 166.203125 409.113281 166.664062 409.804688 C 167.125 410.496094 167.652344 411.136719 168.238281 411.722656 C 168.824219 412.308594 169.464844 412.835938 170.15625 413.296875 C 170.847656 413.757812 171.578125 414.148438 172.34375 414.464844 C 173.113281 414.78125 173.902344 415.023438 174.71875 415.183594 C 175.535156 415.347656 176.355469 415.429688 177.1875 415.429688 L 314.253906 415.429688 C 313.605469 417.265625 312.816406 419.046875 311.890625 420.765625 C 310.964844 422.484375 309.914062 424.121094 308.734375 425.675781 C 307.558594 427.234375 306.269531 428.6875 304.867188 430.046875 C 303.464844 431.402344 301.964844 432.644531 300.371094 433.769531 C 298.777344 434.898438 297.105469 435.894531 295.355469 436.761719 C 293.609375 437.632812 291.804688 438.363281 289.945312 438.953125 C 288.082031 439.542969 286.1875 439.984375 284.257812 440.285156 C 282.332031 440.582031 280.390625 440.730469 278.4375 440.730469 L 139.21875 440.730469 L 139.21875 466.03125 L 164.53125 466.03125 L 164.53125 567.242188 C 164.53125 568.074219 164.613281 568.894531 164.773438 569.710938 C 164.9375 570.523438 165.175781 571.316406 165.496094 572.082031 C 165.8125 572.851562 166.203125 573.582031 166.664062 574.269531 C 167.125 574.960938 167.652344 575.601562 168.238281 576.1875 C 168.824219 576.773438 169.464844 577.300781 170.15625 577.761719 C 170.847656 578.222656 171.578125 578.613281 172.34375 578.929688 C 173.113281 579.25 173.902344 579.488281 174.71875 579.648438 C 175.535156 579.8125 176.355469 579.894531 177.1875 579.894531 Z M 177.1875 579.894531 " fill-opacity="1" fill-rule="nonzero"/><path fill="#000000" d="M 75.9375 706.40625 L 101.25 706.40625 L 101.25 820.265625 L 126.5625 820.265625 L 126.5625 706.40625 L 202.5 706.40625 L 202.5 681.101562 L 75.9375 681.101562 C 74.28125 681.101562 72.625 681.023438 70.976562 680.859375 C 69.324219 680.695312 67.6875 680.453125 66.0625 680.128906 C 64.433594 679.808594 62.828125 679.40625 61.242188 678.925781 C 59.65625 678.441406 58.097656 677.886719 56.5625 677.25 C 55.03125 676.617188 53.535156 675.910156 52.074219 675.128906 C 50.609375 674.347656 49.191406 673.496094 47.8125 672.574219 C 46.433594 671.652344 45.101562 670.667969 43.820312 669.617188 C 42.539062 668.566406 41.3125 667.453125 40.140625 666.28125 C 38.96875 665.109375 37.855469 663.882812 36.804688 662.601562 C 35.753906 661.320312 34.765625 659.992188 33.84375 658.613281 C 32.921875 657.234375 32.070312 655.816406 31.289062 654.351562 C 30.507812 652.890625 29.800781 651.394531 29.167969 649.863281 C 28.53125 648.332031 27.972656 646.773438 27.492188 645.1875 C 27.011719 643.601562 26.609375 641.996094 26.285156 640.371094 C 25.960938 638.746094 25.71875 637.109375 25.554688 635.457031 C 25.394531 633.808594 25.3125 632.15625 25.3125 630.5 L 25.3125 440.730469 L 0 440.730469 L 0 630.5 C 0 631.742188 0.03125 632.980469 0.0898438 634.222656 C 0.152344 635.464844 0.242188 636.703125 0.367188 637.9375 C 0.488281 639.175781 0.640625 640.40625 0.820312 641.636719 C 1.003906 642.863281 1.214844 644.089844 1.460938 645.308594 C 1.703125 646.523438 1.972656 647.738281 2.277344 648.941406 C 2.578125 650.148438 2.910156 651.34375 3.269531 652.53125 C 3.628906 653.722656 4.019531 654.902344 4.4375 656.070312 C 4.859375 657.238281 5.304688 658.398438 5.78125 659.546875 C 6.257812 660.695312 6.757812 661.828125 7.289062 662.953125 C 7.820312 664.074219 8.378906 665.183594 8.964844 666.28125 C 9.550781 667.375 10.164062 668.457031 10.804688 669.523438 C 11.441406 670.585938 12.105469 671.636719 12.796875 672.667969 C 13.488281 673.703125 14.203125 674.71875 14.945312 675.714844 C 15.683594 676.714844 16.449219 677.691406 17.238281 678.652344 C 18.027344 679.613281 18.835938 680.554688 19.671875 681.472656 C 20.507812 682.394531 21.363281 683.292969 22.242188 684.171875 C 23.121094 685.050781 24.019531 685.90625 24.941406 686.742188 C 25.863281 687.574219 26.800781 688.386719 27.761719 689.175781 C 28.722656 689.964844 29.703125 690.726562 30.703125 691.46875 C 31.699219 692.207031 32.714844 692.921875 33.75 693.613281 C 34.78125 694.304688 35.832031 694.96875 36.898438 695.605469 C 37.964844 696.246094 39.042969 696.855469 40.140625 697.441406 C 41.238281 698.027344 42.347656 698.585938 43.46875 699.117188 C 44.59375 699.648438 45.730469 700.152344 46.878906 700.628906 C 48.027344 701.101562 49.183594 701.550781 50.355469 701.96875 C 51.523438 702.386719 52.703125 702.777344 53.894531 703.136719 C 55.082031 703.496094 56.28125 703.828125 57.484375 704.128906 C 58.691406 704.433594 59.902344 704.703125 61.121094 704.945312 C 62.339844 705.1875 63.566406 705.402344 64.796875 705.582031 C 66.023438 705.765625 67.257812 705.917969 68.496094 706.039062 C 69.730469 706.160156 70.96875 706.253906 72.210938 706.3125 C 73.453125 706.375 74.695312 706.40625 75.9375 706.40625 Z M 75.9375 706.40625 " fill-opacity="1" fill-rule="nonzero"/><path fill="#000000" d="M 645.46875 175.054688 C 644.226562 175.054688 642.984375 175.085938 641.742188 175.148438 C 640.5 175.207031 639.261719 175.300781 638.027344 175.421875 C 636.789062 175.542969 635.554688 175.695312 634.328125 175.875 C 633.097656 176.058594 631.871094 176.269531 630.652344 176.511719 C 629.433594 176.757812 628.222656 177.027344 627.015625 177.328125 C 625.8125 177.632812 624.613281 177.964844 623.425781 178.324219 C 622.234375 178.683594 621.054688 179.074219 619.886719 179.492188 C 618.714844 179.910156 617.558594 180.359375 616.410156 180.832031 C 615.261719 181.308594 614.125 181.8125 613 182.34375 C 611.878906 182.875 610.769531 183.433594 609.671875 184.019531 C 608.574219 184.605469 607.496094 185.214844 606.429688 185.855469 C 605.363281 186.492188 604.3125 187.15625 603.28125 187.847656 C 602.246094 188.539062 601.230469 189.253906 600.234375 189.992188 C 599.234375 190.734375 598.253906 191.496094 597.292969 192.285156 C 596.332031 193.074219 595.394531 193.882812 594.472656 194.71875 C 593.550781 195.554688 592.652344 196.410156 591.773438 197.289062 C 590.894531 198.167969 590.039062 199.066406 589.203125 199.984375 C 588.367188 200.90625 587.554688 201.847656 586.769531 202.808594 C 585.980469 203.765625 585.214844 204.746094 584.476562 205.746094 C 583.734375 206.742188 583.019531 207.757812 582.328125 208.789062 C 581.636719 209.824219 580.972656 210.871094 580.335938 211.9375 C 579.695312 213.003906 579.082031 214.085938 578.496094 215.179688 C 577.910156 216.277344 577.351562 217.386719 576.820312 218.507812 C 576.289062 219.628906 575.789062 220.765625 575.3125 221.914062 C 574.835938 223.0625 574.390625 224.21875 573.96875 225.390625 C 573.550781 226.558594 573.160156 227.738281 572.800781 228.925781 C 572.441406 230.117188 572.109375 231.3125 571.808594 232.519531 C 571.503906 233.722656 571.234375 234.933594 570.992188 236.152344 C 570.746094 237.371094 570.535156 238.59375 570.351562 239.824219 C 570.171875 241.054688 570.019531 242.285156 569.898438 243.523438 C 569.773438 244.757812 569.683594 245.996094 569.621094 247.238281 C 569.5625 248.480469 569.53125 249.71875 569.53125 250.960938 C 569.53125 252.203125 569.5625 253.445312 569.621094 254.6875 C 569.683594 255.925781 569.773438 257.167969 569.898438 258.402344 C 570.019531 259.640625 570.171875 260.871094 570.351562 262.101562 C 570.535156 263.328125 570.746094 264.550781 570.992188 265.769531 C 571.234375 266.988281 571.503906 268.203125 571.808594 269.40625 C 572.109375 270.609375 572.441406 271.808594 572.800781 272.996094 C 573.160156 274.1875 573.550781 275.363281 573.96875 276.535156 C 574.390625 277.703125 574.835938 278.863281 575.3125 280.011719 C 575.789062 281.160156 576.289062 282.292969 576.820312 283.417969 C 577.351562 284.539062 577.910156 285.648438 578.496094 286.746094 C 579.082031 287.839844 579.695312 288.921875 580.335938 289.988281 C 580.972656 291.050781 581.636719 292.101562 582.328125 293.132812 C 583.019531 294.167969 583.734375 295.183594 584.476562 296.179688 C 585.214844 297.179688 585.980469 298.15625 586.769531 299.117188 C 587.554688 300.078125 588.367188 301.019531 589.203125 301.9375 C 590.039062 302.859375 590.894531 303.757812 591.773438 304.636719 C 592.652344 305.515625 593.550781 306.371094 594.472656 307.207031 C 595.394531 308.039062 596.332031 308.851562 597.292969 309.640625 C 598.253906 310.425781 599.234375 311.191406 600.234375 311.929688 C 601.230469 312.671875 602.246094 313.386719 603.28125 314.078125 C 604.3125 314.765625 605.363281 315.429688 606.429688 316.070312 C 607.496094 316.707031 608.574219 317.320312 609.671875 317.90625 C 610.769531 318.492188 611.878906 319.050781 613 319.582031 C 614.125 320.113281 615.261719 320.617188 616.410156 321.089844 C 617.558594 321.566406 618.714844 322.015625 619.886719 322.433594 C 621.054688 322.851562 622.234375 323.242188 623.425781 323.601562 C 624.613281 323.960938 625.8125 324.292969 627.015625 324.59375 C 628.222656 324.898438 629.433594 325.167969 630.652344 325.410156 C 631.871094 325.652344 633.097656 325.867188 634.328125 326.046875 C 635.554688 326.230469 636.789062 326.382812 638.027344 326.503906 C 639.261719 326.625 640.5 326.71875 641.742188 326.777344 C 642.984375 326.839844 644.226562 326.871094 645.46875 326.871094 C 646.710938 326.871094 647.953125 326.839844 649.195312 326.777344 C 650.4375 326.71875 651.675781 326.625 652.910156 326.503906 C 654.148438 326.382812 655.382812 326.230469 656.609375 326.046875 C 657.839844 325.867188 659.066406 325.652344 660.285156 325.410156 C 661.503906 325.167969 662.714844 324.894531 663.921875 324.59375 C 665.125 324.292969 666.324219 323.960938 667.511719 323.601562 C 668.703125 323.242188 669.882812 322.851562 671.050781 322.433594 C 672.222656 322.015625 673.378906 321.566406 674.527344 321.089844 C 675.675781 320.617188 676.8125 320.113281 677.9375 319.582031 C 679.058594 319.050781 680.167969 318.492188 681.265625 317.90625 C 682.363281 317.320312 683.441406 316.707031 684.507812 316.070312 C 685.574219 315.429688 686.625 314.765625 687.65625 314.078125 C 688.691406 313.386719 689.707031 312.671875 690.703125 311.929688 C 691.703125 311.191406 692.683594 310.425781 693.644531 309.640625 C 694.605469 308.851562 695.542969 308.039062 696.464844 307.207031 C 697.386719 306.371094 698.285156 305.515625 699.164062 304.636719 C 700.042969 303.757812 700.898438 302.859375 701.734375 301.9375 C 702.570312 301.019531 703.378906 300.078125 704.167969 299.117188 C 704.957031 298.15625 705.722656 297.179688 706.460938 296.179688 C 707.203125 295.183594 707.917969 294.167969 708.609375 293.132812 C 709.296875 292.101562 709.964844 291.050781 710.601562 289.988281 C 711.242188 288.921875 711.855469 287.839844 712.441406 286.746094 C 713.027344 285.648438 713.585938 284.539062 714.117188 283.417969 C 714.648438 282.292969 715.148438 281.160156 715.625 280.011719 C 716.101562 278.863281 716.546875 277.703125 716.96875 276.535156 C 717.386719 275.363281 717.777344 274.1875 718.136719 272.996094 C 718.496094 271.808594 718.828125 270.609375 719.128906 269.40625 C 719.433594 268.203125 719.703125 266.988281 719.945312 265.769531 C 720.191406 264.550781 720.402344 263.328125 720.585938 262.101562 C 720.765625 260.871094 720.917969 259.640625 721.039062 258.402344 C 721.164062 257.167969 721.253906 255.925781 721.316406 254.6875 C 721.375 253.445312 721.40625 252.203125 721.40625 250.960938 C 721.40625 249.71875 721.375 248.480469 721.316406 247.238281 C 721.253906 245.996094 721.164062 244.757812 721.039062 243.523438 C 720.917969 242.285156 720.765625 241.054688 720.585938 239.824219 C 720.402344 238.59375 720.191406 237.371094 719.945312 236.152344 C 719.703125 234.933594 719.433594 233.722656 719.128906 232.519531 C 718.828125 231.3125 718.496094 230.117188 718.136719 228.925781 C 717.777344 227.738281 717.386719 226.558594 716.96875 225.390625 C 716.546875 224.21875 716.101562 223.0625 715.625 221.914062 C 715.148438 220.765625 714.648438 219.628906 714.117188 218.507812 C 713.585938 217.386719 713.027344 216.277344 712.441406 215.179688 C 711.855469 214.085938 711.242188 213.003906 710.601562 211.9375 C 709.964844 210.871094 709.300781 209.824219 708.609375 208.789062 C 707.917969 207.757812 707.203125 206.742188 706.460938 205.746094 C 705.722656 204.746094 704.957031 203.769531 704.167969 202.808594 C 703.378906 201.847656 702.570312 200.90625 701.734375 199.984375 C 700.898438 199.066406 700.042969 198.167969 699.164062 197.289062 C 698.285156 196.410156 697.386719 195.554688 696.464844 194.71875 C 695.542969 193.882812 694.605469 193.074219 693.644531 192.285156 C 692.683594 191.496094 691.703125 190.734375 690.703125 189.992188 C 689.707031 189.253906 688.691406 188.539062 687.65625 187.847656 C 686.625 187.15625 685.574219 186.492188 684.507812 185.855469 C 683.441406 185.214844 682.363281 184.605469 681.265625 184.019531 C 680.167969 183.433594 679.058594 182.875 677.9375 182.34375 C 676.8125 181.8125 675.675781 181.308594 674.527344 180.832031 C 673.378906 180.359375 672.222656 179.910156 671.050781 179.492188 C 669.882812 179.074219 668.703125 178.683594 667.511719 178.324219 C 666.324219 177.964844 665.125 177.632812 663.921875 177.328125 C 662.714844 177.027344 661.503906 176.757812 660.285156 176.511719 C 659.066406 176.269531 657.839844 176.058594 656.609375 175.875 C 655.382812 175.695312 654.148438 175.542969 652.910156 175.421875 C 651.675781 175.300781 650.4375 175.207031 649.195312 175.148438 C 647.953125 175.085938 646.710938 175.054688 645.46875 175.054688 Z M 645.46875 301.566406 C 643.8125 301.566406 642.15625 301.484375 640.507812 301.324219 C 638.855469 301.160156 637.21875 300.917969 635.59375 300.59375 C 633.964844 300.269531 632.359375 299.871094 630.773438 299.386719 C 629.1875 298.90625 627.628906 298.347656 626.09375 297.714844 C 624.5625 297.082031 623.066406 296.371094 621.605469 295.589844 C 620.140625 294.808594 618.722656 293.960938 617.34375 293.039062 C 615.964844 292.117188 614.632812 291.132812 613.351562 290.082031 C 612.070312 289.027344 610.84375 287.917969 609.671875 286.746094 C 608.5 285.574219 607.386719 284.347656 606.335938 283.066406 C 605.285156 281.785156 604.296875 280.453125 603.375 279.078125 C 602.453125 277.699219 601.601562 276.277344 600.820312 274.816406 C 600.039062 273.355469 599.332031 271.859375 598.695312 270.328125 C 598.0625 268.796875 597.503906 267.238281 597.023438 265.652344 C 596.542969 264.066406 596.140625 262.460938 595.816406 260.835938 C 595.492188 259.210938 595.25 257.570312 595.085938 255.921875 C 594.925781 254.273438 594.84375 252.621094 594.84375 250.960938 C 594.84375 249.304688 594.925781 247.652344 595.085938 246.003906 C 595.25 244.351562 595.492188 242.714844 595.816406 241.089844 C 596.140625 239.464844 596.542969 237.859375 597.023438 236.273438 C 597.503906 234.6875 598.0625 233.128906 598.695312 231.597656 C 599.332031 230.066406 600.039062 228.570312 600.820312 227.105469 C 601.601562 225.644531 602.453125 224.226562 603.375 222.847656 C 604.296875 221.46875 605.285156 220.140625 606.335938 218.859375 C 607.386719 217.578125 608.5 216.351562 609.671875 215.179688 C 610.84375 214.007812 612.070312 212.894531 613.351562 211.84375 C 614.632812 210.792969 615.964844 209.808594 617.34375 208.886719 C 618.722656 207.964844 620.140625 207.113281 621.605469 206.332031 C 623.066406 205.550781 624.5625 204.84375 626.09375 204.210938 C 627.628906 203.574219 629.1875 203.019531 630.773438 202.535156 C 632.359375 202.054688 633.964844 201.652344 635.59375 201.328125 C 637.21875 201.007812 638.855469 200.761719 640.507812 200.601562 C 642.15625 200.4375 643.8125 200.359375 645.46875 200.359375 C 647.125 200.359375 648.78125 200.4375 650.429688 200.601562 C 652.082031 200.761719 653.71875 201.007812 655.34375 201.328125 C 656.972656 201.652344 658.578125 202.054688 660.164062 202.535156 C 661.75 203.019531 663.308594 203.574219 664.84375 204.210938 C 666.375 204.84375 667.871094 205.550781 669.332031 206.332031 C 670.796875 207.113281 672.214844 207.964844 673.59375 208.886719 C 674.972656 209.808594 676.304688 210.792969 677.585938 211.84375 C 678.867188 212.894531 680.09375 214.007812 681.265625 215.179688 C 682.4375 216.351562 683.550781 217.578125 684.601562 218.859375 C 685.652344 220.140625 686.640625 221.46875 687.5625 222.847656 C 688.484375 224.226562 689.335938 225.644531 690.117188 227.105469 C 690.898438 228.570312 691.605469 230.066406 692.238281 231.597656 C 692.875 233.128906 693.433594 234.6875 693.914062 236.273438 C 694.394531 237.859375 694.796875 239.464844 695.121094 241.089844 C 695.445312 242.714844 695.6875 244.351562 695.851562 246.003906 C 696.011719 247.652344 696.09375 249.304688 696.09375 250.960938 C 696.09375 252.621094 696.011719 254.273438 695.851562 255.921875 C 695.6875 257.570312 695.445312 259.210938 695.121094 260.835938 C 694.796875 262.460938 694.394531 264.066406 693.914062 265.652344 C 693.433594 267.238281 692.875 268.796875 692.238281 270.328125 C 691.605469 271.859375 690.898438 273.355469 690.117188 274.816406 C 689.335938 276.277344 688.484375 277.699219 687.5625 279.078125 C 686.640625 280.453125 685.652344 281.785156 684.601562 283.066406 C 683.550781 284.347656 682.4375 285.574219 681.265625 286.746094 C 680.09375 287.917969 678.867188 289.027344 677.585938 290.082031 C 676.304688 291.132812 674.972656 292.117188 673.59375 293.039062 C 672.214844 293.960938 670.796875 294.808594 669.332031 295.589844 C 667.871094 296.371094 666.375 297.082031 664.84375 297.714844 C 663.308594 298.347656 661.75 298.90625 660.164062 299.386719 C 658.578125 299.871094 656.972656 300.269531 655.34375 300.59375 C 653.71875 300.917969 652.082031 301.160156 650.429688 301.324219 C 648.78125 301.484375 647.125 301.566406 645.46875 301.566406 Z M 645.46875 301.566406 " fill-opacity="1" fill-rule="nonzero"/><path fill="#000000" d="M 658.125 630.5 L 582.1875 630.5 C 580.9375 630.503906 579.714844 630.691406 578.523438 631.058594 C 577.328125 631.425781 576.214844 631.960938 575.175781 632.65625 C 574.140625 633.355469 573.230469 634.1875 572.441406 635.15625 C 571.652344 636.125 571.019531 637.1875 570.542969 638.34375 L 507.261719 790.15625 L 530.550781 799.769531 L 590.667969 655.800781 L 658.125 655.800781 C 738.238281 655.800781 759.375 589.636719 759.375 554.589844 L 759.375 415.429688 C 759.375 414.1875 759.34375 412.945312 759.285156 411.703125 C 759.222656 410.460938 759.132812 409.222656 759.007812 407.988281 C 758.886719 406.75 758.734375 405.519531 758.554688 404.289062 C 758.371094 403.0625 758.160156 401.835938 757.914062 400.617188 C 757.671875 399.402344 757.402344 398.1875 757.097656 396.984375 C 756.796875 395.777344 756.464844 394.582031 756.105469 393.394531 C 755.746094 392.203125 755.355469 391.023438 754.9375 389.855469 C 754.515625 388.6875 754.070312 387.527344 753.59375 386.378906 C 753.117188 385.230469 752.617188 384.097656 752.085938 382.972656 C 751.554688 381.851562 750.996094 380.742188 750.410156 379.644531 C 749.824219 378.550781 749.210938 377.46875 748.570312 376.402344 C 747.933594 375.339844 747.269531 374.289062 746.578125 373.257812 C 745.886719 372.222656 745.171875 371.207031 744.429688 370.210938 C 743.691406 369.210938 742.925781 368.234375 742.136719 367.273438 C 741.347656 366.3125 740.539062 365.371094 739.703125 364.453125 C 738.867188 363.53125 738.011719 362.632812 737.132812 361.753906 C 736.253906 360.875 735.355469 360.019531 734.433594 359.183594 C 733.511719 358.351562 732.574219 357.539062 731.613281 356.75 C 730.652344 355.960938 729.671875 355.199219 728.671875 354.457031 C 727.675781 353.71875 726.660156 353.003906 725.625 352.3125 C 724.59375 351.625 723.542969 350.957031 722.476562 350.320312 C 721.410156 349.679688 720.332031 349.070312 719.234375 348.484375 C 718.136719 347.898438 717.027344 347.339844 715.90625 346.808594 C 714.78125 346.277344 713.644531 345.773438 712.496094 345.296875 C 711.347656 344.824219 710.191406 344.375 709.019531 343.957031 C 707.851562 343.539062 706.671875 343.148438 705.480469 342.789062 C 704.292969 342.429688 703.09375 342.097656 701.890625 341.796875 C 700.683594 341.492188 699.472656 341.222656 698.253906 340.980469 C 697.03125 340.738281 695.808594 340.523438 694.578125 340.34375 C 693.351562 340.160156 692.117188 340.007812 690.878906 339.886719 C 689.644531 339.765625 688.40625 339.671875 687.164062 339.613281 C 685.921875 339.550781 684.679688 339.519531 683.4375 339.519531 C 681.628906 339.519531 679.828125 339.597656 678.027344 339.75 C 676.226562 339.90625 674.4375 340.136719 672.65625 340.441406 C 670.875 340.75 669.113281 341.132812 667.363281 341.59375 C 665.617188 342.050781 663.890625 342.582031 662.191406 343.1875 C 660.488281 343.792969 658.816406 344.472656 657.171875 345.222656 C 655.527344 345.972656 653.917969 346.789062 652.34375 347.675781 C 650.769531 348.5625 649.238281 349.515625 647.746094 350.535156 C 646.253906 351.550781 644.808594 352.632812 643.40625 353.773438 C 642.007812 354.917969 640.660156 356.117188 639.363281 357.375 C 638.066406 358.632812 636.824219 359.941406 635.640625 361.304688 C 634.457031 362.671875 633.332031 364.082031 632.269531 365.542969 C 631.203125 367 630.207031 368.503906 629.269531 370.050781 C 628.335938 371.597656 627.46875 373.179688 626.667969 374.796875 C 625.871094 376.417969 625.140625 378.070312 624.484375 379.75 C 623.828125 381.433594 623.242188 383.140625 622.730469 384.871094 C 622.21875 386.605469 621.78125 388.355469 621.421875 390.125 L 480.9375 390.125 C 480.105469 390.125 479.285156 390.207031 478.46875 390.367188 C 477.652344 390.53125 476.863281 390.769531 476.09375 391.089844 C 475.328125 391.40625 474.597656 391.796875 473.90625 392.257812 C 473.214844 392.71875 472.574219 393.242188 471.988281 393.832031 C 471.402344 394.417969 470.875 395.058594 470.414062 395.75 C 469.953125 396.4375 469.5625 397.167969 469.246094 397.933594 C 468.925781 398.703125 468.6875 399.492188 468.523438 400.308594 C 468.363281 401.125 468.28125 401.945312 468.28125 402.777344 C 468.28125 404.847656 468.382812 406.914062 468.585938 408.976562 C 468.789062 411.039062 469.09375 413.085938 469.496094 415.117188 C 469.902344 417.148438 470.40625 419.15625 471.007812 421.140625 C 471.609375 423.121094 472.304688 425.070312 473.097656 426.984375 C 473.890625 428.898438 474.777344 430.769531 475.753906 432.59375 C 476.730469 434.421875 477.792969 436.195312 478.945312 437.917969 C 480.097656 439.640625 481.332031 441.304688 482.644531 442.90625 C 483.960938 444.507812 485.351562 446.039062 486.816406 447.503906 C 488.28125 448.96875 489.816406 450.359375 491.417969 451.675781 C 493.019531 452.988281 494.683594 454.222656 496.40625 455.371094 C 498.128906 456.523438 499.902344 457.585938 501.730469 458.5625 C 503.558594 459.539062 505.429688 460.425781 507.34375 461.21875 C 509.261719 462.011719 511.210938 462.707031 513.191406 463.308594 C 515.175781 463.910156 517.183594 464.414062 519.21875 464.816406 C 521.25 465.222656 523.296875 465.523438 525.359375 465.726562 C 527.421875 465.929688 529.488281 466.03125 531.5625 466.03125 L 620.15625 466.03125 L 620.15625 554.589844 C 595.855469 556.488281 543.207031 564.332031 521.058594 597.730469 C 494.859375 636.824219 457.777344 772.699219 456.132812 778.515625 L 480.429688 785.097656 C 480.429688 783.703125 518.398438 647.578125 542.066406 611.648438 C 559.660156 585.839844 613.574219 579.894531 632.8125 579.894531 C 633.644531 579.894531 634.464844 579.8125 635.28125 579.648438 C 636.097656 579.488281 636.886719 579.25 637.65625 578.929688 C 638.421875 578.613281 639.152344 578.222656 639.84375 577.761719 C 640.535156 577.300781 641.175781 576.773438 641.761719 576.1875 C 642.347656 575.601562 642.875 574.960938 643.335938 574.269531 C 643.796875 573.582031 644.1875 572.851562 644.503906 572.082031 C 644.824219 571.316406 645.0625 570.523438 645.226562 569.710938 C 645.386719 568.894531 645.46875 568.074219 645.46875 567.242188 L 645.46875 466.03125 L 670.78125 466.03125 L 670.78125 440.730469 L 531.5625 440.730469 C 529.609375 440.730469 527.667969 440.582031 525.742188 440.285156 C 523.8125 439.984375 521.917969 439.542969 520.054688 438.953125 C 518.195312 438.363281 516.390625 437.632812 514.644531 436.761719 C 512.894531 435.894531 511.222656 434.898438 509.628906 433.769531 C 508.035156 432.644531 506.535156 431.402344 505.132812 430.046875 C 503.730469 428.6875 502.441406 427.234375 501.261719 425.675781 C 500.085938 424.121094 499.035156 422.484375 498.109375 420.765625 C 497.183594 419.046875 496.394531 417.265625 495.746094 415.429688 L 632.8125 415.429688 C 633.644531 415.429688 634.464844 415.347656 635.28125 415.183594 C 636.097656 415.023438 636.886719 414.78125 637.65625 414.464844 C 638.421875 414.148438 639.152344 413.757812 639.84375 413.296875 C 640.535156 412.835938 641.175781 412.308594 641.761719 411.722656 C 642.347656 411.136719 642.875 410.496094 643.335938 409.804688 C 643.796875 409.113281 644.1875 408.386719 644.503906 407.617188 C 644.824219 406.851562 645.0625 406.058594 645.226562 405.246094 C 645.386719 404.429688 645.46875 403.605469 645.46875 402.777344 C 645.46875 401.535156 645.53125 400.292969 645.652344 399.058594 C 645.773438 397.820312 645.957031 396.589844 646.199219 395.371094 C 646.441406 394.152344 646.742188 392.949219 647.105469 391.757812 C 647.464844 390.570312 647.882812 389.402344 648.359375 388.253906 C 648.835938 387.105469 649.367188 385.980469 649.953125 384.886719 C 650.539062 383.789062 651.175781 382.722656 651.867188 381.691406 C 652.558594 380.65625 653.296875 379.660156 654.085938 378.699219 C 654.875 377.738281 655.710938 376.820312 656.589844 375.9375 C 657.46875 375.058594 658.390625 374.226562 659.351562 373.4375 C 660.3125 372.648438 661.308594 371.910156 662.34375 371.21875 C 663.378906 370.527344 664.441406 369.890625 665.539062 369.304688 C 666.636719 368.71875 667.757812 368.1875 668.90625 367.710938 C 670.054688 367.238281 671.226562 366.816406 672.414062 366.457031 C 673.605469 366.097656 674.808594 365.792969 676.03125 365.550781 C 677.25 365.308594 678.476562 365.128906 679.714844 365.003906 C 680.953125 364.882812 682.195312 364.824219 683.4375 364.824219 C 685.09375 364.824219 686.75 364.90625 688.398438 365.066406 C 690.050781 365.230469 691.6875 365.472656 693.3125 365.796875 C 694.941406 366.117188 696.546875 366.519531 698.132812 367.003906 C 699.71875 367.484375 701.277344 368.039062 702.8125 368.675781 C 704.34375 369.308594 705.839844 370.015625 707.300781 370.796875 C 708.765625 371.578125 710.183594 372.429688 711.5625 373.351562 C 712.941406 374.273438 714.273438 375.257812 715.554688 376.308594 C 716.835938 377.359375 718.0625 378.472656 719.234375 379.644531 C 720.40625 380.816406 721.519531 382.042969 722.570312 383.324219 C 723.621094 384.605469 724.609375 385.933594 725.53125 387.3125 C 726.453125 388.691406 727.304688 390.109375 728.085938 391.574219 C 728.867188 393.035156 729.574219 394.53125 730.207031 396.0625 C 730.84375 397.59375 731.402344 399.152344 731.882812 400.738281 C 732.363281 402.324219 732.765625 403.929688 733.089844 405.554688 C 733.414062 407.179688 733.65625 408.820312 733.820312 410.46875 C 733.980469 412.117188 734.0625 413.769531 734.0625 415.429688 L 734.0625 554.589844 C 734.0625 562.308594 731.40625 630.5 658.125 630.5 Z M 658.125 630.5 " fill-opacity="1" fill-rule="nonzero"/><path fill="#000000" d="M 784.6875 630.5 C 784.6875 632.15625 784.605469 633.808594 784.445312 635.457031 C 784.28125 637.109375 784.039062 638.746094 783.714844 640.371094 C 783.390625 641.996094 782.988281 643.601562 782.507812 645.1875 C 782.027344 646.773438 781.46875 648.332031 780.832031 649.863281 C 780.199219 651.394531 779.492188 652.890625 778.710938 654.351562 C 777.929688 655.816406 777.078125 657.234375 776.15625 658.613281 C 775.234375 659.992188 774.246094 661.320312 773.195312 662.601562 C 772.144531 663.882812 771.03125 665.109375 769.859375 666.28125 C 768.6875 667.453125 767.460938 668.566406 766.179688 669.617188 C 764.898438 670.667969 763.566406 671.652344 762.1875 672.574219 C 760.808594 673.496094 759.390625 674.347656 757.925781 675.128906 C 756.464844 675.910156 754.96875 676.617188 753.4375 677.25 C 751.902344 677.886719 750.34375 678.441406 748.757812 678.925781 C 747.171875 679.40625 745.566406 679.808594 743.9375 680.128906 C 742.3125 680.453125 740.675781 680.695312 739.023438 680.859375 C 737.375 681.023438 735.71875 681.101562 734.0625 681.101562 L 607.5 681.101562 L 607.5 706.40625 L 683.4375 706.40625 L 683.4375 820.265625 L 708.75 820.265625 L 708.75 706.40625 L 734.0625 706.40625 C 735.304688 706.40625 736.546875 706.375 737.789062 706.3125 C 739.03125 706.253906 740.269531 706.160156 741.503906 706.039062 C 742.742188 705.917969 743.976562 705.765625 745.203125 705.582031 C 746.433594 705.402344 747.660156 705.1875 748.878906 704.945312 C 750.097656 704.703125 751.308594 704.433594 752.515625 704.128906 C 753.71875 703.828125 754.917969 703.496094 756.105469 703.136719 C 757.296875 702.777344 758.476562 702.386719 759.644531 701.96875 C 760.816406 701.550781 761.972656 701.101562 763.121094 700.628906 C 764.269531 700.152344 765.40625 699.648438 766.53125 699.117188 C 767.652344 698.585938 768.761719 698.027344 769.859375 697.441406 C 770.957031 696.855469 772.035156 696.246094 773.101562 695.605469 C 774.167969 694.96875 775.21875 694.304688 776.25 693.613281 C 777.285156 692.921875 778.300781 692.207031 779.296875 691.46875 C 780.296875 690.726562 781.277344 689.964844 782.238281 689.175781 C 783.199219 688.386719 784.136719 687.574219 785.058594 686.742188 C 785.980469 685.90625 786.878906 685.050781 787.757812 684.171875 C 788.636719 683.292969 789.492188 682.394531 790.328125 681.472656 C 791.164062 680.554688 791.972656 679.613281 792.761719 678.652344 C 793.550781 677.691406 794.316406 676.714844 795.054688 675.714844 C 795.796875 674.71875 796.511719 673.703125 797.203125 672.667969 C 797.894531 671.636719 798.558594 670.585938 799.195312 669.523438 C 799.835938 668.457031 800.449219 667.375 801.035156 666.28125 C 801.617188 665.183594 802.175781 664.074219 802.710938 662.953125 C 803.242188 661.828125 803.742188 660.695312 804.21875 659.546875 C 804.695312 658.398438 805.140625 657.238281 805.5625 656.070312 C 805.980469 654.902344 806.371094 653.722656 806.730469 652.53125 C 807.089844 651.34375 807.421875 650.148438 807.722656 648.941406 C 808.027344 647.738281 808.296875 646.523438 808.539062 645.308594 C 808.78125 644.089844 808.996094 642.863281 809.179688 641.636719 C 809.359375 640.40625 809.511719 639.175781 809.632812 637.9375 C 809.757812 636.703125 809.847656 635.464844 809.910156 634.222656 C 809.96875 632.980469 810 631.742188 810 630.5 L 810 440.730469 L 784.6875 440.730469 Z M 784.6875 630.5 " fill-opacity="1" fill-rule="nonzero"/><path fill="#000000" d="M 417.65625 820.265625 L 417.65625 516.636719 L 582.1875 516.636719 L 582.1875 491.335938 L 227.8125 491.335938 L 227.8125 516.636719 L 392.34375 516.636719 L 392.34375 820.265625 Z M 417.65625 820.265625 " fill-opacity="1" fill-rule="nonzero"/><path fill="#000000" d="M 455.625 35.890625 C 443.355469 35.890625 431.417969 37.871094 419.808594 41.839844 C 417.800781 39.949219 415.726562 38.132812 413.585938 36.394531 C 411.445312 34.652344 409.246094 32.992188 406.984375 31.414062 C 404.722656 29.835938 402.410156 28.339844 400.039062 26.925781 C 397.671875 25.515625 395.253906 24.191406 392.789062 22.953125 C 390.320312 21.71875 387.8125 20.574219 385.265625 19.519531 C 382.714844 18.464844 380.132812 17.503906 377.515625 16.636719 C 374.894531 15.773438 372.25 15 369.574219 14.328125 C 366.898438 13.652344 364.203125 13.078125 361.488281 12.597656 C 358.773438 12.121094 356.042969 11.738281 353.296875 11.460938 C 350.554688 11.179688 347.800781 11 345.046875 10.917969 C 342.289062 10.839844 339.53125 10.859375 336.777344 10.976562 C 334.019531 11.097656 331.273438 11.316406 328.53125 11.636719 C 325.792969 11.953125 323.070312 12.371094 320.359375 12.890625 C 317.648438 13.40625 314.960938 14.019531 312.296875 14.734375 C 309.632812 15.445312 306.996094 16.253906 304.390625 17.15625 C 301.785156 18.058594 299.214844 19.058594 296.683594 20.148438 C 294.148438 21.238281 291.65625 22.417969 289.210938 23.6875 C 286.761719 24.960938 284.363281 26.320312 282.015625 27.765625 C 279.664062 29.207031 277.371094 30.738281 275.132812 32.347656 C 272.894531 33.960938 270.71875 35.652344 268.605469 37.421875 C 266.488281 39.191406 264.441406 41.035156 262.460938 42.953125 C 260.480469 44.871094 258.570312 46.859375 256.734375 48.917969 C 254.898438 50.976562 253.136719 53.097656 251.453125 55.28125 C 249.773438 57.464844 248.171875 59.707031 246.652344 62.011719 C 245.132812 64.3125 243.699219 66.664062 242.351562 69.070312 C 241 71.476562 239.742188 73.925781 238.574219 76.421875 C 237.402344 78.917969 236.324219 81.457031 235.339844 84.03125 C 234.351562 86.605469 233.460938 89.214844 232.664062 91.851562 C 231.867188 94.492188 231.167969 97.15625 230.566406 99.847656 C 229.960938 102.539062 229.457031 105.246094 229.050781 107.976562 C 228.644531 110.703125 228.339844 113.441406 228.132812 116.191406 C 227.925781 118.941406 227.820312 121.691406 227.8125 124.449219 C 227.8125 126.917969 227.894531 129.382812 228.058594 131.847656 C 228.21875 134.308594 228.460938 136.765625 228.78125 139.210938 C 229.105469 141.660156 229.503906 144.09375 229.984375 146.515625 C 230.464844 148.9375 231.023438 151.339844 231.660156 153.726562 C 232.296875 156.109375 233.007812 158.472656 233.796875 160.808594 C 234.589844 163.148438 235.453125 165.460938 236.394531 167.742188 C 237.335938 170.023438 238.347656 172.273438 239.433594 174.488281 C 240.519531 176.707031 241.679688 178.886719 242.90625 181.027344 C 244.136719 183.167969 245.433594 185.265625 246.796875 187.324219 C 248.160156 189.382812 249.59375 191.390625 251.085938 193.355469 C 252.582031 195.320312 254.140625 197.234375 255.761719 199.09375 C 257.382812 200.957031 259.0625 202.765625 260.800781 204.519531 C 262.535156 206.273438 264.328125 207.96875 266.179688 209.605469 C 268.027344 211.242188 269.925781 212.816406 271.875 214.332031 C 273.828125 215.84375 275.824219 217.292969 277.871094 218.675781 C 279.914062 220.058594 282.003906 221.375 284.132812 222.625 L 278.4375 261.84375 C 278.230469 263.046875 278.199219 264.253906 278.34375 265.46875 C 278.488281 266.683594 278.804688 267.851562 279.285156 268.972656 C 279.769531 270.09375 280.402344 271.125 281.183594 272.066406 C 281.964844 273.003906 282.863281 273.816406 283.878906 274.492188 C 286.101562 275.820312 288.507812 276.414062 291.09375 276.265625 C 293.351562 276.28125 295.460938 275.730469 297.421875 274.621094 L 365.132812 235.90625 C 369.421875 234.972656 373.640625 233.792969 377.789062 232.363281 C 381.550781 235.949219 385.535156 239.261719 389.75 242.300781 C 393.964844 245.34375 398.363281 248.082031 402.953125 250.519531 C 407.542969 252.957031 412.273438 255.070312 417.152344 256.859375 C 422.03125 258.652344 427.007812 260.101562 432.085938 261.210938 L 499.796875 299.921875 C 501.796875 301.058594 503.949219 301.605469 506.25 301.566406 C 508.832031 301.574219 511.195312 300.855469 513.335938 299.417969 C 514.355469 298.738281 515.253906 297.929688 516.035156 296.988281 C 516.816406 296.050781 517.449219 295.019531 517.929688 293.894531 C 518.414062 292.773438 518.726562 291.605469 518.871094 290.390625 C 519.015625 289.179688 518.984375 287.96875 518.78125 286.765625 L 513.210938 247.546875 C 515.859375 245.96875 518.441406 244.285156 520.953125 242.496094 C 523.464844 240.707031 525.898438 238.820312 528.257812 236.835938 C 530.613281 234.851562 532.890625 232.773438 535.078125 230.601562 C 537.269531 228.433594 539.367188 226.175781 541.371094 223.835938 C 543.378906 221.496094 545.285156 219.078125 547.097656 216.582031 C 548.90625 214.085938 550.613281 211.523438 552.214844 208.886719 C 553.816406 206.253906 555.308594 203.558594 556.691406 200.804688 C 558.074219 198.050781 559.339844 195.242188 560.496094 192.386719 C 561.652344 189.527344 562.6875 186.625 563.605469 183.683594 C 564.527344 180.742188 565.324219 177.765625 566 174.761719 C 566.679688 171.753906 567.234375 168.722656 567.664062 165.671875 C 568.09375 162.621094 568.402344 159.554688 568.582031 156.480469 C 568.765625 153.402344 568.824219 150.324219 568.753906 147.242188 C 568.6875 144.160156 568.496094 141.085938 568.175781 138.019531 C 567.859375 134.953125 567.417969 131.90625 566.851562 128.875 C 566.285156 125.847656 565.601562 122.84375 564.789062 119.871094 C 563.980469 116.894531 563.054688 113.957031 562.003906 111.058594 C 560.957031 108.160156 559.792969 105.308594 558.515625 102.503906 C 557.234375 99.699219 555.84375 96.953125 554.339844 94.261719 C 552.839844 91.570312 551.230469 88.941406 549.511719 86.382812 C 547.796875 83.820312 545.980469 81.335938 544.0625 78.921875 C 542.144531 76.507812 540.128906 74.175781 538.023438 71.925781 C 535.914062 69.675781 533.71875 67.515625 531.4375 65.445312 C 529.152344 63.371094 526.789062 61.394531 524.347656 59.515625 C 521.902344 57.636719 519.386719 55.859375 516.796875 54.183594 C 514.210938 52.507812 511.558594 50.941406 508.84375 49.480469 C 506.128906 48.019531 503.355469 46.671875 500.53125 45.4375 C 497.707031 44.199219 494.835938 43.082031 491.921875 42.078125 C 489.003906 41.078125 486.054688 40.195312 483.066406 39.429688 C 480.078125 38.667969 477.0625 38.027344 474.023438 37.511719 C 470.984375 36.992188 467.929688 36.597656 464.859375 36.328125 C 461.785156 36.058594 458.707031 35.914062 455.625 35.890625 Z M 358.296875 211.492188 C 356.921875 211.816406 355.613281 212.320312 354.375 213.007812 L 307.421875 239.957031 L 310.585938 217.5625 C 310.648438 216.921875 310.664062 216.277344 310.628906 215.636719 C 310.59375 214.992188 310.511719 214.355469 310.382812 213.722656 C 310.25 213.09375 310.070312 212.476562 309.84375 211.871094 C 309.621094 211.265625 309.347656 210.683594 309.035156 210.121094 C 308.71875 209.558594 308.363281 209.023438 307.964844 208.515625 C 307.570312 208.007812 307.136719 207.535156 306.664062 207.089844 C 306.195312 206.648438 305.695312 206.246094 305.164062 205.878906 C 304.632812 205.515625 304.078125 205.191406 303.496094 204.910156 C 301.929688 204.160156 300.390625 203.359375 298.871094 202.515625 C 297.351562 201.671875 295.859375 200.785156 294.390625 199.851562 C 292.925781 198.921875 291.488281 197.945312 290.078125 196.929688 C 288.667969 195.914062 287.292969 194.855469 285.945312 193.757812 C 284.597656 192.660156 283.285156 191.527344 282.003906 190.351562 C 280.722656 189.175781 279.480469 187.964844 278.269531 186.71875 C 277.0625 185.46875 275.890625 184.1875 274.757812 182.871094 C 273.625 181.554688 272.53125 180.203125 271.476562 178.824219 C 270.421875 177.441406 269.410156 176.03125 268.441406 174.589844 C 267.46875 173.148438 266.542969 171.683594 265.65625 170.1875 C 264.773438 168.691406 263.933594 167.171875 263.140625 165.628906 C 262.34375 164.082031 261.59375 162.515625 260.890625 160.925781 C 260.191406 159.339844 259.535156 157.730469 258.925781 156.105469 C 258.316406 154.476562 257.757812 152.832031 257.246094 151.171875 C 256.734375 149.511719 256.273438 147.839844 255.859375 146.152344 C 255.449219 144.464844 255.085938 142.765625 254.773438 141.058594 C 254.460938 139.347656 254.199219 137.632812 253.984375 135.910156 C 253.773438 134.183594 253.613281 132.457031 253.503906 130.722656 C 253.394531 128.988281 253.335938 127.253906 253.328125 125.515625 C 253.320312 123.78125 253.363281 122.042969 253.457031 120.308594 C 253.550781 118.574219 253.695312 116.84375 253.890625 115.121094 C 254.085938 113.394531 254.335938 111.675781 254.632812 109.964844 C 254.929688 108.253906 255.277344 106.550781 255.671875 104.859375 C 256.070312 103.167969 256.519531 101.492188 257.015625 99.828125 C 257.511719 98.164062 258.054688 96.515625 258.648438 94.882812 C 259.242188 93.25 259.882812 91.632812 260.570312 90.039062 C 261.257812 88.445312 261.992188 86.871094 262.773438 85.320312 C 263.554688 83.769531 264.382812 82.242188 265.25 80.738281 C 266.121094 79.234375 267.035156 77.757812 267.996094 76.308594 C 268.953125 74.859375 269.953125 73.4375 270.992188 72.046875 C 272.035156 70.65625 273.117188 69.300781 274.238281 67.972656 C 275.359375 66.644531 276.515625 65.351562 277.714844 64.09375 C 278.910156 62.835938 280.144531 61.613281 281.414062 60.425781 C 282.683594 59.238281 283.988281 58.09375 285.324219 56.980469 C 286.660156 55.871094 288.027344 54.804688 289.429688 53.773438 C 290.828125 52.746094 292.257812 51.757812 293.714844 50.8125 C 295.171875 49.867188 296.65625 48.964844 298.167969 48.109375 C 299.679688 47.25 301.214844 46.4375 302.773438 45.671875 C 304.332031 44.902344 305.914062 44.183594 307.515625 43.507812 C 309.117188 42.832031 310.734375 42.207031 312.375 41.625 C 314.011719 41.046875 315.664062 40.515625 317.335938 40.035156 C 319.003906 39.554688 320.6875 39.121094 322.382812 38.738281 C 324.074219 38.355469 325.78125 38.019531 327.496094 37.738281 C 329.210938 37.457031 330.929688 37.222656 332.660156 37.042969 C 334.386719 36.859375 336.121094 36.730469 337.855469 36.648438 C 339.589844 36.570312 341.328125 36.542969 343.066406 36.5625 C 344.804688 36.585938 346.539062 36.660156 348.269531 36.785156 C 350.003906 36.910156 351.734375 37.085938 353.457031 37.3125 C 355.179688 37.539062 356.894531 37.8125 358.601562 38.140625 C 360.304688 38.46875 362 38.84375 363.6875 39.273438 C 365.371094 39.699219 367.042969 40.175781 368.699219 40.699219 C 370.355469 41.222656 371.992188 41.796875 373.617188 42.417969 C 375.238281 43.039062 376.839844 43.710938 378.425781 44.425781 C 380.007812 45.140625 381.570312 45.902344 383.109375 46.710938 C 384.644531 47.515625 386.160156 48.371094 387.648438 49.265625 C 389.136719 50.164062 390.597656 51.101562 392.03125 52.085938 C 393.460938 53.066406 394.867188 54.089844 396.238281 55.15625 C 397.609375 56.21875 398.953125 57.324219 400.257812 58.46875 C 401.566406 59.613281 402.839844 60.792969 404.078125 62.011719 C 405.316406 63.230469 406.515625 64.484375 407.683594 65.773438 C 408.847656 67.0625 409.972656 68.386719 411.058594 69.742188 C 412.144531 71.097656 413.191406 72.484375 414.195312 73.902344 C 415.199219 75.316406 416.164062 76.761719 417.082031 78.238281 C 418.003906 79.710938 418.878906 81.210938 419.710938 82.734375 C 420.542969 84.261719 421.328125 85.808594 422.066406 87.378906 C 422.808594 88.953125 423.5 90.542969 424.148438 92.15625 C 424.796875 93.769531 425.394531 95.398438 425.945312 97.046875 C 426.496094 98.691406 426.996094 100.355469 427.449219 102.03125 C 427.902344 103.707031 428.304688 105.398438 428.660156 107.097656 C 429.011719 108.796875 429.316406 110.507812 429.570312 112.226562 C 429.824219 113.945312 430.023438 115.667969 430.175781 117.398438 C 430.328125 119.128906 430.425781 120.863281 430.476562 122.601562 C 430.527344 124.335938 430.523438 126.074219 430.472656 127.808594 C 430.417969 129.542969 430.316406 131.277344 430.160156 133.007812 C 430.003906 134.738281 429.800781 136.460938 429.542969 138.179688 C 429.289062 139.898438 428.980469 141.605469 428.625 143.308594 C 428.265625 145.007812 427.859375 146.695312 427.402344 148.371094 C 426.949219 150.046875 426.441406 151.707031 425.886719 153.355469 C 425.332031 155 424.730469 156.628906 424.082031 158.238281 C 423.433594 159.851562 422.734375 161.441406 421.992188 163.011719 C 421.246094 164.582031 420.457031 166.128906 419.625 167.652344 C 418.789062 169.175781 417.910156 170.671875 416.988281 172.144531 C 416.066406 173.617188 415.101562 175.058594 414.09375 176.476562 C 413.085938 177.890625 412.035156 179.273438 410.945312 180.628906 C 409.855469 181.980469 408.730469 183.300781 407.5625 184.585938 C 406.394531 185.875 405.191406 187.125 403.949219 188.34375 C 402.710938 189.558594 401.433594 190.738281 400.125 191.878906 C 398.816406 193.019531 397.472656 194.121094 396.097656 195.183594 C 394.722656 196.246094 393.316406 197.265625 391.882812 198.246094 C 390.449219 199.226562 388.984375 200.164062 387.496094 201.054688 C 386.003906 201.949219 384.488281 202.800781 382.949219 203.601562 C 381.410156 204.40625 379.847656 205.167969 378.261719 205.878906 C 376.679688 206.589844 375.074219 207.257812 373.449219 207.875 C 371.824219 208.492188 370.183594 209.0625 368.527344 209.585938 C 366.871094 210.105469 365.199219 210.578125 363.515625 211.003906 C 361.828125 211.425781 360.132812 211.800781 358.425781 212.125 Z M 493.59375 229.582031 C 493.011719 229.863281 492.457031 230.183594 491.925781 230.550781 C 491.394531 230.914062 490.894531 231.320312 490.425781 231.761719 C 489.957031 232.203125 489.523438 232.679688 489.125 233.1875 C 488.726562 233.695312 488.371094 234.230469 488.058594 234.792969 C 487.742188 235.355469 487.472656 235.9375 487.246094 236.539062 C 487.019531 237.144531 486.839844 237.761719 486.710938 238.394531 C 486.578125 239.023438 486.496094 239.660156 486.460938 240.304688 C 486.425781 240.949219 486.441406 241.589844 486.507812 242.234375 L 489.671875 264.625 L 442.96875 238.3125 C 441.726562 237.660156 440.421875 237.195312 439.046875 236.917969 C 432.449219 235.613281 426.085938 233.582031 419.953125 230.824219 C 413.820312 228.070312 408.078125 224.660156 402.722656 220.597656 C 404.296875 219.597656 405.851562 218.558594 407.375 217.480469 C 408.902344 216.402344 410.398438 215.285156 411.871094 214.132812 C 413.339844 212.980469 414.78125 211.792969 416.195312 210.570312 C 417.605469 209.347656 418.988281 208.09375 420.335938 206.800781 C 421.6875 205.511719 423.003906 204.1875 424.289062 202.832031 C 425.574219 201.476562 426.828125 200.089844 428.042969 198.671875 C 429.261719 197.257812 430.441406 195.808594 431.585938 194.335938 C 432.734375 192.859375 433.839844 191.359375 434.914062 189.828125 C 435.984375 188.296875 437.019531 186.742188 438.015625 185.164062 C 439.007812 183.582031 439.964844 181.976562 440.882812 180.351562 C 441.796875 178.722656 442.671875 177.074219 443.507812 175.402344 C 444.34375 173.734375 445.136719 172.042969 445.886719 170.332031 C 446.640625 168.625 447.351562 166.894531 448.015625 165.152344 C 448.683594 163.40625 449.308594 161.648438 449.886719 159.871094 C 450.46875 158.097656 451.003906 156.308594 451.496094 154.507812 C 451.988281 152.707031 452.4375 150.890625 452.839844 149.070312 C 453.242188 147.246094 453.597656 145.414062 453.914062 143.570312 C 454.226562 141.730469 454.492188 139.882812 454.714844 138.027344 C 454.9375 136.175781 455.113281 134.316406 455.242188 132.453125 C 455.371094 130.589844 455.457031 128.722656 455.496094 126.855469 C 455.535156 124.988281 455.527344 123.121094 455.472656 121.257812 C 455.417969 119.390625 455.320312 117.523438 455.175781 115.664062 C 455.03125 113.800781 454.839844 111.945312 454.601562 110.089844 C 454.367188 108.238281 454.082031 106.394531 453.757812 104.554688 C 453.429688 102.714844 453.054688 100.886719 452.640625 99.066406 C 452.222656 97.246094 451.757812 95.4375 451.253906 93.640625 C 450.746094 91.839844 450.195312 90.058594 449.601562 88.289062 C 449.007812 86.515625 448.371094 84.761719 447.6875 83.023438 C 447.007812 81.285156 446.285156 79.5625 445.519531 77.859375 C 444.753906 76.15625 443.945312 74.472656 443.097656 72.808594 C 442.25 71.144531 441.359375 69.5 440.433594 67.882812 C 439.503906 66.261719 438.535156 64.664062 437.527344 63.09375 C 443.492188 61.820312 449.523438 61.1875 455.625 61.195312 C 458.109375 61.207031 460.585938 61.320312 463.0625 61.539062 C 465.535156 61.757812 467.996094 62.082031 470.441406 62.507812 C 472.886719 62.933594 475.3125 63.460938 477.714844 64.089844 C 480.117188 64.71875 482.488281 65.449219 484.828125 66.277344 C 487.171875 67.109375 489.472656 68.035156 491.734375 69.054688 C 494 70.078125 496.214844 71.195312 498.382812 72.402344 C 500.554688 73.613281 502.667969 74.910156 504.726562 76.296875 C 506.789062 77.683594 508.785156 79.15625 510.722656 80.710938 C 512.65625 82.265625 514.527344 83.898438 516.324219 85.609375 C 518.125 87.320312 519.847656 89.105469 521.496094 90.960938 C 523.144531 92.816406 524.710938 94.738281 526.199219 96.726562 C 527.6875 98.714844 529.085938 100.765625 530.402344 102.871094 C 531.714844 104.976562 532.941406 107.132812 534.074219 109.34375 C 535.207031 111.550781 536.246094 113.804688 537.1875 116.101562 C 538.132812 118.398438 538.980469 120.730469 539.726562 123.097656 C 540.472656 125.464844 541.121094 127.859375 541.667969 130.28125 C 542.210938 132.703125 542.65625 135.140625 542.996094 137.601562 C 543.335938 140.058594 543.574219 142.527344 543.707031 145.007812 C 543.839844 147.488281 543.871094 149.96875 543.792969 152.449219 C 543.71875 154.929688 543.539062 157.402344 543.253906 159.871094 C 542.972656 162.335938 542.582031 164.785156 542.09375 167.21875 C 541.605469 169.652344 541.011719 172.0625 540.320312 174.445312 C 539.628906 176.832031 538.835938 179.179688 537.945312 181.5 C 537.054688 183.816406 536.070312 186.09375 534.988281 188.328125 C 533.90625 190.5625 532.734375 192.746094 531.46875 194.882812 C 530.203125 197.019531 528.847656 199.097656 527.40625 201.121094 C 525.96875 203.140625 524.445312 205.101562 522.839844 206.996094 C 521.234375 208.890625 519.550781 210.710938 517.792969 212.464844 C 516.035156 214.21875 514.203125 215.894531 512.304688 217.492188 C 510.40625 219.09375 508.441406 220.609375 506.414062 222.042969 C 504.386719 223.476562 502.304688 224.824219 500.164062 226.082031 C 498.023438 227.339844 495.832031 228.507812 493.59375 229.582031 Z M 493.59375 229.582031 " fill-opacity="1" fill-rule="nonzero"/><path fill="#000000" d="M 316.40625 124.449219 C 316.40625 125.28125 316.324219 126.105469 316.164062 126.917969 C 316 127.734375 315.761719 128.523438 315.441406 129.292969 C 315.125 130.058594 314.734375 130.789062 314.273438 131.480469 C 313.8125 132.167969 313.285156 132.808594 312.699219 133.394531 C 312.113281 133.984375 311.472656 134.507812 310.78125 134.96875 C 310.089844 135.429688 309.359375 135.820312 308.59375 136.136719 C 307.824219 136.457031 307.035156 136.695312 306.21875 136.859375 C 305.402344 137.019531 304.582031 137.101562 303.75 137.101562 C 302.917969 137.101562 302.097656 137.019531 301.28125 136.859375 C 300.464844 136.695312 299.675781 136.457031 298.90625 136.136719 C 298.140625 135.820312 297.410156 135.429688 296.71875 134.96875 C 296.027344 134.507812 295.386719 133.984375 294.800781 133.394531 C 294.214844 132.808594 293.6875 132.167969 293.226562 131.480469 C 292.765625 130.789062 292.375 130.058594 292.058594 129.292969 C 291.738281 128.523438 291.5 127.734375 291.335938 126.917969 C 291.175781 126.105469 291.09375 125.28125 291.09375 124.449219 C 291.09375 123.621094 291.175781 122.796875 291.335938 121.980469 C 291.5 121.167969 291.738281 120.375 292.058594 119.609375 C 292.375 118.839844 292.765625 118.113281 293.226562 117.421875 C 293.6875 116.730469 294.214844 116.09375 294.800781 115.503906 C 295.386719 114.917969 296.027344 114.394531 296.71875 113.929688 C 297.410156 113.46875 298.140625 113.078125 298.90625 112.761719 C 299.675781 112.445312 300.464844 112.203125 301.28125 112.042969 C 302.097656 111.878906 302.917969 111.800781 303.75 111.800781 C 304.582031 111.800781 305.402344 111.878906 306.21875 112.042969 C 307.035156 112.203125 307.824219 112.445312 308.59375 112.761719 C 309.359375 113.078125 310.089844 113.46875 310.78125 113.929688 C 311.472656 114.394531 312.113281 114.917969 312.699219 115.503906 C 313.285156 116.09375 313.8125 116.730469 314.273438 117.421875 C 314.734375 118.113281 315.125 118.839844 315.441406 119.609375 C 315.761719 120.375 316 121.167969 316.164062 121.980469 C 316.324219 122.796875 316.40625 123.621094 316.40625 124.449219 Z M 316.40625 124.449219 " fill-opacity="1" fill-rule="nonzero"/><path fill="#000000" d="M 354.375 124.449219 C 354.375 125.28125 354.292969 126.105469 354.132812 126.917969 C 353.96875 127.734375 353.730469 128.523438 353.410156 129.292969 C 353.09375 130.058594 352.703125 130.789062 352.242188 131.480469 C 351.78125 132.167969 351.253906 132.808594 350.667969 133.394531 C 350.082031 133.984375 349.441406 134.507812 348.75 134.96875 C 348.058594 135.429688 347.328125 135.820312 346.5625 136.136719 C 345.792969 136.457031 345.003906 136.695312 344.1875 136.859375 C 343.371094 137.019531 342.550781 137.101562 341.71875 137.101562 C 340.886719 137.101562 340.066406 137.019531 339.25 136.859375 C 338.433594 136.695312 337.644531 136.457031 336.875 136.136719 C 336.109375 135.820312 335.378906 135.429688 334.6875 134.96875 C 333.996094 134.507812 333.355469 133.984375 332.769531 133.394531 C 332.183594 132.808594 331.65625 132.167969 331.195312 131.480469 C 330.734375 130.789062 330.34375 130.058594 330.027344 129.292969 C 329.707031 128.523438 329.46875 127.734375 329.304688 126.917969 C 329.144531 126.105469 329.0625 125.28125 329.0625 124.449219 C 329.0625 123.621094 329.144531 122.796875 329.304688 121.980469 C 329.46875 121.167969 329.707031 120.375 330.027344 119.609375 C 330.34375 118.839844 330.734375 118.113281 331.195312 117.421875 C 331.65625 116.730469 332.183594 116.09375 332.769531 115.503906 C 333.355469 114.917969 333.996094 114.394531 334.6875 113.929688 C 335.378906 113.46875 336.109375 113.078125 336.875 112.761719 C 337.644531 112.445312 338.433594 112.203125 339.25 112.042969 C 340.066406 111.878906 340.886719 111.800781 341.71875 111.800781 C 342.550781 111.800781 343.371094 111.878906 344.1875 112.042969 C 345.003906 112.203125 345.792969 112.445312 346.5625 112.761719 C 347.328125 113.078125 348.058594 113.46875 348.75 113.929688 C 349.441406 114.394531 350.082031 114.917969 350.667969 115.503906 C 351.253906 116.09375 351.78125 116.730469 352.242188 117.421875 C 352.703125 118.113281 353.09375 118.839844 353.410156 119.609375 C 353.730469 120.375 353.96875 121.167969 354.132812 121.980469 C 354.292969 122.796875 354.375 123.621094 354.375 124.449219 Z M 354.375 124.449219 " fill-opacity="1" fill-rule="nonzero"/><path fill="#000000" d="M 392.34375 124.449219 C 392.34375 125.28125 392.261719 126.105469 392.101562 126.917969 C 391.9375 127.734375 391.699219 128.523438 391.378906 129.292969 C 391.0625 130.058594 390.671875 130.789062 390.210938 131.480469 C 389.75 132.167969 389.222656 132.808594 388.636719 133.394531 C 388.050781 133.984375 387.410156 134.507812 386.71875 134.96875 C 386.027344 135.429688 385.296875 135.820312 384.53125 136.136719 C 383.761719 136.457031 382.972656 136.695312 382.15625 136.859375 C 381.339844 137.019531 380.519531 137.101562 379.6875 137.101562 C 378.855469 137.101562 378.035156 137.019531 377.21875 136.859375 C 376.402344 136.695312 375.613281 136.457031 374.84375 136.136719 C 374.078125 135.820312 373.347656 135.429688 372.65625 134.96875 C 371.964844 134.507812 371.324219 133.984375 370.738281 133.394531 C 370.152344 132.808594 369.625 132.167969 369.164062 131.480469 C 368.703125 130.789062 368.3125 130.058594 367.996094 129.292969 C 367.675781 128.523438 367.4375 127.734375 367.273438 126.917969 C 367.113281 126.105469 367.03125 125.28125 367.03125 124.449219 C 367.03125 123.621094 367.113281 122.796875 367.273438 121.980469 C 367.4375 121.167969 367.675781 120.375 367.996094 119.609375 C 368.3125 118.839844 368.703125 118.113281 369.164062 117.421875 C 369.625 116.730469 370.152344 116.09375 370.738281 115.503906 C 371.324219 114.917969 371.964844 114.394531 372.65625 113.929688 C 373.347656 113.46875 374.078125 113.078125 374.84375 112.761719 C 375.613281 112.445312 376.402344 112.203125 377.21875 112.042969 C 378.035156 111.878906 378.855469 111.800781 379.6875 111.800781 C 380.519531 111.800781 381.339844 111.878906 382.15625 112.042969 C 382.972656 112.203125 383.761719 112.445312 384.53125 112.761719 C 385.296875 113.078125 386.027344 113.46875 386.71875 113.929688 C 387.410156 114.394531 388.050781 114.917969 388.636719 115.503906 C 389.222656 116.09375 389.75 116.730469 390.210938 117.421875 C 390.671875 118.113281 391.0625 118.839844 391.378906 119.609375 C 391.699219 120.375 391.9375 121.167969 392.101562 121.980469 C 392.261719 122.796875 392.34375 123.621094 392.34375 124.449219 Z M 392.34375 124.449219 " fill-opacity="1" fill-rule="nonzero"/></svg>