<svg xmlns="http://www.w3.org/2000/svg" xmlns:xlink="http://www.w3.org/1999/xlink" width="1080" zoomAndPan="magnify" viewBox="0 0 810 809.999993" height="1080" preserveAspectRatio="xMidYMid meet" version="1.0"><path fill="#000000" d="M 175.921875 385.382812 C 178.453125 385.382812 180.351562 386.015625 182.882812 386.015625 C 194.90625 386.015625 206.929688 382.21875 217.054688 373.992188 C 229.078125 364.5 236.671875 351.210938 238.570312 336.023438 L 239.835938 323.367188 C 243.632812 292.359375 221.484375 263.882812 191.109375 260.085938 C 176.554688 258.1875 162 261.984375 149.976562 271.476562 C 137.953125 280.96875 130.359375 294.257812 128.460938 309.445312 L 127.195312 322.101562 C 123.398438 353.109375 144.914062 381.585938 175.921875 385.382812 Z M 151.875 325.265625 L 153.140625 312.609375 C 154.40625 304.382812 158.203125 296.789062 165.164062 291.09375 C 170.859375 286.664062 177.1875 284.765625 183.515625 284.765625 C 184.78125 284.765625 186.046875 284.765625 187.3125 284.765625 C 204.398438 286.664062 216.421875 302.484375 214.523438 320.203125 L 213.257812 332.859375 C 211.992188 341.085938 208.195312 348.679688 201.234375 354.375 C 194.90625 359.4375 186.679688 361.335938 179.085938 360.703125 C 162 358.171875 149.976562 342.351562 151.875 325.265625 Z M 151.875 325.265625 " fill-opacity="1" fill-rule="nonzero"/><path fill="#000000" d="M 592.945312 373.992188 C 603.070312 381.585938 615.09375 386.015625 627.117188 386.015625 C 629.648438 386.015625 631.546875 386.015625 634.078125 385.382812 C 665.085938 381.585938 686.601562 353.109375 682.804688 322.101562 L 681.539062 309.445312 C 679.640625 294.257812 672.046875 280.335938 660.023438 271.476562 C 648 261.984375 633.445312 258.1875 618.890625 260.085938 C 587.882812 263.882812 566.367188 292.359375 570.164062 323.367188 L 571.429688 336.023438 C 573.328125 351.210938 580.921875 364.5 592.945312 373.992188 Z M 622.054688 284.765625 C 623.320312 284.765625 624.585938 284.765625 625.851562 284.765625 C 632.8125 284.765625 639.140625 287.296875 644.203125 291.09375 C 651.164062 296.15625 654.960938 303.75 656.226562 312.609375 L 657.492188 325.265625 C 659.390625 342.351562 647.367188 358.171875 630.28125 360.703125 C 622.054688 361.96875 614.460938 359.4375 608.132812 354.375 C 601.171875 349.3125 597.375 341.71875 596.109375 332.859375 L 594.84375 320.203125 C 592.945312 303.117188 604.96875 287.296875 622.054688 284.765625 Z M 622.054688 284.765625 " fill-opacity="1" fill-rule="nonzero"/><path fill="#000000" d="M 797.34375 44.296875 C 804.304688 44.296875 810 38.601562 810 31.640625 C 810 24.679688 804.304688 18.984375 797.34375 18.984375 L 734.0625 18.984375 L 734.0625 12.65625 C 734.0625 5.695312 728.367188 0 721.40625 0 C 714.445312 0 708.75 5.695312 708.75 12.65625 L 708.75 18.984375 L 607.5 18.984375 L 607.5 12.65625 C 607.5 5.695312 601.804688 0 594.84375 0 C 587.882812 0 582.1875 5.695312 582.1875 12.65625 L 582.1875 18.984375 L 480.9375 18.984375 L 480.9375 12.65625 C 480.9375 5.695312 475.242188 0 468.28125 0 C 461.320312 0 455.625 5.695312 455.625 12.65625 L 455.625 18.984375 L 354.375 18.984375 L 354.375 12.65625 C 354.375 5.695312 348.679688 0 341.71875 0 C 334.757812 0 329.0625 5.695312 329.0625 12.65625 L 329.0625 18.984375 L 227.8125 18.984375 L 227.8125 12.65625 C 227.8125 5.695312 222.117188 0 215.15625 0 C 208.195312 0 202.5 5.695312 202.5 12.65625 L 202.5 18.984375 L 101.25 18.984375 L 101.25 12.65625 C 101.25 5.695312 95.554688 0 88.59375 0 C 81.632812 0 75.9375 5.695312 75.9375 12.65625 L 75.9375 18.984375 L 12.65625 18.984375 C 5.695312 18.984375 0 24.679688 0 31.640625 C 0 38.601562 5.695312 44.296875 12.65625 44.296875 L 75.9375 44.296875 L 75.9375 82.265625 L 12.65625 82.265625 C 5.695312 82.265625 0 87.960938 0 94.921875 C 0 101.882812 5.695312 107.578125 12.65625 107.578125 L 75.9375 107.578125 L 75.9375 113.90625 C 75.9375 120.867188 81.632812 126.5625 88.59375 126.5625 C 95.554688 126.5625 101.25 120.867188 101.25 113.90625 L 101.25 107.578125 L 202.5 107.578125 L 202.5 113.90625 C 202.5 120.867188 208.195312 126.5625 215.15625 126.5625 C 222.117188 126.5625 227.8125 120.867188 227.8125 113.90625 L 227.8125 107.578125 L 329.0625 107.578125 L 329.0625 113.90625 C 329.0625 120.867188 334.757812 126.5625 341.71875 126.5625 C 348.679688 126.5625 354.375 120.867188 354.375 113.90625 L 354.375 107.578125 L 392.34375 107.578125 L 392.34375 165.796875 C 349.3125 172.125 316.40625 208.828125 316.40625 253.125 C 316.40625 260.085938 322.101562 265.78125 329.0625 265.78125 L 360.703125 265.78125 C 360.703125 290.460938 380.320312 310.078125 405 310.078125 C 429.679688 310.078125 449.296875 290.460938 449.296875 265.78125 L 480.9375 265.78125 C 487.898438 265.78125 493.59375 260.085938 493.59375 253.125 C 493.59375 208.828125 460.6875 171.492188 417.65625 165.796875 L 417.65625 107.578125 L 455.625 107.578125 L 455.625 113.90625 C 455.625 120.867188 461.320312 126.5625 468.28125 126.5625 C 475.242188 126.5625 480.9375 120.867188 480.9375 113.90625 L 480.9375 107.578125 L 582.1875 107.578125 L 582.1875 113.90625 C 582.1875 120.867188 587.882812 126.5625 594.84375 126.5625 C 601.804688 126.5625 607.5 120.867188 607.5 113.90625 L 607.5 107.578125 L 708.75 107.578125 L 708.75 113.90625 C 708.75 120.867188 714.445312 126.5625 721.40625 126.5625 C 728.367188 126.5625 734.0625 120.867188 734.0625 113.90625 L 734.0625 107.578125 L 797.34375 107.578125 C 804.304688 107.578125 810 101.882812 810 94.921875 C 810 87.960938 804.304688 82.265625 797.34375 82.265625 L 734.0625 82.265625 L 734.0625 44.296875 Z M 202.5 82.265625 L 101.25 82.265625 L 101.25 44.296875 L 202.5 44.296875 Z M 329.0625 82.265625 L 227.8125 82.265625 L 227.8125 44.296875 L 329.0625 44.296875 Z M 405 284.765625 C 394.242188 284.765625 386.015625 276.539062 386.015625 265.78125 L 423.984375 265.78125 C 423.984375 276.539062 415.757812 284.765625 405 284.765625 Z M 467.015625 240.46875 L 342.984375 240.46875 C 348.679688 211.359375 374.625 189.84375 405 189.84375 C 435.375 189.84375 461.320312 211.359375 467.015625 240.46875 Z M 455.625 82.265625 L 354.375 82.265625 L 354.375 44.296875 L 455.625 44.296875 Z M 582.1875 82.265625 L 480.9375 82.265625 L 480.9375 44.296875 L 582.1875 44.296875 Z M 708.75 82.265625 L 607.5 82.265625 L 607.5 44.296875 L 708.75 44.296875 Z M 708.75 82.265625 " fill-opacity="1" fill-rule="nonzero"/><path fill="#000000" d="M 759.375 436.640625 L 746.71875 436.640625 C 744.820312 436.640625 743.554688 436.640625 742.289062 437.273438 C 732.164062 411.328125 706.851562 392.34375 677.109375 392.34375 C 642.9375 392.34375 614.460938 417.023438 608.132812 449.296875 L 563.835938 449.296875 C 542.953125 449.296875 525.867188 466.382812 525.867188 487.265625 C 525.867188 494.226562 527.765625 500.554688 530.929688 506.25 L 479.039062 506.25 L 455.625 389.8125 C 454.359375 382.851562 447.398438 378.421875 440.4375 379.6875 C 433.476562 380.953125 429.046875 387.914062 430.3125 394.875 L 453.09375 506.25 L 356.90625 506.25 L 379.6875 394.875 C 380.953125 387.914062 376.523438 381.585938 369.5625 379.6875 C 362.601562 378.421875 356.273438 382.851562 354.375 389.8125 L 331.59375 506.25 L 279.703125 506.25 C 282.867188 500.554688 284.765625 494.226562 284.765625 487.265625 C 284.765625 466.382812 267.679688 449.296875 246.796875 449.296875 L 202.5 449.296875 C 196.171875 417.023438 167.695312 392.34375 133.523438 392.34375 C 103.78125 392.34375 78.46875 410.695312 68.34375 437.273438 C 66.445312 436.640625 65.179688 436.640625 63.28125 436.640625 L 50.625 436.640625 C 22.78125 436.640625 0 459.421875 0 487.265625 L 0 648.632812 C 0 669.515625 17.085938 686.601562 37.96875 686.601562 L 44.296875 686.601562 L 44.296875 797.34375 C 44.296875 804.304688 49.992188 810 56.953125 810 C 63.914062 810 69.609375 804.304688 69.609375 797.34375 L 69.609375 784.6875 L 170.859375 784.6875 L 170.859375 797.34375 C 170.859375 804.304688 176.554688 810 183.515625 810 C 190.476562 810 196.171875 804.304688 196.171875 797.34375 L 196.171875 711.28125 C 197.4375 710.648438 199.335938 709.382812 200.601562 708.117188 L 222.117188 772.664062 C 227.179688 787.21875 240.46875 796.710938 255.65625 796.710938 C 265.78125 796.710938 275.90625 792.28125 282.234375 784.6875 C 289.195312 777.09375 291.726562 766.96875 290.460938 756.84375 L 269.578125 596.109375 C 268.945312 590.414062 267.046875 585.351562 264.515625 580.289062 C 266.414062 580.921875 268.945312 580.921875 270.84375 580.921875 L 302.484375 580.921875 L 302.484375 796.078125 C 302.484375 803.039062 308.179688 808.734375 315.140625 808.734375 C 322.101562 808.734375 327.796875 803.039062 327.796875 796.078125 L 327.796875 770.765625 L 479.671875 770.765625 L 479.671875 796.078125 C 479.671875 803.039062 485.367188 808.734375 492.328125 808.734375 C 499.289062 808.734375 504.984375 803.039062 504.984375 796.078125 L 504.984375 582.1875 L 536.625 582.1875 C 539.15625 582.1875 541.054688 582.1875 542.953125 581.554688 C 540.421875 586.617188 539.15625 591.679688 537.890625 597.375 L 518.90625 757.476562 C 517.640625 767.601562 520.804688 777.726562 527.132812 785.320312 C 534.09375 792.914062 543.585938 797.34375 553.710938 797.34375 C 568.898438 797.34375 582.820312 787.851562 587.25 773.296875 L 606.234375 715.078125 L 606.234375 797.34375 C 606.234375 804.304688 611.929688 810 618.890625 810 C 625.851562 810 631.546875 804.304688 631.546875 797.34375 L 631.546875 784.6875 L 739.125 784.6875 L 739.125 797.34375 C 739.125 804.304688 744.820312 810 751.78125 810 C 758.742188 810 764.4375 804.304688 764.4375 797.34375 L 764.4375 683.4375 L 770.765625 683.4375 C 791.648438 683.4375 808.734375 666.984375 808.734375 646.101562 L 808.734375 487.265625 C 810 459.421875 787.21875 436.640625 759.375 436.640625 Z M 25.3125 487.265625 C 25.3125 473.34375 36.703125 461.953125 50.625 461.953125 L 63.28125 461.953125 L 63.28125 575.859375 L 25.3125 575.859375 Z M 44.296875 651.796875 L 44.296875 661.289062 L 37.96875 661.289062 C 31.007812 661.289062 25.3125 655.59375 25.3125 648.632812 L 25.3125 601.171875 L 63.28125 601.171875 C 63.914062 601.171875 63.914062 601.171875 64.546875 601.171875 C 66.445312 610.664062 70.242188 618.890625 75.9375 626.484375 L 69.609375 626.484375 C 55.6875 626.484375 44.296875 637.875 44.296875 651.796875 Z M 170.859375 759.375 L 69.609375 759.375 L 69.609375 715.078125 L 170.859375 715.078125 Z M 69.609375 689.765625 L 69.609375 651.796875 L 181.617188 651.796875 L 183.515625 656.859375 L 183.515625 689.765625 Z M 265.78125 760.640625 C 266.414062 764.4375 264.515625 766.96875 263.25 768.234375 C 261.984375 769.5 259.453125 771.398438 255.65625 771.398438 C 251.226562 771.398438 247.429688 768.867188 246.164062 764.4375 L 203.132812 634.710938 C 201.234375 629.648438 196.804688 625.851562 191.109375 625.851562 L 127.195312 625.851562 C 105.679688 625.851562 88.59375 608.765625 88.59375 587.882812 L 88.59375 461.953125 C 88.59375 437.273438 108.84375 417.65625 133.523438 417.65625 C 153.773438 417.65625 170.859375 430.945312 176.554688 449.296875 L 158.203125 449.296875 C 151.242188 449.296875 145.546875 454.992188 145.546875 461.953125 C 145.546875 468.914062 151.242188 474.609375 158.203125 474.609375 L 246.796875 474.609375 C 253.757812 474.609375 259.453125 480.304688 259.453125 487.265625 C 259.453125 494.226562 253.757812 499.921875 246.796875 499.921875 L 169.59375 499.921875 C 162.632812 499.921875 156.9375 505.617188 156.9375 512.578125 C 156.9375 519.539062 162.632812 525.234375 169.59375 525.234375 L 177.820312 525.234375 L 177.820312 550.546875 C 177.820312 555.609375 180.984375 560.039062 185.414062 561.9375 L 229.078125 579.65625 C 237.304688 583.453125 243.632812 591.046875 244.898438 599.90625 Z M 236.039062 555.609375 L 203.765625 542.320312 L 203.765625 525.234375 L 239.203125 525.234375 C 236.039062 530.929688 234.140625 537.257812 234.140625 544.21875 C 234.140625 548.015625 234.773438 551.8125 236.039062 555.609375 Z M 480.9375 746.71875 L 329.0625 746.71875 L 329.0625 670.78125 L 480.9375 670.78125 Z M 480.9375 645.46875 L 329.0625 645.46875 L 329.0625 582.1875 L 480.9375 582.1875 Z M 537.890625 556.875 L 272.109375 556.875 C 265.148438 556.875 259.453125 551.179688 259.453125 544.21875 C 259.453125 537.257812 265.148438 531.5625 272.109375 531.5625 L 537.890625 531.5625 C 544.851562 531.5625 550.546875 537.257812 550.546875 544.21875 C 550.546875 551.179688 544.851562 556.875 537.890625 556.875 Z M 618.890625 626.484375 C 613.195312 626.484375 608.765625 630.28125 606.867188 635.34375 L 563.835938 765.070312 C 562.570312 769.5 558.773438 772.03125 554.34375 772.03125 C 550.546875 772.03125 548.015625 770.132812 546.75 768.867188 C 545.484375 767.601562 543.585938 765.070312 544.21875 761.273438 L 565.101562 600.539062 C 566.367188 591.679688 572.0625 584.085938 580.921875 580.289062 L 624.585938 562.570312 C 629.015625 560.671875 632.179688 556.242188 632.179688 551.179688 L 632.179688 525.867188 L 640.40625 525.867188 C 647.367188 525.867188 653.0625 520.171875 653.0625 513.210938 C 653.0625 506.25 647.367188 500.554688 640.40625 500.554688 L 563.203125 500.554688 C 556.242188 500.554688 550.546875 494.859375 550.546875 487.898438 C 550.546875 480.9375 556.242188 475.242188 563.203125 475.242188 L 651.796875 475.242188 C 658.757812 475.242188 664.453125 469.546875 664.453125 462.585938 C 664.453125 455.625 658.757812 449.929688 651.796875 449.929688 L 633.445312 449.929688 C 639.140625 431.578125 656.226562 418.289062 676.476562 418.289062 C 701.15625 418.289062 721.40625 437.90625 721.40625 462.585938 L 721.40625 589.148438 C 721.40625 610.03125 704.320312 627.117188 682.804688 627.117188 L 618.890625 627.117188 Z M 570.796875 525.234375 L 606.234375 525.234375 L 606.234375 542.320312 L 573.960938 555.609375 C 575.226562 551.8125 575.859375 548.648438 575.859375 544.21875 C 575.859375 537.257812 573.960938 530.929688 570.796875 525.234375 Z M 740.390625 759.375 L 632.8125 759.375 L 632.8125 715.078125 L 740.390625 715.078125 Z M 740.390625 689.765625 L 626.484375 689.765625 L 626.484375 656.859375 L 628.382812 651.796875 L 740.390625 651.796875 Z M 784.6875 646.101562 C 784.6875 652.429688 778.992188 658.125 772.03125 658.125 L 765.703125 658.125 L 765.703125 651.796875 C 765.703125 637.875 754.3125 626.484375 740.390625 626.484375 L 734.0625 626.484375 C 739.757812 618.890625 743.554688 610.664062 745.453125 601.171875 C 746.085938 601.171875 746.085938 601.171875 746.71875 601.171875 L 784.6875 601.171875 Z M 784.6875 575.859375 L 746.71875 575.859375 L 746.71875 461.953125 L 759.375 461.953125 C 773.296875 461.953125 784.6875 473.34375 784.6875 487.265625 Z M 784.6875 575.859375 " fill-opacity="1" fill-rule="nonzero"/></svg>