<svg xmlns="http://www.w3.org/2000/svg" xmlns:xlink="http://www.w3.org/1999/xlink" width="1080" zoomAndPan="magnify" viewBox="0 0 810 809.999993" height="1080" preserveAspectRatio="xMidYMid meet" version="1.0"><path fill="#000000" d="M 45.957031 397.28125 L 197.539062 397.28125 C 196.851562 387.675781 198.910156 378.066406 203.027344 369.828125 L 59.671875 369.828125 L 59.671875 81.5625 L 307.28125 81.5625 C 307.96875 71.953125 310.027344 63.027344 313.457031 54.105469 L 45.957031 54.105469 C 38.410156 54.105469 32.238281 60.285156 32.238281 67.832031 L 32.238281 383.554688 C 32.238281 391.105469 38.410156 397.28125 45.957031 397.28125 Z M 45.957031 397.28125 " fill-opacity="1" fill-rule="nonzero"/><path fill="#000000" d="M 745.570312 81.5625 L 745.570312 369.828125 L 601.53125 369.828125 C 605.648438 378.066406 607.707031 387.675781 607.019531 397.28125 L 759.289062 397.28125 C 766.832031 397.28125 773.007812 391.105469 773.007812 383.554688 L 773.007812 67.832031 C 773.007812 60.285156 766.832031 54.105469 759.289062 54.105469 L 492.472656 54.105469 C 495.902344 63.027344 497.960938 71.953125 498.648438 81.5625 Z M 745.570312 81.5625 " fill-opacity="1" fill-rule="nonzero"/><path fill="#000000" d="M 790.152344 580.539062 L 734.597656 535.925781 C 727.050781 530.4375 717.449219 528.375 709.21875 531.121094 C 700.300781 533.867188 693.441406 540.730469 691.382812 549.652344 L 661.890625 656.722656 L 620.738281 656.722656 L 611.132812 636.132812 L 630.339844 636.132812 C 642.6875 636.132812 653.660156 627.898438 657.089844 615.542969 L 686.582031 498.863281 C 689.328125 488.566406 685.898438 478.273438 677.667969 471.410156 L 628.96875 429.542969 C 621.421875 423.363281 611.820312 421.304688 602.902344 424.050781 C 593.988281 426.796875 587.128906 434.347656 584.382812 443.957031 L 567.238281 522.886719 L 561.0625 524.257812 L 548.03125 494.746094 C 554.207031 491.3125 559.007812 484.449219 561.0625 476.898438 L 578.898438 398.65625 C 580.957031 389.734375 578.210938 380.8125 572.722656 373.945312 L 553.519531 354.730469 C 546.660156 347.179688 536.371094 343.746094 526.082031 346.492188 C 516.480469 349.238281 508.9375 356.789062 506.191406 367.082031 L 500.703125 391.792969 L 497.960938 384.929688 C 493.847656 376.691406 486.300781 371.203125 478.070312 369.828125 L 478.070312 369.144531 L 325.800781 369.144531 L 325.800781 369.828125 C 317.570312 371.886719 310.710938 377.378906 306.597656 384.929688 L 303.167969 393.164062 L 296.992188 366.398438 C 294.9375 356.101562 287.390625 348.550781 277.101562 345.804688 C 267.5 343.0625 256.527344 346.492188 249.667969 354.042969 L 231.148438 373.945312 C 224.972656 380.8125 222.917969 389.734375 224.972656 398.65625 L 242.808594 476.898438 C 244.867188 485.136719 249.667969 491.3125 256.527344 494.746094 L 243.492188 524.257812 L 235.949219 522.199219 L 218.117188 443.957031 C 216.058594 434.347656 209.199219 427.484375 199.597656 424.738281 C 190.679688 421.992188 180.390625 424.050781 173.53125 430.226562 L 124.832031 472.09375 C 117.289062 478.960938 113.859375 489.253906 115.917969 499.550781 L 145.410156 616.230469 C 148.152344 628.585938 159.128906 636.820312 172.160156 636.820312 L 192.738281 636.820312 L 183.132812 657.410156 L 140.609375 657.410156 L 111.117188 550.339844 C 108.371094 541.417969 102.199219 534.554688 93.28125 531.808594 C 84.367188 529.0625 74.761719 530.4375 67.902344 536.613281 L 12.347656 581.226562 C 4.117188 588.089844 0 599.070312 2.742188 609.367188 L 42.527344 761.050781 C 45.957031 773.40625 56.929688 781.640625 69.277344 781.640625 L 128.261719 781.640625 L 109.058594 824.195312 C 105.628906 831.058594 109.058594 839.292969 115.917969 842.039062 C 122.777344 845.472656 131.007812 842.039062 133.75 835.175781 L 331.972656 397.28125 L 473.269531 397.28125 L 671.492188 835.863281 C 673.550781 840.667969 679.039062 844.097656 683.839844 844.097656 C 685.898438 844.097656 687.957031 843.414062 689.328125 842.726562 C 696.1875 839.292969 699.617188 831.746094 696.1875 824.882812 L 676.980469 782.328125 L 733.222656 782.328125 C 745.570312 782.328125 756.542969 774.089844 759.972656 761.738281 L 799.757812 610.050781 C 802.5 598.382812 799.070312 587.402344 790.152344 580.539062 Z M 252.410156 393.164062 L 270.929688 373.261719 L 280.53125 415.816406 C 281.902344 420.617188 283.960938 425.421875 288.078125 428.855469 L 270.242188 468.664062 Z M 172.847656 609.367188 L 143.351562 492.6875 L 192.050781 450.820312 L 209.882812 529.0625 C 212.628906 538.671875 220.171875 546.222656 229.777344 548.96875 L 232.519531 549.652344 L 205.769531 609.367188 Z M 70.648438 753.5 L 30.867188 601.816406 L 86.421875 557.203125 L 115.917969 664.273438 C 119.347656 675.941406 130.320312 684.179688 142.667969 684.179688 L 172.160156 684.179688 L 141.292969 752.8125 L 70.648438 752.8125 Z M 574.097656 549.652344 C 583.699219 546.90625 591.242188 539.359375 593.988281 529.75 L 611.820312 451.503906 L 660.519531 493.371094 L 631.027344 610.050781 L 599.472656 610.050781 L 572.722656 550.339844 Z M 524.027344 415.816406 L 533.628906 373.261719 L 552.148438 393.164062 L 535 466.605469 L 517.167969 427.484375 C 520.597656 424.738281 522.652344 420.621094 524.027344 415.816406 Z M 733.222656 753.5 L 664.632812 753.5 L 633.769531 684.863281 L 661.890625 684.863281 C 674.238281 684.863281 685.210938 676.628906 688.640625 664.960938 L 718.132812 557.890625 L 773.691406 602.503906 Z M 733.222656 753.5 " fill-opacity="1" fill-rule="nonzero"/><path fill="#000000" d="M 347.75 102.152344 L 457.492188 102.152344 C 465.039062 102.152344 471.210938 95.972656 471.210938 88.425781 C 471.210938 55.480469 447.890625 27.339844 416.339844 21.160156 L 416.339844 -21.390625 C 416.339844 -28.941406 410.167969 -35.121094 402.621094 -35.121094 C 395.078125 -35.121094 388.902344 -28.941406 388.902344 -21.390625 L 388.902344 21.160156 C 357.351562 27.339844 334.03125 55.480469 334.03125 88.425781 C 334.03125 95.972656 340.207031 102.152344 347.75 102.152344 Z M 402.621094 47.242188 C 420.457031 47.242188 435.542969 58.910156 441.71875 74.695312 L 363.527344 74.695312 C 369.699219 58.910156 384.789062 47.242188 402.621094 47.242188 Z M 402.621094 47.242188 " fill-opacity="1" fill-rule="nonzero"/><path fill="#000000" d="M 388.902344 129.605469 L 388.902344 157.058594 C 388.902344 164.609375 395.078125 170.785156 402.621094 170.785156 C 410.167969 170.785156 416.339844 164.609375 416.339844 157.058594 L 416.339844 129.605469 C 416.339844 122.054688 410.167969 115.878906 402.621094 115.878906 C 395.078125 115.878906 388.902344 122.054688 388.902344 129.605469 Z M 388.902344 129.605469 " fill-opacity="1" fill-rule="nonzero"/><path fill="#000000" d="M 331.289062 159.804688 C 334.71875 159.804688 338.148438 158.433594 340.890625 155.6875 L 360.097656 136.46875 C 365.582031 130.976562 365.582031 122.742188 360.097656 117.25 C 354.609375 111.761719 346.378906 111.761719 340.890625 117.25 L 321.6875 136.46875 C 316.199219 141.960938 316.199219 150.195312 321.6875 155.6875 C 324.429688 158.433594 327.859375 159.804688 331.289062 159.804688 Z M 331.289062 159.804688 " fill-opacity="1" fill-rule="nonzero"/><path fill="#000000" d="M 445.148438 117.25 C 439.660156 122.742188 439.660156 130.976562 445.148438 136.46875 L 464.351562 155.6875 C 467.097656 158.433594 470.527344 159.804688 473.957031 159.804688 C 477.382812 159.804688 480.8125 158.433594 483.558594 155.6875 C 489.042969 150.195312 489.042969 141.960938 483.558594 136.46875 L 464.351562 117.25 C 458.867188 111.761719 450.632812 111.761719 445.148438 117.25 Z M 445.148438 117.25 " fill-opacity="1" fill-rule="nonzero"/></svg>