<svg xmlns="http://www.w3.org/2000/svg" xmlns:xlink="http://www.w3.org/1999/xlink" width="1080" zoomAndPan="magnify" viewBox="0 0 810 809.999993" height="1080" preserveAspectRatio="xMidYMid meet" version="1.0"><defs><clipPath id="572cb7364c"><path d="M 4.984375 20 L 803.734375 20 L 803.734375 790.214844 L 4.984375 790.214844 Z M 4.984375 20 " clip-rule="nonzero"/></clipPath></defs><g clip-path="url(#572cb7364c)"><path fill="#000000" d="M 112.828125 469.714844 L 48.308594 469.714844 L 48.308594 708.773438 L 70.566406 708.773438 L 70.566406 649.175781 C 70.566406 641.648438 76.671875 635.582031 84.152344 635.582031 L 137.742188 635.582031 L 137.742188 593.296875 C 137.742188 585.769531 143.804688 579.703125 151.328125 579.703125 L 287.800781 579.703125 C 295.277344 579.703125 301.339844 585.769531 301.339844 593.296875 L 301.339844 635.582031 L 354.929688 635.582031 C 362.453125 635.582031 368.515625 641.648438 368.515625 649.175781 L 368.515625 708.773438 L 390.773438 708.773438 L 390.773438 594.359375 L 356.746094 594.359375 C 349.222656 594.359375 343.160156 588.292969 343.160156 580.765625 C 343.160156 573.28125 349.222656 567.214844 356.746094 567.214844 L 390.773438 567.214844 L 390.773438 524.796875 L 356.746094 524.796875 C 349.222656 524.796875 343.160156 518.730469 343.160156 511.25 C 343.160156 503.722656 349.222656 497.65625 356.746094 497.65625 L 390.773438 497.65625 L 390.773438 455.28125 L 356.746094 455.28125 C 349.222656 455.28125 343.160156 449.171875 343.160156 441.6875 C 343.160156 434.203125 349.222656 428.09375 356.746094 428.09375 L 390.773438 428.09375 L 390.773438 391.5625 L 126.414062 391.5625 L 126.414062 456.121094 C 126.414062 463.648438 120.351562 469.714844 112.828125 469.714844 Z M 790.195312 790.113281 L 18.527344 790.113281 C 11.046875 790.113281 4.984375 784.003906 4.984375 776.519531 L 4.984375 722.367188 C 4.984375 714.839844 11.046875 708.773438 18.527344 708.773438 L 21.179688 708.773438 L 21.179688 33.617188 C 21.179688 26.132812 27.242188 20.066406 34.722656 20.066406 L 773.996094 20.066406 C 781.476562 20.066406 787.582031 26.132812 787.582031 33.617188 L 787.582031 708.773438 L 790.195312 708.773438 C 797.671875 708.773438 803.734375 714.839844 803.734375 722.367188 L 803.734375 776.519531 C 803.734375 784.003906 797.671875 790.113281 790.195312 790.113281 Z M 97.738281 708.773438 L 341.390625 708.773438 L 341.390625 662.726562 L 97.738281 662.726562 Z M 417.945312 708.773438 L 440.203125 708.773438 L 440.203125 649.175781 C 440.203125 641.648438 446.265625 635.582031 453.789062 635.582031 L 507.378906 635.582031 L 507.378906 593.296875 C 507.378906 585.769531 513.441406 579.703125 520.964844 579.703125 L 657.394531 579.703125 C 664.914062 579.703125 670.976562 585.769531 670.976562 593.296875 L 670.976562 635.582031 L 724.566406 635.582031 C 732.089844 635.582031 738.152344 641.648438 738.152344 649.175781 L 738.152344 708.773438 L 760.410156 708.773438 L 760.410156 469.714844 L 695.890625 469.714844 C 688.414062 469.714844 682.308594 463.648438 682.308594 456.121094 L 682.308594 391.5625 L 417.945312 391.5625 L 417.945312 428.09375 L 452.019531 428.09375 C 459.496094 428.09375 465.558594 434.203125 465.558594 441.6875 C 465.558594 449.171875 459.496094 455.28125 452.019531 455.28125 L 417.945312 455.28125 L 417.945312 497.65625 L 452.019531 497.65625 C 459.496094 497.65625 465.558594 503.722656 465.558594 511.25 C 465.558594 518.730469 459.496094 524.796875 452.019531 524.796875 L 417.945312 524.796875 L 417.945312 567.214844 L 452.019531 567.214844 C 459.496094 567.214844 465.558594 573.28125 465.558594 580.765625 C 465.558594 588.292969 459.496094 594.359375 452.019531 594.359375 L 417.945312 594.359375 Z M 467.332031 708.773438 L 711.027344 708.773438 L 711.027344 662.726562 L 467.332031 662.726562 Z M 32.109375 762.925781 L 776.609375 762.925781 L 776.609375 735.917969 L 32.109375 735.917969 Z M 760.410156 364.421875 L 760.410156 125.363281 L 695.890625 125.363281 C 688.414062 125.363281 682.308594 119.25 682.308594 111.769531 L 682.308594 47.210938 L 417.945312 47.210938 L 417.945312 364.421875 L 440.203125 364.421875 L 440.203125 304.777344 C 440.203125 297.296875 446.265625 291.230469 453.789062 291.230469 L 507.378906 291.230469 L 507.378906 248.941406 C 507.378906 241.414062 513.441406 235.351562 520.964844 235.351562 L 657.394531 235.351562 C 664.914062 235.351562 670.976562 241.414062 670.976562 248.941406 L 670.976562 291.230469 L 724.566406 291.230469 C 732.089844 291.230469 738.152344 297.296875 738.152344 304.777344 L 738.152344 364.421875 Z M 760.410156 98.21875 L 760.410156 47.210938 L 709.476562 47.210938 L 709.476562 98.21875 Z M 534.503906 291.230469 L 643.851562 291.230469 L 643.851562 262.492188 L 534.503906 262.492188 Z M 711.027344 364.421875 L 711.027344 318.371094 L 467.332031 318.371094 L 467.332031 364.421875 Z M 390.773438 364.421875 L 390.773438 47.210938 L 126.414062 47.210938 L 126.414062 111.769531 C 126.414062 119.25 120.351562 125.363281 112.828125 125.363281 L 48.308594 125.363281 L 48.308594 364.421875 L 70.566406 364.421875 L 70.566406 304.777344 C 70.566406 297.296875 76.671875 291.230469 84.152344 291.230469 L 137.742188 291.230469 L 137.742188 248.941406 C 137.742188 241.414062 143.804688 235.351562 151.328125 235.351562 L 287.800781 235.351562 C 295.277344 235.351562 301.339844 241.414062 301.339844 248.941406 L 301.339844 291.230469 L 354.929688 291.230469 C 362.453125 291.230469 368.515625 297.296875 368.515625 304.777344 L 368.515625 364.421875 Z M 164.867188 291.230469 L 274.214844 291.230469 L 274.214844 262.492188 L 164.867188 262.492188 Z M 341.390625 364.421875 L 341.390625 318.371094 L 97.738281 318.371094 L 97.738281 364.421875 Z M 48.308594 98.21875 L 99.285156 98.21875 L 99.285156 47.210938 L 48.308594 47.210938 Z M 760.410156 442.574219 L 760.410156 391.5625 L 709.476562 391.5625 L 709.476562 442.574219 Z M 534.503906 635.582031 L 643.851562 635.582031 L 643.851562 606.847656 L 534.503906 606.847656 Z M 164.867188 635.582031 L 274.214844 635.582031 L 274.214844 606.847656 L 164.867188 606.847656 Z M 48.308594 442.574219 L 99.285156 442.574219 L 99.285156 391.5625 L 48.308594 391.5625 Z M 48.308594 442.574219 " fill-opacity="1" fill-rule="evenodd"/></g></svg>