<svg xmlns="http://www.w3.org/2000/svg" xmlns:xlink="http://www.w3.org/1999/xlink" width="1080" zoomAndPan="magnify" viewBox="0 0 810 809.999993" height="1080" preserveAspectRatio="xMidYMid meet" version="1.0"><path fill="#000000" d="M 85.78125 405 C 34.828125 378.664062 0 325.492188 0 264.183594 L 0 158.574219 C 0 71.082031 70.9375 0.15625 158.441406 0.15625 L 642.558594 0.15625 C 730.0625 0.15625 801 71.082031 801 158.574219 L 801 264.183594 C 801 325.492188 766.167969 378.664062 715.21875 405 C 766.167969 431.335938 801 484.507812 801 545.816406 L 801 651.425781 C 801 738.914062 730.0625 809.84375 642.558594 809.84375 L 158.441406 809.84375 C 70.9375 809.84375 0 738.914062 0 651.425781 L 0 545.816406 C 0 484.507812 34.828125 431.335938 85.78125 405 Z M 510.527344 387.398438 L 642.558594 387.398438 C 645.519531 387.398438 648.457031 387.292969 651.363281 387.089844 L 651.363281 323.070312 C 630.980469 335.945312 606.835938 343.394531 580.945312 343.394531 C 555.054688 343.394531 530.90625 335.945312 510.527344 323.070312 Z M 765.792969 264.183594 C 765.792969 316.730469 732.898438 361.59375 686.570312 379.308594 L 686.570312 290.601562 C 703.152344 268.535156 712.976562 241.105469 712.976562 211.378906 C 712.976562 138.46875 653.863281 79.367188 580.945312 79.367188 C 508.023438 79.367188 448.910156 138.46875 448.910156 211.378906 C 448.910156 241.105469 458.738281 268.535156 475.320312 290.601562 L 475.320312 387.398438 L 158.441406 387.398438 C 90.382812 387.398438 35.207031 332.234375 35.207031 264.183594 L 35.207031 158.574219 C 35.207031 90.527344 90.382812 35.363281 158.441406 35.363281 L 642.558594 35.363281 C 710.617188 35.363281 765.792969 90.527344 765.792969 158.574219 Z M 642.558594 422.601562 C 645.519531 422.601562 648.457031 422.707031 651.363281 422.910156 L 651.363281 519.410156 L 510.527344 519.410156 L 510.527344 422.601562 Z M 510.527344 651.425781 L 510.527344 554.617188 L 651.363281 554.617188 L 651.363281 651.425781 Z M 642.558594 774.636719 L 510.527344 774.636719 L 510.527344 686.628906 L 651.363281 686.628906 L 651.363281 774.332031 C 648.457031 774.53125 645.519531 774.636719 642.558594 774.636719 Z M 765.792969 545.816406 C 765.792969 493.269531 732.898438 448.40625 686.570312 430.691406 L 686.570312 766.550781 C 732.898438 748.835938 765.792969 703.96875 765.792969 651.425781 Z M 475.320312 422.601562 L 158.441406 422.601562 C 90.382812 422.601562 35.207031 477.765625 35.207031 545.816406 L 35.207031 651.425781 C 35.207031 719.472656 90.382812 774.636719 158.441406 774.636719 L 475.320312 774.636719 Z M 509.917969 277.171875 C 523.8125 292.164062 542.398438 302.746094 563.339844 306.59375 L 563.339844 116.167969 C 518.273438 124.445312 484.121094 163.925781 484.121094 211.378906 C 484.121094 231.738281 490.40625 250.628906 501.140625 266.214844 C 505.402344 268.46875 508.628906 272.421875 509.917969 277.171875 Z M 677.769531 211.378906 C 677.769531 258.835938 643.617188 298.316406 598.550781 306.59375 L 598.550781 116.167969 C 643.617188 124.445312 677.769531 163.925781 677.769531 211.378906 Z M 237.660156 693.832031 C 282.726562 685.554688 316.878906 646.074219 316.878906 598.621094 C 316.878906 551.164062 282.726562 511.683594 237.660156 503.40625 Z M 352.089844 598.621094 C 352.089844 525.710938 292.976562 466.605469 220.054688 466.605469 C 147.136719 466.605469 88.023438 525.710938 88.023438 598.621094 C 88.023438 671.53125 147.136719 730.632812 220.054688 730.632812 C 292.976562 730.632812 352.089844 671.53125 352.089844 598.621094 Z M 202.449219 503.40625 L 202.449219 693.832031 C 157.382812 685.554688 123.230469 646.074219 123.230469 598.621094 C 123.230469 551.164062 157.382812 511.683594 202.449219 503.40625 Z M 158.441406 140.972656 C 148.714844 140.972656 140.835938 148.851562 140.835938 158.574219 C 140.835938 168.296875 148.714844 176.175781 158.441406 176.175781 L 356.488281 176.175781 C 366.210938 176.175781 374.09375 168.296875 374.09375 158.574219 C 374.09375 148.851562 366.210938 140.972656 356.488281 140.972656 Z M 158.441406 140.972656 " fill-opacity="1" fill-rule="evenodd"/></svg>