<svg xmlns="http://www.w3.org/2000/svg" xmlns:xlink="http://www.w3.org/1999/xlink" width="1080" zoomAndPan="magnify" viewBox="0 0 810 809.999993" height="1080" preserveAspectRatio="xMidYMid meet" version="1.0"><path fill="#000000" d="M 783 216 L 27 216 L 27 27 L 783 27 Z M 715.5 351 L 688.5 351 L 688.5 243 L 715.5 243 Z M 756 729 L 553.5 729 L 553.5 580.5 C 553.5 573.0625 547.433594 567 540 567 L 270 567 C 262.5625 567 256.5 573.0625 256.5 580.5 L 256.5 729 L 54 729 L 54 378 L 756 378 Z M 756 783 L 553.5 783 L 553.5 756 L 756 756 Z M 418.5 594 L 526.5 594 L 526.5 783 L 418.5 783 Z M 283.5 742.5 L 283.5 594 L 391.5 594 L 391.5 783 L 283.5 783 Z M 54 756 L 256.5 756 L 256.5 783 L 54 783 Z M 661.5 243 L 661.5 351 L 162 351 L 162 243 Z M 108 243 L 135 243 L 135 351 L 108 351 Z M 796.5 0 L 13.5 0 C 6.066406 0 0 6.066406 0 13.5 L 0 229.5 C 0 236.9375 6.066406 243 13.5 243 L 81 243 L 81 351 L 40.5 351 C 33.066406 351 27 357.066406 27 364.5 L 27 796.5 C 27 803.933594 33.066406 810 40.5 810 L 769.5 810 C 776.933594 810 783 803.933594 783 796.5 L 783 364.5 C 783 357.066406 776.933594 351 769.5 351 L 742.5 351 L 742.5 243 L 796.5 243 C 803.933594 243 810 236.9375 810 229.5 L 810 13.5 C 810 6.066406 803.933594 0 796.5 0 " fill-opacity="1" fill-rule="nonzero"/><path fill="#000000" d="M 121.5 135 L 148.5 135 L 148.5 189 L 175.5 189 L 175.5 54 L 148.5 54 L 148.5 108 L 121.5 108 L 121.5 54 L 94.5 54 L 94.5 189 L 121.5 189 L 121.5 135 " fill-opacity="1" fill-rule="nonzero"/><path fill="#000000" d="M 229.5 81 L 256.5 81 L 256.5 162 L 229.5 162 Z M 216 189 L 270 189 C 277.433594 189 283.5 182.9375 283.5 175.5 L 283.5 67.5 C 283.5 60.066406 277.433594 54 270 54 L 216 54 C 208.5625 54 202.5 60.066406 202.5 67.5 L 202.5 175.5 C 202.5 182.9375 208.5625 189 216 189 " fill-opacity="1" fill-rule="nonzero"/><path fill="#000000" d="M 391.5 175.5 L 391.5 121.5 C 391.5 114.066406 385.433594 108 378 108 L 337.5 108 L 337.5 81 L 391.5 81 L 391.5 54 L 324 54 C 316.5625 54 310.5 60.066406 310.5 67.5 L 310.5 121.5 C 310.5 128.9375 316.5625 135 324 135 L 364.5 135 L 364.5 162 L 310.5 162 L 310.5 189 L 378 189 C 385.433594 189 391.5 182.9375 391.5 175.5 " fill-opacity="1" fill-rule="nonzero"/><path fill="#000000" d="M 445.5 189 L 472.5 189 L 472.5 81 L 499.5 81 L 499.5 54 L 418.5 54 L 418.5 81 L 445.5 81 L 445.5 189 " fill-opacity="1" fill-rule="nonzero"/><path fill="#000000" d="M 540 189 L 607.5 189 L 607.5 162 L 553.5 162 L 553.5 135 L 607.5 135 L 607.5 108 L 553.5 108 L 553.5 81 L 607.5 81 L 607.5 54 L 540 54 C 532.5625 54 526.5 60.066406 526.5 67.5 L 526.5 175.5 C 526.5 182.9375 532.5625 189 540 189 " fill-opacity="1" fill-rule="nonzero"/><path fill="#000000" d="M 648 189 L 715.5 189 L 715.5 162 L 661.5 162 L 661.5 54 L 634.5 54 L 634.5 175.5 C 634.5 182.9375 640.5625 189 648 189 " fill-opacity="1" fill-rule="nonzero"/><path fill="#000000" d="M 202.5 513 L 121.5 513 L 121.5 432 L 202.5 432 Z M 216 405 L 108 405 C 100.5625 405 94.5 411.066406 94.5 418.5 L 94.5 526.5 C 94.5 533.933594 100.5625 540 108 540 L 216 540 C 223.433594 540 229.5 533.933594 229.5 526.5 L 229.5 418.5 C 229.5 411.066406 223.433594 405 216 405 " fill-opacity="1" fill-rule="nonzero"/><path fill="#000000" d="M 364.5 513 L 283.5 513 L 283.5 432 L 364.5 432 Z M 378 405 L 270 405 C 262.5625 405 256.5 411.066406 256.5 418.5 L 256.5 526.5 C 256.5 533.933594 262.5625 540 270 540 L 378 540 C 385.433594 540 391.5 533.933594 391.5 526.5 L 391.5 418.5 C 391.5 411.066406 385.433594 405 378 405 " fill-opacity="1" fill-rule="nonzero"/><path fill="#000000" d="M 526.5 513 L 445.5 513 L 445.5 432 L 526.5 432 Z M 540 405 L 432 405 C 424.5625 405 418.5 411.066406 418.5 418.5 L 418.5 526.5 C 418.5 533.933594 424.5625 540 432 540 L 540 540 C 547.433594 540 553.5 533.933594 553.5 526.5 L 553.5 418.5 C 553.5 411.066406 547.433594 405 540 405 " fill-opacity="1" fill-rule="nonzero"/><path fill="#000000" d="M 688.5 513 L 607.5 513 L 607.5 432 L 688.5 432 Z M 702 405 L 594 405 C 586.5625 405 580.5 411.066406 580.5 418.5 L 580.5 526.5 C 580.5 533.933594 586.5625 540 594 540 L 702 540 C 709.433594 540 715.5 533.933594 715.5 526.5 L 715.5 418.5 C 715.5 411.066406 709.433594 405 702 405 " fill-opacity="1" fill-rule="nonzero"/><path fill="#000000" d="M 202.5 675 L 121.5 675 L 121.5 594 L 202.5 594 Z M 216 567 L 108 567 C 100.5625 567 94.5 573.0625 94.5 580.5 L 94.5 688.5 C 94.5 695.933594 100.5625 702 108 702 L 216 702 C 223.433594 702 229.5 695.933594 229.5 688.5 L 229.5 580.5 C 229.5 573.0625 223.433594 567 216 567 " fill-opacity="1" fill-rule="nonzero"/><path fill="#000000" d="M 688.5 675 L 607.5 675 L 607.5 594 L 688.5 594 Z M 702 567 L 594 567 C 586.5625 567 580.5 573.0625 580.5 580.5 L 580.5 688.5 C 580.5 695.933594 586.5625 702 594 702 L 702 702 C 709.433594 702 715.5 695.933594 715.5 688.5 L 715.5 580.5 C 715.5 573.0625 709.433594 567 702 567 " fill-opacity="1" fill-rule="nonzero"/><path fill="#000000" d="M 337.5 688.5 L 364.5 688.5 L 364.5 661.5 L 337.5 661.5 L 337.5 688.5 " fill-opacity="1" fill-rule="nonzero"/><path fill="#000000" d="M 445.5 688.5 L 472.5 688.5 L 472.5 661.5 L 445.5 661.5 L 445.5 688.5 " fill-opacity="1" fill-rule="nonzero"/></svg>