<svg xmlns="http://www.w3.org/2000/svg" xmlns:xlink="http://www.w3.org/1999/xlink" width="1080" zoomAndPan="magnify" viewBox="0 0 810 809.999993" height="1080" preserveAspectRatio="xMidYMid meet" version="1.0"><path fill="#000000" d="M 130.644531 143.710938 C 130.644531 144.566406 130.5625 145.417969 130.394531 146.257812 C 130.226562 147.101562 129.980469 147.917969 129.652344 148.710938 C 129.324219 149.5 128.921875 150.253906 128.445312 150.96875 C 127.96875 151.679688 127.425781 152.339844 126.820312 152.949219 C 126.210938 153.554688 125.550781 154.097656 124.839844 154.574219 C 124.125 155.050781 123.371094 155.453125 122.582031 155.78125 C 121.789062 156.109375 120.972656 156.355469 120.128906 156.523438 C 119.289062 156.691406 118.4375 156.773438 117.582031 156.773438 C 116.722656 156.773438 115.875 156.691406 115.03125 156.523438 C 114.191406 156.355469 113.375 156.109375 112.582031 155.78125 C 111.789062 155.453125 111.035156 155.050781 110.324219 154.574219 C 109.609375 154.097656 108.949219 153.554688 108.34375 152.949219 C 107.734375 152.339844 107.195312 151.679688 106.71875 150.96875 C 106.242188 150.253906 105.839844 149.5 105.511719 148.710938 C 105.183594 147.917969 104.933594 147.101562 104.765625 146.257812 C 104.601562 145.417969 104.515625 144.566406 104.515625 143.710938 C 104.515625 142.851562 104.601562 142.003906 104.765625 141.160156 C 104.933594 140.320312 105.183594 139.503906 105.511719 138.710938 C 105.839844 137.917969 106.242188 137.164062 106.71875 136.453125 C 107.195312 135.738281 107.734375 135.078125 108.34375 134.472656 C 108.949219 133.863281 109.609375 133.324219 110.324219 132.847656 C 111.035156 132.371094 111.789062 131.96875 112.582031 131.640625 C 113.375 131.3125 114.191406 131.0625 115.03125 130.894531 C 115.875 130.730469 116.722656 130.644531 117.582031 130.644531 C 118.4375 130.644531 119.289062 130.730469 120.128906 130.894531 C 120.972656 131.0625 121.789062 131.3125 122.582031 131.640625 C 123.371094 131.96875 124.125 132.371094 124.839844 132.847656 C 125.550781 133.324219 126.210938 133.863281 126.820312 134.472656 C 127.425781 135.078125 127.964844 135.738281 128.445312 136.453125 C 128.921875 137.164062 129.324219 137.917969 129.652344 138.710938 C 129.980469 139.503906 130.226562 140.320312 130.394531 141.160156 C 130.5625 142.003906 130.644531 142.851562 130.644531 143.710938 Z M 130.644531 143.710938 " fill-opacity="1" fill-rule="nonzero"/><path fill="#000000" d="M 209.03125 600.96875 L 287.417969 600.96875 L 287.417969 627.097656 L 209.03125 627.097656 Z M 209.03125 600.96875 " fill-opacity="1" fill-rule="nonzero"/><path fill="#000000" d="M 182.628906 366.460938 L 201.101562 384.933594 C 213.449219 372.601562 229.855469 365.804688 247.296875 365.804688 C 264.753906 365.804688 281.160156 372.601562 293.496094 384.933594 L 311.96875 366.460938 C 294.695312 349.1875 271.730469 339.675781 247.296875 339.675781 C 222.867188 339.675781 199.914062 349.1875 182.628906 366.460938 Z M 182.628906 366.460938 " fill-opacity="1" fill-rule="nonzero"/><path fill="#000000" d="M 330.441406 347.988281 L 348.914062 329.511719 C 292.878906 273.480469 201.703125 273.480469 145.667969 329.511719 L 164.140625 347.988281 C 210 302.144531 284.585938 302.144531 330.441406 347.988281 Z M 330.441406 347.988281 " fill-opacity="1" fill-rule="nonzero"/><path fill="#000000" d="M 219.589844 403.417969 L 238.0625 421.890625 C 243.027344 416.953125 251.609375 416.980469 256.523438 421.890625 L 275.019531 403.433594 C 260.230469 388.617188 234.390625 388.605469 219.589844 403.417969 Z M 219.589844 403.417969 " fill-opacity="1" fill-rule="nonzero"/><path fill="#000000" d="M 587.902344 0 C 518.335938 0 453.300781 32.4375 411.347656 87.375 C 401.734375 81.808594 390.746094 78.386719 378.871094 78.386719 L 117.582031 78.386719 C 81.5625 78.386719 52.257812 107.691406 52.257812 143.710938 L 52.257812 425.707031 L 43.859375 434.09375 C 15.574219 462.390625 0 499.992188 0 539.996094 C 0 564.960938 6.324219 589.757812 18.277344 611.695312 L 78.386719 721.878906 L 78.386719 810 L 365.804688 810 L 365.804688 721.632812 L 387.21875 678.832031 C 414.96875 675.277344 437.269531 654.207031 442.808594 627.109375 L 457.257812 627.109375 C 478.867188 627.109375 496.453125 609.523438 496.453125 587.917969 C 496.453125 577.84375 492.519531 568.738281 486.261719 561.789062 C 492.53125 554.835938 496.453125 545.730469 496.453125 535.660156 C 496.453125 525.585938 492.519531 516.480469 486.261719 509.527344 C 492.53125 502.578125 496.453125 493.472656 496.453125 483.398438 C 496.453125 478.800781 495.511719 474.4375 494.046875 470.335938 L 509.515625 470.335938 C 527.898438 470.335938 543.25 457.570312 547.46875 440.46875 C 560.753906 442.898438 574.289062 444.195312 587.902344 444.195312 C 710.371094 444.195312 810 344.5625 810 222.097656 C 810 99.628906 710.371094 0 587.902344 0 Z M 587.902344 26.128906 C 617.0625 26.128906 643.480469 57.3125 660.359375 104.515625 L 515.449219 104.515625 C 532.328125 57.3125 558.742188 26.128906 587.902344 26.128906 Z M 668.367188 130.644531 C 674.402344 154.4375 678.113281 181.046875 679.027344 209.03125 L 496.765625 209.03125 C 497.679688 181.046875 501.390625 154.4375 507.425781 130.644531 Z M 470.664062 209.03125 L 444.195312 209.03125 L 444.195312 143.710938 C 444.195312 139.242188 443.734375 134.863281 442.875 130.644531 L 480.488281 130.644531 C 474.867188 154.683594 471.484375 181.085938 470.664062 209.03125 Z M 444.195312 235.160156 L 470.636719 235.160156 C 471.460938 262.53125 474.855469 289.027344 480.589844 313.546875 L 444.195312 313.546875 Z M 496.753906 235.160156 L 679.027344 235.160156 C 678.113281 263.144531 674.402344 289.757812 668.367188 313.546875 L 507.347656 313.546875 C 501.195312 289.390625 497.640625 262.78125 496.753906 235.160156 Z M 705.144531 235.160156 L 783.203125 235.160156 C 781.335938 263.316406 773.640625 289.875 761.085938 313.546875 L 695.320312 313.546875 C 700.9375 289.507812 704.320312 263.105469 705.144531 235.160156 Z M 705.144531 209.03125 C 704.320312 181.085938 700.9375 154.683594 695.320312 130.644531 L 761.085938 130.644531 C 773.640625 154.316406 781.335938 180.878906 783.203125 209.03125 Z M 744.3125 104.515625 L 688.03125 104.515625 C 679.433594 78.085938 668.066406 55.367188 654.507812 38.03125 C 690.550781 51.121094 721.617188 74.414062 744.3125 104.515625 Z M 521.46875 37.796875 C 507.832031 55.171875 496.414062 77.96875 487.777344 104.515625 L 431.167969 104.515625 C 454.421875 73.566406 485.910156 50.613281 521.46875 37.796875 Z M 285.015625 104.515625 C 279.605469 119.683594 265.234375 130.644531 248.226562 130.644531 C 231.214844 130.644531 216.84375 119.683594 211.4375 104.515625 Z M 78.386719 143.710938 C 78.386719 122.101562 95.972656 104.515625 117.582031 104.515625 L 184.222656 104.515625 C 190.296875 134.289062 216.675781 156.773438 248.226562 156.773438 C 279.777344 156.773438 306.152344 134.289062 312.230469 104.515625 L 378.871094 104.515625 C 400.480469 104.515625 418.066406 122.101562 418.066406 143.710938 L 418.066406 444.195312 L 405 444.195312 C 383.390625 444.195312 365.804688 461.777344 365.804688 483.386719 C 365.804688 493.460938 369.738281 502.566406 375.996094 509.515625 C 369.726562 516.464844 365.804688 525.574219 365.804688 535.644531 C 365.804688 540.242188 366.746094 544.609375 368.210938 548.710938 L 144.414062 548.710938 C 136.628906 533.019531 125.40625 519.054688 111.335938 508.117188 L 139.425781 480.015625 C 145.148438 474.292969 150.03125 467.957031 154.214844 461.242188 C 180.171875 483.726562 213.488281 496.453125 248.226562 496.453125 C 327.460938 496.453125 391.933594 431.976562 391.933594 352.742188 C 391.933594 273.503906 327.460938 209.03125 248.226562 209.03125 C 168.988281 209.03125 104.515625 273.503906 104.515625 352.742188 C 104.515625 359.507812 105.167969 366.25 106.109375 372.941406 C 104.019531 374.363281 102.035156 375.945312 100.230469 377.746094 L 78.386719 399.589844 Z M 470.324219 535.644531 C 470.324219 542.84375 464.46875 548.710938 457.257812 548.710938 L 405 548.710938 C 397.789062 548.710938 391.933594 542.84375 391.933594 535.644531 C 391.933594 528.445312 397.789062 522.582031 405 522.582031 L 457.257812 522.582031 C 464.46875 522.582031 470.324219 528.445312 470.324219 535.644531 Z M 131.429688 366.042969 C 130.933594 361.625 130.644531 357.195312 130.644531 352.742188 C 130.644531 287.914062 183.386719 235.160156 248.226562 235.160156 C 313.066406 235.160156 365.804688 287.914062 365.804688 352.742188 C 365.804688 417.566406 313.066406 470.324219 248.226562 470.324219 C 217.171875 470.324219 187.515625 457.871094 165.566406 436.132812 C 168.363281 426.660156 169.839844 416.730469 169.839844 406.582031 C 169.839844 384.90625 152.789062 367.296875 131.429688 366.042969 Z M 339.675781 715.464844 L 339.675781 783.871094 L 104.515625 783.871094 L 104.515625 715.21875 L 41.21875 599.179688 C 31.339844 581.070312 26.128906 560.597656 26.128906 539.996094 C 26.128906 506.980469 38.984375 475.925781 62.332031 452.582031 L 118.691406 396.234375 C 121.433594 393.503906 125.210938 391.933594 129.0625 391.933594 C 137.136719 391.933594 143.710938 398.507812 143.710938 406.582031 C 143.710938 427.351562 135.621094 446.871094 120.953125 461.542969 L 71.566406 510.925781 L 94.066406 527.804688 C 116.964844 544.984375 130.644531 572.34375 130.644531 600.96875 L 130.644531 679.355469 L 357.734375 679.355469 Z M 378.871094 653.226562 L 156.773438 653.226562 L 156.773438 600.96875 C 156.773438 592.109375 155.730469 583.34375 153.769531 574.839844 L 368.210938 574.839844 C 366.746094 578.941406 365.804688 583.304688 365.804688 587.902344 C 365.804688 609.511719 383.390625 627.097656 405 627.097656 L 415.660156 627.097656 C 410.25 642.265625 395.882812 653.226562 378.871094 653.226562 Z M 457.257812 600.96875 L 405 600.96875 C 397.789062 600.96875 391.933594 595.101562 391.933594 587.902344 C 391.933594 580.703125 397.789062 574.839844 405 574.839844 L 457.257812 574.839844 C 464.46875 574.839844 470.324219 580.703125 470.324219 587.902344 C 470.324219 595.101562 464.46875 600.96875 457.257812 600.96875 Z M 470.324219 483.386719 C 470.324219 490.585938 464.46875 496.453125 457.257812 496.453125 L 405 496.453125 C 397.789062 496.453125 391.933594 490.585938 391.933594 483.386719 C 391.933594 476.1875 397.789062 470.324219 405 470.324219 L 457.257812 470.324219 C 464.46875 470.324219 470.324219 476.1875 470.324219 483.386719 Z M 509.515625 444.195312 L 444.195312 444.195312 L 444.195312 418.066406 L 509.515625 418.066406 C 516.726562 418.066406 522.582031 423.929688 522.582031 431.128906 C 522.582031 438.328125 516.726562 444.195312 509.515625 444.195312 Z M 544.085938 413.046875 C 537.511719 400.558594 524.566406 391.933594 509.515625 391.933594 L 444.195312 391.933594 L 444.195312 339.675781 L 487.738281 339.675781 C 491.410156 350.992188 495.601562 361.730469 500.34375 371.699219 L 523.953125 360.488281 C 520.84375 353.945312 518.058594 346.914062 515.449219 339.675781 L 660.359375 339.675781 C 643.480469 386.878906 617.0625 418.066406 587.902344 418.066406 C 573.089844 418.066406 558.402344 416.3125 544.085938 413.046875 Z M 654.507812 406.164062 C 668.066406 388.824219 679.433594 366.105469 688.03125 339.675781 L 744.3125 339.675781 C 721.617188 369.777344 690.550781 393.070312 654.507812 406.164062 Z M 654.507812 406.164062 " fill-opacity="1" fill-rule="nonzero"/></svg>