<svg xmlns="http://www.w3.org/2000/svg" xmlns:xlink="http://www.w3.org/1999/xlink" width="1080" zoomAndPan="magnify" viewBox="0 0 810 809.999993" height="1080" preserveAspectRatio="xMidYMid meet" version="1.0"><path fill="#000000" d="M 209.4375 391.960938 L 133.738281 391.960938 C 126.800781 391.960938 121.121094 397.636719 121.121094 404.570312 C 121.121094 411.507812 126.800781 417.183594 133.738281 417.183594 L 209.4375 417.183594 C 216.378906 417.183594 222.054688 411.507812 222.054688 404.570312 C 222.054688 397.636719 216.378906 391.960938 209.4375 391.960938 Z M 209.4375 391.960938 " fill-opacity="1" fill-rule="nonzero"/><path fill="#000000" d="M 211.332031 496.648438 L 191.777344 493.492188 L 182.945312 474.574219 C 181.050781 470.160156 176.636719 467.636719 171.589844 467.636719 C 166.542969 467.636719 162.125 470.160156 160.234375 474.574219 L 151.402344 493.492188 L 131.847656 496.648438 C 127.429688 497.277344 123.015625 500.429688 121.753906 504.84375 C 120.492188 509.257812 121.121094 514.304688 124.90625 517.457031 L 139.414062 532.59375 L 136.261719 553.40625 C 135.628906 558.449219 137.523438 562.863281 141.308594 566.019531 C 145.09375 568.539062 150.140625 569.171875 154.554688 566.648438 L 171.589844 557.1875 L 188.621094 566.648438 C 193.039062 569.171875 198.085938 568.539062 201.871094 566.019531 C 205.652344 563.496094 207.546875 558.449219 206.914062 553.40625 L 203.761719 532.59375 L 218.269531 517.457031 C 221.425781 514.304688 222.6875 509.257812 221.425781 504.84375 C 220.164062 500.429688 215.746094 497.277344 211.332031 496.648438 Z M 181.683594 519.980469 C 179.160156 523.132812 177.898438 526.917969 178.527344 530.703125 L 178.527344 532.59375 L 177.898438 531.964844 C 176.003906 530.703125 173.480469 530.703125 171.589844 530.703125 C 169.695312 530.703125 167.171875 531.332031 165.28125 531.964844 L 164.648438 532.59375 L 164.648438 530.703125 C 165.28125 526.917969 164.019531 522.503906 161.496094 519.980469 L 159.601562 518.089844 L 161.496094 518.089844 C 165.910156 517.457031 169.066406 514.9375 170.957031 511.152344 L 170.957031 510.519531 L 170.957031 511.152344 C 172.851562 514.9375 176.003906 517.457031 180.421875 518.089844 L 182.3125 518.089844 Z M 181.683594 519.980469 " fill-opacity="1" fill-rule="nonzero"/><path fill="#000000" d="M 600.5625 417.183594 L 676.261719 417.183594 C 683.199219 417.183594 688.878906 411.507812 688.878906 404.570312 C 688.878906 397.636719 683.199219 391.960938 676.261719 391.960938 L 600.5625 391.960938 C 593.621094 391.960938 587.945312 397.636719 587.945312 404.570312 C 587.945312 411.507812 593.621094 417.183594 600.5625 417.183594 Z M 600.5625 417.183594 " fill-opacity="1" fill-rule="nonzero"/><path fill="#000000" d="M 661.753906 568.539062 C 669.324219 569.171875 675.628906 561.601562 674.371094 554.035156 L 671.214844 533.222656 L 685.722656 518.089844 C 688.878906 514.933594 690.140625 509.890625 688.878906 505.476562 C 687.617188 501.0625 683.199219 497.90625 678.785156 497.277344 L 659.230469 494.125 L 650.398438 475.203125 C 648.503906 470.789062 644.089844 468.265625 639.042969 468.265625 C 633.996094 468.265625 629.578125 470.789062 627.6875 475.203125 L 618.855469 494.125 L 599.300781 497.277344 C 594.882812 497.90625 590.46875 501.0625 589.207031 505.476562 C 587.945312 509.890625 588.574219 514.933594 592.359375 518.089844 L 606.871094 533.222656 L 603.714844 554.035156 C 603.085938 559.082031 604.976562 563.496094 608.761719 566.648438 C 612.546875 569.171875 617.59375 569.800781 622.007812 567.277344 L 639.042969 557.820312 C 643.457031 560.34375 647.242188 562.234375 651.027344 564.757812 C 654.183594 566.019531 657.96875 567.910156 661.753906 568.539062 Z M 648.503906 519.980469 C 645.980469 523.132812 644.71875 526.917969 645.351562 530.703125 L 645.351562 532.59375 L 644.71875 531.964844 C 642.828125 530.703125 640.933594 530.703125 638.410156 530.703125 C 635.886719 530.703125 633.996094 531.332031 632.101562 531.964844 L 631.472656 532.59375 L 631.472656 530.703125 C 632.101562 526.917969 630.839844 522.503906 628.316406 519.980469 L 626.425781 518.089844 L 628.316406 518.089844 C 632.734375 517.457031 635.886719 514.9375 637.78125 511.152344 L 637.78125 510.519531 L 637.78125 511.152344 C 639.671875 514.9375 642.828125 517.457031 647.242188 518.089844 L 649.136719 518.089844 Z M 648.503906 519.980469 " fill-opacity="1" fill-rule="nonzero"/><path fill="#000000" d="M 386.074219 127.085938 L 392.382812 127.085938 L 392.382812 133.394531 C 392.382812 140.332031 398.0625 146.007812 405 146.007812 C 411.9375 146.007812 417.617188 140.332031 417.617188 133.394531 L 417.617188 127.085938 L 423.925781 127.085938 C 430.863281 127.085938 436.542969 121.410156 436.542969 114.472656 C 436.542969 107.535156 430.863281 101.859375 423.925781 101.859375 L 417.617188 101.859375 L 417.617188 95.554688 C 417.617188 88.617188 411.9375 82.941406 405 82.941406 C 398.0625 82.941406 392.382812 88.617188 392.382812 95.554688 L 392.382812 101.859375 L 386.074219 101.859375 C 379.136719 101.859375 373.457031 107.535156 373.457031 114.472656 C 373.457031 121.410156 379.136719 127.085938 386.074219 127.085938 Z M 386.074219 127.085938 " fill-opacity="1" fill-rule="nonzero"/><path fill="#000000" d="M 499.625 231.773438 L 463.667969 231.773438 L 459.882812 217.898438 C 456.730469 205.289062 444.742188 196.457031 432.125 196.457031 L 378.503906 196.457031 C 365.886719 196.457031 353.902344 205.917969 350.746094 217.898438 L 346.960938 231.773438 L 310.375 231.773438 C 296.496094 231.773438 285.140625 243.125 285.140625 257 L 285.140625 360.425781 C 285.140625 374.300781 296.496094 385.652344 310.375 385.652344 L 348.222656 385.652344 L 348.222656 423.492188 C 348.222656 430.429688 353.902344 436.105469 360.839844 436.105469 L 381.660156 436.105469 L 291.449219 747.644531 C 289.554688 754.582031 293.339844 761.519531 300.28125 763.410156 C 306.589844 765.304688 314.160156 761.519531 316.050781 754.582031 L 392.382812 490.972656 L 392.382812 751.429688 C 392.382812 758.367188 398.0625 764.042969 405 764.042969 C 411.9375 764.042969 417.617188 758.367188 417.617188 751.429688 L 417.617188 490.972656 C 417.617188 490.972656 493.949219 755.210938 493.949219 755.210938 C 495.839844 761.519531 502.78125 765.933594 509.71875 764.042969 C 516.660156 762.148438 520.445312 755.210938 518.550781 748.273438 L 428.339844 436.105469 L 449.160156 436.105469 C 456.097656 436.105469 461.777344 430.429688 461.777344 423.492188 L 461.777344 385.652344 L 499.625 385.652344 C 513.503906 385.652344 524.859375 374.300781 524.859375 360.425781 L 524.859375 257 C 524.859375 243.125 513.503906 231.773438 499.625 231.773438 Z M 436.542969 410.878906 L 373.457031 410.878906 L 373.457031 385.652344 L 436.542969 385.652344 Z M 310.375 360.425781 L 310.375 257 L 356.425781 257 C 362.101562 257 367.148438 253.214844 368.410156 247.539062 L 374.71875 224.207031 C 374.71875 222.945312 377.242188 221.683594 378.503906 221.683594 L 432.125 221.683594 C 433.386719 221.683594 435.28125 223.578125 435.910156 224.207031 L 442.21875 247.539062 C 443.480469 253.214844 448.527344 257 454.207031 257 L 499.625 257 L 499.625 360.425781 Z M 310.375 360.425781 " fill-opacity="1" fill-rule="nonzero"/><path fill="#000000" d="M 405 258.261719 C 380.398438 258.261719 360.839844 277.8125 360.839844 302.40625 C 360.839844 327.003906 380.398438 346.550781 405 346.550781 C 429.601562 346.550781 449.160156 327.003906 449.160156 302.40625 C 449.160156 278.441406 429.601562 258.261719 405 258.261719 Z M 405 321.328125 C 394.277344 321.328125 386.074219 313.128906 386.074219 302.40625 C 386.074219 291.6875 394.277344 283.488281 405 283.488281 C 415.722656 283.488281 423.925781 291.6875 423.925781 302.40625 C 423.925781 313.128906 415.722656 321.328125 405 321.328125 Z M 405 321.328125 " fill-opacity="1" fill-rule="nonzero"/><path fill="#000000" d="M 266.214844 127.085938 L 247.289062 127.085938 C 240.351562 127.085938 234.671875 132.761719 234.671875 139.699219 C 234.671875 146.636719 240.351562 152.3125 247.289062 152.3125 L 266.214844 152.3125 C 273.152344 152.3125 278.832031 146.636719 278.832031 139.699219 C 278.832031 132.761719 273.152344 127.085938 266.214844 127.085938 Z M 266.214844 127.085938 " fill-opacity="1" fill-rule="nonzero"/><path fill="#000000" d="M 249.8125 168.710938 C 244.765625 163.664062 237.195312 163.664062 232.148438 168.710938 C 227.101562 173.753906 227.101562 181.324219 232.148438 186.367188 L 244.765625 198.980469 C 249.8125 204.027344 258.015625 204.027344 262.429688 198.980469 C 267.476562 193.9375 267.476562 186.367188 262.429688 181.324219 Z M 249.8125 168.710938 " fill-opacity="1" fill-rule="nonzero"/><path fill="#000000" d="M 240.980469 114.472656 C 244.136719 114.472656 247.289062 113.210938 249.8125 110.691406 L 262.429688 98.078125 C 267.476562 93.03125 267.476562 85.464844 262.429688 80.417969 C 257.382812 75.375 249.8125 75.375 244.765625 80.417969 C 244.765625 80.417969 232.148438 93.03125 232.148438 93.03125 C 224.578125 100.601562 229.625 114.472656 240.980469 114.472656 Z M 240.980469 114.472656 " fill-opacity="1" fill-rule="nonzero"/><path fill="#000000" d="M 95.886719 682.6875 L 95.886719 202.765625 C 102.828125 202.765625 108.503906 197.089844 108.503906 190.152344 C 108.503906 187.628906 107.875 185.738281 106.613281 183.84375 L 111.660156 183.84375 L 183.574219 232.40625 C 187.359375 234.929688 192.40625 235.558594 196.824219 233.035156 C 201.238281 231.144531 203.761719 226.730469 203.761719 221.683594 L 203.761719 57.714844 C 203.761719 53.300781 201.238281 48.886719 196.824219 46.363281 C 192.40625 44.472656 187.992188 44.472656 183.574219 46.996094 L 111.660156 95.554688 L 59.929688 95.554688 C 48.574219 95.554688 39.113281 105.015625 39.113281 116.367188 L 39.113281 163.035156 C 39.113281 174.386719 48.574219 183.84375 59.929688 183.84375 C 58.667969 185.738281 58.039062 187.628906 58.039062 190.152344 C 58.039062 197.089844 63.714844 202.765625 70.652344 202.765625 L 70.652344 682.6875 L 5.675781 741.96875 C 0.628906 746.382812 0 754.582031 5.046875 759.628906 C 9.460938 764.671875 17.664062 765.304688 22.710938 760.257812 L 83.902344 704.761719 L 145.09375 760.257812 C 150.140625 764.671875 158.339844 764.671875 162.757812 759.628906 C 167.171875 754.582031 167.171875 746.382812 162.125 741.96875 Z M 127.429688 115.105469 L 177.898438 81.050781 L 177.898438 197.71875 L 127.429688 163.664062 Z M 64.347656 158.621094 L 64.347656 120.78125 L 102.195312 120.78125 L 102.195312 158.621094 Z M 64.347656 158.621094 " fill-opacity="1" fill-rule="nonzero"/><path fill="#000000" d="M 562.710938 152.3125 C 569.648438 152.3125 575.328125 146.636719 575.328125 139.699219 C 575.328125 132.761719 569.648438 127.085938 562.710938 127.085938 L 543.785156 127.085938 C 536.847656 127.085938 531.167969 132.761719 531.167969 139.699219 C 531.167969 146.636719 536.847656 152.3125 543.785156 152.3125 Z M 562.710938 152.3125 " fill-opacity="1" fill-rule="nonzero"/><path fill="#000000" d="M 560.1875 168.710938 L 547.570312 181.324219 C 542.523438 186.367188 542.523438 193.9375 547.570312 198.980469 C 552.617188 204.027344 560.816406 204.027344 565.234375 198.980469 L 577.851562 186.367188 C 582.898438 181.324219 582.898438 173.753906 577.851562 168.710938 C 572.804688 163.664062 565.234375 163.664062 560.1875 168.710938 Z M 560.1875 168.710938 " fill-opacity="1" fill-rule="nonzero"/><path fill="#000000" d="M 560.1875 110.691406 C 562.710938 113.210938 565.863281 114.472656 569.019531 114.472656 C 580.375 114.472656 585.421875 100.601562 577.851562 93.03125 C 577.851562 93.03125 565.234375 80.417969 565.234375 80.417969 C 560.1875 75.375 552.617188 75.375 547.570312 80.417969 C 542.523438 85.464844 542.523438 93.03125 547.570312 98.078125 Z M 560.1875 110.691406 " fill-opacity="1" fill-rule="nonzero"/><path fill="#000000" d="M 804.324219 741.96875 L 739.347656 682.6875 L 739.347656 202.765625 C 746.285156 202.765625 751.960938 197.089844 751.960938 190.152344 C 751.960938 187.628906 751.332031 185.738281 750.070312 183.84375 C 761.425781 183.84375 770.886719 174.386719 770.886719 163.035156 L 770.886719 116.367188 C 770.886719 105.015625 761.425781 95.554688 750.070312 95.554688 L 698.339844 95.554688 L 626.425781 46.996094 C 622.640625 44.472656 617.59375 43.839844 613.175781 46.363281 C 609.390625 48.886719 606.871094 53.300781 606.871094 57.714844 L 606.871094 221.683594 C 606.871094 226.097656 609.390625 230.511719 613.808594 233.035156 C 617.59375 234.929688 622.640625 234.929688 627.054688 232.40625 L 698.972656 183.84375 L 704.019531 183.84375 C 702.757812 185.738281 702.125 187.628906 702.125 190.152344 C 702.125 197.089844 707.804688 202.765625 714.742188 202.765625 L 714.742188 682.6875 L 649.765625 741.96875 C 644.71875 746.382812 644.089844 754.582031 649.136719 759.628906 C 653.550781 764.671875 661.753906 765.304688 666.800781 760.257812 L 727.992188 704.761719 L 789.183594 760.257812 C 794.230469 764.671875 802.429688 764.671875 806.847656 759.628906 C 810 754.582031 810 747.015625 804.324219 741.96875 Z M 682.570312 164.296875 L 632.101562 198.351562 L 632.101562 81.679688 L 682.570312 115.734375 Z M 707.804688 158.621094 L 707.804688 120.78125 L 745.652344 120.78125 L 745.652344 158.621094 Z M 707.804688 158.621094 " fill-opacity="1" fill-rule="nonzero"/></svg>