<svg xmlns="http://www.w3.org/2000/svg" xmlns:xlink="http://www.w3.org/1999/xlink" width="1080" zoomAndPan="magnify" viewBox="0 0 810 809.999993" height="1080" preserveAspectRatio="xMidYMid meet" version="1.0"><defs><clipPath id="da92281ace"><path d="M 311 406 L 656 406 L 656 746.816406 L 311 746.816406 Z M 311 406 " clip-rule="nonzero"/></clipPath></defs><g clip-path="url(#da92281ace)"><path fill="#000000" d="M 360.46875 746.394531 C 358.945312 746.394531 357.425781 746.320312 355.910156 746.179688 C 354.394531 746.039062 352.886719 745.824219 351.390625 745.542969 C 349.894531 745.261719 348.414062 744.914062 346.949219 744.496094 C 345.488281 744.078125 344.042969 743.59375 342.625 743.039062 C 341.207031 742.488281 339.8125 741.875 338.453125 741.195312 C 337.089844 740.515625 335.761719 739.773438 334.464844 738.972656 C 333.171875 738.167969 331.917969 737.308594 330.703125 736.390625 C 329.488281 735.472656 328.316406 734.5 327.191406 733.472656 C 326.066406 732.449219 324.992188 731.371094 323.964844 730.246094 C 322.941406 729.121094 321.96875 727.949219 321.050781 726.734375 C 320.132812 725.519531 319.273438 724.265625 318.472656 722.96875 C 317.667969 721.675781 316.929688 720.347656 316.25 718.984375 C 315.570312 717.621094 314.957031 716.226562 314.40625 714.808594 C 313.855469 713.386719 313.371094 711.945312 312.953125 710.480469 C 312.535156 709.015625 312.1875 707.535156 311.90625 706.039062 C 311.625 704.542969 311.414062 703.035156 311.273438 701.519531 C 311.273438 701.023438 311.191406 700.507812 311.15625 700.003906 C 311.09375 698.941406 311.058594 697.945312 311.058594 696.96875 C 311.0625 695.632812 311.121094 694.300781 311.234375 692.96875 C 311.34375 691.640625 311.511719 690.316406 311.730469 689 C 311.945312 687.683594 312.21875 686.378906 312.542969 685.082031 C 312.867188 683.789062 313.242188 682.507812 313.667969 681.246094 C 314.09375 679.980469 314.570312 678.734375 315.097656 677.507812 C 315.625 676.285156 316.203125 675.082031 316.828125 673.902344 C 317.453125 672.722656 318.121094 671.570312 318.839844 670.445312 C 319.558594 669.320312 320.320312 668.226562 321.125 667.160156 C 321.929688 666.097656 322.777344 665.066406 323.667969 664.070312 C 324.554688 663.078125 325.484375 662.117188 326.449219 661.199219 C 327.414062 660.277344 328.417969 659.398438 329.453125 658.558594 C 330.492188 657.71875 331.5625 656.921875 332.660156 656.167969 C 333.761719 655.414062 334.894531 654.707031 336.050781 654.042969 C 337.210938 653.382812 338.394531 652.765625 339.601562 652.199219 C 340.808594 651.632812 342.039062 651.117188 343.289062 650.648438 C 344.539062 650.179688 345.804688 649.765625 347.089844 649.398438 L 524.949219 600.214844 C 525.777344 599.988281 526.617188 599.839844 527.472656 599.777344 C 528.328125 599.714844 529.179688 599.738281 530.03125 599.839844 C 530.882812 599.945312 531.714844 600.132812 532.527344 600.402344 C 533.34375 600.671875 534.121094 601.019531 534.867188 601.441406 C 535.613281 601.863281 536.3125 602.355469 536.960938 602.914062 C 537.609375 603.476562 538.199219 604.09375 538.726562 604.769531 C 539.253906 605.445312 539.707031 606.167969 540.09375 606.933594 C 540.480469 607.699219 540.785156 608.496094 541.015625 609.320312 C 541.242188 610.148438 541.390625 610.988281 541.453125 611.84375 C 541.515625 612.699219 541.492188 613.550781 541.386719 614.402344 C 541.285156 615.253906 541.097656 616.085938 540.828125 616.898438 C 540.558594 617.714844 540.210938 618.492188 539.789062 619.238281 C 539.367188 619.984375 538.875 620.683594 538.316406 621.332031 C 537.753906 621.980469 537.136719 622.570312 536.460938 623.097656 C 535.785156 623.625 535.0625 624.082031 534.296875 624.464844 C 533.53125 624.851562 532.734375 625.15625 531.910156 625.386719 L 354.105469 674.503906 C 352.894531 674.851562 351.722656 675.292969 350.582031 675.832031 C 349.445312 676.367188 348.355469 676.992188 347.320312 677.703125 C 346.28125 678.417969 345.308594 679.207031 344.398438 680.078125 C 343.488281 680.949219 342.652344 681.882812 341.894531 682.890625 C 341.136719 683.894531 340.464844 684.953125 339.875 686.066406 C 339.289062 687.179688 338.792969 688.332031 338.390625 689.523438 C 337.988281 690.714844 337.6875 691.933594 337.480469 693.175781 C 337.277344 694.417969 337.171875 695.667969 337.167969 696.925781 C 337.167969 697.375 337.167969 697.839844 337.226562 698.371094 L 337.226562 698.46875 C 337.226562 698.664062 337.226562 698.867188 337.273438 699.0625 C 337.351562 699.917969 337.476562 700.765625 337.648438 701.601562 C 337.820312 702.441406 338.035156 703.269531 338.296875 704.085938 C 338.5625 704.902344 338.867188 705.699219 339.21875 706.484375 C 339.570312 707.265625 339.960938 708.023438 340.394531 708.761719 C 340.828125 709.503906 341.304688 710.214844 341.816406 710.902344 C 342.328125 711.585938 342.878906 712.242188 343.460938 712.871094 C 344.046875 713.496094 344.664062 714.085938 345.316406 714.644531 C 345.964844 715.203125 346.644531 715.722656 347.351562 716.207031 C 348.058594 716.691406 348.792969 717.132812 349.550781 717.535156 C 350.304688 717.9375 351.082031 718.296875 351.878906 718.613281 C 352.671875 718.929688 353.484375 719.203125 354.3125 719.429688 C 355.136719 719.65625 355.972656 719.839844 356.820312 719.976562 C 357.664062 720.109375 358.515625 720.199219 359.371094 720.238281 C 360.226562 720.28125 361.082031 720.277344 361.9375 720.222656 C 362.792969 720.171875 363.644531 720.070312 364.488281 719.925781 C 365.332031 719.777344 366.164062 719.585938 366.988281 719.347656 L 401.199219 709.558594 L 481.773438 686.589844 C 606.660156 651.015625 618.441406 647.675781 620.097656 647.246094 C 620.816406 646.804688 622.953125 644.796875 625.539062 639.640625 C 626.953125 636.78125 628.152344 633.832031 629.136719 630.796875 C 629.953125 615.246094 620.511719 610.503906 618.203125 609.582031 C 618.085938 609.546875 617.972656 609.5 617.863281 609.453125 L 484.605469 559.550781 C 483.984375 559.316406 483.386719 559.039062 482.808594 558.71875 C 482.234375 558.394531 481.683594 558.03125 481.160156 557.625 C 480.640625 557.21875 480.152344 556.773438 479.699219 556.292969 C 479.242188 555.8125 478.828125 555.300781 478.449219 554.757812 C 478.074219 554.214844 477.742188 553.644531 477.449219 553.050781 C 477.160156 552.457031 476.917969 551.84375 476.71875 551.210938 C 476.523438 550.582031 476.375 549.9375 476.277344 549.285156 C 476.175781 548.628906 476.128906 547.972656 476.128906 547.3125 L 476.128906 419.097656 C 476.128906 418.238281 476.210938 417.390625 476.378906 416.550781 C 476.546875 415.710938 476.792969 414.894531 477.121094 414.101562 C 477.449219 413.308594 477.851562 412.558594 478.328125 411.84375 C 478.804688 411.132812 479.34375 410.472656 479.953125 409.867188 C 480.558594 409.261719 481.21875 408.71875 481.929688 408.242188 C 482.640625 407.765625 483.394531 407.363281 484.1875 407.035156 C 484.976562 406.707031 485.792969 406.460938 486.636719 406.292969 C 487.476562 406.125 488.324219 406.042969 489.183594 406.042969 C 490.039062 406.042969 490.886719 406.125 491.730469 406.292969 C 492.570312 406.460938 493.386719 406.707031 494.175781 407.035156 C 494.96875 407.363281 495.722656 407.765625 496.433594 408.242188 C 497.148438 408.71875 497.804688 409.261719 498.414062 409.867188 C 499.019531 410.472656 499.558594 411.132812 500.035156 411.84375 C 500.511719 412.558594 500.914062 413.308594 501.242188 414.101562 C 501.570312 414.894531 501.816406 415.710938 501.984375 416.550781 C 502.152344 417.390625 502.234375 418.238281 502.234375 419.097656 L 502.234375 538.335938 L 626.851562 584.933594 C 637.917969 588.75 657.699219 603.8125 655.089844 634.320312 C 655.019531 635.148438 654.871094 635.964844 654.648438 636.769531 C 653.148438 641.835938 651.214844 646.730469 648.847656 651.453125 C 642.828125 663.390625 635.28125 670.515625 626.421875 672.667969 C 621.378906 674.054688 528.726562 700.410156 488.929688 711.792969 L 408.351562 734.761719 L 374.210938 744.4375 C 369.722656 745.742188 365.140625 746.394531 360.46875 746.394531 Z M 626.296875 672.644531 L 626.117188 672.695312 Z M 620.015625 647.351562 Z M 620.015625 647.351562 " fill-opacity="1" fill-rule="nonzero"/></g><path fill="#000000" d="M 404.773438 660.007812 C 403.589844 660.003906 402.429688 659.847656 401.289062 659.53125 L 277.625 625.34375 C 276.800781 625.117188 276.003906 624.808594 275.238281 624.421875 C 274.472656 624.039062 273.753906 623.582031 273.078125 623.054688 C 272.402344 622.527344 271.785156 621.9375 271.226562 621.289062 C 270.667969 620.640625 270.175781 619.941406 269.753906 619.195312 C 269.332031 618.453125 268.984375 617.671875 268.714844 616.859375 C 268.449219 616.042969 268.261719 615.210938 268.15625 614.363281 C 268.050781 613.511719 268.03125 612.660156 268.09375 611.804688 C 268.15625 610.949219 268.300781 610.109375 268.53125 609.28125 C 268.757812 608.457031 269.066406 607.660156 269.449219 606.894531 C 269.835938 606.128906 270.292969 605.410156 270.816406 604.734375 C 271.34375 604.058594 271.933594 603.441406 272.582031 602.878906 C 273.230469 602.320312 273.925781 601.828125 274.671875 601.40625 C 275.417969 600.980469 276.195312 600.636719 277.011719 600.367188 C 277.824219 600.097656 278.65625 599.910156 279.507812 599.804688 C 280.355469 599.699219 281.210938 599.675781 282.0625 599.738281 C 282.917969 599.800781 283.757812 599.945312 284.585938 600.175781 L 408.246094 634.371094 C 409 634.578125 409.730469 634.851562 410.4375 635.191406 C 411.140625 635.535156 411.8125 635.933594 412.445312 636.394531 C 413.078125 636.855469 413.664062 637.367188 414.203125 637.933594 C 414.746094 638.5 415.230469 639.109375 415.664062 639.765625 C 416.09375 640.417969 416.460938 641.105469 416.769531 641.824219 C 417.078125 642.546875 417.316406 643.285156 417.492188 644.050781 C 417.664062 644.8125 417.769531 645.585938 417.804688 646.367188 C 417.839844 647.148438 417.804688 647.929688 417.699219 648.707031 C 417.59375 649.480469 417.421875 650.242188 417.179688 650.984375 C 416.9375 651.730469 416.632812 652.449219 416.261719 653.136719 C 415.890625 653.828125 415.460938 654.476562 414.972656 655.089844 C 414.484375 655.703125 413.945312 656.265625 413.355469 656.78125 C 412.765625 657.296875 412.136719 657.753906 411.464844 658.15625 C 410.792969 658.558594 410.089844 658.894531 409.355469 659.171875 C 408.625 659.445312 407.871094 659.65625 407.101562 659.796875 C 406.332031 659.933594 405.554688 660.003906 404.773438 660.007812 Z M 404.773438 660.007812 " fill-opacity="1" fill-rule="nonzero"/><path fill="#000000" d="M 324.195312 712.25 C 322.976562 712.25 321.785156 712.078125 320.613281 711.742188 C 280.808594 700.402344 188.117188 673.992188 183.121094 672.621094 C 174.246094 670.492188 166.707031 663.367188 160.695312 651.40625 C 158.328125 646.679688 156.394531 641.785156 154.894531 636.71875 C 154.671875 635.917969 154.523438 635.101562 154.453125 634.273438 C 151.84375 603.765625 171.628906 588.703125 182.691406 584.882812 L 307.308594 538.335938 L 307.308594 419.097656 C 307.308594 418.238281 307.390625 417.390625 307.558594 416.550781 C 307.726562 415.710938 307.972656 414.894531 308.300781 414.101562 C 308.628906 413.308594 309.03125 412.558594 309.507812 411.84375 C 309.984375 411.132812 310.523438 410.472656 311.128906 409.867188 C 311.738281 409.261719 312.394531 408.71875 313.109375 408.242188 C 313.820312 407.765625 314.574219 407.363281 315.367188 407.035156 C 316.15625 406.707031 316.972656 406.460938 317.816406 406.292969 C 318.65625 406.125 319.503906 406.042969 320.359375 406.042969 C 321.21875 406.042969 322.066406 406.125 322.90625 406.292969 C 323.75 406.460938 324.566406 406.707031 325.355469 407.035156 C 326.148438 407.363281 326.902344 407.765625 327.613281 408.242188 C 328.328125 408.71875 328.984375 409.261719 329.589844 409.867188 C 330.199219 410.472656 330.738281 411.132812 331.214844 411.84375 C 331.691406 412.558594 332.09375 413.308594 332.421875 414.101562 C 332.75 414.894531 332.996094 415.710938 333.164062 416.550781 C 333.332031 417.390625 333.414062 418.238281 333.414062 419.097656 L 333.414062 547.3125 C 333.414062 547.972656 333.367188 548.628906 333.265625 549.285156 C 333.167969 549.9375 333.019531 550.582031 332.824219 551.210938 C 332.625 551.84375 332.382812 552.457031 332.09375 553.050781 C 331.800781 553.644531 331.46875 554.214844 331.09375 554.757812 C 330.714844 555.300781 330.300781 555.8125 329.847656 556.292969 C 329.390625 556.773438 328.902344 557.21875 328.382812 557.625 C 327.859375 558.03125 327.308594 558.394531 326.734375 558.71875 C 326.15625 559.039062 325.558594 559.316406 324.9375 559.550781 L 191.65625 609.453125 C 191.546875 609.5 191.429688 609.546875 191.3125 609.582031 C 188.996094 610.503906 179.550781 615.253906 180.382812 630.84375 C 182.640625 638.015625 186.910156 645.859375 189.4375 647.285156 C 190.988281 647.695312 202.261719 650.875 327.769531 686.628906 C 328.523438 686.839844 329.25 687.121094 329.953125 687.460938 C 330.65625 687.804688 331.324219 688.207031 331.953125 688.671875 C 332.585938 689.136719 333.167969 689.652344 333.707031 690.21875 C 334.246094 690.789062 334.726562 691.398438 335.15625 692.054688 C 335.585938 692.710938 335.949219 693.398438 336.253906 694.117188 C 336.558594 694.839844 336.796875 695.582031 336.96875 696.34375 C 337.136719 697.109375 337.238281 697.882812 337.269531 698.664062 C 337.304688 699.445312 337.265625 700.222656 337.15625 701 C 337.050781 701.773438 336.871094 702.53125 336.628906 703.277344 C 336.382812 704.019531 336.074219 704.734375 335.703125 705.421875 C 335.328125 706.109375 334.894531 706.757812 334.40625 707.367188 C 333.917969 707.980469 333.375 708.539062 332.785156 709.054688 C 332.195312 709.566406 331.5625 710.023438 330.890625 710.421875 C 330.214844 710.820312 329.511719 711.15625 328.78125 711.429688 C 328.046875 711.703125 327.296875 711.90625 326.523438 712.046875 C 325.753906 712.183594 324.976562 712.25 324.195312 712.25 Z M 183.238281 672.644531 L 183.449219 672.695312 Z M 189.527344 647.351562 Z M 189.527344 647.351562 " fill-opacity="1" fill-rule="nonzero"/><path fill="#000000" d="M 622.285156 574.636719 C 619.089844 574.652344 615.945312 574.246094 612.859375 573.421875 C 597.261719 569.113281 585.316406 556.132812 574.785156 544.675781 C 571.691406 541.304688 568.761719 538.148438 566.101562 535.585938 C 549.074219 519.320312 533.1875 502.003906 518.4375 483.648438 C 503.6875 465.289062 490.207031 446.042969 477.988281 425.910156 C 477.542969 425.175781 477.175781 424.40625 476.882812 423.601562 C 476.589844 422.796875 476.375 421.96875 476.246094 421.125 C 476.117188 420.277344 476.070312 419.425781 476.105469 418.566406 C 476.144531 417.710938 476.265625 416.867188 476.46875 416.035156 C 476.671875 415.203125 476.957031 414.398438 477.316406 413.621094 C 477.679688 412.84375 478.113281 412.109375 478.621094 411.417969 C 479.128906 410.726562 479.699219 410.089844 480.332031 409.511719 C 480.960938 408.933594 481.644531 408.421875 482.378906 407.976562 C 483.109375 407.53125 483.878906 407.164062 484.683594 406.871094 C 485.492188 406.578125 486.316406 406.363281 487.164062 406.234375 C 488.011719 406.105469 488.863281 406.058594 489.71875 406.09375 C 490.574219 406.132812 491.421875 406.253906 492.253906 406.457031 C 493.085938 406.660156 493.890625 406.945312 494.667969 407.304688 C 495.445312 407.667969 496.179688 408.101562 496.871094 408.609375 C 497.5625 409.117188 498.195312 409.6875 498.773438 410.320312 C 499.355469 410.949219 499.867188 411.632812 500.3125 412.367188 C 511.933594 431.511719 524.761719 449.816406 538.792969 467.273438 C 552.828125 484.734375 567.941406 501.195312 584.140625 516.664062 C 587.40625 519.796875 590.613281 523.273438 594.003906 526.960938 C 602.164062 535.832031 611.417969 545.890625 619.804688 548.175781 C 625.515625 549.75 633.214844 545.441406 635.640625 539.308594 C 639.5625 529.367188 633.886719 521.429688 619.671875 507.40625 C 562.496094 450.941406 523.570312 385.285156 496.050781 334.429688 C 484.628906 313.28125 464.289062 299.621094 444.242188 299.621094 L 365.300781 299.621094 C 345.253906 299.621094 324.921875 313.28125 313.5 334.421875 C 285.972656 385.316406 247.046875 450.976562 189.878906 507.4375 C 175.65625 521.460938 169.980469 529.402344 173.902344 539.347656 C 176.351562 545.476562 184.019531 549.78125 189.746094 548.207031 C 198.125 545.890625 207.378906 535.832031 215.539062 526.996094 C 218.929688 523.304688 222.128906 519.832031 225.402344 516.707031 C 241.597656 501.222656 256.707031 484.746094 270.734375 467.273438 C 284.761719 449.800781 297.582031 431.484375 309.199219 412.324219 C 309.644531 411.59375 310.15625 410.910156 310.734375 410.277344 C 311.316406 409.644531 311.949219 409.074219 312.640625 408.570312 C 313.332031 408.0625 314.066406 407.628906 314.84375 407.265625 C 315.621094 406.902344 316.425781 406.621094 317.257812 406.414062 C 318.089844 406.210938 318.933594 406.089844 319.789062 406.054688 C 320.648438 406.015625 321.5 406.0625 322.347656 406.195312 C 323.195312 406.324219 324.019531 406.535156 324.824219 406.828125 C 325.632812 407.121094 326.398438 407.492188 327.132812 407.933594 C 327.867188 408.378906 328.546875 408.890625 329.179688 409.472656 C 329.8125 410.050781 330.382812 410.683594 330.890625 411.375 C 331.394531 412.066406 331.832031 412.800781 332.191406 413.578125 C 332.554688 414.355469 332.835938 415.160156 333.042969 415.992188 C 333.246094 416.824219 333.367188 417.671875 333.402344 418.527344 C 333.441406 419.382812 333.394531 420.234375 333.265625 421.082031 C 333.132812 421.929688 332.921875 422.757812 332.628906 423.5625 C 332.335938 424.367188 331.96875 425.136719 331.523438 425.871094 C 319.304688 446.003906 305.824219 465.246094 291.074219 483.605469 C 276.324219 501.964844 260.433594 519.277344 243.40625 535.546875 C 240.75 538.089844 237.820312 541.257812 234.726562 544.632812 C 224.195312 556.058594 212.25 569.070312 196.648438 573.378906 C 178.046875 578.503906 156.933594 567.539062 149.582031 548.902344 C 138.675781 521.226562 159.226562 500.941406 171.503906 488.816406 C 226.25 434.820312 263.871094 371.308594 290.550781 322.003906 C 306.46875 292.546875 335.8125 273.511719 365.316406 273.511719 L 444.261719 273.511719 C 473.761719 273.511719 503.109375 292.546875 519.027344 322.011719 C 545.691406 371.308594 583.308594 434.820312 638.03125 488.859375 C 650.269531 500.976562 670.851562 521.257812 659.945312 548.925781 C 653.800781 564.445312 638.113281 574.636719 622.285156 574.636719 Z M 622.285156 574.636719 " fill-opacity="1" fill-rule="nonzero"/><path fill="#000000" d="M 404.773438 263.183594 C 403.535156 263.183594 402.296875 263.152344 401.0625 263.09375 C 399.824219 263.03125 398.589844 262.941406 397.359375 262.820312 C 396.128906 262.699219 394.898438 262.546875 393.675781 262.363281 C 392.449219 262.183594 391.230469 261.972656 390.019531 261.730469 C 388.804688 261.488281 387.597656 261.21875 386.398438 260.917969 C 385.195312 260.617188 384.003906 260.285156 382.820312 259.925781 C 381.636719 259.566406 380.460938 259.179688 379.292969 258.761719 C 378.128906 258.34375 376.976562 257.898438 375.832031 257.425781 C 374.6875 256.953125 373.558594 256.449219 372.4375 255.921875 C 371.320312 255.394531 370.214844 254.835938 369.121094 254.253906 C 368.03125 253.667969 366.953125 253.058594 365.894531 252.421875 C 364.832031 251.785156 363.785156 251.125 362.757812 250.4375 C 361.726562 249.75 360.71875 249.039062 359.722656 248.300781 C 358.730469 247.5625 357.753906 246.800781 356.796875 246.015625 C 355.839844 245.230469 354.902344 244.421875 353.984375 243.589844 C 353.070312 242.761719 352.171875 241.90625 351.296875 241.03125 C 350.421875 240.15625 349.570312 239.261719 348.738281 238.34375 C 347.90625 237.425781 347.097656 236.488281 346.3125 235.53125 C 345.527344 234.574219 344.769531 233.601562 344.03125 232.605469 C 343.292969 231.613281 342.582031 230.601562 341.894531 229.570312 C 341.207031 228.542969 340.542969 227.496094 339.90625 226.4375 C 339.269531 225.375 338.660156 224.296875 338.078125 223.207031 C 337.496094 222.113281 336.9375 221.007812 336.410156 219.890625 C 335.878906 218.769531 335.378906 217.640625 334.90625 216.496094 C 334.429688 215.351562 333.984375 214.199219 333.570312 213.035156 C 333.152344 211.867188 332.765625 210.691406 332.40625 209.507812 C 332.046875 208.324219 331.714844 207.132812 331.414062 205.929688 C 331.113281 204.730469 330.84375 203.523438 330.601562 202.308594 C 330.359375 201.09375 330.148438 199.875 329.964844 198.652344 C 329.785156 197.429688 329.632812 196.199219 329.511719 194.96875 C 329.390625 193.734375 329.300781 192.503906 329.238281 191.265625 C 329.179688 190.03125 329.148438 188.792969 329.148438 187.554688 C 329.148438 186.316406 329.179688 185.082031 329.238281 183.84375 C 329.300781 182.609375 329.390625 181.375 329.511719 180.140625 C 329.632812 178.910156 329.785156 177.683594 329.964844 176.457031 C 330.148438 175.234375 330.359375 174.015625 330.601562 172.800781 C 330.84375 171.585938 331.113281 170.378906 331.414062 169.179688 C 331.714844 167.980469 332.046875 166.785156 332.40625 165.601562 C 332.765625 164.417969 333.152344 163.242188 333.570312 162.078125 C 333.984375 160.910156 334.429688 159.757812 334.90625 158.613281 C 335.378906 157.46875 335.878906 156.339844 336.410156 155.21875 C 336.9375 154.101562 337.496094 152.996094 338.078125 151.90625 C 338.660156 150.8125 339.269531 149.738281 339.90625 148.675781 C 340.542969 147.613281 341.207031 146.566406 341.894531 145.539062 C 342.582031 144.507812 343.292969 143.496094 344.03125 142.503906 C 344.765625 141.507812 345.527344 140.535156 346.3125 139.578125 C 347.097656 138.621094 347.90625 137.683594 348.738281 136.765625 C 349.570312 135.851562 350.421875 134.953125 351.296875 134.078125 C 352.171875 133.203125 353.070312 132.351562 353.984375 131.519531 C 354.902344 130.6875 355.839844 129.878906 356.796875 129.09375 C 357.753906 128.308594 358.730469 127.546875 359.722656 126.808594 C 360.71875 126.074219 361.726562 125.359375 362.757812 124.671875 C 363.785156 123.984375 364.832031 123.324219 365.894531 122.6875 C 366.953125 122.050781 368.03125 121.441406 369.121094 120.859375 C 370.214844 120.273438 371.320312 119.71875 372.4375 119.1875 C 373.558594 118.660156 374.6875 118.15625 375.832031 117.683594 C 376.976562 117.210938 378.128906 116.765625 379.292969 116.347656 C 380.460938 115.929688 381.636719 115.542969 382.820312 115.183594 C 384.003906 114.824219 385.195312 114.496094 386.398438 114.195312 C 387.597656 113.894531 388.804688 113.621094 390.019531 113.378906 C 391.230469 113.140625 392.449219 112.929688 393.675781 112.746094 C 394.898438 112.566406 396.128906 112.414062 397.359375 112.292969 C 398.589844 112.171875 399.824219 112.078125 401.0625 112.019531 C 402.296875 111.957031 403.535156 111.925781 404.773438 111.925781 C 406.007812 111.925781 407.246094 111.957031 408.480469 112.019531 C 409.71875 112.078125 410.953125 112.171875 412.183594 112.292969 C 413.414062 112.414062 414.644531 112.566406 415.867188 112.746094 C 417.09375 112.929688 418.3125 113.140625 419.523438 113.378906 C 420.738281 113.621094 421.945312 113.894531 423.148438 114.195312 C 424.347656 114.496094 425.539062 114.824219 426.722656 115.183594 C 427.910156 115.542969 429.082031 115.929688 430.25 116.347656 C 431.414062 116.765625 432.566406 117.210938 433.710938 117.683594 C 434.855469 118.15625 435.984375 118.660156 437.105469 119.1875 C 438.222656 119.71875 439.328125 120.273438 440.421875 120.859375 C 441.511719 121.441406 442.589844 122.050781 443.648438 122.6875 C 444.710938 123.324219 445.757812 123.984375 446.785156 124.671875 C 447.816406 125.359375 448.828125 126.074219 449.820312 126.808594 C 450.816406 127.546875 451.789062 128.308594 452.746094 129.09375 C 453.703125 129.878906 454.640625 130.6875 455.558594 131.519531 C 456.472656 132.351562 457.371094 133.203125 458.246094 134.078125 C 459.121094 134.953125 459.972656 135.851562 460.804688 136.765625 C 461.636719 137.683594 462.445312 138.621094 463.230469 139.578125 C 464.015625 140.535156 464.777344 141.507812 465.511719 142.503906 C 466.25 143.496094 466.960938 144.507812 467.648438 145.539062 C 468.335938 146.566406 469 147.613281 469.636719 148.675781 C 470.273438 149.738281 470.882812 150.8125 471.464844 151.90625 C 472.050781 152.996094 472.605469 154.101562 473.132812 155.21875 C 473.664062 156.339844 474.164062 157.46875 474.636719 158.613281 C 475.113281 159.757812 475.558594 160.910156 475.972656 162.078125 C 476.390625 163.242188 476.78125 164.417969 477.140625 165.601562 C 477.5 166.785156 477.828125 167.980469 478.128906 169.179688 C 478.429688 170.378906 478.699219 171.585938 478.941406 172.800781 C 479.183594 174.015625 479.394531 175.234375 479.578125 176.457031 C 479.757812 177.683594 479.910156 178.910156 480.03125 180.140625 C 480.152344 181.375 480.242188 182.609375 480.304688 183.84375 C 480.363281 185.082031 480.394531 186.316406 480.394531 187.554688 C 480.394531 188.792969 480.363281 190.027344 480.300781 191.265625 C 480.238281 192.5 480.144531 193.734375 480.023438 194.964844 C 479.902344 196.195312 479.75 197.425781 479.566406 198.648438 C 479.382812 199.871094 479.171875 201.089844 478.929688 202.304688 C 478.6875 203.515625 478.414062 204.722656 478.113281 205.925781 C 477.8125 207.125 477.480469 208.316406 477.121094 209.5 C 476.761719 210.683594 476.371094 211.859375 475.953125 213.023438 C 475.535156 214.1875 475.089844 215.339844 474.617188 216.484375 C 474.144531 217.625 473.640625 218.757812 473.109375 219.875 C 472.582031 220.992188 472.023438 222.097656 471.441406 223.191406 C 470.859375 224.28125 470.246094 225.355469 469.609375 226.417969 C 468.976562 227.480469 468.3125 228.523438 467.625 229.550781 C 466.9375 230.582031 466.226562 231.59375 465.488281 232.585938 C 464.75 233.578125 463.988281 234.554688 463.203125 235.511719 C 462.417969 236.46875 461.609375 237.402344 460.78125 238.320312 C 459.949219 239.238281 459.097656 240.132812 458.222656 241.007812 C 457.347656 241.882812 456.449219 242.734375 455.535156 243.566406 C 454.617188 244.398438 453.679688 245.207031 452.726562 245.992188 C 451.769531 246.777344 450.792969 247.539062 449.800781 248.273438 C 448.804688 249.011719 447.796875 249.726562 446.765625 250.414062 C 445.738281 251.101562 444.691406 251.761719 443.632812 252.398438 C 442.570312 253.035156 441.496094 253.644531 440.402344 254.230469 C 439.3125 254.8125 438.207031 255.371094 437.089844 255.898438 C 435.972656 256.429688 434.839844 256.929688 433.699219 257.40625 C 432.554688 257.878906 431.402344 258.324219 430.238281 258.742188 C 429.074219 259.160156 427.898438 259.546875 426.714844 259.90625 C 425.53125 260.269531 424.339844 260.597656 423.140625 260.902344 C 421.9375 261.203125 420.734375 261.472656 419.519531 261.714844 C 418.304688 261.957031 417.085938 262.171875 415.863281 262.355469 C 414.640625 262.535156 413.414062 262.6875 412.179688 262.8125 C 410.949219 262.933594 409.71875 263.027344 408.480469 263.089844 C 407.246094 263.148438 406.007812 263.179688 404.773438 263.183594 Z M 404.773438 138.046875 C 403.148438 138.046875 401.53125 138.125 399.917969 138.285156 C 398.304688 138.441406 396.703125 138.679688 395.113281 138.996094 C 393.519531 139.3125 391.949219 139.707031 390.398438 140.175781 C 388.84375 140.648438 387.320312 141.195312 385.824219 141.816406 C 384.324219 142.433594 382.859375 143.128906 381.429688 143.894531 C 380 144.65625 378.609375 145.488281 377.261719 146.390625 C 375.914062 147.292969 374.613281 148.257812 373.359375 149.285156 C 372.105469 150.316406 370.90625 151.402344 369.757812 152.550781 C 368.609375 153.695312 367.523438 154.898438 366.496094 156.152344 C 365.464844 157.402344 364.5 158.707031 363.601562 160.054688 C 362.699219 161.402344 361.867188 162.792969 361.101562 164.222656 C 360.335938 165.652344 359.644531 167.117188 359.023438 168.617188 C 358.402344 170.113281 357.859375 171.640625 357.386719 173.191406 C 356.917969 174.742188 356.523438 176.316406 356.207031 177.90625 C 355.890625 179.496094 355.652344 181.097656 355.496094 182.710938 C 355.335938 184.328125 355.257812 185.945312 355.257812 187.566406 C 355.257812 189.1875 355.335938 190.804688 355.496094 192.421875 C 355.652344 194.035156 355.890625 195.636719 356.207031 197.226562 C 356.523438 198.816406 356.917969 200.390625 357.390625 201.941406 C 357.859375 203.492188 358.40625 205.019531 359.027344 206.515625 C 359.648438 208.015625 360.339844 209.480469 361.105469 210.910156 C 361.871094 212.339844 362.703125 213.730469 363.601562 215.078125 C 364.503906 216.425781 365.46875 217.726562 366.5 218.980469 C 367.527344 220.234375 368.613281 221.433594 369.761719 222.582031 C 370.910156 223.726562 372.109375 224.816406 373.363281 225.84375 C 374.617188 226.871094 375.917969 227.835938 377.265625 228.738281 C 378.613281 229.640625 380.003906 230.472656 381.433594 231.238281 C 382.863281 232 384.328125 232.695312 385.828125 233.3125 C 387.324219 233.933594 388.851562 234.480469 390.402344 234.949219 C 391.953125 235.421875 393.527344 235.816406 395.117188 236.132812 C 396.707031 236.449219 398.308594 236.683594 399.921875 236.84375 C 401.539062 237.003906 403.15625 237.082031 404.777344 237.082031 C 406.398438 237.082031 408.015625 237 409.628906 236.84375 C 411.246094 236.683594 412.847656 236.445312 414.4375 236.128906 C 416.027344 235.8125 417.597656 235.417969 419.152344 234.949219 C 420.703125 234.476562 422.226562 233.929688 423.726562 233.308594 C 425.222656 232.6875 426.6875 231.996094 428.117188 231.230469 C 429.550781 230.46875 430.9375 229.632812 432.285156 228.734375 C 433.632812 227.832031 434.9375 226.867188 436.1875 225.835938 C 437.441406 224.808594 438.644531 223.71875 439.789062 222.574219 C 440.9375 221.425781 442.023438 220.226562 443.050781 218.972656 C 444.082031 217.71875 445.046875 216.417969 445.945312 215.066406 C 446.847656 213.71875 447.679688 212.332031 448.445312 210.898438 C 449.207031 209.46875 449.902344 208.003906 450.519531 206.507812 C 451.140625 205.007812 451.6875 203.484375 452.15625 201.929688 C 452.628906 200.378906 453.019531 198.808594 453.335938 197.214844 C 453.652344 195.625 453.890625 194.023438 454.050781 192.410156 C 454.207031 190.796875 454.289062 189.175781 454.289062 187.554688 C 454.285156 185.933594 454.203125 184.316406 454.042969 182.703125 C 453.882812 181.089844 453.644531 179.488281 453.324219 177.898438 C 453.007812 176.308594 452.613281 174.738281 452.140625 173.1875 C 451.667969 171.636719 451.121094 170.113281 450.5 168.617188 C 449.878906 167.121094 449.1875 165.65625 448.421875 164.226562 C 447.65625 162.796875 446.824219 161.410156 445.921875 160.0625 C 445.019531 158.714844 444.054688 157.414062 443.027344 156.160156 C 442 154.910156 440.910156 153.707031 439.765625 152.5625 C 438.617188 151.417969 437.417969 150.328125 436.164062 149.300781 C 434.914062 148.273438 433.613281 147.308594 432.265625 146.40625 C 430.917969 145.503906 429.527344 144.671875 428.097656 143.90625 C 426.671875 143.144531 425.207031 142.449219 423.710938 141.828125 C 422.210938 141.207031 420.6875 140.660156 419.136719 140.191406 C 417.585938 139.71875 416.015625 139.324219 414.425781 139.007812 C 412.835938 138.6875 411.234375 138.449219 409.621094 138.289062 C 408.007812 138.128906 406.394531 138.046875 404.773438 138.046875 Z M 404.773438 138.046875 " fill-opacity="1" fill-rule="nonzero"/><path fill="#000000" d="M 430.0625 143.375 C 428.859375 143.371094 427.675781 143.207031 426.519531 142.882812 C 425.359375 142.554688 424.265625 142.074219 423.238281 141.445312 C 422.210938 140.8125 421.289062 140.054688 420.472656 139.171875 C 419.65625 138.285156 418.976562 137.304688 418.429688 136.230469 C 417.886719 135.15625 417.496094 134.03125 417.261719 132.847656 C 417.027344 131.664062 416.960938 130.472656 417.054688 129.273438 C 417.152344 128.074219 417.410156 126.90625 417.828125 125.777344 C 418.25 124.648438 418.8125 123.597656 419.523438 122.625 C 420.179688 121.722656 420.75 120.765625 421.230469 119.757812 C 421.714844 118.75 422.097656 117.707031 422.390625 116.628906 C 422.679688 115.550781 422.867188 114.453125 422.957031 113.339844 C 423.046875 112.226562 423.03125 111.113281 422.917969 110.003906 C 422.800781 108.890625 422.582031 107.800781 422.265625 106.730469 C 421.949219 105.65625 421.539062 104.625 421.03125 103.628906 C 420.527344 102.632812 419.933594 101.691406 419.253906 100.804688 C 418.574219 99.917969 417.820312 99.101562 416.988281 98.355469 C 416.160156 97.605469 415.269531 96.941406 414.316406 96.355469 C 413.363281 95.773438 412.367188 95.28125 411.324219 94.878906 C 410.28125 94.480469 409.210938 94.175781 408.109375 93.972656 C 407.011719 93.769531 405.90625 93.667969 404.789062 93.667969 C 403.671875 93.667969 402.5625 93.769531 401.464844 93.972656 C 400.367188 94.175781 399.296875 94.480469 398.253906 94.878906 C 397.210938 95.28125 396.210938 95.773438 395.261719 96.355469 C 394.308594 96.941406 393.417969 97.605469 392.585938 98.355469 C 391.757812 99.101562 391.003906 99.917969 390.324219 100.804688 C 389.644531 101.691406 389.050781 102.632812 388.542969 103.628906 C 388.035156 104.625 387.625 105.65625 387.308594 106.730469 C 386.992188 107.800781 386.777344 108.890625 386.660156 110.003906 C 386.542969 111.113281 386.53125 112.226562 386.617188 113.339844 C 386.707031 114.453125 386.894531 115.550781 387.1875 116.628906 C 387.476562 117.707031 387.863281 118.75 388.34375 119.757812 C 388.824219 120.765625 389.394531 121.722656 390.054688 122.625 C 390.558594 123.316406 390.992188 124.050781 391.351562 124.832031 C 391.710938 125.609375 391.992188 126.414062 392.191406 127.246094 C 392.394531 128.082031 392.511719 128.925781 392.546875 129.78125 C 392.582031 130.636719 392.535156 131.488281 392.402344 132.335938 C 392.269531 133.183594 392.054688 134.007812 391.757812 134.8125 C 391.464844 135.617188 391.09375 136.386719 390.644531 137.117188 C 390.199219 137.851562 389.683594 138.53125 389.105469 139.160156 C 388.523438 139.792969 387.886719 140.359375 387.195312 140.863281 C 386.5 141.367188 385.765625 141.800781 384.988281 142.160156 C 384.210938 142.523438 383.40625 142.800781 382.570312 143.003906 C 381.738281 143.207031 380.894531 143.324219 380.035156 143.359375 C 379.179688 143.394531 378.328125 143.34375 377.480469 143.210938 C 376.636719 143.078125 375.808594 142.863281 375.003906 142.570312 C 374.199219 142.273438 373.433594 141.902344 372.699219 141.457031 C 371.96875 141.007812 371.289062 140.496094 370.65625 139.914062 C 370.027344 139.332031 369.460938 138.695312 368.953125 138.003906 C 368.15625 136.910156 367.410156 135.777344 366.714844 134.613281 C 366.019531 133.449219 365.378906 132.253906 364.796875 131.03125 C 364.210938 129.808594 363.683594 128.5625 363.210938 127.289062 C 362.742188 126.019531 362.328125 124.726562 361.976562 123.417969 C 361.625 122.109375 361.332031 120.785156 361.101562 119.449219 C 360.871094 118.113281 360.703125 116.769531 360.59375 115.417969 C 360.484375 114.066406 360.441406 112.714844 360.457031 111.359375 C 360.472656 110 360.550781 108.648438 360.691406 107.300781 C 360.832031 105.953125 361.035156 104.613281 361.296875 103.28125 C 361.5625 101.953125 361.886719 100.636719 362.269531 99.335938 C 362.652344 98.035156 363.097656 96.757812 363.597656 95.496094 C 364.097656 94.238281 364.65625 93.003906 365.273438 91.792969 C 365.886719 90.585938 366.554688 89.40625 367.277344 88.261719 C 368 87.113281 368.777344 86 369.601562 84.925781 C 370.425781 83.847656 371.296875 82.8125 372.21875 81.816406 C 373.136719 80.820312 374.101562 79.867188 375.109375 78.960938 C 376.113281 78.054688 377.160156 77.191406 378.246094 76.382812 C 379.335938 75.570312 380.453125 74.808594 381.609375 74.101562 C 382.765625 73.390625 383.953125 72.738281 385.167969 72.136719 C 386.382812 71.539062 387.625 70.992188 388.890625 70.507812 C 390.15625 70.023438 391.441406 69.59375 392.746094 69.226562 C 394.050781 68.859375 395.371094 68.550781 396.703125 68.304688 C 398.035156 68.054688 399.378906 67.871094 400.730469 67.746094 C 402.078125 67.621094 403.433594 67.558594 404.789062 67.558594 C 406.144531 67.558594 407.496094 67.621094 408.847656 67.746094 C 410.199219 67.871094 411.539062 68.054688 412.871094 68.304688 C 414.207031 68.550781 415.523438 68.859375 416.828125 69.226562 C 418.132812 69.59375 419.417969 70.023438 420.683594 70.507812 C 421.949219 70.992188 423.191406 71.539062 424.40625 72.136719 C 425.625 72.738281 426.808594 73.390625 427.964844 74.101562 C 429.121094 74.808594 430.242188 75.570312 431.328125 76.382812 C 432.414062 77.191406 433.460938 78.054688 434.46875 78.960938 C 435.476562 79.867188 436.4375 80.820312 437.359375 81.816406 C 438.277344 82.8125 439.152344 83.847656 439.976562 84.925781 C 440.800781 86 441.574219 87.113281 442.296875 88.261719 C 443.019531 89.40625 443.6875 90.585938 444.304688 91.792969 C 444.917969 93.003906 445.476562 94.238281 445.976562 95.496094 C 446.480469 96.757812 446.921875 98.035156 447.304688 99.335938 C 447.691406 100.636719 448.015625 101.953125 448.277344 103.28125 C 448.542969 104.613281 448.742188 105.953125 448.882812 107.300781 C 449.023438 108.648438 449.101562 110 449.121094 111.359375 C 449.136719 112.714844 449.089844 114.066406 448.984375 115.417969 C 448.875 116.769531 448.707031 118.113281 448.472656 119.449219 C 448.242188 120.785156 447.953125 122.109375 447.597656 123.417969 C 447.246094 124.726562 446.835938 126.019531 446.363281 127.289062 C 445.894531 128.5625 445.367188 129.808594 444.78125 131.03125 C 444.195312 132.253906 443.554688 133.449219 442.859375 134.613281 C 442.167969 135.777344 441.417969 136.910156 440.621094 138.003906 C 440.015625 138.835938 439.320312 139.585938 438.539062 140.253906 C 437.753906 140.921875 436.902344 141.488281 435.988281 141.957031 C 435.070312 142.421875 434.109375 142.773438 433.109375 143.015625 C 432.109375 143.253906 431.09375 143.375 430.0625 143.375 Z M 430.0625 143.375 " fill-opacity="1" fill-rule="nonzero"/></svg>