<svg xmlns="http://www.w3.org/2000/svg" xmlns:xlink="http://www.w3.org/1999/xlink" width="1080" zoomAndPan="magnify" viewBox="0 0 810 809.999993" height="1080" preserveAspectRatio="xMidYMid meet" version="1.0"><path fill="#000000" d="M 252.539062 1.789062 C 220.269531 1.789062 193.925781 14.5 176.8125 33.765625 C 174.78125 36.046875 172.902344 38.402344 171.121094 40.835938 L 21.503906 145.648438 C 21.449219 145.679688 21.394531 145.714844 21.339844 145.746094 C 8.09375 155.25 0 170.589844 0 187.066406 C 0 203.542969 8.09375 218.882812 21.339844 228.386719 C 21.394531 228.417969 21.449219 228.453125 21.503906 228.484375 L 166.914062 330.367188 L 266.546875 523.574219 C 277.71875 545.230469 288.527344 562.550781 305.316406 574.535156 C 319.238281 584.46875 336.402344 589.269531 357.238281 590.6875 C 358.789062 591.121094 360.367188 591.328125 361.972656 591.3125 L 488.246094 591.3125 L 488.246094 751.324219 C 488.246094 783.683594 514.824219 810.277344 547.171875 810.277344 C 579.515625 810.277344 606.097656 783.683594 606.097656 751.324219 L 606.097656 590.523438 L 623.292969 607.761719 C 623.304688 607.761719 623.316406 607.761719 623.328125 607.761719 C 634.816406 619.253906 650.039062 625 665.023438 625 C 680.007812 625 695.230469 619.253906 706.71875 607.761719 C 706.742188 607.738281 706.761719 607.71875 706.785156 607.695312 C 729.480469 584.753906 729.480469 547.339844 706.785156 524.398438 C 706.761719 524.375 706.742188 524.355469 706.71875 524.332031 L 588.867188 406.425781 C 572.648438 390.203125 548.476562 384.957031 527.113281 392.710938 L 446.351562 419.160156 L 391.273438 307.734375 L 487.390625 225.457031 C 487.433594 225.4375 487.476562 225.414062 487.519531 225.390625 C 498.96875 215.433594 505.582031 200.832031 505.082031 185.519531 C 504.582031 170.257812 497.289062 155.746094 484.757812 146.535156 L 350.203125 45.574219 C 343.554688 40.585938 335.960938 37.496094 328.203125 36.199219 C 309.664062 15.167969 282.628906 1.789062 252.539062 1.789062 Z M 252.539062 35.476562 C 274.632812 35.476562 293.949219 46.078125 306.207031 62.351562 C 306.253906 62.414062 306.289062 62.488281 306.335938 62.550781 C 306.929688 63.425781 307.597656 64.234375 308.34375 64.984375 C 308.363281 65.007812 308.386719 65.027344 308.410156 65.050781 C 308.417969 65.0625 308.433594 65.070312 308.441406 65.082031 C 315.679688 75.828125 319.882812 88.820312 319.882812 102.847656 C 319.882812 111.628906 318.125 119.953125 315.117188 127.621094 C 314.605469 128.566406 314.1875 129.554688 313.867188 130.582031 C 303.351562 153.992188 280.007812 170.222656 252.539062 170.222656 C 228.6875 170.222656 212.945312 161.882812 202 149.5625 C 198.996094 146.179688 196.460938 142.386719 194.238281 138.378906 C 194.117188 136.320312 193.636719 134.347656 192.792969 132.46875 C 191.949219 130.585938 190.796875 128.914062 189.339844 127.457031 C 186.644531 119.652344 185.195312 111.285156 185.195312 102.847656 C 185.195312 89.199219 188.976562 75.796875 195.882812 64.65625 L 196.210938 64.425781 C 197.804688 63.335938 199.171875 62.015625 200.3125 60.457031 C 201.453125 58.898438 202.300781 57.195312 202.855469 55.34375 C 213.765625 43.5 229.246094 35.476562 252.539062 35.476562 Z M 352.539062 89.460938 L 464.667969 173.578125 C 464.710938 173.613281 464.753906 173.644531 464.800781 173.675781 C 468.769531 176.597656 471.234375 181.316406 471.410156 186.605469 C 471.570312 191.484375 469.441406 196.421875 465.425781 199.929688 C 465.425781 199.929688 465.425781 199.960938 465.425781 199.960938 L 359.441406 290.660156 C 358.738281 291.265625 358.085938 291.925781 357.488281 292.636719 C 356.890625 293.351562 356.355469 294.109375 355.882812 294.910156 C 355.410156 295.710938 355.007812 296.546875 354.675781 297.414062 C 354.34375 298.28125 354.082031 299.171875 353.894531 300.082031 C 353.710938 300.992188 353.597656 301.914062 353.566406 302.84375 C 353.53125 303.773438 353.574219 304.699219 353.695312 305.621094 C 353.8125 306.542969 354.007812 307.449219 354.277344 308.339844 C 354.546875 309.230469 354.886719 310.09375 355.300781 310.925781 L 422.644531 447.1875 C 423.089844 448.089844 423.609375 448.941406 424.207031 449.75 C 424.804688 450.558594 425.46875 451.304688 426.199219 451.992188 C 426.929688 452.683594 427.71875 453.300781 428.558594 453.847656 C 429.402344 454.394531 430.285156 454.863281 431.210938 455.253906 C 432.136719 455.644531 433.089844 455.949219 434.070312 456.167969 C 435.050781 456.386719 436.039062 456.515625 437.042969 456.558594 C 438.046875 456.601562 439.046875 456.550781 440.039062 456.414062 C 441.035156 456.277344 442.011719 456.054688 442.964844 455.742188 L 538.09375 424.554688 C 538.261719 424.5 538.425781 424.445312 538.589844 424.390625 C 547.863281 421.023438 558.042969 423.226562 565.058594 430.246094 L 682.84375 548.085938 C 692.800781 558.148438 692.8125 573.902344 682.878906 583.976562 C 677.871094 588.964844 671.574219 591.3125 665.023438 591.3125 C 658.457031 591.3125 652.144531 588.957031 647.136719 583.941406 L 602.578125 539.269531 C 601.683594 538.101562 600.652344 537.070312 599.488281 536.175781 L 548.320312 484.921875 C 547.65625 484.253906 546.9375 483.644531 546.167969 483.097656 C 545.398438 482.546875 544.585938 482.070312 543.738281 481.65625 C 542.886719 481.246094 542.007812 480.90625 541.101562 480.644531 C 540.195312 480.382812 539.273438 480.195312 538.332031 480.085938 C 537.394531 479.976562 536.453125 479.949219 535.511719 480 C 534.566406 480.050781 533.636719 480.179688 532.714844 480.386719 C 531.792969 480.59375 530.894531 480.875 530.019531 481.234375 C 529.148438 481.589844 528.308594 482.019531 527.507812 482.519531 C 527.507812 482.519531 496.722656 501.679688 460.984375 520.78125 C 443.117188 530.328125 424.042969 539.828125 407.351562 546.769531 C 390.664062 553.710938 375.488281 557.625 370.394531 557.625 C 347.007812 557.625 334.492188 553.980469 324.851562 547.097656 C 315.214844 540.21875 306.84375 528.242188 296.472656 508.148438 L 296.472656 508.113281 L 194.929688 311.222656 C 193.660156 308.769531 191.894531 306.753906 189.636719 305.167969 L 40.972656 201.015625 C 40.972656 201.015625 40.972656 200.980469 40.972656 200.980469 C 36.390625 197.683594 33.671875 192.476562 33.671875 187.066406 C 33.671875 181.65625 36.390625 176.449219 40.972656 173.152344 C 40.972656 173.152344 40.972656 173.117188 40.972656 173.117188 L 152.148438 95.28125 C 151.976562 97.808594 151.523438 100.320312 151.523438 102.847656 C 151.523438 113.261719 153.320312 123.625 156.257812 133.675781 L 99.636719 173.25 C 99.082031 173.636719 98.550781 174.054688 98.046875 174.503906 C 97.542969 174.953125 97.066406 175.429688 96.621094 175.9375 C 96.171875 176.445312 95.757812 176.976562 95.375 177.535156 C 94.992188 178.089844 94.644531 178.667969 94.332031 179.269531 C 94.019531 179.867188 93.742188 180.484375 93.503906 181.113281 C 93.265625 181.746094 93.0625 182.390625 92.902344 183.046875 C 92.738281 183.703125 92.617188 184.367188 92.535156 185.039062 C 92.453125 185.707031 92.414062 186.382812 92.414062 187.058594 C 92.410156 187.734375 92.453125 188.40625 92.53125 189.078125 C 92.613281 189.75 92.730469 190.414062 92.890625 191.070312 C 93.050781 191.726562 93.25 192.371094 93.488281 193.003906 C 93.726562 193.636719 94 194.253906 94.3125 194.851562 C 94.625 195.453125 94.972656 196.03125 95.351562 196.589844 C 95.734375 197.148438 96.148438 197.679688 96.59375 198.1875 C 97.039062 198.695312 97.511719 199.175781 98.015625 199.625 C 98.519531 200.078125 99.046875 200.496094 99.601562 200.882812 L 171.847656 251.414062 C 173.257812 252.398438 174.789062 253.152344 176.429688 253.667969 C 178.074219 254.183594 179.757812 254.441406 181.480469 254.441406 L 343.953125 254.441406 C 345.976562 254.441406 347.9375 254.085938 349.832031 253.378906 C 351.730469 252.671875 353.441406 251.652344 354.96875 250.328125 L 360 245.984375 L 411.824219 201.542969 C 412.300781 201.132812 412.753906 200.699219 413.179688 200.238281 C 413.609375 199.777344 414.011719 199.296875 414.382812 198.792969 C 414.757812 198.289062 415.101562 197.761719 415.417969 197.21875 C 415.734375 196.675781 416.019531 196.117188 416.269531 195.542969 C 416.523438 194.96875 416.742188 194.378906 416.929688 193.78125 C 417.117188 193.179688 417.269531 192.574219 417.390625 191.957031 C 417.507812 191.339844 417.59375 190.71875 417.644531 190.089844 C 417.691406 189.464844 417.707031 188.839844 417.6875 188.210938 C 417.667969 187.582031 417.613281 186.957031 417.519531 186.335938 C 417.429688 185.714844 417.304688 185.101562 417.148438 184.492188 C 416.988281 183.882812 416.796875 183.289062 416.570312 182.703125 C 416.34375 182.113281 416.085938 181.542969 415.796875 180.984375 C 415.507812 180.429688 415.1875 179.890625 414.835938 179.367188 C 414.488281 178.847656 414.109375 178.347656 413.703125 177.867188 C 413.296875 177.386719 412.867188 176.933594 412.410156 176.5 C 411.953125 176.070312 411.472656 175.667969 410.96875 175.289062 L 349.875 129.429688 C 352.203125 120.9375 353.554688 112.058594 353.554688 102.847656 C 353.554688 98.296875 353.125 93.855469 352.539062 89.460938 Z M 335.273438 160.585938 L 373.976562 189.632812 L 338.070312 220.425781 C 338.035156 220.445312 338.003906 220.46875 337.96875 220.492188 L 337.675781 220.753906 L 186.808594 220.753906 L 138.667969 187.066406 L 170.890625 164.53125 C 172.738281 167.082031 174.691406 169.550781 176.8125 171.933594 C 193.925781 191.199219 220.269531 203.910156 252.539062 203.910156 C 286.695312 203.910156 316.972656 186.714844 335.273438 160.585938 Z M 158.757812 388.167969 L 218.867188 643.617188 L 218.867188 793.433594 C 218.859375 793.992188 218.878906 794.546875 218.925781 795.101562 C 218.972656 795.65625 219.050781 796.207031 219.152344 796.753906 C 219.253906 797.300781 219.382812 797.84375 219.535156 798.378906 C 219.691406 798.910156 219.875 799.4375 220.082031 799.953125 C 220.289062 800.46875 220.519531 800.976562 220.777344 801.46875 C 221.035156 801.960938 221.316406 802.441406 221.621094 802.90625 C 221.925781 803.371094 222.253906 803.820312 222.605469 804.253906 C 222.953125 804.6875 223.324219 805.101562 223.714844 805.5 C 224.105469 805.894531 224.515625 806.273438 224.941406 806.628906 C 225.371094 806.984375 225.816406 807.316406 226.277344 807.628906 C 226.738281 807.941406 227.210938 808.230469 227.703125 808.492188 C 228.191406 808.757812 228.691406 808.996094 229.207031 809.210938 C 229.71875 809.425781 230.242188 809.617188 230.773438 809.78125 C 231.304688 809.941406 231.84375 810.078125 232.390625 810.1875 C 232.9375 810.296875 233.484375 810.378906 234.039062 810.433594 C 234.59375 810.492188 235.148438 810.519531 235.703125 810.519531 C 236.261719 810.519531 236.816406 810.492188 237.371094 810.433594 C 237.921875 810.378906 238.472656 810.296875 239.019531 810.1875 C 239.5625 810.078125 240.101562 809.941406 240.636719 809.78125 C 241.167969 809.617188 241.691406 809.425781 242.203125 809.210938 C 242.714844 808.996094 243.21875 808.757812 243.707031 808.492188 C 244.195312 808.230469 244.671875 807.941406 245.132812 807.628906 C 245.59375 807.316406 246.039062 806.984375 246.464844 806.628906 C 246.894531 806.273438 247.304688 805.894531 247.695312 805.5 C 248.085938 805.101562 248.457031 804.6875 248.804688 804.253906 C 249.152344 803.820312 249.480469 803.371094 249.785156 802.90625 C 250.089844 802.441406 250.371094 801.960938 250.628906 801.46875 C 250.886719 800.976562 251.121094 800.46875 251.328125 799.953125 C 251.535156 799.4375 251.714844 798.910156 251.871094 798.378906 C 252.027344 797.84375 252.15625 797.300781 252.257812 796.753906 C 252.359375 796.207031 252.433594 795.65625 252.480469 795.101562 C 252.527344 794.546875 252.546875 793.992188 252.539062 793.433594 L 252.539062 658.6875 L 420.902344 658.6875 L 420.902344 793.433594 C 420.894531 793.992188 420.914062 794.546875 420.960938 795.101562 C 421.007812 795.65625 421.082031 796.207031 421.183594 796.753906 C 421.285156 797.300781 421.414062 797.84375 421.570312 798.378906 C 421.722656 798.910156 421.90625 799.4375 422.113281 799.953125 C 422.320312 800.46875 422.554688 800.976562 422.8125 801.46875 C 423.066406 801.960938 423.347656 802.441406 423.65625 802.90625 C 423.960938 803.371094 424.285156 803.820312 424.636719 804.253906 C 424.984375 804.6875 425.355469 805.101562 425.746094 805.5 C 426.136719 805.894531 426.546875 806.273438 426.976562 806.628906 C 427.402344 806.984375 427.847656 807.316406 428.308594 807.628906 C 428.769531 807.941406 429.246094 808.230469 429.734375 808.492188 C 430.222656 808.757812 430.726562 808.996094 431.238281 809.210938 C 431.75 809.425781 432.273438 809.617188 432.804688 809.78125 C 433.339844 809.941406 433.878906 810.078125 434.421875 810.1875 C 434.96875 810.296875 435.519531 810.378906 436.070312 810.433594 C 436.625 810.492188 437.179688 810.519531 437.738281 810.519531 C 438.292969 810.519531 438.847656 810.492188 439.402344 810.433594 C 439.957031 810.378906 440.503906 810.296875 441.050781 810.1875 C 441.597656 810.078125 442.136719 809.941406 442.667969 809.78125 C 443.199219 809.617188 443.722656 809.425781 444.234375 809.210938 C 444.75 808.996094 445.25 808.757812 445.738281 808.492188 C 446.230469 808.230469 446.703125 807.941406 447.164062 807.628906 C 447.625 807.316406 448.070312 806.984375 448.5 806.628906 C 448.925781 806.273438 449.335938 805.894531 449.726562 805.5 C 450.117188 805.101562 450.488281 804.6875 450.835938 804.253906 C 451.1875 803.820312 451.515625 803.371094 451.820312 802.90625 C 452.125 802.441406 452.40625 801.960938 452.664062 801.46875 C 452.921875 800.976562 453.152344 800.46875 453.359375 799.953125 C 453.566406 799.4375 453.75 798.910156 453.90625 798.378906 C 454.058594 797.84375 454.1875 797.300781 454.289062 796.753906 C 454.390625 796.207031 454.464844 795.65625 454.515625 795.101562 C 454.5625 794.546875 454.582031 793.992188 454.574219 793.433594 L 454.574219 641.84375 C 454.574219 641.289062 454.546875 640.742188 454.492188 640.191406 C 454.4375 639.640625 454.355469 639.097656 454.25 638.554688 C 454.140625 638.015625 454.007812 637.480469 453.847656 636.953125 C 453.6875 636.425781 453.5 635.90625 453.289062 635.398438 C 453.078125 634.886719 452.84375 634.390625 452.585938 633.902344 C 452.324219 633.417969 452.042969 632.945312 451.734375 632.484375 C 451.429688 632.027344 451.101562 631.582031 450.75 631.15625 C 450.402344 630.730469 450.03125 630.324219 449.640625 629.933594 C 449.25 629.542969 448.84375 629.171875 448.417969 628.824219 C 447.992188 628.472656 447.546875 628.144531 447.089844 627.839844 C 446.632812 627.53125 446.160156 627.25 445.671875 626.988281 C 445.1875 626.726562 444.6875 626.492188 444.179688 626.28125 C 443.667969 626.070312 443.152344 625.882812 442.625 625.722656 C 442.097656 625.5625 441.5625 625.429688 441.019531 625.324219 C 440.480469 625.214844 439.9375 625.132812 439.386719 625.082031 C 438.839844 625.027344 438.289062 625 437.738281 625 L 248.988281 625 L 222.222656 511.304688 Z M 533.589844 517.851562 L 572.425781 556.769531 L 572.425781 751.324219 C 572.425781 765.488281 561.328125 776.589844 547.171875 776.589844 C 533.015625 776.589844 521.917969 765.488281 521.917969 751.324219 L 521.917969 574.46875 C 521.917969 573.917969 521.890625 573.367188 521.835938 572.816406 C 521.78125 572.269531 521.699219 571.722656 521.59375 571.183594 C 521.484375 570.640625 521.351562 570.105469 521.191406 569.578125 C 521.03125 569.050781 520.847656 568.53125 520.636719 568.023438 C 520.421875 567.511719 520.1875 567.015625 519.929688 566.527344 C 519.667969 566.042969 519.386719 565.570312 519.078125 565.109375 C 518.773438 564.652344 518.445312 564.210938 518.09375 563.785156 C 517.746094 563.355469 517.375 562.949219 516.984375 562.558594 C 516.59375 562.167969 516.1875 561.796875 515.761719 561.449219 C 515.335938 561.097656 514.890625 560.769531 514.433594 560.464844 C 513.976562 560.15625 513.503906 559.875 513.015625 559.613281 C 512.53125 559.355469 512.03125 559.117188 511.523438 558.90625 C 511.015625 558.695312 510.496094 558.511719 509.96875 558.351562 C 509.441406 558.191406 508.90625 558.054688 508.367188 557.949219 C 507.824219 557.839844 507.28125 557.761719 506.730469 557.707031 C 506.183594 557.652344 505.632812 557.625 505.082031 557.625 L 462.957031 557.625 C 467.609375 555.230469 472.339844 552.90625 476.867188 550.484375 C 507.460938 534.136719 525.28125 522.953125 533.589844 517.851562 Z M 533.589844 517.851562 " fill-opacity="1" fill-rule="nonzero"/></svg>