<svg xmlns="http://www.w3.org/2000/svg" xmlns:xlink="http://www.w3.org/1999/xlink" width="500" zoomAndPan="magnify" viewBox="0 0 375 374.999991" height="500" preserveAspectRatio="xMidYMid meet" version="1.0"><defs><filter x="0%" y="0%" width="100%" height="100%" id="b9b46aff0a"><feColorMatrix values="0 0 0 0 1 0 0 0 0 1 0 0 0 0 1 0 0 0 1 0" color-interpolation-filters="sRGB"/></filter><mask id="236ae91ace"><g filter="url(#b9b46aff0a)"><rect x="-37.5" width="450" fill="#000000" y="-37.499999" height="449.999989" fill-opacity="0.54"/></g></mask><clipPath id="065122e017"><path d="M 0 0.800781 L 375 0.800781 L 375 93 L 0 93 Z M 0 0.800781 " clip-rule="nonzero"/></clipPath><mask id="f2d9524f42"><g filter="url(#b9b46aff0a)"><rect x="-82.5" width="540" fill="#000000" y="-158.499998" height="539.999987" fill-opacity="0.6"/></g></mask><clipPath id="ca4e866494"><path d="M 2 7 L 375 7 L 375 81 L 2 81 Z M 2 7 " clip-rule="nonzero"/></clipPath><clipPath id="920ce4f293"><path d="M 3.214844 0.835938 L 375.683594 16.523438 L 372.46875 92.878906 L 0 77.191406 Z M 3.214844 0.835938 " clip-rule="nonzero"/></clipPath><clipPath id="d01168ce52"><path d="M 3.214844 0.835938 L 375.683594 16.523438 L 372.46875 92.878906 L 0 77.191406 Z M 3.214844 0.835938 " clip-rule="nonzero"/></clipPath><clipPath id="16097fc0ce"><path d="M 3.214844 0.835938 L 375.683594 16.523438 L 372.46875 92.878906 L 0 77.191406 Z M 3.214844 0.835938 " clip-rule="nonzero"/></clipPath><clipPath id="149ff66856"><path d="M 3.65625 0.851562 L 375.253906 16.503906 L 372.035156 92.886719 L 0.4375 77.238281 Z M 3.65625 0.851562 " clip-rule="nonzero"/></clipPath><clipPath id="74f61564cd"><path d="M 3.65625 0.851562 L 375.246094 16.503906 L 372.027344 92.859375 L 0.441406 77.210938 Z M 3.65625 0.851562 " clip-rule="nonzero"/></clipPath><clipPath id="78f649750f"><rect x="0" width="375" y="0" height="93"/></clipPath><mask id="8dc37c6019"><g filter="url(#b9b46aff0a)"><rect x="-82.5" width="540" fill="#000000" y="-158.499998" height="539.999987" fill-opacity="0.66"/></g></mask><clipPath id="3b749698b4"><path d="M 3 5 L 367 5 L 367 158 L 3 158 Z M 3 5 " clip-rule="nonzero"/></clipPath><clipPath id="14692cd501"><path d="M 0.53125 87.019531 L 363.214844 0.765625 L 380.898438 75.117188 L 18.214844 161.371094 Z M 0.53125 87.019531 " clip-rule="nonzero"/></clipPath><clipPath id="b07f310cd2"><path d="M 0.53125 87.019531 L 363.214844 0.765625 L 380.898438 75.117188 L 18.214844 161.371094 Z M 0.53125 87.019531 " clip-rule="nonzero"/></clipPath><clipPath id="5103efa0da"><path d="M 0.53125 87.019531 L 363.214844 0.765625 L 380.898438 75.117188 L 18.214844 161.371094 Z M 0.53125 87.019531 " clip-rule="nonzero"/></clipPath><clipPath id="e2ba833577"><path d="M 0.960938 86.917969 L 362.796875 0.867188 L 380.484375 75.242188 L 18.648438 161.296875 Z M 0.960938 86.917969 " clip-rule="nonzero"/></clipPath><clipPath id="c8a79ab0f7"><path d="M 0.960938 86.917969 L 362.789062 0.867188 L 380.46875 75.21875 L 18.644531 161.269531 Z M 0.960938 86.917969 " clip-rule="nonzero"/></clipPath><clipPath id="db5d79406f"><rect x="0" width="374" y="0" height="162"/></clipPath><mask id="3c6128f965"><g filter="url(#b9b46aff0a)"><rect x="-82.5" width="540" fill="#000000" y="-158.499998" height="539.999987" fill-opacity="0.71"/></g></mask><clipPath id="a71f96ac4f"><path d="M 2 4 L 289 4 L 289 59 L 2 59 Z M 2 4 " clip-rule="nonzero"/></clipPath><clipPath id="6ee15f0b73"><path d="M 2.007812 0.878906 L 289.007812 6.484375 L 287.878906 64.257812 L 0.878906 58.648438 Z M 2.007812 0.878906 " clip-rule="nonzero"/></clipPath><clipPath id="c7ef0971bf"><path d="M 2.007812 0.878906 L 289.007812 6.484375 L 287.878906 64.257812 L 0.878906 58.648438 Z M 2.007812 0.878906 " clip-rule="nonzero"/></clipPath><clipPath id="a0e2fdd239"><path d="M 2.007812 0.878906 L 289.007812 6.484375 L 287.878906 64.257812 L 0.878906 58.648438 Z M 2.007812 0.878906 " clip-rule="nonzero"/></clipPath><clipPath id="1eebdb5e3a"><path d="M 2.386719 0.886719 L 288.636719 6.476562 L 287.507812 64.269531 L 1.257812 58.679688 Z M 2.386719 0.886719 " clip-rule="nonzero"/></clipPath><clipPath id="d0af094d0d"><path d="M 2.386719 0.886719 L 288.628906 6.476562 L 287.5 64.25 L 1.257812 58.660156 Z M 2.386719 0.886719 " clip-rule="nonzero"/></clipPath><clipPath id="cbc8e17bfc"><rect x="0" width="290" y="0" height="67"/></clipPath><clipPath id="f88d646fbc"><path d="M 27 92 L 306 92 L 306 240.320312 L 27 240.320312 Z M 27 92 " clip-rule="nonzero"/></clipPath><mask id="7c3b017ae0"><g filter="url(#b9b46aff0a)"><rect x="-82.5" width="540" fill="#000000" y="-158.499998" height="539.999987" fill-opacity="0.68"/></g></mask><clipPath id="960ba54e4d"><path d="M 3 4 L 263 4 L 263 143 L 3 143 Z M 3 4 " clip-rule="nonzero"/></clipPath><clipPath id="eaf5a35be2"><path d="M 0.640625 93.933594 L 258.253906 0.585938 L 277.304688 53.160156 L 19.691406 146.507812 Z M 0.640625 93.933594 " clip-rule="nonzero"/></clipPath><clipPath id="7099e165de"><path d="M 0.640625 93.933594 L 258.253906 0.585938 L 277.304688 53.160156 L 19.691406 146.507812 Z M 0.640625 93.933594 " clip-rule="nonzero"/></clipPath><clipPath id="ef662d4373"><path d="M 0.640625 93.933594 L 258.253906 0.585938 L 277.304688 53.160156 L 19.691406 146.507812 Z M 0.640625 93.933594 " clip-rule="nonzero"/></clipPath><clipPath id="cbe79f3796"><path d="M 0.976562 93.8125 L 257.925781 0.703125 L 276.984375 53.296875 L 20.035156 146.40625 Z M 0.976562 93.8125 " clip-rule="nonzero"/></clipPath><clipPath id="7f75ce9d79"><path d="M 0.976562 93.8125 L 257.917969 0.707031 L 276.96875 53.28125 L 20.027344 146.386719 Z M 0.976562 93.8125 " clip-rule="nonzero"/></clipPath><clipPath id="027973656c"><rect x="0" width="279" y="0" height="149"/></clipPath><clipPath id="94ffdba35d"><rect x="0" width="375" y="0" height="241"/></clipPath></defs><g mask="url(#236ae91ace)"><g transform="matrix(1, 0, 0, 1, 0, 76)"><g clip-path="url(#94ffdba35d)"><g clip-path="url(#065122e017)"><g mask="url(#f2d9524f42)"><g transform="matrix(1, 0, 0, 1, 0, 0)"><g clip-path="url(#78f649750f)"><g clip-path="url(#ca4e866494)"><g clip-path="url(#920ce4f293)"><g clip-path="url(#d01168ce52)"><g clip-path="url(#16097fc0ce)"><g clip-path="url(#149ff66856)"><g clip-path="url(#74f61564cd)"><path fill="#ffe828" d="M 17.015625 77.910156 C 15.429688 77.84375 14.152344 77.179688 13.402344 75.671875 C 12.78125 74.425781 12.210938 73.15625 11.621094 71.894531 C 11.421875 69.941406 11.191406 67.988281 11.027344 66.03125 C 10.613281 61.121094 12 58.902344 16.960938 56.449219 C 18.386719 54.492188 18.355469 53.8125 16.804688 53.546875 C 15.246094 53.28125 13.679688 53.085938 12.121094 52.839844 C 9.929688 52.496094 8.570312 51.175781 8.003906 49.089844 C 7.539062 47.378906 7.132812 45.644531 6.851562 43.894531 C 6.601562 42.339844 6.640625 40.734375 5.878906 39.289062 C 4.398438 38.191406 3.636719 36.714844 3.617188 34.875 C 3.601562 33.539062 3.625 32.199219 3.632812 30.863281 L 3.832031 30.726562 C 3.6875 25.425781 2.550781 20.179688 3.121094 14.835938 C 3.332031 12.875 3.230469 10.886719 4.597656 9.257812 L 4.609375 9.253906 C 6.550781 8.234375 8.558594 8.113281 10.582031 8.199219 C 11.195312 8.222656 11.804688 8.269531 12.417969 8.3125 C 13.03125 8.359375 13.640625 8.402344 14.253906 8.429688 C 14.644531 8.445312 15.035156 8.453125 15.425781 8.449219 C 19.566406 8.078125 23.6875 7.828125 27.820312 8 C 30.246094 8.105469 32.679688 8.351562 35.117188 8.808594 C 35.949219 8.964844 36.792969 9.042969 37.648438 9.078125 C 39.769531 9.167969 41.941406 8.984375 44.070312 8.976562 C 58.128906 8.933594 72.1875 8.3125 86.242188 8.902344 C 87.945312 8.976562 89.652344 9.066406 91.355469 9.175781 C 91.578125 9.191406 91.804688 9.203125 92.027344 9.210938 C 93.808594 9.285156 95.5625 9.171875 97.226562 8.386719 C 99.410156 9.496094 101.789062 9.542969 104.15625 9.652344 C 106.523438 9.757812 108.890625 9.875 111.253906 9.988281 C 115.464844 8.464844 119.921875 8.960938 124.242188 8.691406 C 127.046875 8.519531 129.867188 8.554688 132.695312 8.675781 C 135.632812 8.796875 138.574219 9.011719 141.507812 9.164062 C 142.992188 9.242188 144.445312 9.820312 145.914062 10.203125 C 145.898438 10.054688 145.855469 9.9375 145.855469 9.773438 C 146.476562 8.628906 147.296875 8.371094 148.183594 8.410156 C 148.617188 8.425781 149.066406 8.515625 149.511719 8.605469 C 149.960938 8.691406 150.410156 8.78125 150.84375 8.796875 C 151.441406 8.824219 152.007812 8.714844 152.507812 8.289062 C 159.394531 8.78125 166.292969 9.308594 173.179688 9.597656 C 174.980469 9.675781 176.785156 9.734375 178.582031 9.773438 C 187.480469 9.964844 196.386719 10.269531 205.289062 10.421875 C 205.691406 10.425781 206.097656 10.441406 206.503906 10.457031 C 207.90625 10.515625 209.304688 10.625 210.707031 10.714844 C 210.789062 10.292969 210.957031 9.90625 211.308594 9.597656 L 211.308594 9.625 C 216.886719 10.808594 222.53125 11.25 228.191406 11.488281 C 231.097656 11.609375 234.011719 11.679688 236.921875 11.769531 C 237.972656 11.800781 239.023438 11.84375 240.074219 11.886719 C 241.246094 11.9375 242.417969 11.988281 243.589844 12.042969 C 244.757812 12.097656 245.929688 12.152344 247.101562 12.203125 C 252.273438 12.421875 257.449219 12.539062 262.640625 12.125 C 263.546875 12.050781 264.457031 12.046875 265.375 12.085938 C 267.828125 12.1875 270.308594 12.609375 272.757812 12.90625 C 277.066406 13.433594 281.382812 13.773438 285.707031 13.957031 C 289.945312 14.132812 294.191406 14.164062 298.441406 14.074219 C 299.296875 14.054688 300.160156 13.9375 301.007812 13.972656 C 301.148438 13.980469 301.289062 13.988281 301.429688 14.003906 C 306.875 14.609375 312.339844 14.9375 317.808594 15.167969 C 320.804688 15.292969 323.804688 15.390625 326.800781 15.488281 C 329.796875 15.582031 332.796875 15.679688 335.792969 15.804688 C 339.28125 15.953125 342.769531 16.140625 346.253906 16.414062 C 349.21875 16.644531 352.265625 16.433594 355.039062 17.871094 C 355.667969 17.855469 356.296875 17.863281 356.921875 17.890625 C 361.46875 18.082031 365.886719 19.242188 370.339844 20.058594 C 373.769531 20.6875 375.214844 22.613281 374.820312 25.953125 C 374.304688 30.28125 373.546875 34.585938 372.78125 38.878906 C 372.539062 40.230469 371.992188 41.542969 371.476562 42.828125 C 370.941406 44.171875 369.984375 45.191406 368.582031 45.648438 C 368.097656 45.804688 367.628906 45.871094 367.171875 45.851562 C 366.28125 45.8125 365.449219 45.453125 364.683594 44.824219 C 363.691406 43.859375 362.664062 42.890625 361.265625 42.828125 C 361.035156 42.820312 360.796875 42.835938 360.546875 42.878906 C 358.609375 43.210938 356.484375 42.953125 354.816406 44.199219 C 354.078125 44.75 353.464844 45.691406 353.179688 46.582031 C 352.757812 47.886719 352.613281 49.296875 352.484375 50.675781 C 352.292969 52.65625 352.273438 54.660156 351.0625 56.378906 C 350.980469 58.460938 350.722656 60.496094 349.625 62.332031 C 349.792969 66.789062 348.539062 71.054688 347.863281 75.394531 C 347.789062 76.566406 347.710938 77.738281 347.636719 78.910156 C 347.222656 79.300781 346.800781 79.691406 346.367188 80.0625 L 346.339844 80.007812 C 343.132812 79.007812 339.839844 78.582031 336.492188 78.441406 C 336.429688 78.4375 336.363281 78.4375 336.300781 78.433594 C 334.90625 78.378906 333.507812 78.324219 332.117188 78.265625 C 329.617188 78.160156 327.121094 78.046875 324.625 77.9375 C 322.128906 77.828125 319.636719 77.714844 317.140625 77.613281 C 311.941406 77.390625 306.738281 77.195312 301.53125 77.074219 C 298.382812 77 295.234375 76.914062 292.09375 76.78125 C 289.65625 76.679688 287.222656 76.550781 284.789062 76.375 C 283.660156 76.292969 282.535156 76.226562 281.40625 76.179688 C 278.148438 76.039062 274.882812 76.085938 271.617188 76.558594 C 270.195312 76.761719 268.734375 76.730469 267.277344 76.667969 C 267.078125 76.660156 266.875 76.652344 266.679688 76.640625 C 266.476562 76.632812 266.277344 76.625 266.078125 76.617188 C 265.929688 76.609375 265.78125 76.605469 265.628906 76.597656 C 255.636719 76.234375 245.648438 75.824219 235.65625 75.457031 C 230.066406 75.25 224.488281 74.953125 218.886719 75.636719 C 217.320312 75.832031 215.726562 75.816406 214.132812 75.75 C 213.582031 75.726562 213.03125 75.695312 212.480469 75.667969 C 211.929688 75.636719 211.382812 75.609375 210.835938 75.585938 C 210.722656 75.582031 210.613281 75.574219 210.5 75.570312 C 207.097656 75.445312 203.710938 75.34375 200.324219 75.871094 C 199.203125 76.042969 198.039062 76.121094 196.898438 76.074219 C 196.644531 76.0625 196.390625 76.042969 196.140625 76.023438 C 194.0625 75.828125 191.988281 75.695312 189.910156 75.609375 C 181.613281 75.261719 173.3125 75.632812 165.011719 75.835938 C 162.460938 75.898438 159.910156 75.820312 157.355469 75.710938 C 156.742188 75.6875 156.128906 75.660156 155.515625 75.632812 C 154.902344 75.605469 154.292969 75.578125 153.679688 75.550781 C 152.660156 75.507812 151.640625 75.46875 150.625 75.441406 C 150.125 75.429688 149.625 75.414062 149.125 75.390625 C 148.183594 75.351562 147.238281 75.300781 146.296875 75.25 C 145.351562 75.199219 144.410156 75.148438 143.46875 75.109375 C 140.464844 74.980469 137.460938 74.96875 134.453125 75.429688 C 134.125 75.480469 133.800781 75.496094 133.476562 75.480469 C 132.40625 75.4375 131.382812 75.070312 130.386719 74.636719 C 130.324219 74.632812 130.257812 74.628906 130.195312 74.625 C 126.480469 74.46875 122.785156 74.664062 119.066406 74.894531 C 114.316406 75.195312 109.519531 74.824219 104.746094 74.707031 C 99.179688 74.570312 93.636719 74.292969 88.054688 74.976562 C 86.5625 75.15625 85.050781 75.160156 83.53125 75.09375 C 82.667969 75.058594 81.804688 75 80.941406 74.945312 C 80.078125 74.886719 79.214844 74.828125 78.355469 74.792969 C 78.210938 74.789062 78.0625 74.78125 77.917969 74.777344 C 74.132812 74.652344 70.355469 74.472656 66.71875 75.929688 C 65.816406 76.289062 64.769531 76.472656 63.796875 76.441406 C 57.777344 76.242188 51.800781 77.296875 45.773438 77.042969 C 45.421875 77.027344 45.066406 77.007812 44.710938 76.980469 C 44.121094 76.941406 43.53125 76.910156 42.945312 76.882812 C 35.179688 76.558594 27.441406 77.535156 19.6875 77.734375 C 18.890625 77.753906 18.101562 77.914062 17.308594 77.914062 C 17.210938 77.914062 17.109375 77.914062 17.015625 77.910156 " fill-opacity="1" fill-rule="nonzero"/></g></g></g></g></g></g></g></g></g></g><g mask="url(#8dc37c6019)"><g transform="matrix(1, 0, 0, 1, 1, 4)"><g clip-path="url(#db5d79406f)"><g clip-path="url(#3b749698b4)"><g clip-path="url(#14692cd501)"><g clip-path="url(#b07f310cd2)"><g clip-path="url(#5103efa0da)"><g clip-path="url(#e2ba833577)"><g clip-path="url(#c8a79ab0f7)"><path fill="#ffe828" d="M 34.78125 157.429688 C 33.242188 157.796875 31.832031 157.507812 30.699219 156.261719 C 29.761719 155.230469 28.867188 154.164062 27.957031 153.113281 C 27.230469 151.285156 26.480469 149.46875 25.789062 147.628906 C 24.058594 143.019531 24.789062 140.507812 28.890625 136.796875 C 29.730469 134.523438 29.515625 133.878906 27.949219 134.046875 C 26.382812 134.214844 24.820312 134.453125 23.253906 134.640625 C 21.050781 134.902344 19.382812 134 18.269531 132.148438 C 17.355469 130.632812 16.492188 129.070312 15.746094 127.464844 C 15.085938 126.035156 14.6875 124.480469 13.5625 123.296875 L 13.558594 123.296875 C 11.835938 122.644531 10.699219 121.433594 10.179688 119.667969 C 9.800781 118.382812 9.460938 117.089844 9.101562 115.800781 L 9.261719 115.617188 L 9.257812 115.617188 C 7.679688 110.554688 5.15625 105.816406 4.253906 100.519531 C 3.921875 98.574219 3.28125 96.691406 4.15625 94.746094 L 4.167969 94.742188 L 4.164062 94.738281 C 5.757812 93.234375 7.65625 92.570312 9.625 92.101562 C 10.21875 91.960938 10.820312 91.835938 11.421875 91.710938 C 12.023438 91.589844 12.625 91.464844 13.21875 91.324219 C 13.601562 91.234375 13.980469 91.136719 14.355469 91.023438 C 18.234375 89.539062 22.136719 88.179688 26.15625 87.222656 C 28.523438 86.660156 30.929688 86.238281 33.398438 86.011719 C 34.242188 85.933594 35.078125 85.78125 35.910156 85.585938 C 37.972656 85.09375 40.011719 84.324219 42.0625 83.738281 C 55.578125 79.871094 68.933594 75.445312 82.621094 72.191406 C 84.28125 71.796875 85.945312 71.421875 87.617188 71.0625 C 87.835938 71.015625 88.054688 70.964844 88.273438 70.914062 C 90.007812 70.503906 91.664062 69.914062 93.050781 68.707031 C 95.457031 69.179688 97.757812 68.578125 100.066406 68.035156 C 102.371094 67.496094 104.679688 66.964844 106.984375 66.433594 L 106.984375 66.429688 C 110.621094 63.816406 115.046875 63.082031 119.128906 61.648438 C 121.78125 60.71875 124.507812 59.988281 127.257812 59.332031 C 130.121094 58.652344 133.011719 58.054688 135.875 57.40625 C 137.320312 57.074219 138.878906 57.238281 140.394531 57.207031 C 140.339844 57.066406 140.269531 56.964844 140.222656 56.808594 C 140.511719 55.535156 141.230469 55.066406 142.09375 54.863281 C 142.511719 54.761719 142.96875 54.726562 143.425781 54.6875 C 143.878906 54.652344 144.335938 54.613281 144.757812 54.511719 C 145.339844 54.375 145.855469 54.117188 146.21875 53.570312 C 152.980469 52.171875 159.765625 50.800781 166.46875 49.207031 C 168.222656 48.789062 169.976562 48.355469 171.714844 47.902344 C 180.328125 45.667969 188.980469 43.539062 197.589844 41.261719 C 197.980469 41.15625 198.375 41.058594 198.769531 40.964844 C 200.132812 40.640625 201.511719 40.363281 202.882812 40.066406 C 202.847656 39.640625 202.90625 39.222656 203.160156 38.832031 L 203.167969 38.859375 C 208.855469 38.480469 214.40625 37.367188 219.917969 36.054688 C 222.75 35.382812 225.570312 34.65625 228.394531 33.953125 C 229.417969 33.695312 230.441406 33.449219 231.464844 33.207031 C 232.605469 32.933594 233.742188 32.667969 234.886719 32.402344 C 236.027344 32.136719 237.171875 31.867188 238.3125 31.597656 C 243.347656 30.398438 248.359375 29.105469 253.242188 27.292969 C 254.09375 26.980469 254.96875 26.726562 255.859375 26.511719 C 258.25 25.945312 260.753906 25.675781 263.1875 25.296875 C 267.480469 24.628906 271.726562 23.78125 275.9375 22.777344 C 280.0625 21.796875 284.15625 20.671875 288.21875 19.429688 C 289.039062 19.175781 289.839844 18.832031 290.664062 18.632812 C 290.800781 18.601562 290.9375 18.574219 291.078125 18.550781 C 296.484375 17.648438 301.832031 16.476562 307.15625 15.210938 C 310.074219 14.515625 312.988281 13.792969 315.898438 13.070312 C 318.804688 12.347656 321.71875 11.625 324.636719 10.933594 C 328.035156 10.125 331.441406 9.355469 334.863281 8.671875 C 337.78125 8.085938 340.660156 7.054688 343.714844 7.679688 L 343.71875 7.679688 C 344.320312 7.496094 344.925781 7.335938 345.535156 7.191406 C 349.960938 6.136719 354.527344 6.050781 359.035156 5.625 C 362.507812 5.296875 364.421875 6.753906 364.949219 10.078125 C 365.632812 14.382812 366.074219 18.730469 366.507812 23.070312 C 366.640625 24.4375 366.472656 25.847656 366.328125 27.226562 C 366.175781 28.664062 365.535156 29.90625 364.308594 30.726562 C 363.882812 31.007812 363.449219 31.199219 363.003906 31.304688 C 362.140625 31.511719 361.242188 31.390625 360.332031 30.996094 C 359.113281 30.335938 357.863281 29.683594 356.5 30.007812 C 356.277344 30.058594 356.050781 30.136719 355.824219 30.246094 C 354.050781 31.09375 351.933594 31.425781 350.667969 33.078125 C 350.109375 33.808594 349.773438 34.882812 349.738281 35.816406 C 349.691406 37.1875 349.933594 38.582031 350.183594 39.945312 C 350.539062 41.902344 351.066406 43.835938 350.367188 45.820312 C 350.855469 47.84375 351.160156 49.875 350.601562 51.9375 C 351.976562 56.183594 351.933594 60.625 352.464844 64.988281 C 352.710938 66.136719 352.957031 67.285156 353.199219 68.433594 C 352.910156 68.921875 352.613281 69.414062 352.292969 69.886719 L 352.253906 69.84375 C 348.894531 69.75 345.613281 70.238281 342.351562 71.015625 C 342.289062 71.03125 342.226562 71.042969 342.164062 71.058594 C 340.808594 71.386719 339.449219 71.710938 338.09375 72.035156 C 335.660156 72.613281 333.226562 73.1875 330.792969 73.757812 C 328.363281 74.332031 325.933594 74.902344 323.503906 75.480469 C 318.441406 76.683594 313.378906 77.914062 308.335938 79.210938 C 305.285156 79.996094 302.238281 80.769531 299.175781 81.496094 C 296.804688 82.0625 294.425781 82.597656 292.035156 83.09375 C 290.929688 83.324219 289.828125 83.5625 288.730469 83.824219 C 285.554688 84.578125 282.425781 85.507812 279.410156 86.851562 C 278.097656 87.4375 276.683594 87.804688 275.265625 88.140625 C 275.070312 88.1875 274.875 88.234375 274.683594 88.277344 C 274.484375 88.324219 274.289062 88.371094 274.097656 88.417969 C 273.949219 88.453125 273.808594 88.484375 273.660156 88.523438 C 263.945312 90.890625 254.222656 93.214844 244.507812 95.578125 C 239.070312 96.898438 233.625 98.132812 228.417969 100.316406 C 226.964844 100.925781 225.429688 101.347656 223.875 101.71875 C 223.339844 101.84375 222.800781 101.964844 222.265625 102.085938 C 221.726562 102.207031 221.191406 102.328125 220.65625 102.457031 C 220.550781 102.484375 220.441406 102.507812 220.332031 102.535156 C 217.023438 103.339844 213.738281 104.160156 210.621094 105.589844 C 209.589844 106.0625 208.492188 106.453125 207.378906 106.71875 C 207.132812 106.777344 206.882812 106.828125 206.636719 106.875 C 204.585938 107.253906 202.550781 107.691406 200.53125 108.171875 C 192.449219 110.09375 184.566406 112.714844 176.632812 115.167969 C 174.195312 115.921875 171.714844 116.539062 169.230469 117.132812 C 168.632812 117.273438 168.035156 117.414062 167.4375 117.554688 C 166.839844 117.695312 166.246094 117.835938 165.652344 117.976562 C 164.660156 118.210938 163.667969 118.453125 162.679688 118.703125 C 162.195312 118.828125 161.710938 118.945312 161.222656 119.0625 C 160.304688 119.28125 159.382812 119.488281 158.460938 119.695312 C 157.542969 119.902344 156.621094 120.109375 155.703125 120.328125 C 152.777344 121.023438 149.882812 121.828125 147.117188 123.089844 C 146.8125 123.226562 146.503906 123.332031 146.191406 123.40625 C 145.148438 123.652344 144.066406 123.582031 142.984375 123.433594 C 142.921875 123.445312 142.863281 123.460938 142.800781 123.476562 C 139.183594 124.335938 135.679688 125.527344 132.164062 126.765625 C 127.671875 128.34375 122.960938 129.292969 118.332031 130.480469 C 112.9375 131.863281 107.527344 133.101562 102.34375 135.277344 C 100.957031 135.859375 99.503906 136.273438 98.023438 136.625 C 97.183594 136.824219 96.339844 137.003906 95.492188 137.183594 C 94.644531 137.363281 93.796875 137.542969 92.960938 137.742188 C 92.820312 137.777344 92.679688 137.808594 92.539062 137.84375 C 88.859375 138.753906 85.175781 139.609375 82.074219 142 C 81.304688 142.59375 80.34375 143.054688 79.402344 143.289062 C 73.554688 144.734375 68.089844 147.375 62.21875 148.769531 C 61.875 148.851562 61.53125 148.929688 61.183594 149.003906 C 60.605469 149.125 60.027344 149.253906 59.453125 149.390625 C 51.894531 151.1875 44.714844 154.234375 37.304688 156.535156 C 36.546875 156.769531 35.828125 157.136719 35.066406 157.355469 C 34.972656 157.382812 34.875 157.410156 34.78125 157.429688 " fill-opacity="1" fill-rule="nonzero"/></g></g></g></g></g></g></g></g></g><g mask="url(#3c6128f965)"><g transform="matrix(1, 0, 0, 1, 21, 92)"><g clip-path="url(#cbc8e17bfc)"><g clip-path="url(#a71f96ac4f)"><g clip-path="url(#6ee15f0b73)"><g clip-path="url(#c7ef0971bf)"><g clip-path="url(#a0e2fdd239)"><g clip-path="url(#1eebdb5e3a)"><g clip-path="url(#d0af094d0d)"><path fill="#ffe828" d="M 14.023438 58.910156 C 12.804688 58.882812 11.8125 58.40625 11.207031 57.277344 C 10.707031 56.347656 10.246094 55.394531 9.769531 54.453125 C 9.582031 52.976562 9.367188 51.507812 9.207031 50.027344 C 8.804688 46.328125 9.832031 44.625 13.605469 42.6875 C 14.667969 41.183594 14.632812 40.671875 13.433594 40.496094 C 12.230469 40.320312 11.023438 40.199219 9.816406 40.039062 C 8.125 39.816406 7.058594 38.839844 6.582031 37.273438 C 6.195312 35.988281 5.851562 34.683594 5.605469 33.367188 C 5.386719 32.195312 5.386719 30.980469 4.777344 29.902344 C 3.617188 29.097656 3.003906 27.996094 2.957031 26.601562 C 2.917969 25.59375 2.914062 24.582031 2.898438 23.570312 L 3.050781 23.464844 C 2.84375 19.460938 1.875 15.511719 2.222656 11.464844 C 2.351562 9.980469 2.234375 8.476562 3.261719 7.222656 L 3.269531 7.21875 C 4.746094 6.417969 6.289062 6.289062 7.847656 6.320312 C 8.316406 6.332031 8.789062 6.355469 9.261719 6.378906 C 9.734375 6.402344 10.203125 6.425781 10.675781 6.433594 C 10.976562 6.4375 11.277344 6.4375 11.578125 6.429688 C 14.757812 6.078125 17.925781 5.820312 21.109375 5.882812 C 22.980469 5.917969 24.855469 6.066406 26.738281 6.371094 C 27.378906 6.472656 28.03125 6.519531 28.691406 6.53125 C 30.324219 6.566406 31.992188 6.386719 33.632812 6.347656 C 44.449219 6.078125 55.257812 5.371094 66.085938 5.582031 C 67.398438 5.609375 68.710938 5.648438 70.023438 5.703125 C 70.199219 5.710938 70.371094 5.714844 70.542969 5.71875 C 71.914062 5.746094 73.261719 5.628906 74.527344 5.007812 C 76.230469 5.8125 78.0625 5.804688 79.886719 5.847656 C 81.707031 5.886719 83.53125 5.9375 85.351562 5.984375 C 88.566406 4.761719 92.007812 5.0625 95.324219 4.785156 C 97.480469 4.605469 99.652344 4.589844 101.828125 4.628906 C 104.09375 4.675781 106.363281 4.785156 108.621094 4.851562 C 109.765625 4.886719 110.894531 5.300781 112.027344 5.5625 C 112.015625 5.453125 111.980469 5.363281 111.976562 5.242188 C 112.4375 4.363281 113.0625 4.15625 113.746094 4.171875 C 114.078125 4.175781 114.425781 4.234375 114.773438 4.292969 C 115.117188 4.355469 115.464844 4.414062 115.796875 4.417969 C 116.257812 4.429688 116.695312 4.335938 117.070312 4.007812 C 122.378906 4.265625 127.699219 4.546875 133.003906 4.648438 C 134.390625 4.675781 135.78125 4.691406 137.164062 4.691406 C 144.015625 4.6875 150.875 4.765625 157.726562 4.730469 C 158.039062 4.730469 158.351562 4.734375 158.664062 4.738281 C 159.742188 4.761719 160.824219 4.820312 161.902344 4.863281 C 161.957031 4.542969 162.082031 4.25 162.347656 4.007812 L 162.347656 4.03125 C 166.660156 4.832031 171.011719 5.070312 175.371094 5.152344 C 177.613281 5.199219 179.855469 5.203125 182.09375 5.21875 C 182.90625 5.226562 183.714844 5.238281 184.523438 5.253906 C 185.425781 5.273438 186.328125 5.292969 187.230469 5.316406 C 188.132812 5.335938 189.035156 5.359375 189.9375 5.375 C 193.921875 5.453125 197.90625 5.457031 201.894531 5.058594 C 202.589844 4.988281 203.292969 4.96875 203.996094 4.980469 C 205.886719 5.019531 207.804688 5.292969 209.691406 5.480469 C 213.019531 5.804688 216.347656 5.988281 219.679688 6.054688 C 222.945312 6.117188 226.210938 6.066406 229.480469 5.929688 C 230.140625 5.898438 230.800781 5.796875 231.453125 5.808594 C 231.5625 5.8125 231.671875 5.816406 231.777344 5.828125 C 235.980469 6.191406 240.191406 6.347656 244.402344 6.429688 C 246.714844 6.476562 249.023438 6.5 251.332031 6.519531 C 253.636719 6.542969 255.949219 6.566406 258.257812 6.613281 C 260.945312 6.664062 263.628906 6.746094 266.316406 6.894531 C 268.601562 7.019531 270.945312 6.808594 273.101562 7.847656 L 273.105469 7.847656 C 273.589844 7.828125 274.070312 7.824219 274.550781 7.832031 C 278.054688 7.902344 281.472656 8.703125 284.917969 9.246094 C 287.566406 9.664062 288.714844 11.09375 288.46875 13.625 C 288.148438 16.90625 287.640625 20.171875 287.128906 23.433594 C 286.964844 24.457031 286.570312 25.457031 286.195312 26.441406 C 285.804688 27.464844 285.085938 28.25 284.015625 28.617188 C 283.644531 28.746094 283.285156 28.800781 282.933594 28.796875 C 282.25 28.78125 281.601562 28.523438 281 28.0625 C 280.21875 27.347656 279.414062 26.632812 278.335938 26.613281 C 278.160156 26.609375 277.976562 26.625 277.785156 26.660156 C 276.300781 26.945312 274.660156 26.785156 273.398438 27.753906 C 272.839844 28.183594 272.382812 28.90625 272.175781 29.582031 C 271.878906 30.578125 271.792969 31.644531 271.714844 32.691406 C 271.601562 34.191406 271.625 35.707031 270.722656 37.027344 C 270.695312 38.601562 270.53125 40.144531 269.71875 41.546875 C 269.929688 44.914062 269.039062 48.160156 268.59375 51.453125 C 268.558594 52.339844 268.519531 53.226562 268.480469 54.113281 C 268.171875 54.417969 267.855469 54.71875 267.527344 55.007812 L 267.507812 54.964844 C 265.019531 54.261719 262.476562 53.996094 259.898438 53.945312 C 259.847656 53.945312 259.800781 53.945312 259.75 53.945312 C 258.675781 53.925781 257.601562 53.90625 256.527344 53.886719 C 254.601562 53.847656 252.679688 53.808594 250.757812 53.765625 C 248.835938 53.722656 246.914062 53.683594 244.992188 53.644531 C 240.984375 53.566406 236.976562 53.503906 232.96875 53.5 C 230.542969 53.496094 228.121094 53.484375 225.703125 53.4375 C 223.824219 53.402344 221.949219 53.34375 220.070312 53.253906 C 219.203125 53.210938 218.335938 53.175781 217.464844 53.160156 C 214.957031 53.113281 212.445312 53.199219 209.9375 53.613281 C 208.847656 53.789062 207.722656 53.789062 206.597656 53.769531 C 206.445312 53.765625 206.292969 53.761719 206.140625 53.757812 C 205.984375 53.753906 205.832031 53.753906 205.675781 53.75 C 205.5625 53.746094 205.449219 53.746094 205.332031 53.742188 C 197.636719 53.636719 189.941406 53.492188 182.246094 53.382812 C 177.9375 53.320312 173.640625 53.191406 169.339844 53.800781 C 168.140625 53.972656 166.914062 53.988281 165.683594 53.964844 C 165.261719 53.957031 164.835938 53.945312 164.414062 53.929688 C 163.988281 53.917969 163.566406 53.90625 163.144531 53.898438 C 163.058594 53.894531 162.972656 53.894531 162.886719 53.894531 C 160.265625 53.855469 157.660156 53.832031 155.0625 54.289062 C 154.199219 54.441406 153.308594 54.515625 152.425781 54.5 C 152.234375 54.496094 152.039062 54.488281 151.84375 54.472656 C 150.242188 54.363281 148.640625 54.296875 147.042969 54.265625 C 140.652344 54.140625 134.269531 54.566406 127.882812 54.859375 C 125.921875 54.949219 123.957031 54.929688 121.988281 54.890625 C 121.515625 54.882812 121.046875 54.871094 120.574219 54.863281 C 120.101562 54.851562 119.628906 54.839844 119.160156 54.832031 C 118.375 54.816406 117.589844 54.804688 116.804688 54.800781 C 116.421875 54.800781 116.035156 54.792969 115.652344 54.785156 C 114.925781 54.773438 114.199219 54.75 113.472656 54.726562 C 112.746094 54.703125 112.019531 54.683594 111.292969 54.667969 C 108.976562 54.621094 106.667969 54.664062 104.363281 55.0625 C 104.109375 55.105469 103.859375 55.121094 103.609375 55.117188 C 102.785156 55.101562 101.992188 54.84375 101.214844 54.53125 C 101.167969 54.527344 101.117188 54.527344 101.070312 54.527344 C 98.207031 54.472656 95.367188 54.679688 92.507812 54.917969 C 88.859375 55.222656 85.160156 55.023438 81.484375 55.015625 C 77.199219 55.007812 72.929688 54.886719 68.644531 55.496094 C 67.5 55.660156 66.335938 55.6875 65.164062 55.664062 C 64.503906 55.652344 63.835938 55.621094 63.171875 55.59375 C 62.503906 55.566406 61.839844 55.535156 61.175781 55.523438 C 61.066406 55.519531 60.953125 55.519531 60.839844 55.519531 C 57.925781 55.488281 55.015625 55.414062 52.242188 56.578125 C 51.554688 56.863281 50.75 57.019531 50.003906 57.011719 C 45.367188 56.964844 40.785156 57.859375 36.144531 57.769531 C 35.871094 57.765625 35.597656 57.753906 35.324219 57.742188 C 34.871094 57.722656 34.414062 57.707031 33.960938 57.699219 C 27.980469 57.582031 22.042969 58.449219 16.078125 58.730469 C 15.46875 58.761719 14.863281 58.890625 14.25 58.90625 C 14.175781 58.910156 14.101562 58.910156 14.023438 58.910156 " fill-opacity="1" fill-rule="nonzero"/></g></g></g></g></g></g></g></g></g><g clip-path="url(#f88d646fbc)"><g mask="url(#7c3b017ae0)"><g transform="matrix(1, 0, 0, 1, 27, 92)"><g clip-path="url(#027973656c)"><g clip-path="url(#960ba54e4d)"><g clip-path="url(#eaf5a35be2)"><g clip-path="url(#7099e165de)"><g clip-path="url(#ef662d4373)"><g clip-path="url(#cbe79f3796)"><g clip-path="url(#7f75ce9d79)"><path fill="#ffe828" d="M 31.488281 142.234375 C 30.394531 142.632812 29.34375 142.539062 28.410156 141.730469 C 27.644531 141.058594 26.902344 140.359375 26.152344 139.671875 C 25.472656 138.402344 24.773438 137.144531 24.117188 135.867188 C 22.472656 132.660156 22.796875 130.773438 25.484375 127.726562 C 25.90625 126.003906 25.699219 125.554688 24.570312 125.808594 C 23.4375 126.0625 22.320312 126.367188 21.191406 126.632812 C 19.605469 127.011719 18.316406 126.496094 17.347656 125.246094 C 16.554688 124.21875 15.796875 123.15625 15.121094 122.050781 C 14.519531 121.066406 14.097656 119.96875 13.179688 119.207031 L 13.179688 119.203125 L 13.179688 119.207031 C 11.867188 118.875 10.9375 118.089844 10.414062 116.847656 C 10.03125 115.949219 9.675781 115.035156 9.308594 114.128906 L 9.40625 113.980469 C 7.835938 110.433594 5.601562 107.203125 4.503906 103.425781 C 4.101562 102.039062 3.476562 100.722656 3.957031 99.238281 L 3.964844 99.230469 L 3.960938 99.230469 C 5 98 6.332031 97.359375 7.730469 96.851562 C 8.152344 96.699219 8.578125 96.558594 9.007812 96.417969 C 9.4375 96.277344 9.863281 96.136719 10.289062 95.980469 C 10.558594 95.882812 10.828125 95.78125 11.089844 95.667969 C 13.800781 94.261719 16.535156 92.941406 19.390625 91.90625 C 21.070312 91.300781 22.792969 90.789062 24.574219 90.417969 C 25.183594 90.289062 25.78125 90.109375 26.371094 89.894531 C 27.835938 89.363281 29.261719 88.628906 30.707031 88.03125 C 40.253906 84.078125 49.636719 79.734375 59.355469 76.214844 C 60.53125 75.785156 61.71875 75.371094 62.90625 74.972656 C 63.0625 74.917969 63.21875 74.863281 63.375 74.808594 C 64.605469 74.363281 65.765625 73.792969 66.675781 72.796875 C 68.472656 72.941406 70.101562 72.308594 71.742188 71.71875 C 73.378906 71.132812 75.019531 70.550781 76.660156 69.96875 L 76.65625 69.96875 C 79.097656 67.761719 82.265625 66.855469 85.125 65.46875 C 86.984375 64.566406 88.914062 63.804688 90.867188 63.09375 C 92.898438 62.359375 94.957031 61.679688 96.992188 60.964844 C 98.023438 60.605469 99.175781 60.589844 100.277344 60.441406 C 100.226562 60.34375 100.164062 60.277344 100.117188 60.167969 C 100.222656 59.21875 100.710938 58.816406 101.324219 58.59375 C 101.621094 58.484375 101.949219 58.417969 102.28125 58.355469 C 102.609375 58.289062 102.9375 58.222656 103.238281 58.113281 C 103.652344 57.964844 104.007812 57.734375 104.226562 57.304688 C 109.046875 55.71875 113.882812 54.148438 118.644531 52.421875 C 119.890625 51.972656 121.132812 51.507812 122.367188 51.03125 C 128.46875 48.679688 134.605469 46.402344 140.699219 44.019531 C 140.976562 43.910156 141.253906 43.804688 141.535156 43.703125 C 142.503906 43.355469 143.488281 43.035156 144.464844 42.703125 C 144.402344 42.394531 144.410156 42.089844 144.5625 41.78125 L 144.570312 41.800781 C 148.691406 41.046875 152.652344 39.769531 156.5625 38.351562 C 158.574219 37.621094 160.574219 36.855469 162.574219 36.105469 C 163.300781 35.832031 164.027344 35.566406 164.753906 35.304688 C 165.5625 35.007812 166.375 34.71875 167.183594 34.429688 C 167.996094 34.140625 168.808594 33.847656 169.617188 33.554688 C 173.191406 32.261719 176.742188 30.898438 180.15625 29.167969 C 180.753906 28.867188 181.371094 28.605469 182.003906 28.378906 C 183.703125 27.761719 185.503906 27.355469 187.25 26.875 C 190.328125 26.027344 193.355469 25.050781 196.347656 23.96875 C 199.277344 22.90625 202.171875 21.742188 205.035156 20.496094 C 205.613281 20.242188 206.167969 19.921875 206.753906 19.710938 C 206.847656 19.675781 206.949219 19.644531 207.046875 19.613281 C 210.917969 18.503906 214.722656 17.199219 218.503906 15.832031 C 220.578125 15.078125 222.644531 14.308594 224.707031 13.535156 C 226.769531 12.765625 228.835938 11.996094 230.90625 11.246094 C 233.320312 10.371094 235.742188 9.523438 238.1875 8.734375 C 240.265625 8.066406 242.28125 7.070312 244.5625 7.269531 L 244.566406 7.269531 C 244.988281 7.085938 245.417969 6.914062 245.847656 6.757812 C 248.992188 5.621094 252.316406 5.171875 255.570312 4.480469 C 258.078125 3.949219 259.597656 4.847656 260.257812 7.21875 C 261.113281 10.292969 261.792969 13.417969 262.46875 16.539062 C 262.679688 17.519531 262.671875 18.558594 262.679688 19.574219 C 262.6875 20.632812 262.324219 21.589844 261.496094 22.289062 C 261.210938 22.53125 260.910156 22.707031 260.59375 22.820312 C 259.976562 23.042969 259.3125 23.03125 258.617188 22.820312 C 257.671875 22.445312 256.707031 22.074219 255.738281 22.425781 C 255.582031 22.480469 255.421875 22.558594 255.265625 22.65625 C 254.039062 23.421875 252.523438 23.84375 251.734375 25.152344 C 251.386719 25.730469 251.230469 26.539062 251.285156 27.222656 C 251.363281 28.222656 251.65625 29.214844 251.949219 30.1875 C 252.371094 31.578125 252.917969 32.941406 252.570312 34.445312 C 253.09375 35.875 253.484375 37.324219 253.25 38.871094 C 254.601562 41.839844 254.9375 45.078125 255.683594 48.207031 C 255.960938 49.019531 256.234375 49.832031 256.507812 50.648438 C 256.335938 51.027344 256.160156 51.410156 255.964844 51.78125 L 255.933594 51.753906 C 253.472656 51.96875 251.117188 52.601562 248.804688 53.441406 C 248.757812 53.457031 248.714844 53.472656 248.671875 53.488281 C 247.707031 53.839844 246.742188 54.191406 245.78125 54.542969 C 244.050781 55.167969 242.324219 55.789062 240.597656 56.410156 C 238.871094 57.03125 237.144531 57.652344 235.417969 58.277344 C 231.824219 59.582031 228.230469 60.902344 224.65625 62.269531 C 222.496094 63.101562 220.335938 63.917969 218.164062 64.707031 C 216.476562 65.316406 214.785156 65.910156 213.082031 66.46875 C 212.292969 66.730469 211.511719 66.996094 210.730469 67.28125 C 208.476562 68.097656 206.269531 69.039062 204.179688 70.269531 C 203.269531 70.804688 202.269531 71.191406 201.261719 71.554688 C 201.125 71.605469 200.984375 71.65625 200.847656 71.703125 C 200.707031 71.753906 200.570312 71.804688 200.433594 71.855469 C 200.328125 71.890625 200.226562 71.929688 200.121094 71.96875 C 193.230469 74.511719 186.324219 77.019531 179.429688 79.558594 C 175.570312 80.980469 171.699219 82.335938 168.082031 84.363281 C 167.070312 84.929688 165.984375 85.363281 164.878906 85.765625 C 164.5 85.902344 164.117188 86.035156 163.734375 86.167969 C 163.351562 86.304688 162.972656 86.4375 162.59375 86.574219 C 162.515625 86.601562 162.4375 86.628906 162.363281 86.65625 C 160.015625 87.523438 157.683594 88.398438 155.527344 89.699219 C 154.8125 90.128906 154.042969 90.507812 153.253906 90.792969 C 153.078125 90.855469 152.902344 90.914062 152.726562 90.96875 C 151.261719 91.417969 149.8125 91.910156 148.375 92.429688 C 142.640625 94.507812 137.101562 97.078125 131.515625 99.53125 C 129.796875 100.285156 128.042969 100.945312 126.277344 101.585938 C 125.851562 101.738281 125.425781 101.890625 125.003906 102.042969 C 124.578125 102.195312 124.15625 102.347656 123.734375 102.5 C 123.027344 102.757812 122.324219 103.015625 121.625 103.28125 C 121.28125 103.410156 120.9375 103.539062 120.59375 103.664062 C 119.941406 103.898438 119.285156 104.128906 118.628906 104.355469 C 117.976562 104.585938 117.320312 104.816406 116.667969 105.050781 C 114.589844 105.804688 112.542969 106.632812 110.628906 107.78125 C 110.417969 107.910156 110.203125 108.011719 109.980469 108.089844 C 109.242188 108.359375 108.445312 108.398438 107.644531 108.382812 C 107.597656 108.398438 107.554688 108.414062 107.511719 108.429688 C 104.941406 109.359375 102.484375 110.519531 100.019531 111.71875 C 96.875 113.246094 93.511719 114.332031 90.234375 115.585938 C 86.414062 117.046875 82.566406 118.402344 78.960938 120.425781 C 78 120.964844 76.972656 121.386719 75.921875 121.769531 C 75.328125 121.984375 74.722656 122.1875 74.121094 122.390625 C 73.515625 122.589844 72.914062 122.792969 72.320312 123.007812 C 72.21875 123.042969 72.117188 123.082031 72.019531 123.117188 C 69.410156 124.089844 66.792969 125.023438 64.726562 127.023438 C 64.214844 127.519531 63.550781 127.9375 62.882812 128.1875 C 58.734375 129.730469 54.964844 132.113281 50.796875 133.621094 C 50.554688 133.710938 50.304688 133.796875 50.058594 133.878906 C 49.648438 134.015625 49.238281 134.160156 48.832031 134.304688 C 43.460938 136.25 38.472656 139.070312 33.257812 141.371094 C 32.722656 141.605469 32.230469 141.933594 31.691406 142.15625 C 31.625 142.183594 31.554688 142.210938 31.488281 142.234375 " fill-opacity="1" fill-rule="nonzero"/></g></g></g></g></g></g></g></g></g></g></g></g></g></svg>