<svg xmlns="http://www.w3.org/2000/svg" xmlns:xlink="http://www.w3.org/1999/xlink" width="500" zoomAndPan="magnify" viewBox="0 0 375 374.999991" height="500" preserveAspectRatio="xMidYMid meet" version="1.0"><defs><filter x="0%" y="0%" width="100%" height="100%" id="b24c0416d5"><feColorMatrix values="0 0 0 0 1 0 0 0 0 1 0 0 0 0 1 0 0 0 1 0" color-interpolation-filters="sRGB"/></filter><mask id="10d07eaa04"><g filter="url(#b24c0416d5)"><rect x="-37.5" width="450" fill="#000000" y="-37.499999" height="449.999989" fill-opacity="0.31"/></g></mask><clipPath id="137f22f4a6"><rect x="0" width="375" y="0" height="250"/></clipPath></defs><g mask="url(#10d07eaa04)"><g transform="matrix(1, 0, 0, 1, 0, 4)"><g clip-path="url(#137f22f4a6)"><path fill="#29abe2" d="M 361.820312 246.074219 C 354.59375 246.074219 347.023438 242.839844 341.933594 237.847656 C 333.265625 229.34375 329.585938 217.261719 326.5625 205.621094 L 326.054688 203.640625 C 323.226562 192.6875 320.304688 181.363281 313.335938 172.476562 C 303.726562 160.222656 286.179688 153.449219 267.53125 154.808594 C 250 156.085938 233.320312 163.722656 219.308594 171.023438 C 216.066406 172.714844 212.777344 174.476562 209.601562 176.191406 C 197.917969 182.476562 185.835938 188.972656 173.042969 193.175781 C 164.378906 196.023438 155.75 197.253906 148.09375 196.730469 C 138.949219 196.109375 131.511719 193.058594 125.988281 187.675781 C 116.773438 178.695312 113.644531 163.867188 116.695312 143.609375 C 117.863281 135.835938 119.5625 128.023438 121.203125 120.464844 C 123.410156 110.300781 125.691406 99.792969 126.714844 89.277344 C 128.179688 74.179688 127.28125 52.828125 114.703125 36.871094 C 103.675781 22.875 84.246094 14.667969 62.675781 14.90625 C 44.285156 15.105469 26.738281 20.5625 6.050781 28.691406 L 5.890625 28.292969 C 26.621094 20.144531 44.210938 14.675781 62.671875 14.472656 C 84.34375 14.230469 103.933594 22.503906 115.042969 36.605469 C 127.710938 52.679688 128.613281 74.140625 127.144531 89.320312 C 126.121094 99.855469 123.839844 110.378906 121.628906 120.554688 C 119.992188 128.105469 118.292969 135.914062 117.128906 143.667969 C 114.105469 163.785156 117.1875 178.488281 126.296875 187.367188 C 136.253906 197.070312 153.679688 199.089844 172.914062 192.769531 C 185.671875 188.574219 197.738281 182.085938 209.402344 175.8125 C 212.578125 174.101562 215.867188 172.332031 219.117188 170.644531 C 233.164062 163.320312 249.898438 155.664062 267.503906 154.378906 C 286.289062 153.011719 303.980469 159.84375 313.679688 172.207031 C 320.703125 181.164062 323.636719 192.535156 326.472656 203.535156 L 326.984375 205.511719 C 329.992188 217.09375 333.644531 229.113281 342.238281 237.539062 C 350.523438 245.667969 365.464844 249.070312 374.503906 241.179688 L 374.785156 241.503906 C 371.136719 244.683594 366.550781 246.070312 361.824219 246.074219 Z M 361.820312 246.074219 " fill-opacity="1" fill-rule="nonzero"/><path fill="#29abe2" d="M 357.816406 245.328125 C 350.664062 245.328125 343.253906 242.171875 338.214844 237.449219 C 329.523438 229.304688 325.613281 217.6875 322.347656 206.492188 C 322.132812 205.761719 321.921875 205.03125 321.710938 204.296875 C 319.179688 195.546875 316.5625 186.496094 311.75 178.746094 C 310.78125 177.1875 309.734375 175.699219 308.644531 174.335938 C 298.964844 162.234375 282.207031 155.453125 263.820312 156.207031 C 247.878906 156.855469 233.191406 162.6875 222.171875 167.703125 C 220.613281 168.410156 219.011719 169.15625 217.285156 169.980469 C 214.097656 171.503906 210.878906 173.097656 207.761719 174.636719 C 196.6875 180.121094 185.234375 185.78125 173.128906 189.292969 C 164.226562 191.875 142.007812 196.363281 128.121094 182.335938 C 127.117188 181.320312 126.167969 180.21875 125.308594 179.058594 C 118.628906 170.046875 116.347656 156.550781 118.519531 138.945312 C 119.433594 131.539062 120.800781 124.109375 122.125 116.929688 C 123.984375 106.835938 125.90625 96.398438 126.558594 86.007812 C 127.414062 72.515625 125.847656 60.523438 121.917969 50.347656 C 119.761719 44.769531 116.867188 39.757812 113.316406 35.464844 C 102.222656 22.027344 82.949219 14.125 61.746094 14.351562 C 43.605469 14.535156 26.253906 19.753906 5.769531 27.535156 L 5.617188 27.136719 C 26.140625 19.335938 43.535156 14.105469 61.742188 13.917969 C 83.050781 13.691406 102.472656 21.65625 113.648438 35.1875 C 117.222656 39.523438 120.140625 44.570312 122.316406 50.195312 C 126.273438 60.421875 127.84375 72.484375 126.988281 86.035156 C 126.332031 96.453125 124.40625 106.898438 122.542969 117.007812 C 121.222656 124.183594 119.855469 131.605469 118.945312 138.996094 C 116.785156 156.484375 119.046875 169.878906 125.652344 178.800781 C 126.5 179.941406 127.429688 181.03125 128.421875 182.03125 C 142.144531 195.894531 164.171875 191.441406 173.003906 188.878906 C 185.078125 185.378906 196.511719 179.71875 207.570312 174.246094 C 210.683594 172.707031 213.902344 171.113281 217.097656 169.585938 C 218.828125 168.761719 220.425781 168.011719 221.992188 167.300781 C 233.042969 162.277344 247.785156 156.421875 263.800781 155.765625 C 272.382812 155.417969 280.972656 156.773438 288.644531 159.691406 C 296.960938 162.851562 303.988281 167.824219 308.976562 174.058594 C 310.074219 175.433594 311.132812 176.933594 312.109375 178.507812 C 316.945312 186.304688 319.578125 195.382812 322.117188 204.160156 C 322.328125 204.898438 322.542969 205.628906 322.753906 206.359375 C 326 217.503906 329.890625 229.054688 338.5 237.121094 C 346.6875 244.804688 361.242188 248.28125 370.460938 240.511719 L 370.738281 240.84375 C 367.023438 243.96875 362.46875 245.316406 357.804688 245.316406 Z M 357.816406 245.328125 " fill-opacity="1" fill-rule="nonzero"/><path fill="#29abe2" d="M 353.75 244.519531 C 352.660156 244.519531 351.546875 244.449219 350.417969 244.304688 C 344.617188 243.5625 338.8125 240.917969 334.488281 237.058594 C 325.777344 229.273438 321.632812 218.121094 318.128906 207.367188 C 317.867188 206.5625 317.605469 205.75 317.34375 204.929688 C 314.648438 196.589844 311.863281 187.964844 307.066406 180.511719 C 306.085938 178.988281 305.039062 177.539062 303.953125 176.207031 C 294.433594 164.546875 278.238281 157.613281 260.566406 157.613281 C 260.414062 157.613281 260.265625 157.613281 260.109375 157.613281 C 244.648438 157.714844 230.515625 162.679688 219.9375 166.992188 C 218.449219 167.597656 216.921875 168.238281 215.257812 168.953125 C 212.144531 170.289062 209.011719 171.695312 205.984375 173.050781 C 195.5 177.746094 184.660156 182.59375 173.210938 185.425781 C 164.710938 187.523438 143.507812 190.902344 130.253906 177.011719 C 129.289062 175.996094 128.371094 174.894531 127.539062 173.742188 C 121.03125 164.722656 118.675781 151.820312 120.339844 134.296875 C 121.011719 127.296875 122.058594 120.289062 123.074219 113.515625 C 124.578125 103.457031 126.132812 93.054688 126.414062 82.753906 C 126.769531 69.6875 124.859375 58.117188 120.738281 48.367188 C 118.46875 43 115.515625 38.195312 111.941406 34.070312 C 100.773438 21.191406 81.660156 13.59375 60.820312 13.808594 C 42.9375 13.976562 25.773438 18.957031 5.5 26.398438 L 5.355469 25.992188 C 25.667969 18.542969 42.875 13.546875 60.816406 13.378906 C 70.675781 13.296875 80.453125 14.949219 89.082031 18.175781 C 98.570312 21.730469 106.367188 26.980469 112.269531 33.789062 C 115.871094 37.945312 118.851562 42.789062 121.140625 48.195312 C 125.285156 58.003906 127.207031 69.632812 126.847656 82.761719 C 126.566406 93.089844 125.007812 103.507812 123.5 113.578125 C 122.484375 120.34375 121.441406 127.34375 120.769531 134.335938 C 119.113281 151.75 121.445312 164.558594 127.890625 173.488281 C 128.710938 174.628906 129.613281 175.710938 130.570312 176.714844 C 143.671875 190.441406 164.683594 187.085938 173.117188 185.007812 C 184.527344 182.1875 195.347656 177.339844 205.816406 172.65625 C 208.84375 171.296875 211.980469 169.894531 215.097656 168.554688 C 216.761719 167.839844 218.296875 167.195312 219.78125 166.589844 C 230.402344 162.257812 244.578125 157.28125 260.113281 157.175781 C 278.097656 157.0625 294.609375 164.066406 304.289062 175.925781 C 305.390625 177.273438 306.449219 178.734375 307.4375 180.269531 C 312.261719 187.773438 315.054688 196.425781 317.753906 204.792969 C 318.015625 205.605469 318.277344 206.417969 318.542969 207.226562 C 322.023438 217.925781 326.148438 229.015625 334.78125 236.730469 C 342.914062 244.003906 357.332031 247.273438 366.441406 239.878906 L 366.710938 240.210938 C 363.234375 243.039062 358.722656 244.519531 353.753906 244.519531 Z M 353.75 244.519531 " fill-opacity="1" fill-rule="nonzero"/><path fill="#29abe2" d="M 349.8125 243.730469 C 342.917969 243.730469 335.796875 240.925781 330.773438 236.652344 C 322.03125 229.222656 317.652344 218.539062 313.914062 208.234375 C 313.589844 207.339844 313.265625 206.441406 312.941406 205.539062 C 310.097656 197.613281 307.15625 189.417969 302.386719 182.261719 C 301.402344 180.777344 300.351562 179.367188 299.261719 178.058594 C 289.75 166.636719 273.722656 159.511719 256.402344 159 C 241.4375 158.558594 227.859375 162.652344 217.707031 166.261719 C 216.285156 166.769531 214.824219 167.308594 213.238281 167.90625 C 210.226562 169.042969 207.195312 170.242188 204.269531 171.398438 C 194.359375 175.320312 184.109375 179.375 173.300781 181.535156 C 165.730469 183.039062 158.289062 183.191406 151.789062 181.976562 C 143.832031 180.488281 137.308594 177.019531 132.398438 171.667969 C 131.464844 170.652344 130.585938 169.554688 129.777344 168.40625 C 123.53125 159.511719 121.042969 146.828125 122.171875 129.625 C 122.605469 123.074219 123.347656 116.535156 124.066406 110.207031 C 125.261719 99.671875 126.390625 89.722656 126.269531 79.472656 C 126.132812 66.832031 123.875 55.6875 119.5625 46.355469 C 117.1875 41.207031 114.160156 36.597656 110.566406 32.652344 C 99.300781 20.292969 81.132812 13.234375 60.644531 13.234375 C 60.394531 13.234375 60.144531 13.234375 59.898438 13.234375 C 40.304688 13.398438 21.40625 19.507812 5.230469 25.222656 L 5.085938 24.820312 C 21.296875 19.097656 40.230469 12.972656 59.890625 12.804688 C 80.820312 12.628906 99.398438 19.757812 110.886719 32.359375 C 114.507812 36.335938 117.558594 40.984375 119.953125 46.175781 C 124.289062 55.5625 126.558594 66.765625 126.699219 79.464844 C 126.816406 89.742188 125.632812 100.167969 124.492188 110.25 C 123.773438 116.570312 123.035156 123.105469 122.597656 129.648438 C 121.480469 146.746094 123.941406 159.34375 130.125 168.152344 C 130.921875 169.285156 131.792969 170.367188 132.710938 171.371094 C 145.183594 184.957031 165.191406 182.707031 173.214844 181.109375 C 183.984375 178.957031 194.210938 174.910156 204.105469 170.996094 C 207.035156 169.835938 210.066406 168.640625 213.082031 167.496094 C 214.667969 166.898438 216.132812 166.355469 217.558594 165.855469 C 227.75 162.226562 241.375 158.125 256.414062 158.566406 C 273.855469 159.082031 289.996094 166.261719 299.59375 177.78125 C 300.691406 179.097656 301.75 180.523438 302.75 182.015625 C 307.546875 189.21875 310.496094 197.4375 313.351562 205.386719 C 313.671875 206.289062 313.996094 207.1875 314.320312 208.078125 C 318.039062 218.332031 322.390625 228.957031 331.050781 236.316406 C 339.304688 243.339844 353.292969 246.339844 362.410156 239.214844 L 362.675781 239.554688 C 358.949219 242.464844 354.433594 243.722656 349.816406 243.722656 Z M 349.8125 243.730469 " fill-opacity="1" fill-rule="nonzero"/><path fill="#29abe2" d="M 345.726562 242.929688 C 344.730469 242.929688 343.710938 242.875 342.683594 242.757812 C 337.082031 242.125 331.382812 239.757812 327.046875 236.261719 C 318.265625 229.183594 313.660156 218.96875 309.691406 209.109375 C 309.292969 208.121094 308.898438 207.125 308.496094 206.121094 C 305.515625 198.625 302.429688 190.867188 297.699219 184.023438 C 296.703125 182.578125 295.644531 181.199219 294.566406 179.929688 C 285.136719 168.851562 269.480469 161.554688 252.683594 160.40625 C 238.230469 159.417969 225.203125 162.636719 215.464844 165.550781 C 214.09375 165.960938 212.695312 166.394531 211.199219 166.871094 C 208.308594 167.800781 205.410156 168.777344 202.609375 169.726562 C 192.816406 173.039062 183.566406 176.167969 173.375 177.664062 C 163.824219 179.058594 146.078125 179.4375 134.519531 166.339844 C 133.625 165.324219 132.773438 164.234375 131.996094 163.09375 C 125.933594 154.214844 123.390625 142.101562 123.980469 124.980469 C 124.195312 118.929688 124.648438 112.90625 125.09375 107.082031 C 125.890625 96.480469 126.648438 86.46875 126.113281 76.222656 C 125.476562 64.011719 122.871094 53.292969 118.371094 44.378906 C 115.886719 39.449219 112.792969 35.039062 109.175781 31.265625 C 97.695312 19.316406 79.390625 12.546875 58.957031 12.703125 C 39.652344 12.84375 20.953125 18.652344 4.945312 24.089844 L 4.808594 23.679688 C 20.851562 18.238281 39.582031 12.414062 58.957031 12.273438 C 79.527344 12.121094 97.933594 18.933594 109.488281 30.96875 C 113.136719 34.769531 116.253906 39.21875 118.757812 44.183594 C 123.285156 53.15625 125.90625 63.929688 126.542969 76.203125 C 127.082031 86.476562 126.320312 96.5 125.523438 107.113281 C 125.085938 112.9375 124.628906 118.960938 124.410156 124.996094 C 123.820312 142.027344 126.34375 154.054688 132.347656 162.851562 C 133.117188 163.980469 133.953125 165.054688 134.839844 166.058594 C 146.261719 179.003906 163.84375 178.628906 173.308594 177.242188 C 183.464844 175.75 192.699219 172.628906 202.472656 169.328125 C 205.273438 168.378906 208.175781 167.402344 211.066406 166.472656 C 212.566406 165.992188 213.964844 165.5625 215.339844 165.148438 C 225.109375 162.226562 238.1875 158.996094 252.714844 159.984375 C 269.625 161.136719 285.390625 168.492188 294.890625 179.660156 C 295.984375 180.941406 297.046875 182.328125 298.054688 183.785156 C 302.8125 190.671875 305.90625 198.449219 308.898438 205.972656 C 309.296875 206.972656 309.691406 207.964844 310.09375 208.960938 C 314.039062 218.761719 318.613281 228.921875 327.316406 235.933594 C 335.398438 242.457031 349.03125 245.601562 358.375 238.582031 L 358.632812 238.925781 C 355.132812 241.554688 350.632812 242.941406 345.726562 242.941406 Z M 345.726562 242.929688 " fill-opacity="1" fill-rule="nonzero"/><path fill="#29abe2" d="M 341.824219 242.136719 C 335.078125 242.136719 328.203125 239.585938 323.328125 235.867188 C 314.5 229.136719 309.488281 218.976562 305.480469 209.984375 C 304.996094 208.890625 304.511719 207.785156 304.019531 206.675781 C 300.914062 199.609375 297.703125 192.304688 293.023438 185.78125 C 292.011719 184.371094 290.957031 183.03125 289.878906 181.792969 C 280.542969 171.058594 265.253906 163.585938 248.972656 161.804688 C 235.058594 160.277344 222.5625 162.621094 213.230469 164.835938 C 211.929688 165.144531 210.601562 165.472656 209.175781 165.835938 C 206.441406 166.542969 203.710938 167.289062 201.070312 168.011719 C 191.820312 170.546875 183.078125 172.945312 173.460938 173.78125 C 164.414062 174.558594 147.605469 173.933594 136.660156 161 C 135.800781 159.988281 134.984375 158.898438 134.230469 157.761719 C 126.636719 146.296875 125.785156 130.898438 125.8125 120.3125 C 125.832031 114.839844 126.03125 109.394531 126.21875 104.125 C 126.605469 93.390625 126.972656 83.25 125.972656 72.949219 C 124.84375 61.171875 121.890625 50.882812 117.203125 42.375 C 114.613281 37.660156 111.449219 33.453125 107.808594 29.855469 C 96.261719 18.46875 78.105469 12.003906 58.035156 12.144531 C 39.015625 12.269531 20.523438 17.777344 4.679688 22.925781 L 4.546875 22.519531 C 20.421875 17.355469 38.953125 11.835938 58.03125 11.714844 C 78.238281 11.59375 96.480469 18.082031 108.109375 29.546875 C 111.78125 33.171875 114.964844 37.421875 117.578125 42.167969 C 122.289062 50.726562 125.261719 61.070312 126.398438 72.90625 C 127.402344 83.234375 127.035156 93.390625 126.648438 104.144531 C 126.460938 109.40625 126.261719 114.847656 126.242188 120.316406 C 126.21875 130.847656 127.058594 146.15625 134.589844 157.53125 C 135.332031 158.652344 136.140625 159.726562 136.992188 160.722656 C 147.8125 173.511719 164.464844 174.128906 173.425781 173.355469 C 183.003906 172.523438 191.722656 170.132812 200.960938 167.597656 C 203.601562 166.871094 206.335938 166.125 209.074219 165.417969 C 210.503906 165.054688 211.832031 164.722656 213.132812 164.417969 C 222.503906 162.199219 235.046875 159.847656 249.027344 161.378906 C 265.40625 163.171875 280.800781 170.699219 290.203125 181.511719 C 291.292969 182.761719 292.355469 184.113281 293.375 185.53125 C 298.082031 192.089844 301.300781 199.417969 304.414062 206.503906 C 304.902344 207.609375 305.386719 208.714844 305.871094 209.808594 C 309.859375 218.753906 314.84375 228.851562 323.589844 235.523438 C 331.613281 241.644531 345.117188 244.566406 354.34375 237.921875 L 354.59375 238.269531 C 350.820312 240.988281 346.351562 242.132812 341.824219 242.132812 Z M 341.824219 242.136719 " fill-opacity="1" fill-rule="nonzero"/><path fill="#29abe2" d="M 337.757812 241.375 C 331.1875 241.375 324.519531 239 319.605469 235.464844 C 310.722656 229.082031 305.480469 219.417969 301.261719 210.855469 C 300.664062 209.648438 300.070312 208.425781 299.476562 207.195312 C 296.269531 200.570312 292.945312 193.722656 288.339844 187.539062 C 287.320312 186.171875 286.257812 184.867188 285.183594 183.652344 C 275.8125 173.117188 261.261719 165.660156 245.261719 163.199219 C 231.917969 161.144531 219.9375 162.613281 210.988281 164.117188 C 209.769531 164.324219 208.511719 164.546875 207.144531 164.800781 C 204.609375 165.273438 202.082031 165.785156 199.640625 166.277344 C 190.886719 168.050781 182.617188 169.722656 173.535156 169.902344 C 163.097656 170.089844 148.605469 167.78125 138.789062 155.664062 C 137.96875 154.652344 137.179688 153.570312 136.457031 152.4375 C 129.3125 141.316406 127.984375 126.9375 127.628906 115.65625 C 127.488281 110.847656 127.460938 106.0625 127.433594 101.429688 C 127.378906 90.46875 127.324219 80.109375 125.820312 69.6875 C 124.191406 58.347656 120.894531 48.488281 116.015625 40.378906 C 113.316406 35.886719 110.089844 31.871094 106.425781 28.449219 C 94.914062 17.71875 77.140625 11.589844 57.613281 11.589844 C 57.441406 11.589844 57.273438 11.589844 57.101562 11.589844 C 38.375 11.691406 20.082031 16.898438 4.398438 21.773438 L 4.269531 21.363281 C 19.976562 16.476562 38.3125 11.261719 57.097656 11.160156 C 57.269531 11.160156 57.441406 11.160156 57.609375 11.160156 C 77.25 11.160156 95.121094 17.332031 106.710938 28.132812 C 110.410156 31.582031 113.660156 35.628906 116.382812 40.15625 C 121.289062 48.3125 124.605469 58.226562 126.242188 69.625 C 127.75 80.074219 127.804688 90.445312 127.859375 101.425781 C 127.886719 106.050781 127.910156 110.832031 128.054688 115.640625 C 128.410156 126.867188 129.726562 141.171875 136.8125 152.203125 C 137.53125 153.320312 138.308594 154.390625 139.121094 155.390625 C 148.828125 167.371094 163.179688 169.664062 173.523438 169.46875 C 182.566406 169.289062 190.816406 167.621094 199.554688 165.855469 C 202 165.359375 204.527344 164.847656 207.0625 164.375 C 208.433594 164.121094 209.691406 163.898438 210.917969 163.691406 C 219.894531 162.183594 231.921875 160.710938 245.324219 162.773438 C 261.425781 165.25 276.070312 172.753906 285.507812 183.367188 C 286.589844 184.585938 287.660156 185.902344 288.6875 187.277344 C 293.320312 193.496094 296.644531 200.367188 299.867188 207.003906 C 300.460938 208.230469 301.054688 209.449219 301.652344 210.65625 C 305.847656 219.171875 311.0625 228.785156 319.863281 235.109375 C 328.027344 240.988281 341.105469 243.613281 350.316406 237.261719 L 350.5625 237.617188 C 346.746094 240.246094 342.277344 241.363281 337.761719 241.363281 Z M 337.757812 241.375 " fill-opacity="1" fill-rule="nonzero"/><path fill="#29abe2" d="M 333.761719 240.539062 C 327.296875 240.539062 320.734375 238.347656 315.890625 235.066406 C 306.941406 229.019531 301.472656 219.851562 297.050781 211.722656 C 296.320312 210.386719 295.597656 209.03125 294.871094 207.671875 C 291.578125 201.5 288.175781 195.125 283.664062 189.292969 C 282.636719 187.964844 281.574219 186.699219 280.5 185.515625 C 271.238281 175.339844 257.046875 167.714844 241.554688 164.597656 C 228.824219 162.03125 217.335938 162.609375 208.75 163.394531 C 207.523438 163.507812 206.308594 163.628906 205.109375 163.753906 C 202.835938 164 200.578125 164.277344 198.390625 164.542969 C 190.074219 165.550781 182.222656 166.507812 173.609375 166.015625 C 159.535156 165.191406 148.234375 159.761719 140.925781 150.324219 C 140.140625 149.316406 139.386719 148.234375 138.6875 147.113281 C 131.921875 136.238281 130.199219 122.097656 129.449219 110.996094 C 129.1875 106.960938 128.996094 102.941406 128.808594 99.054688 C 128.269531 87.742188 127.753906 77.058594 125.671875 66.421875 C 123.550781 55.519531 119.90625 46.089844 114.839844 38.382812 C 112.03125 34.109375 108.738281 30.296875 105.046875 27.046875 C 93.449219 16.859375 75.808594 11.039062 56.597656 11.039062 C 56.453125 11.039062 56.316406 11.039062 56.175781 11.039062 C 37.738281 11.121094 19.644531 16.03125 4.125 20.621094 L 4.003906 20.210938 C 19.546875 15.609375 37.679688 10.691406 56.175781 10.609375 C 75.660156 10.527344 93.574219 16.394531 105.332031 26.722656 C 109.050781 30 112.371094 33.84375 115.199219 38.148438 C 120.296875 45.898438 123.96875 55.382812 126.097656 66.339844 C 128.183594 77.003906 128.699219 87.703125 129.246094 99.03125 C 129.429688 102.917969 129.621094 106.933594 129.882812 110.96875 C 130.628906 122.015625 132.339844 136.089844 139.054688 146.878906 C 139.75 147.988281 140.496094 149.058594 141.269531 150.058594 C 150.40625 161.855469 163.914062 165.015625 173.640625 165.585938 C 182.210938 166.074219 190.046875 165.121094 198.34375 164.117188 C 200.53125 163.851562 202.789062 163.574219 205.066406 163.328125 C 206.265625 163.199219 207.484375 163.082031 208.710938 162.964844 C 217.328125 162.171875 228.855469 161.597656 241.640625 164.171875 C 257.21875 167.308594 271.496094 174.980469 280.816406 185.222656 C 281.902344 186.414062 282.972656 187.695312 284.003906 189.027344 C 288.535156 194.886719 291.953125 201.28125 295.25 207.464844 C 295.976562 208.828125 296.699219 210.179688 297.429688 211.519531 C 301.828125 219.597656 307.265625 228.71875 316.128906 234.710938 C 324.226562 240.1875 337.183594 242.601562 346.28125 236.613281 L 346.515625 236.976562 C 342.71875 239.472656 338.261719 240.539062 333.761719 240.539062 Z M 333.761719 240.539062 " fill-opacity="1" fill-rule="nonzero"/><path fill="#29abe2" d="M 329.722656 239.777344 C 323.273438 239.777344 316.847656 237.636719 312.167969 234.671875 C 303.140625 228.960938 297.453125 220.285156 292.828125 212.601562 C 291.941406 211.117188 291.039062 209.582031 290.164062 208.101562 C 286.820312 202.398438 283.367188 196.507812 278.976562 191.050781 C 277.9375 189.765625 276.875 188.527344 275.800781 187.375 C 266.664062 177.574219 252.824219 169.777344 237.832031 165.992188 C 225.867188 162.96875 215.277344 162.617188 206.5 162.671875 C 205.339844 162.679688 204.191406 162.695312 203.066406 162.714844 C 201.136719 162.753906 199.246094 162.808594 197.378906 162.867188 C 189.417969 163.101562 181.894531 163.324219 173.679688 162.132812 C 160.300781 160.160156 149.996094 154.390625 143.050781 144.988281 C 142.304688 143.980469 141.582031 142.902344 140.90625 141.785156 C 134.574219 131.261719 132.480469 117.960938 131.269531 106.339844 C 130.949219 103.21875 130.664062 100.105469 130.386719 97.097656 C 129.300781 85.28125 128.273438 74.121094 125.519531 63.160156 C 122.90625 52.710938 118.914062 43.703125 113.652344 36.394531 C 110.738281 32.339844 107.375 28.722656 103.660156 25.644531 C 91.984375 16.003906 74.46875 10.488281 55.570312 10.488281 C 55.457031 10.488281 55.351562 10.488281 55.242188 10.488281 C 37.097656 10.550781 19.199219 15.15625 3.851562 19.46875 L 3.734375 19.058594 C 19.113281 14.738281 37.042969 10.125 55.242188 10.058594 C 55.351562 10.058594 55.460938 10.058594 55.574219 10.058594 C 74.574219 10.058594 92.1875 15.609375 103.941406 25.3125 C 107.683594 28.414062 111.070312 32.054688 114.011719 36.140625 C 119.304688 43.496094 123.316406 52.550781 125.945312 63.054688 C 128.703125 74.046875 129.734375 85.222656 130.820312 97.054688 C 131.097656 100.0625 131.382812 103.175781 131.703125 106.292969 C 132.910156 117.867188 134.996094 131.105469 141.28125 141.5625 C 141.949219 142.667969 142.664062 143.734375 143.402344 144.730469 C 150.28125 154.039062 160.488281 159.75 173.75 161.707031 C 181.929688 162.894531 189.433594 162.675781 197.375 162.4375 C 199.246094 162.378906 201.136719 162.324219 203.070312 162.285156 C 204.199219 162.261719 205.34375 162.246094 206.507812 162.242188 C 215.320312 162.1875 225.941406 162.539062 237.949219 165.574219 C 253.019531 169.378906 266.933594 177.222656 276.125 187.085938 C 277.203125 188.246094 278.277344 189.488281 279.320312 190.78125 C 283.730469 196.257812 287.195312 202.167969 290.546875 207.878906 C 291.421875 209.363281 292.316406 210.898438 293.207031 212.378906 C 297.800781 220.023438 303.457031 228.648438 312.40625 234.304688 C 320.1875 239.238281 332.847656 241.859375 342.253906 235.964844 L 342.480469 236.332031 C 338.589844 238.769531 334.152344 239.777344 329.726562 239.777344 Z M 329.722656 239.777344 " fill-opacity="1" fill-rule="nonzero"/><path fill="#29abe2" d="M 325.695312 238.949219 C 319.363281 238.949219 313.058594 236.996094 308.449219 234.273438 C 300.242188 229.441406 294.585938 222.464844 288.617188 213.472656 C 287.527344 211.828125 286.421875 210.117188 285.351562 208.457031 C 281.996094 203.246094 278.527344 197.859375 274.292969 192.8125 C 273.246094 191.558594 272.175781 190.359375 271.109375 189.242188 C 258.796875 176.347656 242.648438 170.015625 234.117188 167.386719 C 223.03125 163.96875 213.210938 162.757812 204.253906 161.949219 C 203.164062 161.851562 202.085938 161.761719 201.027344 161.675781 C 199.601562 161.5625 198.199219 161.457031 196.820312 161.351562 C 189.058594 160.777344 181.730469 160.226562 173.753906 158.246094 C 161.09375 155.070312 151.75 148.988281 145.1875 139.648438 C 144.480469 138.640625 143.785156 137.566406 143.136719 136.457031 C 136.941406 125.796875 134.703125 112.917969 133.089844 101.679688 C 132.808594 99.671875 132.535156 97.679688 132.265625 95.707031 C 130.550781 83.171875 128.933594 71.332031 125.371094 59.894531 C 122.273438 49.894531 117.933594 41.3125 112.476562 34.394531 C 109.453125 30.558594 106.023438 27.140625 102.28125 24.238281 C 90.351562 15.011719 73.40625 9.933594 54.550781 9.933594 C 54.46875 9.933594 54.390625 9.933594 54.308594 9.933594 C 36.457031 9.976562 18.757812 14.28125 3.570312 18.3125 L 3.457031 17.898438 C 18.675781 13.855469 36.40625 9.542969 54.308594 9.5 C 54.390625 9.5 54.472656 9.5 54.550781 9.5 C 73.503906 9.5 90.539062 14.609375 102.542969 23.894531 C 106.3125 26.816406 109.769531 30.261719 112.8125 34.121094 C 118.304688 41.082031 122.664062 49.710938 125.78125 59.765625 C 129.351562 71.234375 130.972656 83.09375 132.6875 95.648438 C 132.957031 97.621094 133.226562 99.613281 133.511719 101.621094 C 135.117188 112.816406 137.34375 125.644531 143.503906 136.238281 C 144.148438 137.339844 144.828125 138.402344 145.53125 139.398438 C 152.035156 148.652344 161.292969 154.679688 173.851562 157.828125 C 181.792969 159.796875 189.105469 160.339844 196.847656 160.917969 C 198.230469 161.019531 199.632812 161.125 201.058594 161.242188 C 202.117188 161.328125 203.195312 161.417969 204.285156 161.515625 C 213.265625 162.324219 223.113281 163.539062 234.238281 166.972656 C 242.808594 169.609375 259.035156 175.96875 271.410156 188.9375 C 272.484375 190.0625 273.558594 191.269531 274.617188 192.527344 C 278.867188 197.597656 282.34375 202.996094 285.703125 208.214844 C 286.769531 209.871094 287.875 211.585938 288.964844 213.230469 C 294.902344 222.167969 300.523438 229.101562 308.65625 233.898438 C 316.375 238.453125 328.914062 240.839844 338.210938 235.308594 L 338.429688 235.675781 C 334.542969 237.988281 330.105469 238.941406 325.683594 238.941406 Z M 325.695312 238.949219 " fill-opacity="1" fill-rule="nonzero"/><path fill="#29abe2" d="M 321.574219 238.179688 C 315.457031 238.179688 309.375 236.421875 304.730469 233.875 C 295.933594 229.074219 289.761719 221.652344 284.402344 214.347656 C 283.058594 212.515625 281.757812 210.675781 280.382812 208.726562 C 277.070312 204.03125 273.640625 199.179688 269.609375 194.566406 C 268.554688 193.351562 267.480469 192.1875 266.417969 191.101562 C 254.34375 178.761719 238.667969 171.820312 230.40625 168.78125 C 219.984375 164.945312 210.664062 162.941406 202.007812 161.222656 C 200.980469 161.019531 199.976562 160.824219 198.988281 160.625 L 197.09375 160.261719 C 188.898438 158.679688 181.820312 157.3125 173.816406 154.355469 C 166.3125 151.5625 155.40625 146.441406 147.316406 134.308594 C 146.640625 133.308594 145.988281 132.234375 145.363281 131.132812 C 139.644531 120.925781 137.066406 108.683594 134.914062 97.023438 L 134.5625 95.113281 C 132.105469 81.550781 129.789062 68.738281 125.226562 56.636719 C 121.640625 47.09375 116.957031 38.9375 111.292969 32.402344 C 108.164062 28.789062 104.671875 25.566406 100.902344 22.835938 C 88.886719 14.160156 72.058594 9.382812 53.507812 9.382812 L 53.378906 9.382812 C 35.824219 9.40625 18.320312 13.414062 3.292969 17.164062 L 3.1875 16.75 C 18.242188 12.992188 35.777344 8.976562 53.378906 8.953125 C 72.078125 8.9375 89.039062 13.738281 101.152344 22.488281 C 104.945312 25.242188 108.46875 28.480469 111.617188 32.125 C 117.308594 38.703125 122.023438 46.898438 125.625 56.488281 C 130.203125 68.628906 132.523438 81.460938 134.984375 95.046875 L 135.332031 96.953125 C 137.476562 108.582031 140.046875 120.777344 145.738281 130.929688 C 146.355469 132.027344 147.003906 133.082031 147.671875 134.082031 C 155.695312 146.109375 166.519531 151.1875 173.96875 153.964844 C 181.933594 156.90625 188.996094 158.269531 197.171875 159.851562 L 199.070312 160.21875 C 200.058594 160.410156 201.0625 160.609375 202.089844 160.816406 C 210.761719 162.539062 220.105469 164.546875 230.550781 168.390625 C 238.851562 171.441406 254.585938 178.414062 266.722656 190.8125 C 267.789062 191.902344 268.871094 193.074219 269.933594 194.292969 C 273.976562 198.925781 277.410156 203.789062 280.730469 208.492188 C 282.101562 210.433594 283.402344 212.269531 284.746094 214.101562 C 290.074219 221.367188 296.207031 228.746094 304.929688 233.507812 C 312.839844 237.839844 324.949219 239.878906 334.183594 234.671875 L 334.394531 235.042969 C 330.453125 237.261719 326 238.1875 321.570312 238.1875 Z M 321.574219 238.179688 " fill-opacity="1" fill-rule="nonzero"/><path fill="#29abe2" d="M 317.3125 237.40625 C 311.882812 237.40625 306.1875 236.089844 301.011719 233.480469 C 292.085938 228.992188 285.730469 222.050781 280.191406 215.21875 C 278.527344 213.167969 276.925781 211.09375 275.226562 208.894531 C 272.015625 204.742188 268.699219 200.453125 264.933594 196.324219 C 263.871094 195.148438 262.789062 194.019531 261.730469 192.964844 C 250.535156 181.820312 236.496094 174.421875 226.691406 170.179688 C 217.53125 166.210938 209.410156 163.601562 202.246094 161.300781 C 201.402344 161.03125 200.574219 160.761719 199.757812 160.5 C 198.796875 160.191406 197.859375 159.886719 196.945312 159.585938 C 188.703125 156.902344 181.777344 154.523438 173.890625 150.46875 C 166.371094 146.574219 156.796875 140.605469 149.449219 128.976562 C 148.816406 127.976562 148.191406 126.910156 147.59375 125.808594 C 141.984375 115.417969 139.210938 103.226562 136.761719 92.472656 L 136.738281 92.367188 C 133.539062 78.101562 130.449219 65.324219 125.085938 53.371094 C 121.027344 44.296875 115.992188 36.570312 110.121094 30.410156 C 106.890625 27.011719 103.328125 23.992188 99.527344 21.429688 C 87.425781 13.304688 70.710938 8.828125 52.453125 8.828125 C 35.195312 8.828125 17.890625 12.535156 3.019531 16.007812 L 2.921875 15.59375 C 17.8125 12.113281 35.152344 8.402344 52.453125 8.402344 C 70.796875 8.402344 87.597656 12.90625 99.769531 21.078125 C 103.59375 23.65625 107.179688 26.699219 110.429688 30.117188 C 116.335938 36.3125 121.398438 44.082031 125.476562 53.203125 C 130.851562 65.191406 133.945312 77.996094 137.15625 92.28125 L 137.175781 92.382812 C 139.621094 103.113281 142.390625 115.269531 147.96875 125.609375 C 148.5625 126.703125 149.179688 127.761719 149.8125 128.753906 C 157.101562 140.296875 166.609375 146.222656 174.082031 150.097656 C 181.9375 154.132812 188.855469 156.503906 197.074219 159.179688 C 197.996094 159.480469 198.925781 159.789062 199.886719 160.097656 C 200.699219 160.359375 201.527344 160.625 202.367188 160.894531 C 209.542969 163.199219 217.671875 165.8125 226.855469 169.792969 C 236.691406 174.050781 250.785156 181.476562 262.027344 192.667969 C 263.089844 193.730469 264.175781 194.867188 265.246094 196.042969 C 269.023438 200.183594 272.34375 204.484375 275.558594 208.640625 C 277.257812 210.835938 278.855469 212.90625 280.519531 214.957031 C 286.027344 221.75 292.34375 228.652344 301.195312 233.105469 C 310.761719 237.929688 322.125 238.285156 330.152344 234.015625 L 330.355469 234.394531 C 326.5625 236.410156 322.039062 237.414062 317.308594 237.414062 Z M 317.3125 237.40625 " fill-opacity="1" fill-rule="nonzero"/><path fill="#29abe2" d="M 313.207031 236.589844 C 307.90625 236.589844 302.347656 235.414062 297.292969 233.085938 C 288.195312 228.902344 281.414062 222.152344 275.980469 216.097656 C 273.902344 213.789062 271.910156 211.425781 269.800781 208.925781 C 266.789062 205.359375 263.675781 201.671875 260.253906 198.085938 C 259.15625 196.929688 258.101562 195.863281 257.039062 194.832031 C 248.355469 186.410156 236.894531 178.585938 222.980469 171.570312 C 216.460938 168.28125 210.449219 165.59375 205.144531 163.226562 C 202.445312 162.019531 199.894531 160.878906 197.507812 159.765625 C 196.617188 159.347656 195.75 158.941406 194.90625 158.527344 C 186.488281 154.496094 180.421875 151.027344 173.957031 146.570312 C 166.238281 141.203125 158.183594 134.707031 151.585938 123.636719 C 150.988281 122.640625 150.394531 121.578125 149.824219 120.480469 C 144.871094 110.925781 141.882812 99.921875 139.246094 90.214844 C 139.015625 89.371094 138.789062 88.535156 138.566406 87.710938 C 134.65625 73.226562 130.839844 61.285156 124.945312 50.109375 C 120.425781 41.503906 115.042969 34.203125 108.949219 28.410156 C 105.613281 25.234375 101.980469 22.414062 98.152344 20.023438 C 86 12.464844 69.441406 8.296875 51.527344 8.273438 L 51.386719 8.273438 C 34.476562 8.273438 17.417969 11.671875 2.746094 14.851562 L 2.65625 14.429688 C 17.347656 11.242188 34.4375 7.84375 51.386719 7.84375 L 51.527344 7.84375 C 69.519531 7.867188 86.160156 12.0625 98.378906 19.660156 C 102.234375 22.0625 105.886719 24.90625 109.242188 28.097656 C 115.371094 33.925781 120.78125 41.265625 125.324219 49.910156 C 131.238281 61.125 135.058594 73.089844 138.976562 87.597656 C 139.203125 88.425781 139.429688 89.257812 139.65625 90.101562 C 142.285156 99.789062 145.269531 110.765625 150.203125 120.285156 C 150.769531 121.371094 151.359375 122.425781 151.953125 123.417969 C 158.503906 134.421875 166.519531 140.882812 174.199219 146.222656 C 180.640625 150.667969 186.691406 154.125 195.085938 158.144531 C 195.929688 158.554688 196.800781 158.964844 197.683594 159.378906 C 200.066406 160.492188 202.613281 161.632812 205.3125 162.835938 C 210.621094 165.207031 216.636719 167.894531 223.164062 171.1875 C 237.117188 178.21875 248.613281 186.070312 257.332031 194.523438 C 258.398438 195.558594 259.457031 196.625 260.558594 197.789062 C 263.984375 201.386719 267.105469 205.082031 270.121094 208.648438 C 272.230469 211.148438 274.226562 213.507812 276.292969 215.808594 C 281.699219 221.828125 288.441406 228.542969 297.464844 232.691406 C 306.9375 237.0625 318.1875 237.324219 326.121094 233.359375 L 326.316406 233.742188 C 322.511719 235.640625 317.957031 236.589844 313.199219 236.589844 Z M 313.207031 236.589844 " fill-opacity="1" fill-rule="nonzero"/><path fill="#29abe2" d="M 309.050781 235.820312 C 303.925781 235.820312 298.566406 234.769531 293.578125 232.683594 C 284.308594 228.820312 277.351562 222.570312 271.769531 216.964844 C 269.160156 214.351562 266.652344 211.628906 264 208.746094 C 261.308594 205.824219 258.53125 202.808594 255.570312 199.835938 C 254.457031 198.714844 253.40625 197.6875 252.34375 196.6875 C 244.003906 188.820312 233.175781 181.054688 219.257812 172.960938 C 215.835938 170.96875 212.632812 169.15625 209.527344 167.398438 C 204.105469 164.328125 199.421875 161.675781 195.253906 159.027344 C 194.425781 158.507812 193.625 157.980469 192.855469 157.46875 C 186.226562 153.09375 180.769531 148.804688 174.023438 142.671875 C 168.257812 137.394531 160.363281 130.167969 153.714844 118.296875 C 153.152344 117.300781 152.59375 116.242188 152.046875 115.15625 C 147.777344 106.5625 144.859375 97.28125 142.042969 88.300781 C 141.484375 86.519531 140.933594 84.765625 140.382812 83.054688 C 135.367188 67.300781 130.710938 56.476562 124.796875 46.84375 C 119.820312 38.71875 114.089844 31.84375 107.765625 26.414062 C 104.332031 23.460938 100.632812 20.835938 96.773438 18.617188 C 81.128906 9.664062 63.023438 7.75 50.59375 7.71875 C 50.484375 7.71875 50.378906 7.71875 50.269531 7.71875 C 33.738281 7.71875 17.59375 10.671875 2.464844 13.695312 L 2.378906 13.273438 C 17.628906 10.226562 33.902344 7.246094 50.59375 7.289062 C 63.078125 7.320312 81.261719 9.242188 96.984375 18.246094 C 100.867188 20.476562 104.589844 23.117188 108.046875 26.085938 C 114.40625 31.546875 120.164062 38.453125 125.160156 46.617188 C 131.09375 56.277344 135.769531 67.132812 140.792969 82.921875 C 141.339844 84.636719 141.890625 86.390625 142.453125 88.171875 C 145.269531 97.136719 148.179688 106.402344 152.433594 114.960938 C 152.972656 116.039062 153.527344 117.09375 154.085938 118.085938 C 160.703125 129.902344 168.570312 137.097656 174.3125 142.351562 C 181.039062 148.472656 186.480469 152.75 193.089844 157.113281 C 193.859375 157.625 194.664062 158.144531 195.484375 158.664062 C 199.644531 161.304688 204.324219 163.953125 209.742188 167.023438 C 212.847656 168.78125 216.054688 170.597656 219.476562 172.585938 C 233.425781 180.699219 244.273438 188.480469 252.640625 196.375 C 253.703125 197.378906 254.757812 198.410156 255.875 199.535156 C 258.835938 202.511719 261.621094 205.535156 264.3125 208.457031 C 266.964844 211.332031 269.464844 214.054688 272.070312 216.664062 C 277.621094 222.238281 284.535156 228.449219 293.742188 232.289062 C 303.265625 236.273438 314.132812 236.433594 322.097656 232.707031 L 322.28125 233.097656 C 318.386719 234.914062 313.816406 235.824219 309.046875 235.824219 Z M 309.050781 235.820312 " fill-opacity="1" fill-rule="nonzero"/><path fill="#29abe2" d="M 304.863281 235.054688 C 299.921875 235.054688 294.769531 234.128906 289.859375 232.289062 C 280.332031 228.722656 272.9375 222.695312 267.554688 217.84375 C 264.230469 214.847656 261.042969 211.65625 257.664062 208.277344 C 255.480469 206.09375 253.226562 203.839844 250.894531 201.597656 C 249.761719 200.507812 248.699219 199.507812 247.660156 198.554688 C 237.40625 189.152344 225.707031 181.132812 215.550781 174.355469 C 207.113281 168.722656 199.144531 163.402344 193.007812 158.289062 C 192.261719 157.667969 191.523438 157.035156 190.816406 156.410156 C 184.207031 150.613281 179.136719 144.757812 174.101562 138.765625 L 172.984375 137.433594 C 167.882812 131.355469 161.53125 123.792969 155.855469 112.957031 C 155.328125 111.964844 154.804688 110.910156 154.285156 109.828125 C 150.765625 102.425781 147.984375 94.566406 145.300781 86.964844 C 144.246094 83.980469 143.25 81.164062 142.21875 78.398438 C 136.917969 64.042969 131.339844 52.980469 124.664062 43.582031 C 119.25 35.9375 113.167969 29.488281 106.597656 24.417969 C 103.0625 21.6875 99.300781 19.265625 95.402344 17.21875 C 82.976562 10.707031 67.164062 7.234375 49.667969 7.167969 C 33.347656 7.101562 17.261719 9.792969 2.195312 12.542969 L 2.117188 12.121094 C 17.203125 9.367188 33.308594 6.671875 49.667969 6.738281 C 67.234375 6.804688 83.117188 10.296875 95.601562 16.839844 C 99.519531 18.898438 103.304688 21.335938 106.859375 24.082031 C 113.464844 29.183594 119.570312 35.65625 125.011719 43.335938 C 131.710938 52.765625 137.300781 63.859375 142.617188 78.253906 C 143.648438 81.019531 144.644531 83.839844 145.703125 86.824219 C 148.390625 94.414062 151.160156 102.265625 154.671875 109.648438 C 155.1875 110.730469 155.714844 111.773438 156.234375 112.765625 C 161.894531 123.558594 168.226562 131.101562 173.3125 137.164062 L 174.429688 138.496094 C 179.460938 144.46875 184.515625 150.3125 191.105469 156.09375 C 191.804688 156.714844 192.539062 157.34375 193.289062 157.964844 C 199.40625 163.058594 207.363281 168.375 215.789062 173.996094 C 225.960938 180.785156 237.675781 188.8125 247.953125 198.238281 C 248.996094 199.195312 250.058594 200.191406 251.195312 201.285156 C 253.53125 203.523438 255.789062 205.78125 257.972656 207.964844 C 261.347656 211.335938 264.53125 214.523438 267.847656 217.515625 C 273.199219 222.34375 280.554688 228.335938 290.015625 231.878906 C 299.582031 235.46875 310.070312 235.535156 318.078125 232.046875 L 318.25 232.445312 C 314.257812 234.179688 309.660156 235.050781 304.867188 235.050781 Z M 304.863281 235.054688 " fill-opacity="1" fill-rule="nonzero"/><path fill="#29abe2" d="M 300.605469 234.25 C 295.824219 234.25 290.871094 233.460938 286.136719 231.890625 C 278.527344 229.363281 271.496094 225.300781 263.339844 218.714844 C 259.019531 215.222656 254.886719 211.394531 250.511719 207.335938 C 249.097656 206.023438 247.667969 204.695312 246.207031 203.359375 C 245.019531 202.269531 243.960938 201.308594 242.957031 200.417969 C 234.503906 192.886719 225.171875 185.835938 216.933594 179.617188 C 215.183594 178.296875 213.476562 177.007812 211.824219 175.746094 C 201.90625 168.183594 195.601562 162.746094 190.753906 157.554688 C 190.078125 156.832031 189.414062 156.09375 188.769531 155.355469 C 183.296875 149.101562 179.359375 142.972656 174.808594 135.875 L 174.164062 134.867188 C 173.3125 133.539062 172.425781 132.167969 171.496094 130.75 C 167.328125 124.355469 162.605469 117.109375 157.972656 107.621094 C 157.488281 106.636719 156.992188 105.585938 156.5 104.5 C 153.839844 98.640625 151.464844 92.523438 149.175781 86.609375 C 147.425781 82.105469 145.777344 77.847656 144.027344 73.746094 C 138.390625 60.421875 132.003906 49.488281 124.507812 40.328125 C 118.671875 33.167969 112.242188 27.148438 105.410156 22.433594 C 101.785156 19.925781 97.949219 17.703125 94.015625 15.820312 C 81.554688 9.886719 65.894531 6.710938 48.726562 6.625 C 32.707031 6.539062 16.820312 8.941406 1.90625 11.398438 L 1.839844 10.976562 C 16.769531 8.511719 32.695312 6.113281 48.730469 6.195312 C 65.960938 6.28125 81.683594 9.472656 94.199219 15.433594 C 98.15625 17.324219 102.007812 19.5625 105.65625 22.082031 C 112.523438 26.824219 118.980469 32.867188 124.84375 40.054688 C 132.363281 49.253906 138.773438 60.21875 144.425781 73.582031 C 146.179688 77.695312 147.832031 81.953125 149.578125 86.460938 C 151.871094 92.371094 154.238281 98.480469 156.894531 104.328125 C 157.386719 105.40625 157.882812 106.453125 158.363281 107.4375 C 162.988281 116.898438 167.703125 124.136719 171.863281 130.515625 C 172.789062 131.941406 173.679688 133.308594 174.53125 134.640625 L 175.175781 135.644531 C 179.722656 142.730469 183.644531 148.84375 189.09375 155.074219 C 189.734375 155.808594 190.394531 156.546875 191.070312 157.261719 C 195.902344 162.4375 202.1875 167.863281 212.085938 175.40625 C 213.734375 176.667969 215.445312 177.957031 217.191406 179.277344 C 225.433594 185.503906 234.777344 192.5625 243.242188 200.101562 C 244.242188 200.992188 245.304688 201.957031 246.496094 203.042969 C 247.953125 204.375 249.382812 205.707031 250.800781 207.019531 C 255.171875 211.074219 259.296875 214.902344 263.605469 218.382812 C 271.714844 224.9375 278.707031 228.976562 286.265625 231.484375 C 295.722656 234.632812 306.101562 234.601562 314.03125 231.40625 L 314.191406 231.808594 C 310.144531 233.4375 305.464844 234.253906 300.59375 234.253906 Z M 300.605469 234.25 " fill-opacity="1" fill-rule="nonzero"/><path fill="#29abe2" d="M 296.28125 233.484375 C 291.726562 233.484375 287.011719 232.820312 282.421875 231.488281 C 274.710938 229.261719 267.3125 225.476562 259.132812 219.582031 C 253.363281 215.425781 247.878906 210.644531 242.070312 205.582031 L 241.53125 205.113281 C 240.457031 204.175781 239.371094 203.230469 238.273438 202.277344 C 233.089844 197.804688 227.71875 193.398438 222.523438 189.144531 C 217.40625 184.953125 212.570312 180.992188 208.117188 177.132812 C 199.34375 169.519531 193.117188 163.0625 188.523438 156.808594 C 187.914062 155.976562 187.316406 155.128906 186.742188 154.289062 C 182.316406 147.765625 179.15625 141.175781 175.8125 134.199219 C 175.300781 133.128906 174.78125 132.050781 174.25 130.960938 C 172.804688 127.953125 171.195312 124.796875 169.488281 121.457031 C 166.640625 115.882812 163.414062 109.5625 160.117188 102.277344 C 159.675781 101.300781 159.222656 100.285156 158.738281 99.167969 C 157.160156 95.515625 155.617188 91.761719 154.121094 88.128906 C 151.484375 81.703125 148.753906 75.0625 145.863281 69.082031 C 139.808594 56.488281 132.78125 46.011719 124.378906 37.054688 C 118.140625 30.386719 111.363281 24.792969 104.246094 20.429688 C 100.527344 18.144531 96.625 16.121094 92.648438 14.410156 C 80.164062 9.058594 64.660156 6.171875 47.808594 6.066406 C 32.132812 5.964844 16.402344 8.074219 1.640625 10.238281 L 1.578125 9.8125 C 16.355469 7.648438 32.109375 5.546875 47.808594 5.636719 C 64.714844 5.738281 80.273438 8.636719 92.816406 14.015625 C 96.8125 15.734375 100.730469 17.773438 104.46875 20.0625 C 111.621094 24.449219 118.425781 30.070312 124.691406 36.761719 C 133.125 45.753906 140.175781 56.265625 146.253906 68.898438 C 149.148438 74.886719 151.882812 81.539062 154.527344 87.964844 C 156.015625 91.597656 157.558594 95.351562 159.136719 99 C 159.621094 100.113281 160.070312 101.128906 160.511719 102.101562 C 163.808594 109.375 167.03125 115.691406 169.875 121.265625 C 171.582031 124.605469 173.195312 127.765625 174.640625 130.773438 C 175.171875 131.867188 175.691406 132.949219 176.203125 134.015625 C 179.542969 140.976562 182.691406 147.550781 187.105469 154.046875 C 187.671875 154.886719 188.269531 155.734375 188.871094 156.554688 C 193.449219 162.785156 199.652344 169.21875 208.402344 176.808594 C 212.851562 180.660156 217.679688 184.621094 222.800781 188.8125 C 228 193.070312 233.375 197.472656 238.558594 201.957031 C 239.652344 202.90625 240.742188 203.851562 241.816406 204.789062 L 242.351562 205.257812 C 248.152344 210.3125 253.632812 215.089844 259.382812 219.234375 C 267.523438 225.101562 274.878906 228.863281 282.542969 231.078125 C 292.011719 233.824219 302.027344 233.703125 310.011719 230.75 L 310.160156 231.152344 C 305.960938 232.707031 301.214844 233.484375 296.28125 233.484375 Z M 296.28125 233.484375 " fill-opacity="1" fill-rule="nonzero"/><path fill="#29abe2" d="M 291.820312 232.695312 C 287.492188 232.695312 283.039062 232.164062 278.707031 231.09375 C 270.773438 229.136719 263.214844 225.757812 254.925781 220.460938 C 248.476562 216.335938 242.429688 211.496094 236.855469 206.875 C 235.773438 205.976562 234.679688 205.066406 233.585938 204.144531 L 232.011719 202.828125 C 222.425781 194.800781 212.507812 186.5 204.40625 178.523438 C 196.402344 170.644531 190.472656 163.300781 186.285156 156.066406 C 185.742188 155.136719 185.214844 154.179688 184.714844 153.226562 C 181.007812 146.183594 178.546875 139.132812 175.949219 131.660156 C 175.421875 130.140625 174.886719 128.609375 174.335938 127.054688 C 171.582031 119.261719 168.066406 110.847656 163.992188 101.105469 L 162.253906 96.9375 C 161.824219 95.914062 161.398438 94.882812 160.96875 93.84375 C 156.863281 83.828125 152.621094 73.472656 147.691406 64.425781 C 141.210938 52.46875 133.542969 42.445312 124.242188 33.789062 C 117.621094 27.609375 110.5 22.441406 103.074219 18.429688 C 99.269531 16.371094 95.300781 14.542969 91.273438 13 C 78.59375 8.152344 63.660156 5.636719 46.878906 5.503906 C 31.558594 5.394531 15.984375 7.207031 1.367188 9.078125 L 1.308594 8.652344 C 15.945312 6.777344 31.515625 4.964844 46.882812 5.074219 C 63.71875 5.203125 78.703125 7.734375 91.425781 12.59375 C 95.472656 14.148438 99.457031 15.980469 103.277344 18.046875 C 110.734375 22.082031 117.886719 27.269531 124.539062 33.46875 C 133.871094 42.164062 141.570312 52.21875 148.070312 64.214844 C 153.007812 73.28125 157.257812 83.648438 161.367188 93.675781 C 161.796875 94.714844 162.222656 95.742188 162.652344 96.765625 L 164.394531 100.933594 C 168.472656 110.679688 171.992188 119.097656 174.746094 126.90625 C 175.296875 128.457031 175.832031 129.992188 176.359375 131.515625 C 178.957031 138.964844 181.40625 146.007812 185.101562 153.019531 C 185.601562 153.96875 186.125 154.921875 186.660156 155.847656 C 190.835938 163.046875 196.738281 170.359375 204.710938 178.214844 C 212.804688 186.175781 222.707031 194.472656 232.292969 202.492188 L 233.863281 203.808594 C 234.960938 204.726562 236.046875 205.636719 237.128906 206.535156 C 242.691406 211.144531 248.730469 215.980469 255.160156 220.089844 C 263.410156 225.367188 270.925781 228.722656 278.8125 230.671875 C 288.144531 232.980469 298.050781 232.769531 305.988281 230.097656 L 306.125 230.503906 C 301.800781 231.960938 296.898438 232.695312 291.824219 232.695312 Z M 291.820312 232.695312 " fill-opacity="1" fill-rule="nonzero"/><path fill="#29abe2" d="M 287.234375 231.945312 C 283.203125 231.945312 279.074219 231.527344 274.992188 230.695312 C 266.921875 229.046875 258.980469 225.984375 250.714844 221.328125 C 244.953125 218.085938 239.058594 214.050781 232.171875 208.628906 C 231.132812 207.8125 230.058594 206.953125 228.894531 206.007812 C 217.027344 196.382812 207.800781 187.847656 200.6875 179.914062 C 193.34375 171.714844 187.746094 163.441406 184.042969 155.328125 C 183.570312 154.296875 183.117188 153.230469 182.683594 152.164062 C 179.546875 144.445312 177.699219 136.746094 175.738281 128.59375 C 175.304688 126.792969 174.871094 124.984375 174.417969 123.15625 C 171.949219 113.152344 168.664062 102.828125 164.378906 91.601562 C 163.988281 90.578125 163.59375 89.550781 163.191406 88.519531 C 158.671875 76.863281 154.199219 67.460938 149.511719 59.773438 C 142.691406 48.542969 134.140625 38.703125 124.097656 30.527344 C 117.113281 24.835938 109.640625 20.09375 101.890625 16.4375 C 98.011719 14.609375 93.976562 12.976562 89.886719 11.601562 C 77.21875 7.347656 62.4375 5.109375 45.941406 4.964844 C 30.972656 4.828125 16.175781 6.292969 1.082031 7.933594 L 1.035156 7.507812 C 16.144531 5.863281 30.949219 4.398438 45.949219 4.535156 C 62.484375 4.683594 77.3125 6.925781 90.027344 11.199219 C 94.125 12.578125 98.179688 14.214844 102.070312 16.058594 C 109.855469 19.726562 117.351562 24.488281 124.363281 30.203125 C 134.445312 38.410156 143.027344 48.285156 149.871094 59.558594 C 154.574219 67.265625 159.058594 76.695312 163.585938 88.375 C 163.988281 89.40625 164.382812 90.4375 164.773438 91.460938 C 169.070312 102.703125 172.355469 113.042969 174.832031 123.066406 C 175.285156 124.894531 175.722656 126.707031 176.15625 128.507812 C 178.109375 136.644531 179.953125 144.332031 183.078125 152.019531 C 183.507812 153.078125 183.964844 154.136719 184.429688 155.164062 C 188.113281 163.238281 193.6875 171.472656 201.007812 179.640625 C 208.101562 187.5625 217.3125 196.082031 229.160156 205.6875 C 230.324219 206.632812 231.398438 207.488281 232.433594 208.304688 C 239.304688 213.714844 245.179688 217.734375 250.921875 220.96875 C 259.148438 225.597656 267.046875 228.648438 275.074219 230.285156 C 284.386719 232.191406 293.933594 231.898438 301.953125 229.460938 L 302.078125 229.871094 C 297.515625 231.261719 292.457031 231.957031 287.230469 231.960938 Z M 287.234375 231.945312 " fill-opacity="1" fill-rule="nonzero"/><path fill="#29abe2" d="M 282.421875 231.207031 C 278.761719 231.207031 275.019531 230.902344 271.273438 230.292969 C 262.933594 228.949219 254.832031 226.300781 246.507812 222.199219 C 240.246094 219.113281 234.027344 215.253906 227.496094 210.386719 C 226.414062 209.578125 225.304688 208.730469 224.203125 207.867188 C 213.492188 199.464844 204.074219 190.28125 196.980469 181.300781 C 190.132812 172.632812 185.035156 163.644531 181.816406 154.589844 C 181.414062 153.457031 181.023438 152.285156 180.664062 151.105469 C 178.039062 142.585938 176.761719 134.105469 175.40625 125.128906 C 175.113281 123.179688 174.816406 121.222656 174.507812 119.257812 C 172.5625 106.878906 170.023438 96.394531 166.515625 86.261719 C 166.164062 85.238281 165.796875 84.214844 165.425781 83.191406 C 161.582031 72.660156 156.84375 63.214844 151.347656 55.117188 C 144.078125 44.386719 134.867188 35.011719 123.960938 27.261719 C 116.640625 22.046875 108.820312 17.734375 100.722656 14.441406 C 96.773438 12.832031 92.667969 11.40625 88.523438 10.191406 C 75.894531 6.519531 61.257812 4.578125 45.023438 4.40625 C 30.449219 4.25 15.796875 5.4375 0.816406 6.773438 L 0.777344 6.34375 C 15.769531 5.007812 30.4375 3.820312 45.027344 3.972656 C 61.300781 4.144531 75.976562 6.09375 88.640625 9.773438 C 92.804688 10.988281 96.921875 12.421875 100.886719 14.035156 C 109.011719 17.34375 116.859375 21.675781 124.210938 26.910156 C 135.152344 34.691406 144.402344 44.097656 151.699219 54.871094 C 157.214844 62.996094 161.96875 72.476562 165.824219 83.042969 C 166.203125 84.070312 166.5625 85.097656 166.917969 86.121094 C 170.433594 96.277344 172.984375 106.785156 174.933594 119.1875 C 175.242188 121.15625 175.539062 123.113281 175.832031 125.066406 C 177.183594 134.023438 178.457031 142.492188 181.070312 150.980469 C 181.433594 152.15625 181.820312 153.324219 182.21875 154.445312 C 185.421875 163.457031 190.5 172.402344 197.316406 181.035156 C 204.390625 189.992188 213.777344 199.152344 224.464844 207.53125 C 225.5625 208.390625 226.667969 209.238281 227.75 210.042969 C 234.261719 214.894531 240.457031 218.746094 246.695312 221.816406 C 254.988281 225.894531 263.042969 228.53125 271.34375 229.871094 C 280.597656 231.371094 289.792969 231 297.925781 228.796875 L 298.039062 229.210938 C 293.140625 230.539062 287.863281 231.207031 282.421875 231.207031 Z M 282.421875 231.207031 " fill-opacity="1" fill-rule="nonzero"/><path fill="#29abe2" d="M 277.136719 230.464844 C 273.960938 230.464844 270.753906 230.277344 267.554688 229.894531 C 259.050781 228.878906 250.550781 226.582031 242.296875 223.070312 C 235.636719 220.238281 229.082031 216.5625 222.8125 212.144531 C 221.714844 211.375 220.605469 210.5625 219.511719 209.734375 C 209.25 201.964844 200.171875 192.613281 193.265625 182.691406 C 186.890625 173.523438 182.289062 163.824219 179.585938 153.855469 C 179.25 152.621094 178.929688 151.34375 178.640625 150.054688 C 176.503906 140.613281 175.769531 130.800781 175.054688 121.3125 C 174.902344 119.328125 174.757812 117.347656 174.59375 115.359375 C 173.769531 105.148438 172.421875 93.078125 168.644531 80.925781 C 168.320312 79.890625 167.984375 78.863281 167.644531 77.871094 C 164.242188 67.921875 159.367188 58.703125 153.167969 50.464844 C 145.4375 40.183594 135.5625 31.28125 123.820312 24.003906 C 116.171875 19.257812 108.007812 15.367188 99.542969 12.449219 C 95.535156 11.066406 91.363281 9.835938 87.140625 8.792969 C 74.425781 5.667969 60.34375 4.058594 44.085938 3.859375 C 29.96875 3.691406 16.011719 4.558594 0.527344 5.625 L 0.496094 5.195312 C 15.984375 4.125 29.960938 3.257812 44.089844 3.425781 C 60.378906 3.617188 74.496094 5.238281 87.242188 8.375 C 91.480469 9.414062 95.664062 10.648438 99.683594 12.035156 C 108.175781 14.96875 116.371094 18.871094 124.042969 23.632812 C 135.832031 30.941406 145.742188 39.878906 153.507812 50.203125 C 159.738281 58.476562 164.632812 67.734375 168.050781 77.726562 C 168.394531 78.726562 168.730469 79.757812 169.050781 80.796875 C 172.835938 92.988281 174.195312 105.09375 175.019531 115.328125 C 175.183594 117.3125 175.328125 119.300781 175.480469 121.28125 C 176.1875 130.753906 176.925781 140.550781 179.054688 149.957031 C 179.347656 151.242188 179.660156 152.515625 179.996094 153.742188 C 182.6875 163.664062 187.273438 173.320312 193.621094 182.445312 C 200.5 192.332031 209.542969 201.652344 219.773438 209.390625 C 220.863281 210.214844 221.972656 211.023438 223.0625 211.792969 C 229.304688 216.191406 235.832031 219.855469 242.464844 222.675781 C 250.683594 226.171875 259.140625 228.457031 267.609375 229.46875 C 276.621094 230.546875 285.707031 230.085938 293.898438 228.144531 L 294 228.5625 C 288.667969 229.824219 282.957031 230.464844 277.136719 230.464844 Z M 277.136719 230.464844 " fill-opacity="1" fill-rule="nonzero"/><path fill="#29abe2" d="M 271.113281 229.804688 C 252.417969 229.804688 233.820312 224.320312 218.136719 213.898438 C 197.160156 199.96875 182.296875 177.808594 177.355469 153.113281 C 174.996094 141.332031 174.875 129.039062 174.753906 117.140625 C 174.601562 102.257812 174.449219 86.863281 169.875 72.535156 C 160.726562 43.871094 133.996094 20.65625 98.371094 10.4375 C 66.410156 1.273438 32.78125 2.894531 0.253906 4.46875 L 0.230469 4.039062 C 32.789062 2.464844 66.457031 0.839844 98.488281 10.027344 C 114.96875 14.757812 130.191406 22.640625 142.507812 32.820312 C 155.960938 43.941406 165.5625 57.628906 170.28125 72.40625 C 174.875 86.796875 175.027344 102.222656 175.179688 117.140625 C 175.300781 129.015625 175.421875 141.296875 177.769531 153.03125 C 182.691406 177.621094 197.488281 199.675781 218.367188 213.542969 C 239.25 227.414062 265.308594 232.496094 289.867188 227.492188 L 289.953125 227.910156 C 283.738281 229.179688 277.414062 229.804688 271.109375 229.804688 Z M 271.113281 229.804688 " fill-opacity="1" fill-rule="nonzero"/></g></g></g></svg>