<svg xmlns="http://www.w3.org/2000/svg" xmlns:xlink="http://www.w3.org/1999/xlink" width="500" zoomAndPan="magnify" viewBox="0 0 375 374.999991" height="500" preserveAspectRatio="xMidYMid meet" version="1.0"><defs><filter x="0%" y="0%" width="100%" height="100%" id="93d89d8690"><feColorMatrix values="0 0 0 0 1 0 0 0 0 1 0 0 0 0 1 0 0 0 1 0" color-interpolation-filters="sRGB"/></filter><mask id="3feb3e8736"><g filter="url(#93d89d8690)"><rect x="-37.5" width="450" fill="#000000" y="-37.499999" height="449.999989" fill-opacity="0.5"/></g></mask><clipPath id="d4ed0c2371"><path d="M 0.480469 0 L 368 0 L 368 366.75 L 0.480469 366.75 Z M 0.480469 0 " clip-rule="nonzero"/></clipPath><clipPath id="d5e143de5c"><rect x="0" width="369" y="0" height="367"/></clipPath></defs><g mask="url(#3feb3e8736)"><g transform="matrix(1, 0, 0, 1, 0.000000000000000056, 0)"><g clip-path="url(#d5e143de5c)"><g clip-path="url(#d4ed0c2371)"><path fill="#2da2dc" d="M 294.363281 95.515625 C 292.234375 94.664062 290.246094 93.667969 288.117188 92.816406 C 267.113281 83.734375 252.070312 70.675781 237.875 49.246094 C 236.03125 46.550781 234.1875 43.429688 232.199219 40.304688 C 221.128906 22.421875 207.222656 0 184.371094 0.566406 C 157.40625 0.992188 141.226562 28.527344 125.472656 55.066406 C 115.824219 71.386719 106.738281 86.714844 95.671875 95.65625 C 87.011719 102.609375 75.375 108.855469 63.167969 115.523438 C 33.792969 131.421875 0.582031 149.445312 0.582031 182.9375 C 0.582031 213.308594 33.792969 233.460938 63.027344 251.203125 C 77.503906 260.003906 91.269531 268.234375 100.210938 277.175781 C 109.011719 285.972656 116.25 298.746094 124.054688 312.371094 C 139.097656 339.054688 154.710938 366.585938 184.089844 366.585938 C 184.089844 366.585938 184.230469 366.585938 184.230469 366.585938 C 280.167969 366.160156 367.734375 278.59375 367.878906 182.9375 C 368.019531 127.304688 337.082031 113.964844 294.363281 95.515625 Z M 184.230469 365.308594 C 184.230469 365.308594 184.085938 365.308594 184.085938 365.308594 C 155.5625 365.308594 140.09375 338.058594 125.191406 311.804688 C 117.527344 298.179688 110.144531 285.121094 101.207031 276.324219 C 92.121094 267.382812 78.355469 259.007812 63.738281 250.210938 C 34.785156 232.46875 2 212.601562 2 182.9375 C 2 150.296875 34.785156 132.554688 63.738281 116.800781 C 76.085938 110.132812 87.722656 103.886719 96.378906 96.792969 C 107.734375 87.707031 116.816406 72.238281 126.609375 55.777344 C 142.078125 29.519531 158.257812 2.414062 184.230469 1.84375 C 184.511719 1.84375 184.65625 1.84375 184.9375 1.84375 C 206.511719 1.84375 219.996094 23.558594 230.78125 41.015625 C 232.765625 44.136719 234.613281 47.261719 236.457031 49.957031 C 250.933594 71.671875 266.117188 84.871094 287.40625 94.09375 C 289.535156 94.945312 291.664062 95.941406 293.652344 96.792969 C 335.945312 114.957031 366.601562 128.15625 366.457031 182.9375 C 366.316406 278.027344 279.460938 364.882812 184.230469 365.308594 Z M 184.230469 365.308594 " fill-opacity="1" fill-rule="nonzero"/></g><path fill="#2da2dc" d="M 350.277344 181.945312 C 348.433594 140.078125 315.792969 123.1875 281.164062 105.304688 L 276.90625 103.035156 C 264.558594 96.648438 252.070312 85.011719 240.003906 73.65625 C 221.839844 56.628906 202.964844 39.027344 183.238281 38.175781 C 161.097656 37.183594 140.375 59.039062 121.925781 78.339844 C 113.125 87.566406 104.753906 96.367188 96.804688 102.183594 C 89.285156 107.71875 80.625 112.6875 71.542969 117.796875 C 44.863281 132.980469 17.1875 148.734375 16.195312 181.804688 C 15.199219 210.898438 44.578125 230.339844 70.550781 247.511719 C 82.1875 255.175781 93.117188 262.558594 100.78125 270.21875 C 108.441406 278.027344 115.398438 288.386719 122.636719 299.316406 C 138.671875 323.582031 155.136719 348.5625 183.378906 348.84375 C 183.804688 348.84375 184.230469 348.84375 184.65625 348.84375 C 226.097656 348.84375 268.957031 329.117188 302.308594 294.488281 C 334.382812 261.421875 351.980469 220.265625 350.277344 181.945312 Z M 301.175781 293.636719 C 267.964844 327.984375 225.527344 347.566406 184.515625 347.566406 C 184.089844 347.566406 183.664062 347.566406 183.238281 347.566406 C 155.703125 347.285156 139.523438 322.589844 123.769531 298.746094 C 116.53125 287.675781 109.578125 277.175781 101.773438 269.367188 C 94.109375 261.707031 83.039062 254.324219 71.402344 246.519531 C 45.855469 229.488281 16.761719 210.1875 17.753906 181.945312 C 18.890625 149.585938 46.140625 134.117188 72.394531 119.074219 C 81.621094 113.820312 90.277344 108.855469 97.800781 103.320312 C 105.886719 97.359375 114.261719 88.558594 123.0625 79.335938 C 140.800781 60.742188 160.953125 39.597656 181.960938 39.597656 C 182.386719 39.597656 182.8125 39.597656 183.238281 39.597656 C 202.539062 40.449219 221.128906 57.90625 239.152344 74.792969 C 251.21875 86.148438 263.707031 97.785156 276.335938 104.3125 L 280.59375 106.582031 C 314.796875 124.324219 347.15625 140.929688 349 181.945312 C 350.5625 219.980469 333.105469 260.710938 301.175781 293.636719 Z M 301.175781 293.636719 " fill-opacity="1" fill-rule="nonzero"/><path fill="#2da2dc" d="M 268.957031 112.117188 L 266.121094 110.414062 C 258.738281 106.15625 251.21875 100.90625 243.128906 95.515625 C 222.125 81.179688 200.410156 66.417969 180.824219 65.710938 C 158.542969 65 132.996094 82.882812 110.429688 98.636719 C 106.03125 101.617188 101.914062 104.597656 98.082031 107.152344 C 93.257812 110.414062 88.148438 113.539062 82.753906 116.800781 C 58.203125 131.703125 30.242188 148.59375 30.386719 179.105469 C 30.527344 205.929688 55.507812 225.371094 77.503906 242.546875 C 86.160156 249.359375 94.394531 255.746094 101.0625 262.273438 C 107.164062 268.515625 113.269531 276.179688 119.511719 284.414062 C 135.691406 305.558594 154.140625 329.542969 180.398438 329.542969 C 180.539062 329.542969 180.824219 329.542969 180.964844 329.542969 C 219.996094 328.976562 263.421875 307.546875 294.21875 273.34375 C 320.617188 244.105469 334.101562 209.761719 331.402344 178.964844 C 328.140625 146.605469 296.773438 128.296875 268.957031 112.117188 Z M 292.941406 272.492188 C 262.429688 306.269531 219.425781 327.699219 180.683594 328.125 C 180.539062 328.125 180.398438 328.125 180.113281 328.125 C 154.566406 328.125 136.402344 304.425781 120.363281 283.5625 C 113.976562 275.328125 108.015625 267.523438 101.773438 261.28125 C 95.101562 254.609375 86.871094 248.222656 78.214844 241.410156 C 55.363281 223.671875 31.804688 205.21875 31.664062 179.105469 C 31.519531 149.300781 59.054688 132.699219 83.324219 117.9375 C 88.714844 114.671875 93.96875 111.550781 98.792969 108.285156 C 102.765625 105.589844 106.882812 102.75 111.140625 99.773438 C 132.003906 85.152344 157.832031 67.128906 179.40625 67.128906 C 179.832031 67.128906 180.257812 67.128906 180.683594 67.128906 C 199.839844 67.839844 221.414062 82.457031 242.277344 96.648438 C 250.367188 102.183594 258.03125 107.292969 265.410156 111.691406 L 268.246094 113.394531 C 295.78125 129.433594 326.863281 147.597656 329.699219 179.25 C 332.398438 209.621094 319.054688 243.539062 292.941406 272.492188 Z M 292.941406 272.492188 " fill-opacity="1" fill-rule="nonzero"/><path fill="#2da2dc" d="M 254.765625 115.382812 C 221.980469 95.089844 195.726562 85.011719 176.851562 85.011719 C 152.722656 85.152344 90.988281 110.273438 60.472656 141.214844 C 48.835938 152.992188 42.875 164.488281 43.015625 175.273438 C 43.300781 201.8125 65.582031 221.398438 85.308594 238.570312 C 90.988281 243.539062 96.378906 248.222656 101.0625 253.046875 C 105.746094 257.730469 110.144531 262.839844 114.972656 268.234375 C 131.859375 287.25 150.878906 308.824219 176.851562 309.105469 C 177.132812 309.105469 177.417969 309.105469 177.84375 309.105469 C 211.621094 309.105469 249.796875 290.089844 277.472656 259.433594 C 301.601562 232.609375 313.804688 201.957031 310.683594 175.273438 C 307.558594 147.882812 277.046875 129.007812 254.765625 115.382812 Z M 276.335938 258.300781 C 248.945312 288.671875 211.195312 307.546875 177.84375 307.546875 C 177.558594 307.546875 177.277344 307.546875 176.851562 307.546875 C 151.585938 307.261719 133.5625 286.824219 116.105469 267.238281 C 111.28125 261.847656 106.738281 256.738281 102.058594 252.054688 C 97.230469 247.230469 91.839844 242.546875 86.160156 237.578125 C 66.71875 220.546875 44.71875 201.105469 44.4375 175.273438 C 44.292969 164.914062 50.113281 153.84375 61.46875 142.207031 C 91.128906 112.117188 153.433594 86.574219 176.851562 86.429688 C 176.992188 86.429688 176.992188 86.429688 177.132812 86.429688 C 195.726562 86.429688 221.699219 96.648438 254.199219 116.660156 C 276.195312 130.285156 306.285156 148.875 309.40625 175.417969 C 312.242188 201.53125 300.324219 231.902344 276.335938 258.300781 Z M 276.335938 258.300781 " fill-opacity="1" fill-rule="nonzero"/><path fill="#2da2dc" d="M 240.855469 120.207031 C 216.445312 106.726562 188.203125 97.359375 172.167969 97.359375 C 149.742188 97.359375 96.378906 110.984375 69.839844 137.808594 C 59.90625 147.882812 54.9375 158.8125 54.9375 170.164062 C 55.222656 196.703125 76.085938 216.859375 94.394531 234.738281 C 96.949219 237.152344 99.359375 239.566406 101.773438 241.976562 C 104.042969 244.25 106.171875 246.519531 108.441406 248.789062 C 126.042969 266.8125 145.910156 287.109375 172.023438 287.394531 C 172.308594 287.394531 172.449219 287.394531 172.734375 287.394531 C 203.390625 287.394531 236.316406 271.214844 260.726562 244.105469 C 281.589844 220.832031 291.949219 193.867188 289.253906 170.164062 C 287.550781 154.269531 269.808594 136.105469 240.855469 120.207031 Z M 259.734375 243.113281 C 235.890625 269.652344 202.679688 285.972656 172.875 285.972656 C 172.734375 285.972656 172.449219 285.972656 172.308594 285.972656 C 146.761719 285.832031 127.035156 265.679688 109.71875 247.796875 C 107.449219 245.527344 105.179688 243.113281 103.050781 240.984375 C 100.636719 238.570312 98.226562 236.160156 95.671875 233.746094 C 77.503906 216.148438 56.925781 195.996094 56.640625 170.164062 C 56.5 159.238281 61.324219 148.59375 71.117188 138.800781 C 97.089844 112.542969 150.878906 98.777344 172.449219 98.777344 C 204.523438 98.777344 284.144531 136.105469 288.117188 170.308594 C 290.671875 193.582031 280.3125 220.121094 259.734375 243.113281 Z M 259.734375 243.113281 " fill-opacity="1" fill-rule="nonzero"/><path fill="#2da2dc" d="M 167.625 104.738281 C 167.484375 104.738281 167.199219 104.738281 167.058594 104.738281 C 147.898438 105.023438 101.207031 112.96875 78.640625 136.105469 C 70.40625 144.476562 66.433594 154.128906 66.574219 164.628906 C 66.859375 183.222656 80.34375 208.199219 101.773438 229.773438 C 123.628906 251.628906 148.039062 264.96875 167.058594 265.253906 C 167.339844 265.253906 167.765625 265.253906 168.191406 265.253906 C 194.304688 265.253906 221.980469 252.054688 242.277344 229.914062 C 260.585938 209.902344 269.808594 186.058594 267.679688 164.628906 C 263.847656 129.574219 196.007812 104.738281 167.625 104.738281 Z M 241 228.921875 C 220.988281 250.777344 193.738281 263.835938 168.050781 263.835938 C 167.765625 263.835938 167.339844 263.835938 167.058594 263.835938 C 148.75 263.550781 124.054688 250.210938 102.765625 228.777344 C 81.621094 207.492188 68.136719 182.9375 67.851562 164.628906 C 67.710938 154.554688 71.683594 145.328125 79.492188 137.097656 C 88.148438 128.15625 100.496094 121.484375 113.550781 116.660156 C 104.46875 120.066406 96.097656 124.75 89.425781 131.136719 C 81.476562 138.941406 77.503906 148.167969 77.644531 158.8125 C 77.789062 177.546875 89.285156 200.109375 107.734375 217.851562 C 124.195312 233.746094 143.214844 242.6875 160.101562 242.6875 C 160.527344 242.6875 161.097656 242.6875 161.523438 242.6875 C 185.082031 241.976562 209.066406 230.625 225.527344 212.316406 C 239.722656 196.703125 246.675781 177.6875 245.398438 158.8125 C 242.84375 122.90625 187.777344 109.5625 161.523438 108.710938 C 151.304688 108.570312 133.421875 109.988281 116.675781 115.667969 C 135.976562 108.996094 155.988281 106.300781 166.914062 106.15625 C 182.101562 106.015625 206.371094 112.828125 225.953125 122.761719 C 240.003906 129.859375 263.992188 144.761719 265.976562 164.773438 C 268.246094 185.777344 259.023438 209.195312 241 228.921875 Z M 90.417969 132.273438 C 108.441406 114.671875 141.511719 110.273438 158.683594 110.273438 C 159.675781 110.273438 160.527344 110.273438 161.523438 110.273438 C 173.585938 110.699219 193.878906 113.964844 211.621094 121.910156 C 225.671875 128.296875 242.703125 139.9375 244.121094 158.953125 C 245.398438 177.402344 238.585938 195.996094 224.679688 211.464844 C 208.355469 229.488281 184.796875 240.699219 161.664062 241.410156 C 144.773438 241.976562 125.617188 233.035156 108.867188 217 C 90.703125 199.542969 79.347656 177.261719 79.207031 158.953125 C 79.066406 148.734375 82.898438 139.792969 90.417969 132.273438 Z M 114.402344 116.519531 C 114.972656 116.375 115.539062 116.09375 115.964844 115.949219 C 115.398438 116.09375 114.972656 116.375 114.402344 116.519531 Z M 114.402344 116.519531 " fill-opacity="1" fill-rule="nonzero"/><path fill="#2da2dc" d="M 155.988281 220.691406 C 156.128906 220.691406 156.269531 220.691406 156.414062 220.691406 C 174.863281 220.546875 193.027344 212.457031 206.085938 198.550781 C 218.148438 185.777344 224.394531 169.738281 223.542969 153.417969 C 222.832031 139.792969 214.035156 128.441406 198.136719 120.777344 C 186.214844 115.097656 170.605469 111.550781 156.269531 111.410156 C 137.113281 111.265625 111.992188 115.667969 98.652344 129.007812 C 92.121094 135.535156 88.859375 143.765625 89 153.417969 C 89.566406 186.910156 123.203125 220.691406 155.988281 220.691406 Z M 99.785156 130.144531 C 112.417969 117.371094 136.402344 112.828125 154.992188 112.828125 C 155.417969 112.828125 155.84375 112.828125 156.269531 112.828125 C 180.964844 113.113281 220.703125 124.464844 222.125 153.417969 C 222.976562 169.3125 216.871094 184.925781 204.949219 197.414062 C 192.035156 211.039062 174.296875 218.988281 156.269531 219.128906 C 156.128906 219.128906 155.988281 219.128906 155.84375 219.128906 C 123.914062 219.128906 90.84375 186.058594 90.417969 153.277344 C 90.417969 144.191406 93.542969 136.386719 99.785156 130.144531 Z M 99.785156 130.144531 " fill-opacity="1" fill-rule="nonzero"/><path fill="#2da2dc" d="M 151.730469 199.117188 C 151.871094 199.117188 152.011719 199.117188 152.15625 199.117188 C 164.929688 199.117188 177.984375 193.441406 187.636719 183.503906 C 197.285156 173.714844 202.539062 160.941406 202.253906 148.449219 C 201.96875 137.238281 195.726562 127.871094 183.945312 121.628906 C 175.003906 116.800781 162.941406 113.964844 151.730469 113.964844 C 151.730469 113.964844 151.730469 113.964844 151.585938 113.964844 C 137.539062 113.964844 118.945312 118.648438 108.726562 129.007812 C 103.476562 134.402344 100.78125 140.929688 100.921875 148.308594 C 101.632812 173.855469 126.609375 198.976562 151.730469 199.117188 Z M 109.863281 130.144531 C 119.796875 120.066406 137.964844 115.523438 151.730469 115.523438 C 151.730469 115.523438 151.730469 115.523438 151.871094 115.523438 C 170.605469 115.523438 200.410156 124.464844 200.976562 148.59375 C 201.261719 160.796875 196.007812 173.144531 186.785156 182.65625 C 177.132812 192.445312 164.359375 197.980469 151.871094 197.839844 C 128.027344 197.554688 103.191406 172.71875 102.625 148.59375 C 102.339844 141.496094 104.894531 135.394531 109.863281 130.144531 Z M 109.863281 130.144531 " fill-opacity="1" fill-rule="nonzero"/><path fill="#2da2dc" d="M 147.613281 178.539062 C 147.753906 178.539062 147.898438 178.539062 148.039062 178.539062 C 166.914062 178.398438 182.101562 163.070312 181.960938 144.617188 C 181.960938 136.386719 177.84375 129.574219 170.464844 124.890625 C 164.359375 121.058594 156.269531 118.789062 148.039062 118.789062 C 139.523438 118.648438 127.886719 121.058594 120.648438 128.441406 C 116.25 132.839844 113.976562 138.375 114.121094 144.761719 C 114.261719 153.84375 117.808594 162.359375 124.195312 168.746094 C 130.300781 174.992188 138.671875 178.539062 147.613281 178.539062 Z M 121.5 129.292969 C 128.3125 122.480469 139.242188 120.066406 147.328125 120.066406 C 147.472656 120.066406 147.753906 120.066406 147.898438 120.066406 C 170.179688 120.351562 180.398438 132.980469 180.398438 144.476562 C 180.539062 162.21875 165.921875 176.835938 147.898438 176.976562 C 139.242188 177.121094 131.152344 173.714844 125.046875 167.46875 C 118.945312 161.222656 115.539062 153.132812 115.398438 144.476562 C 115.253906 138.515625 117.382812 133.40625 121.5 129.292969 Z M 121.5 129.292969 " fill-opacity="1" fill-rule="nonzero"/><path fill="#2da2dc" d="M 145.199219 159.238281 C 145.199219 159.238281 145.34375 159.238281 145.34375 159.238281 C 150.027344 159.238281 154.566406 157.25 157.832031 153.84375 C 160.953125 150.578125 162.65625 146.320312 162.65625 141.78125 C 162.515625 132.699219 155.703125 126.738281 145.34375 126.738281 C 134.984375 126.59375 128.171875 132.554688 128.027344 141.78125 C 128.027344 146.464844 129.730469 150.863281 132.996094 154.128906 C 136.261719 157.390625 140.519531 159.238281 145.199219 159.238281 Z M 145.199219 128.15625 C 145.34375 128.15625 145.34375 128.15625 145.484375 128.15625 C 155.136719 128.296875 161.238281 133.550781 161.378906 141.78125 C 161.378906 145.894531 159.820312 149.871094 156.980469 152.851562 C 154 155.972656 149.742188 157.675781 145.484375 157.675781 C 141.226562 157.675781 137.113281 156.113281 134.132812 152.992188 C 131.152344 150.011719 129.589844 146.039062 129.589844 141.78125 C 129.589844 133.550781 135.691406 128.15625 145.199219 128.15625 Z M 145.199219 128.15625 " fill-opacity="1" fill-rule="nonzero"/></g></g></g></svg>